G04 #@! TF.GenerationSoftware,KiCad,Pcbnew,(5.1.5)-3*
G04 #@! TF.CreationDate,2020-08-06T15:18:22+10:00*
G04 #@! TF.ProjectId,USART_BoSL_Bus,55534152-545f-4426-9f53-4c5f4275732e,rev 0.1.1*
G04 #@! TF.SameCoordinates,Original*
G04 #@! TF.FileFunction,Legend,Bot*
G04 #@! TF.FilePolarity,Positive*
%FSLAX46Y46*%
G04 Gerber Fmt 4.6, Leading zero omitted, Abs format (unit mm)*
G04 Created by KiCad (PCBNEW (5.1.5)-3) date 2020-08-06 15:18:22*
%MOMM*%
%LPD*%
G04 APERTURE LIST*
%ADD10C,0.150000*%
%ADD11C,0.120000*%
%ADD12C,0.125000*%
G04 APERTURE END LIST*
D10*
X149449523Y-121952380D02*
X149449523Y-120952380D01*
X149068571Y-120952380D01*
X148973333Y-121000000D01*
X148925714Y-121047619D01*
X148878095Y-121142857D01*
X148878095Y-121285714D01*
X148925714Y-121380952D01*
X148973333Y-121428571D01*
X149068571Y-121476190D01*
X149449523Y-121476190D01*
X147925714Y-121000000D02*
X148020952Y-120952380D01*
X148163809Y-120952380D01*
X148306666Y-121000000D01*
X148401904Y-121095238D01*
X148449523Y-121190476D01*
X148497142Y-121380952D01*
X148497142Y-121523809D01*
X148449523Y-121714285D01*
X148401904Y-121809523D01*
X148306666Y-121904761D01*
X148163809Y-121952380D01*
X148068571Y-121952380D01*
X147925714Y-121904761D01*
X147878095Y-121857142D01*
X147878095Y-121523809D01*
X148068571Y-121523809D01*
X146878095Y-121952380D02*
X147211428Y-121476190D01*
X147449523Y-121952380D02*
X147449523Y-120952380D01*
X147068571Y-120952380D01*
X146973333Y-121000000D01*
X146925714Y-121047619D01*
X146878095Y-121142857D01*
X146878095Y-121285714D01*
X146925714Y-121380952D01*
X146973333Y-121428571D01*
X147068571Y-121476190D01*
X147449523Y-121476190D01*
X146449523Y-121952380D02*
X146449523Y-120952380D01*
X146116190Y-121666666D01*
X145782857Y-120952380D01*
X145782857Y-121952380D01*
X145306666Y-121857142D02*
X145259047Y-121904761D01*
X145306666Y-121952380D01*
X145354285Y-121904761D01*
X145306666Y-121857142D01*
X145306666Y-121952380D01*
X145306666Y-121333333D02*
X145259047Y-121380952D01*
X145306666Y-121428571D01*
X145354285Y-121380952D01*
X145306666Y-121333333D01*
X145306666Y-121428571D01*
X144211428Y-120952380D02*
X143640000Y-120952380D01*
X143925714Y-121952380D02*
X143925714Y-120952380D01*
X143401904Y-120952380D02*
X142735238Y-121952380D01*
X142735238Y-120952380D02*
X143401904Y-121952380D01*
D11*
X140840000Y-120100000D02*
X141240000Y-120500000D01*
X140840000Y-120100000D02*
X140440000Y-120500000D01*
X141240000Y-121500000D02*
X142240000Y-121500000D01*
X140840000Y-121100000D02*
X141240000Y-121500000D01*
X140840000Y-120100000D02*
X140840000Y-121100000D01*
D10*
X133380857Y-114244380D02*
X133714190Y-113768190D01*
X133952285Y-114244380D02*
X133952285Y-113244380D01*
X133571333Y-113244380D01*
X133476095Y-113292000D01*
X133428476Y-113339619D01*
X133380857Y-113434857D01*
X133380857Y-113577714D01*
X133428476Y-113672952D01*
X133476095Y-113720571D01*
X133571333Y-113768190D01*
X133952285Y-113768190D01*
X132952285Y-113720571D02*
X132618952Y-113720571D01*
X132476095Y-114244380D02*
X132952285Y-114244380D01*
X132952285Y-113244380D01*
X132476095Y-113244380D01*
X141962761Y-113244380D02*
X141772285Y-114244380D01*
X141619904Y-113530095D01*
X141467523Y-114244380D01*
X141277047Y-113244380D01*
X140972285Y-114244380D02*
X140972285Y-113244380D01*
X140515142Y-114244380D02*
X140858000Y-113672952D01*
X140515142Y-113244380D02*
X140972285Y-113815809D01*
X140172285Y-113720571D02*
X139905619Y-113720571D01*
X139791333Y-114244380D02*
X140172285Y-114244380D01*
X140172285Y-113244380D01*
X139791333Y-113244380D01*
D12*
X138756095Y-113580690D02*
X139022761Y-113342595D01*
X139213238Y-113580690D02*
X139213238Y-113080690D01*
X138908476Y-113080690D01*
X138832285Y-113104500D01*
X138794190Y-113128309D01*
X138756095Y-113175928D01*
X138756095Y-113247357D01*
X138794190Y-113294976D01*
X138832285Y-113318785D01*
X138908476Y-113342595D01*
X139213238Y-113342595D01*
X138451333Y-113556880D02*
X138337047Y-113580690D01*
X138146571Y-113580690D01*
X138070380Y-113556880D01*
X138032285Y-113533071D01*
X137994190Y-113485452D01*
X137994190Y-113437833D01*
X138032285Y-113390214D01*
X138070380Y-113366404D01*
X138146571Y-113342595D01*
X138298952Y-113318785D01*
X138375142Y-113294976D01*
X138413238Y-113271166D01*
X138451333Y-113223547D01*
X138451333Y-113175928D01*
X138413238Y-113128309D01*
X138375142Y-113104500D01*
X138298952Y-113080690D01*
X138108476Y-113080690D01*
X137994190Y-113104500D01*
X137765619Y-113080690D02*
X137308476Y-113080690D01*
X137537047Y-113580690D02*
X137537047Y-113080690D01*
X138698952Y-113931880D02*
X139384666Y-114574738D01*
X138051333Y-113955690D02*
X138432285Y-113955690D01*
X138470380Y-114193785D01*
X138432285Y-114169976D01*
X138356095Y-114146166D01*
X138165619Y-114146166D01*
X138089428Y-114169976D01*
X138051333Y-114193785D01*
X138013238Y-114241404D01*
X138013238Y-114360452D01*
X138051333Y-114408071D01*
X138089428Y-114431880D01*
X138165619Y-114455690D01*
X138356095Y-114455690D01*
X138432285Y-114431880D01*
X138470380Y-114408071D01*
X137784666Y-113955690D02*
X137518000Y-114455690D01*
X137251333Y-113955690D01*
D10*
X136492285Y-114244380D02*
X136492285Y-113244380D01*
X136254190Y-113244380D01*
X136111333Y-113292000D01*
X136016095Y-113387238D01*
X135968476Y-113482476D01*
X135920857Y-113672952D01*
X135920857Y-113815809D01*
X135968476Y-114006285D01*
X136016095Y-114101523D01*
X136111333Y-114196761D01*
X136254190Y-114244380D01*
X136492285Y-114244380D01*
X135492285Y-113720571D02*
X135158952Y-113720571D01*
X135016095Y-114244380D02*
X135492285Y-114244380D01*
X135492285Y-113244380D01*
X135016095Y-113244380D01*
X144159904Y-113244380D02*
X143588476Y-113244380D01*
X143874190Y-114244380D02*
X143874190Y-113244380D01*
X143350380Y-113244380D02*
X142683714Y-114244380D01*
X142683714Y-113244380D02*
X143350380Y-114244380D01*
X146104666Y-114244380D02*
X146438000Y-113768190D01*
X146676095Y-114244380D02*
X146676095Y-113244380D01*
X146295142Y-113244380D01*
X146199904Y-113292000D01*
X146152285Y-113339619D01*
X146104666Y-113434857D01*
X146104666Y-113577714D01*
X146152285Y-113672952D01*
X146199904Y-113720571D01*
X146295142Y-113768190D01*
X146676095Y-113768190D01*
X145771333Y-113244380D02*
X145104666Y-114244380D01*
X145104666Y-113244380D02*
X145771333Y-114244380D01*
X149468476Y-113244380D02*
X148973238Y-113244380D01*
X149239904Y-113625333D01*
X149125619Y-113625333D01*
X149049428Y-113672952D01*
X149011333Y-113720571D01*
X148973238Y-113815809D01*
X148973238Y-114053904D01*
X149011333Y-114149142D01*
X149049428Y-114196761D01*
X149125619Y-114244380D01*
X149354190Y-114244380D01*
X149430380Y-114196761D01*
X149468476Y-114149142D01*
X148744666Y-113244380D02*
X148478000Y-114244380D01*
X148211333Y-113244380D01*
X148020857Y-113244380D02*
X147525619Y-113244380D01*
X147792285Y-113625333D01*
X147678000Y-113625333D01*
X147601809Y-113672952D01*
X147563714Y-113720571D01*
X147525619Y-113815809D01*
X147525619Y-114053904D01*
X147563714Y-114149142D01*
X147601809Y-114196761D01*
X147678000Y-114244380D01*
X147906571Y-114244380D01*
X147982761Y-114196761D01*
X148020857Y-114149142D01*
X151627523Y-113292000D02*
X151703714Y-113244380D01*
X151818000Y-113244380D01*
X151932285Y-113292000D01*
X152008476Y-113387238D01*
X152046571Y-113482476D01*
X152084666Y-113672952D01*
X152084666Y-113815809D01*
X152046571Y-114006285D01*
X152008476Y-114101523D01*
X151932285Y-114196761D01*
X151818000Y-114244380D01*
X151741809Y-114244380D01*
X151627523Y-114196761D01*
X151589428Y-114149142D01*
X151589428Y-113815809D01*
X151741809Y-113815809D01*
X151246571Y-114244380D02*
X151246571Y-113244380D01*
X150789428Y-114244380D01*
X150789428Y-113244380D01*
X150408476Y-114244380D02*
X150408476Y-113244380D01*
X150218000Y-113244380D01*
X150103714Y-113292000D01*
X150027523Y-113387238D01*
X149989428Y-113482476D01*
X149951333Y-113672952D01*
X149951333Y-113815809D01*
X149989428Y-114006285D01*
X150027523Y-114101523D01*
X150103714Y-114196761D01*
X150218000Y-114244380D01*
X150408476Y-114244380D01*
X147785714Y-128626380D02*
X147785714Y-127626380D01*
X147785714Y-128102571D02*
X147214285Y-128102571D01*
X147214285Y-128626380D02*
X147214285Y-127626380D01*
X146404761Y-128102571D02*
X146261904Y-128150190D01*
X146214285Y-128197809D01*
X146166666Y-128293047D01*
X146166666Y-128435904D01*
X146214285Y-128531142D01*
X146261904Y-128578761D01*
X146357142Y-128626380D01*
X146738095Y-128626380D01*
X146738095Y-127626380D01*
X146404761Y-127626380D01*
X146309523Y-127674000D01*
X146261904Y-127721619D01*
X146214285Y-127816857D01*
X146214285Y-127912095D01*
X146261904Y-128007333D01*
X146309523Y-128054952D01*
X146404761Y-128102571D01*
X146738095Y-128102571D01*
X133809523Y-128594380D02*
X133809523Y-127594380D01*
X133809523Y-128070571D02*
X133238095Y-128070571D01*
X133238095Y-128594380D02*
X133238095Y-127594380D01*
X132571428Y-127594380D02*
X132380952Y-127594380D01*
X132285714Y-127642000D01*
X132190476Y-127737238D01*
X132142857Y-127927714D01*
X132142857Y-128261047D01*
X132190476Y-128451523D01*
X132285714Y-128546761D01*
X132380952Y-128594380D01*
X132571428Y-128594380D01*
X132666666Y-128546761D01*
X132761904Y-128451523D01*
X132809523Y-128261047D01*
X132809523Y-127927714D01*
X132761904Y-127737238D01*
X132666666Y-127642000D01*
X132571428Y-127594380D01*
X136595238Y-127594380D02*
X136404761Y-127594380D01*
X136309523Y-127642000D01*
X136214285Y-127737238D01*
X136166666Y-127927714D01*
X136166666Y-128261047D01*
X136214285Y-128451523D01*
X136309523Y-128546761D01*
X136404761Y-128594380D01*
X136595238Y-128594380D01*
X136690476Y-128546761D01*
X136785714Y-128451523D01*
X136833333Y-128261047D01*
X136833333Y-127927714D01*
X136785714Y-127737238D01*
X136690476Y-127642000D01*
X136595238Y-127594380D01*
X140785714Y-128626380D02*
X140785714Y-127626380D01*
X140785714Y-128102571D02*
X140214285Y-128102571D01*
X140214285Y-128626380D02*
X140214285Y-127626380D01*
X139214285Y-127674000D02*
X139309523Y-127626380D01*
X139452380Y-127626380D01*
X139595238Y-127674000D01*
X139690476Y-127769238D01*
X139738095Y-127864476D01*
X139785714Y-128054952D01*
X139785714Y-128197809D01*
X139738095Y-128388285D01*
X139690476Y-128483523D01*
X139595238Y-128578761D01*
X139452380Y-128626380D01*
X139357142Y-128626380D01*
X139214285Y-128578761D01*
X139166666Y-128531142D01*
X139166666Y-128197809D01*
X139357142Y-128197809D01*
X143238095Y-127674000D02*
X143333333Y-127626380D01*
X143476190Y-127626380D01*
X143619047Y-127674000D01*
X143714285Y-127769238D01*
X143761904Y-127864476D01*
X143809523Y-128054952D01*
X143809523Y-128197809D01*
X143761904Y-128388285D01*
X143714285Y-128483523D01*
X143619047Y-128578761D01*
X143476190Y-128626380D01*
X143380952Y-128626380D01*
X143238095Y-128578761D01*
X143190476Y-128531142D01*
X143190476Y-128197809D01*
X143380952Y-128197809D01*
X150428571Y-128070571D02*
X150285714Y-128118190D01*
X150238095Y-128165809D01*
X150190476Y-128261047D01*
X150190476Y-128403904D01*
X150238095Y-128499142D01*
X150285714Y-128546761D01*
X150380952Y-128594380D01*
X150761904Y-128594380D01*
X150761904Y-127594380D01*
X150428571Y-127594380D01*
X150333333Y-127642000D01*
X150285714Y-127689619D01*
X150238095Y-127784857D01*
X150238095Y-127880095D01*
X150285714Y-127975333D01*
X150333333Y-128022952D01*
X150428571Y-128070571D01*
X150761904Y-128070571D01*
X107053571Y-118412000D02*
X107101190Y-118554857D01*
X107148809Y-118602476D01*
X107244047Y-118650095D01*
X107386904Y-118650095D01*
X107482142Y-118602476D01*
X107529761Y-118554857D01*
X107577380Y-118459619D01*
X107577380Y-118078666D01*
X106577380Y-118078666D01*
X106577380Y-118412000D01*
X106625000Y-118507238D01*
X106672619Y-118554857D01*
X106767857Y-118602476D01*
X106863095Y-118602476D01*
X106958333Y-118554857D01*
X107005952Y-118507238D01*
X107053571Y-118412000D01*
X107053571Y-118078666D01*
X107577380Y-119221523D02*
X107529761Y-119126285D01*
X107482142Y-119078666D01*
X107386904Y-119031047D01*
X107101190Y-119031047D01*
X107005952Y-119078666D01*
X106958333Y-119126285D01*
X106910714Y-119221523D01*
X106910714Y-119364380D01*
X106958333Y-119459619D01*
X107005952Y-119507238D01*
X107101190Y-119554857D01*
X107386904Y-119554857D01*
X107482142Y-119507238D01*
X107529761Y-119459619D01*
X107577380Y-119364380D01*
X107577380Y-119221523D01*
X107529761Y-119935809D02*
X107577380Y-120078666D01*
X107577380Y-120316761D01*
X107529761Y-120412000D01*
X107482142Y-120459619D01*
X107386904Y-120507238D01*
X107291666Y-120507238D01*
X107196428Y-120459619D01*
X107148809Y-120412000D01*
X107101190Y-120316761D01*
X107053571Y-120126285D01*
X107005952Y-120031047D01*
X106958333Y-119983428D01*
X106863095Y-119935809D01*
X106767857Y-119935809D01*
X106672619Y-119983428D01*
X106625000Y-120031047D01*
X106577380Y-120126285D01*
X106577380Y-120364380D01*
X106625000Y-120507238D01*
X107577380Y-121412000D02*
X107577380Y-120935809D01*
X106577380Y-120935809D01*
X107053571Y-122840571D02*
X107101190Y-122983428D01*
X107148809Y-123031047D01*
X107244047Y-123078666D01*
X107386904Y-123078666D01*
X107482142Y-123031047D01*
X107529761Y-122983428D01*
X107577380Y-122888190D01*
X107577380Y-122507238D01*
X106577380Y-122507238D01*
X106577380Y-122840571D01*
X106625000Y-122935809D01*
X106672619Y-122983428D01*
X106767857Y-123031047D01*
X106863095Y-123031047D01*
X106958333Y-122983428D01*
X107005952Y-122935809D01*
X107053571Y-122840571D01*
X107053571Y-122507238D01*
X106910714Y-123935809D02*
X107577380Y-123935809D01*
X106910714Y-123507238D02*
X107434523Y-123507238D01*
X107529761Y-123554857D01*
X107577380Y-123650095D01*
X107577380Y-123792952D01*
X107529761Y-123888190D01*
X107482142Y-123935809D01*
X107529761Y-124364380D02*
X107577380Y-124459619D01*
X107577380Y-124650095D01*
X107529761Y-124745333D01*
X107434523Y-124792952D01*
X107386904Y-124792952D01*
X107291666Y-124745333D01*
X107244047Y-124650095D01*
X107244047Y-124507238D01*
X107196428Y-124412000D01*
X107101190Y-124364380D01*
X107053571Y-124364380D01*
X106958333Y-124412000D01*
X106910714Y-124507238D01*
X106910714Y-124650095D01*
X106958333Y-124745333D01*
X109227380Y-118245333D02*
X108560714Y-118245333D01*
X108751190Y-118245333D02*
X108655952Y-118292952D01*
X108608333Y-118340571D01*
X108560714Y-118435809D01*
X108560714Y-118531047D01*
X109179761Y-119245333D02*
X109227380Y-119150095D01*
X109227380Y-118959619D01*
X109179761Y-118864380D01*
X109084523Y-118816761D01*
X108703571Y-118816761D01*
X108608333Y-118864380D01*
X108560714Y-118959619D01*
X108560714Y-119150095D01*
X108608333Y-119245333D01*
X108703571Y-119292952D01*
X108798809Y-119292952D01*
X108894047Y-118816761D01*
X108560714Y-119626285D02*
X109227380Y-119864380D01*
X108560714Y-120102476D01*
X108227380Y-121435809D02*
X108227380Y-121531047D01*
X108275000Y-121626285D01*
X108322619Y-121673904D01*
X108417857Y-121721523D01*
X108608333Y-121769142D01*
X108846428Y-121769142D01*
X109036904Y-121721523D01*
X109132142Y-121673904D01*
X109179761Y-121626285D01*
X109227380Y-121531047D01*
X109227380Y-121435809D01*
X109179761Y-121340571D01*
X109132142Y-121292952D01*
X109036904Y-121245333D01*
X108846428Y-121197714D01*
X108608333Y-121197714D01*
X108417857Y-121245333D01*
X108322619Y-121292952D01*
X108275000Y-121340571D01*
X108227380Y-121435809D01*
X109132142Y-122197714D02*
X109179761Y-122245333D01*
X109227380Y-122197714D01*
X109179761Y-122150095D01*
X109132142Y-122197714D01*
X109227380Y-122197714D01*
X109227380Y-123197714D02*
X109227380Y-122626285D01*
X109227380Y-122912000D02*
X108227380Y-122912000D01*
X108370238Y-122816761D01*
X108465476Y-122721523D01*
X108513095Y-122626285D01*
X109132142Y-123626285D02*
X109179761Y-123673904D01*
X109227380Y-123626285D01*
X109179761Y-123578666D01*
X109132142Y-123626285D01*
X109227380Y-123626285D01*
X109227380Y-124626285D02*
X109227380Y-124054857D01*
X109227380Y-124340571D02*
X108227380Y-124340571D01*
X108370238Y-124245333D01*
X108465476Y-124150095D01*
X108513095Y-124054857D01*
M02*
