G04 #@! TF.GenerationSoftware,KiCad,Pcbnew,(5.1.5)-3*
G04 #@! TF.CreationDate,2020-07-22T19:36:44+10:00*
G04 #@! TF.ProjectId,USART_BoSL_Bus,55534152-545f-4426-9f53-4c5f4275732e,rev?*
G04 #@! TF.SameCoordinates,Original*
G04 #@! TF.FileFunction,Copper,L2,Bot*
G04 #@! TF.FilePolarity,Positive*
%FSLAX46Y46*%
G04 Gerber Fmt 4.6, Leading zero omitted, Abs format (unit mm)*
G04 Created by KiCad (PCBNEW (5.1.5)-3) date 2020-07-22 19:36:44*
%MOMM*%
%LPD*%
G04 APERTURE LIST*
%ADD10O,1.700000X1.700000*%
%ADD11R,1.700000X1.700000*%
%ADD12C,0.150000*%
%ADD13R,1.520000X1.520000*%
%ADD14C,1.520000*%
%ADD15C,0.800000*%
%ADD16C,0.800000*%
%ADD17C,0.400000*%
%ADD18C,0.254000*%
G04 APERTURE END LIST*
D10*
X145161000Y-126746000D03*
X142621000Y-126746000D03*
X140081000Y-126746000D03*
X137541000Y-126746000D03*
X135001000Y-126746000D03*
D11*
X132461000Y-126746000D03*
G04 #@! TA.AperFunction,SMDPad,CuDef*
D12*
G36*
X126021703Y-125960722D02*
G01*
X126036264Y-125962882D01*
X126050543Y-125966459D01*
X126064403Y-125971418D01*
X126077710Y-125977712D01*
X126090336Y-125985280D01*
X126102159Y-125994048D01*
X126113066Y-126003934D01*
X126122952Y-126014841D01*
X126131720Y-126026664D01*
X126139288Y-126039290D01*
X126145582Y-126052597D01*
X126150541Y-126066457D01*
X126154118Y-126080736D01*
X126156278Y-126095297D01*
X126157000Y-126110000D01*
X126157000Y-127760000D01*
X126156278Y-127774703D01*
X126154118Y-127789264D01*
X126150541Y-127803543D01*
X126145582Y-127817403D01*
X126139288Y-127830710D01*
X126131720Y-127843336D01*
X126122952Y-127855159D01*
X126113066Y-127866066D01*
X126102159Y-127875952D01*
X126090336Y-127884720D01*
X126077710Y-127892288D01*
X126064403Y-127898582D01*
X126050543Y-127903541D01*
X126036264Y-127907118D01*
X126021703Y-127909278D01*
X126007000Y-127910000D01*
X125707000Y-127910000D01*
X125692297Y-127909278D01*
X125677736Y-127907118D01*
X125663457Y-127903541D01*
X125649597Y-127898582D01*
X125636290Y-127892288D01*
X125623664Y-127884720D01*
X125611841Y-127875952D01*
X125600934Y-127866066D01*
X125591048Y-127855159D01*
X125582280Y-127843336D01*
X125574712Y-127830710D01*
X125568418Y-127817403D01*
X125563459Y-127803543D01*
X125559882Y-127789264D01*
X125557722Y-127774703D01*
X125557000Y-127760000D01*
X125557000Y-126110000D01*
X125557722Y-126095297D01*
X125559882Y-126080736D01*
X125563459Y-126066457D01*
X125568418Y-126052597D01*
X125574712Y-126039290D01*
X125582280Y-126026664D01*
X125591048Y-126014841D01*
X125600934Y-126003934D01*
X125611841Y-125994048D01*
X125623664Y-125985280D01*
X125636290Y-125977712D01*
X125649597Y-125971418D01*
X125663457Y-125966459D01*
X125677736Y-125962882D01*
X125692297Y-125960722D01*
X125707000Y-125960000D01*
X126007000Y-125960000D01*
X126021703Y-125960722D01*
G37*
G04 #@! TD.AperFunction*
G04 #@! TA.AperFunction,SMDPad,CuDef*
G36*
X127291703Y-125960722D02*
G01*
X127306264Y-125962882D01*
X127320543Y-125966459D01*
X127334403Y-125971418D01*
X127347710Y-125977712D01*
X127360336Y-125985280D01*
X127372159Y-125994048D01*
X127383066Y-126003934D01*
X127392952Y-126014841D01*
X127401720Y-126026664D01*
X127409288Y-126039290D01*
X127415582Y-126052597D01*
X127420541Y-126066457D01*
X127424118Y-126080736D01*
X127426278Y-126095297D01*
X127427000Y-126110000D01*
X127427000Y-127760000D01*
X127426278Y-127774703D01*
X127424118Y-127789264D01*
X127420541Y-127803543D01*
X127415582Y-127817403D01*
X127409288Y-127830710D01*
X127401720Y-127843336D01*
X127392952Y-127855159D01*
X127383066Y-127866066D01*
X127372159Y-127875952D01*
X127360336Y-127884720D01*
X127347710Y-127892288D01*
X127334403Y-127898582D01*
X127320543Y-127903541D01*
X127306264Y-127907118D01*
X127291703Y-127909278D01*
X127277000Y-127910000D01*
X126977000Y-127910000D01*
X126962297Y-127909278D01*
X126947736Y-127907118D01*
X126933457Y-127903541D01*
X126919597Y-127898582D01*
X126906290Y-127892288D01*
X126893664Y-127884720D01*
X126881841Y-127875952D01*
X126870934Y-127866066D01*
X126861048Y-127855159D01*
X126852280Y-127843336D01*
X126844712Y-127830710D01*
X126838418Y-127817403D01*
X126833459Y-127803543D01*
X126829882Y-127789264D01*
X126827722Y-127774703D01*
X126827000Y-127760000D01*
X126827000Y-126110000D01*
X126827722Y-126095297D01*
X126829882Y-126080736D01*
X126833459Y-126066457D01*
X126838418Y-126052597D01*
X126844712Y-126039290D01*
X126852280Y-126026664D01*
X126861048Y-126014841D01*
X126870934Y-126003934D01*
X126881841Y-125994048D01*
X126893664Y-125985280D01*
X126906290Y-125977712D01*
X126919597Y-125971418D01*
X126933457Y-125966459D01*
X126947736Y-125962882D01*
X126962297Y-125960722D01*
X126977000Y-125960000D01*
X127277000Y-125960000D01*
X127291703Y-125960722D01*
G37*
G04 #@! TD.AperFunction*
G04 #@! TA.AperFunction,SMDPad,CuDef*
G36*
X128561703Y-125960722D02*
G01*
X128576264Y-125962882D01*
X128590543Y-125966459D01*
X128604403Y-125971418D01*
X128617710Y-125977712D01*
X128630336Y-125985280D01*
X128642159Y-125994048D01*
X128653066Y-126003934D01*
X128662952Y-126014841D01*
X128671720Y-126026664D01*
X128679288Y-126039290D01*
X128685582Y-126052597D01*
X128690541Y-126066457D01*
X128694118Y-126080736D01*
X128696278Y-126095297D01*
X128697000Y-126110000D01*
X128697000Y-127760000D01*
X128696278Y-127774703D01*
X128694118Y-127789264D01*
X128690541Y-127803543D01*
X128685582Y-127817403D01*
X128679288Y-127830710D01*
X128671720Y-127843336D01*
X128662952Y-127855159D01*
X128653066Y-127866066D01*
X128642159Y-127875952D01*
X128630336Y-127884720D01*
X128617710Y-127892288D01*
X128604403Y-127898582D01*
X128590543Y-127903541D01*
X128576264Y-127907118D01*
X128561703Y-127909278D01*
X128547000Y-127910000D01*
X128247000Y-127910000D01*
X128232297Y-127909278D01*
X128217736Y-127907118D01*
X128203457Y-127903541D01*
X128189597Y-127898582D01*
X128176290Y-127892288D01*
X128163664Y-127884720D01*
X128151841Y-127875952D01*
X128140934Y-127866066D01*
X128131048Y-127855159D01*
X128122280Y-127843336D01*
X128114712Y-127830710D01*
X128108418Y-127817403D01*
X128103459Y-127803543D01*
X128099882Y-127789264D01*
X128097722Y-127774703D01*
X128097000Y-127760000D01*
X128097000Y-126110000D01*
X128097722Y-126095297D01*
X128099882Y-126080736D01*
X128103459Y-126066457D01*
X128108418Y-126052597D01*
X128114712Y-126039290D01*
X128122280Y-126026664D01*
X128131048Y-126014841D01*
X128140934Y-126003934D01*
X128151841Y-125994048D01*
X128163664Y-125985280D01*
X128176290Y-125977712D01*
X128189597Y-125971418D01*
X128203457Y-125966459D01*
X128217736Y-125962882D01*
X128232297Y-125960722D01*
X128247000Y-125960000D01*
X128547000Y-125960000D01*
X128561703Y-125960722D01*
G37*
G04 #@! TD.AperFunction*
G04 #@! TA.AperFunction,SMDPad,CuDef*
G36*
X129831703Y-125960722D02*
G01*
X129846264Y-125962882D01*
X129860543Y-125966459D01*
X129874403Y-125971418D01*
X129887710Y-125977712D01*
X129900336Y-125985280D01*
X129912159Y-125994048D01*
X129923066Y-126003934D01*
X129932952Y-126014841D01*
X129941720Y-126026664D01*
X129949288Y-126039290D01*
X129955582Y-126052597D01*
X129960541Y-126066457D01*
X129964118Y-126080736D01*
X129966278Y-126095297D01*
X129967000Y-126110000D01*
X129967000Y-127760000D01*
X129966278Y-127774703D01*
X129964118Y-127789264D01*
X129960541Y-127803543D01*
X129955582Y-127817403D01*
X129949288Y-127830710D01*
X129941720Y-127843336D01*
X129932952Y-127855159D01*
X129923066Y-127866066D01*
X129912159Y-127875952D01*
X129900336Y-127884720D01*
X129887710Y-127892288D01*
X129874403Y-127898582D01*
X129860543Y-127903541D01*
X129846264Y-127907118D01*
X129831703Y-127909278D01*
X129817000Y-127910000D01*
X129517000Y-127910000D01*
X129502297Y-127909278D01*
X129487736Y-127907118D01*
X129473457Y-127903541D01*
X129459597Y-127898582D01*
X129446290Y-127892288D01*
X129433664Y-127884720D01*
X129421841Y-127875952D01*
X129410934Y-127866066D01*
X129401048Y-127855159D01*
X129392280Y-127843336D01*
X129384712Y-127830710D01*
X129378418Y-127817403D01*
X129373459Y-127803543D01*
X129369882Y-127789264D01*
X129367722Y-127774703D01*
X129367000Y-127760000D01*
X129367000Y-126110000D01*
X129367722Y-126095297D01*
X129369882Y-126080736D01*
X129373459Y-126066457D01*
X129378418Y-126052597D01*
X129384712Y-126039290D01*
X129392280Y-126026664D01*
X129401048Y-126014841D01*
X129410934Y-126003934D01*
X129421841Y-125994048D01*
X129433664Y-125985280D01*
X129446290Y-125977712D01*
X129459597Y-125971418D01*
X129473457Y-125966459D01*
X129487736Y-125962882D01*
X129502297Y-125960722D01*
X129517000Y-125960000D01*
X129817000Y-125960000D01*
X129831703Y-125960722D01*
G37*
G04 #@! TD.AperFunction*
G04 #@! TA.AperFunction,SMDPad,CuDef*
G36*
X129831703Y-121010722D02*
G01*
X129846264Y-121012882D01*
X129860543Y-121016459D01*
X129874403Y-121021418D01*
X129887710Y-121027712D01*
X129900336Y-121035280D01*
X129912159Y-121044048D01*
X129923066Y-121053934D01*
X129932952Y-121064841D01*
X129941720Y-121076664D01*
X129949288Y-121089290D01*
X129955582Y-121102597D01*
X129960541Y-121116457D01*
X129964118Y-121130736D01*
X129966278Y-121145297D01*
X129967000Y-121160000D01*
X129967000Y-122810000D01*
X129966278Y-122824703D01*
X129964118Y-122839264D01*
X129960541Y-122853543D01*
X129955582Y-122867403D01*
X129949288Y-122880710D01*
X129941720Y-122893336D01*
X129932952Y-122905159D01*
X129923066Y-122916066D01*
X129912159Y-122925952D01*
X129900336Y-122934720D01*
X129887710Y-122942288D01*
X129874403Y-122948582D01*
X129860543Y-122953541D01*
X129846264Y-122957118D01*
X129831703Y-122959278D01*
X129817000Y-122960000D01*
X129517000Y-122960000D01*
X129502297Y-122959278D01*
X129487736Y-122957118D01*
X129473457Y-122953541D01*
X129459597Y-122948582D01*
X129446290Y-122942288D01*
X129433664Y-122934720D01*
X129421841Y-122925952D01*
X129410934Y-122916066D01*
X129401048Y-122905159D01*
X129392280Y-122893336D01*
X129384712Y-122880710D01*
X129378418Y-122867403D01*
X129373459Y-122853543D01*
X129369882Y-122839264D01*
X129367722Y-122824703D01*
X129367000Y-122810000D01*
X129367000Y-121160000D01*
X129367722Y-121145297D01*
X129369882Y-121130736D01*
X129373459Y-121116457D01*
X129378418Y-121102597D01*
X129384712Y-121089290D01*
X129392280Y-121076664D01*
X129401048Y-121064841D01*
X129410934Y-121053934D01*
X129421841Y-121044048D01*
X129433664Y-121035280D01*
X129446290Y-121027712D01*
X129459597Y-121021418D01*
X129473457Y-121016459D01*
X129487736Y-121012882D01*
X129502297Y-121010722D01*
X129517000Y-121010000D01*
X129817000Y-121010000D01*
X129831703Y-121010722D01*
G37*
G04 #@! TD.AperFunction*
G04 #@! TA.AperFunction,SMDPad,CuDef*
G36*
X128561703Y-121010722D02*
G01*
X128576264Y-121012882D01*
X128590543Y-121016459D01*
X128604403Y-121021418D01*
X128617710Y-121027712D01*
X128630336Y-121035280D01*
X128642159Y-121044048D01*
X128653066Y-121053934D01*
X128662952Y-121064841D01*
X128671720Y-121076664D01*
X128679288Y-121089290D01*
X128685582Y-121102597D01*
X128690541Y-121116457D01*
X128694118Y-121130736D01*
X128696278Y-121145297D01*
X128697000Y-121160000D01*
X128697000Y-122810000D01*
X128696278Y-122824703D01*
X128694118Y-122839264D01*
X128690541Y-122853543D01*
X128685582Y-122867403D01*
X128679288Y-122880710D01*
X128671720Y-122893336D01*
X128662952Y-122905159D01*
X128653066Y-122916066D01*
X128642159Y-122925952D01*
X128630336Y-122934720D01*
X128617710Y-122942288D01*
X128604403Y-122948582D01*
X128590543Y-122953541D01*
X128576264Y-122957118D01*
X128561703Y-122959278D01*
X128547000Y-122960000D01*
X128247000Y-122960000D01*
X128232297Y-122959278D01*
X128217736Y-122957118D01*
X128203457Y-122953541D01*
X128189597Y-122948582D01*
X128176290Y-122942288D01*
X128163664Y-122934720D01*
X128151841Y-122925952D01*
X128140934Y-122916066D01*
X128131048Y-122905159D01*
X128122280Y-122893336D01*
X128114712Y-122880710D01*
X128108418Y-122867403D01*
X128103459Y-122853543D01*
X128099882Y-122839264D01*
X128097722Y-122824703D01*
X128097000Y-122810000D01*
X128097000Y-121160000D01*
X128097722Y-121145297D01*
X128099882Y-121130736D01*
X128103459Y-121116457D01*
X128108418Y-121102597D01*
X128114712Y-121089290D01*
X128122280Y-121076664D01*
X128131048Y-121064841D01*
X128140934Y-121053934D01*
X128151841Y-121044048D01*
X128163664Y-121035280D01*
X128176290Y-121027712D01*
X128189597Y-121021418D01*
X128203457Y-121016459D01*
X128217736Y-121012882D01*
X128232297Y-121010722D01*
X128247000Y-121010000D01*
X128547000Y-121010000D01*
X128561703Y-121010722D01*
G37*
G04 #@! TD.AperFunction*
G04 #@! TA.AperFunction,SMDPad,CuDef*
G36*
X127291703Y-121010722D02*
G01*
X127306264Y-121012882D01*
X127320543Y-121016459D01*
X127334403Y-121021418D01*
X127347710Y-121027712D01*
X127360336Y-121035280D01*
X127372159Y-121044048D01*
X127383066Y-121053934D01*
X127392952Y-121064841D01*
X127401720Y-121076664D01*
X127409288Y-121089290D01*
X127415582Y-121102597D01*
X127420541Y-121116457D01*
X127424118Y-121130736D01*
X127426278Y-121145297D01*
X127427000Y-121160000D01*
X127427000Y-122810000D01*
X127426278Y-122824703D01*
X127424118Y-122839264D01*
X127420541Y-122853543D01*
X127415582Y-122867403D01*
X127409288Y-122880710D01*
X127401720Y-122893336D01*
X127392952Y-122905159D01*
X127383066Y-122916066D01*
X127372159Y-122925952D01*
X127360336Y-122934720D01*
X127347710Y-122942288D01*
X127334403Y-122948582D01*
X127320543Y-122953541D01*
X127306264Y-122957118D01*
X127291703Y-122959278D01*
X127277000Y-122960000D01*
X126977000Y-122960000D01*
X126962297Y-122959278D01*
X126947736Y-122957118D01*
X126933457Y-122953541D01*
X126919597Y-122948582D01*
X126906290Y-122942288D01*
X126893664Y-122934720D01*
X126881841Y-122925952D01*
X126870934Y-122916066D01*
X126861048Y-122905159D01*
X126852280Y-122893336D01*
X126844712Y-122880710D01*
X126838418Y-122867403D01*
X126833459Y-122853543D01*
X126829882Y-122839264D01*
X126827722Y-122824703D01*
X126827000Y-122810000D01*
X126827000Y-121160000D01*
X126827722Y-121145297D01*
X126829882Y-121130736D01*
X126833459Y-121116457D01*
X126838418Y-121102597D01*
X126844712Y-121089290D01*
X126852280Y-121076664D01*
X126861048Y-121064841D01*
X126870934Y-121053934D01*
X126881841Y-121044048D01*
X126893664Y-121035280D01*
X126906290Y-121027712D01*
X126919597Y-121021418D01*
X126933457Y-121016459D01*
X126947736Y-121012882D01*
X126962297Y-121010722D01*
X126977000Y-121010000D01*
X127277000Y-121010000D01*
X127291703Y-121010722D01*
G37*
G04 #@! TD.AperFunction*
G04 #@! TA.AperFunction,SMDPad,CuDef*
G36*
X126021703Y-121010722D02*
G01*
X126036264Y-121012882D01*
X126050543Y-121016459D01*
X126064403Y-121021418D01*
X126077710Y-121027712D01*
X126090336Y-121035280D01*
X126102159Y-121044048D01*
X126113066Y-121053934D01*
X126122952Y-121064841D01*
X126131720Y-121076664D01*
X126139288Y-121089290D01*
X126145582Y-121102597D01*
X126150541Y-121116457D01*
X126154118Y-121130736D01*
X126156278Y-121145297D01*
X126157000Y-121160000D01*
X126157000Y-122810000D01*
X126156278Y-122824703D01*
X126154118Y-122839264D01*
X126150541Y-122853543D01*
X126145582Y-122867403D01*
X126139288Y-122880710D01*
X126131720Y-122893336D01*
X126122952Y-122905159D01*
X126113066Y-122916066D01*
X126102159Y-122925952D01*
X126090336Y-122934720D01*
X126077710Y-122942288D01*
X126064403Y-122948582D01*
X126050543Y-122953541D01*
X126036264Y-122957118D01*
X126021703Y-122959278D01*
X126007000Y-122960000D01*
X125707000Y-122960000D01*
X125692297Y-122959278D01*
X125677736Y-122957118D01*
X125663457Y-122953541D01*
X125649597Y-122948582D01*
X125636290Y-122942288D01*
X125623664Y-122934720D01*
X125611841Y-122925952D01*
X125600934Y-122916066D01*
X125591048Y-122905159D01*
X125582280Y-122893336D01*
X125574712Y-122880710D01*
X125568418Y-122867403D01*
X125563459Y-122853543D01*
X125559882Y-122839264D01*
X125557722Y-122824703D01*
X125557000Y-122810000D01*
X125557000Y-121160000D01*
X125557722Y-121145297D01*
X125559882Y-121130736D01*
X125563459Y-121116457D01*
X125568418Y-121102597D01*
X125574712Y-121089290D01*
X125582280Y-121076664D01*
X125591048Y-121064841D01*
X125600934Y-121053934D01*
X125611841Y-121044048D01*
X125623664Y-121035280D01*
X125636290Y-121027712D01*
X125649597Y-121021418D01*
X125663457Y-121016459D01*
X125677736Y-121012882D01*
X125692297Y-121010722D01*
X125707000Y-121010000D01*
X126007000Y-121010000D01*
X126021703Y-121010722D01*
G37*
G04 #@! TD.AperFunction*
G04 #@! TA.AperFunction,SMDPad,CuDef*
G36*
X123946924Y-124160427D02*
G01*
X123968159Y-124163577D01*
X123988983Y-124168793D01*
X124009195Y-124176025D01*
X124028601Y-124185204D01*
X124047014Y-124196240D01*
X124064257Y-124209028D01*
X124080163Y-124223444D01*
X124442556Y-124585837D01*
X124456972Y-124601743D01*
X124469760Y-124618986D01*
X124480796Y-124637399D01*
X124489975Y-124656805D01*
X124497207Y-124677017D01*
X124502423Y-124697841D01*
X124505573Y-124719076D01*
X124506626Y-124740517D01*
X124505573Y-124761958D01*
X124502423Y-124783193D01*
X124497207Y-124804017D01*
X124489975Y-124824229D01*
X124480796Y-124843635D01*
X124469760Y-124862048D01*
X124456972Y-124879291D01*
X124442556Y-124895197D01*
X124133197Y-125204556D01*
X124117291Y-125218972D01*
X124100048Y-125231760D01*
X124081635Y-125242796D01*
X124062229Y-125251975D01*
X124042017Y-125259207D01*
X124021193Y-125264423D01*
X123999958Y-125267573D01*
X123978517Y-125268626D01*
X123957076Y-125267573D01*
X123935841Y-125264423D01*
X123915017Y-125259207D01*
X123894805Y-125251975D01*
X123875399Y-125242796D01*
X123856986Y-125231760D01*
X123839743Y-125218972D01*
X123823837Y-125204556D01*
X123461444Y-124842163D01*
X123447028Y-124826257D01*
X123434240Y-124809014D01*
X123423204Y-124790601D01*
X123414025Y-124771195D01*
X123406793Y-124750983D01*
X123401577Y-124730159D01*
X123398427Y-124708924D01*
X123397374Y-124687483D01*
X123398427Y-124666042D01*
X123401577Y-124644807D01*
X123406793Y-124623983D01*
X123414025Y-124603771D01*
X123423204Y-124584365D01*
X123434240Y-124565952D01*
X123447028Y-124548709D01*
X123461444Y-124532803D01*
X123770803Y-124223444D01*
X123786709Y-124209028D01*
X123803952Y-124196240D01*
X123822365Y-124185204D01*
X123841771Y-124176025D01*
X123861983Y-124168793D01*
X123882807Y-124163577D01*
X123904042Y-124160427D01*
X123925483Y-124159374D01*
X123946924Y-124160427D01*
G37*
G04 #@! TD.AperFunction*
G04 #@! TA.AperFunction,SMDPad,CuDef*
G36*
X122833230Y-125274121D02*
G01*
X122854465Y-125277271D01*
X122875289Y-125282487D01*
X122895501Y-125289719D01*
X122914907Y-125298898D01*
X122933320Y-125309934D01*
X122950563Y-125322722D01*
X122966469Y-125337138D01*
X123328862Y-125699531D01*
X123343278Y-125715437D01*
X123356066Y-125732680D01*
X123367102Y-125751093D01*
X123376281Y-125770499D01*
X123383513Y-125790711D01*
X123388729Y-125811535D01*
X123391879Y-125832770D01*
X123392932Y-125854211D01*
X123391879Y-125875652D01*
X123388729Y-125896887D01*
X123383513Y-125917711D01*
X123376281Y-125937923D01*
X123367102Y-125957329D01*
X123356066Y-125975742D01*
X123343278Y-125992985D01*
X123328862Y-126008891D01*
X123019503Y-126318250D01*
X123003597Y-126332666D01*
X122986354Y-126345454D01*
X122967941Y-126356490D01*
X122948535Y-126365669D01*
X122928323Y-126372901D01*
X122907499Y-126378117D01*
X122886264Y-126381267D01*
X122864823Y-126382320D01*
X122843382Y-126381267D01*
X122822147Y-126378117D01*
X122801323Y-126372901D01*
X122781111Y-126365669D01*
X122761705Y-126356490D01*
X122743292Y-126345454D01*
X122726049Y-126332666D01*
X122710143Y-126318250D01*
X122347750Y-125955857D01*
X122333334Y-125939951D01*
X122320546Y-125922708D01*
X122309510Y-125904295D01*
X122300331Y-125884889D01*
X122293099Y-125864677D01*
X122287883Y-125843853D01*
X122284733Y-125822618D01*
X122283680Y-125801177D01*
X122284733Y-125779736D01*
X122287883Y-125758501D01*
X122293099Y-125737677D01*
X122300331Y-125717465D01*
X122309510Y-125698059D01*
X122320546Y-125679646D01*
X122333334Y-125662403D01*
X122347750Y-125646497D01*
X122657109Y-125337138D01*
X122673015Y-125322722D01*
X122690258Y-125309934D01*
X122708671Y-125298898D01*
X122728077Y-125289719D01*
X122748289Y-125282487D01*
X122769113Y-125277271D01*
X122790348Y-125274121D01*
X122811789Y-125273068D01*
X122833230Y-125274121D01*
G37*
G04 #@! TD.AperFunction*
D10*
X126746000Y-118745000D03*
X129286000Y-118745000D03*
X131826000Y-118745000D03*
X134366000Y-118745000D03*
X136906000Y-118745000D03*
X139446000Y-118745000D03*
X141986000Y-118745000D03*
D11*
X144526000Y-118745000D03*
D10*
X126746000Y-115951000D03*
X129286000Y-115951000D03*
X131826000Y-115951000D03*
X134366000Y-115951000D03*
X136906000Y-115951000D03*
X139446000Y-115951000D03*
X141986000Y-115951000D03*
D11*
X144526000Y-115951000D03*
D13*
X122936000Y-118110000D03*
D14*
X120396000Y-119380000D03*
X122936000Y-120650000D03*
X120396000Y-121920000D03*
X122936000Y-123190000D03*
X120396000Y-124460000D03*
D15*
X132461000Y-123444000D03*
X127254000Y-128905000D03*
X124332998Y-127889000D03*
X131248686Y-123882686D03*
D16*
X132461000Y-126746000D02*
X132461000Y-123444000D01*
X129794000Y-113919000D02*
X131826000Y-115951000D01*
X123571000Y-113919000D02*
X129794000Y-113919000D01*
X120396000Y-119380000D02*
X120396000Y-117094000D01*
X120396000Y-117094000D02*
X123571000Y-113919000D01*
D17*
X124333000Y-124333000D02*
X123952000Y-124714000D01*
X122936000Y-120650000D02*
X124333000Y-122047000D01*
X124333000Y-122047000D02*
X124333000Y-124333000D01*
X128397000Y-125222000D02*
X128397000Y-126935000D01*
X123952000Y-124714000D02*
X124261359Y-124404641D01*
X127579641Y-124404641D02*
X128397000Y-125222000D01*
X124261359Y-124404641D02*
X127579641Y-124404641D01*
X142528985Y-129378015D02*
X144311001Y-127595999D01*
X129926473Y-129378015D02*
X142528985Y-129378015D01*
X129378015Y-129378015D02*
X129926473Y-129378015D01*
X128397000Y-126935000D02*
X128397000Y-128397000D01*
X128397000Y-128397000D02*
X129378015Y-129378015D01*
X144311001Y-127595999D02*
X145161000Y-126746000D01*
X123502612Y-126492000D02*
X122838306Y-125827694D01*
X127127000Y-125603000D02*
X126746000Y-125222000D01*
X124079000Y-126492000D02*
X123502612Y-126492000D01*
X127127000Y-126935000D02*
X127127000Y-125603000D01*
X126746000Y-125222000D02*
X125349000Y-125222000D01*
X125349000Y-125222000D02*
X124079000Y-126492000D01*
X121666000Y-124655388D02*
X122838306Y-125827694D01*
X120396000Y-121920000D02*
X121666000Y-123190000D01*
X121666000Y-123190000D02*
X121666000Y-124655388D01*
X127127000Y-128778000D02*
X127254000Y-128905000D01*
X127127000Y-126935000D02*
X127127000Y-128778000D01*
D16*
X141986000Y-119761000D02*
X141986000Y-118745000D01*
X135001000Y-126746000D02*
X141986000Y-119761000D01*
D17*
X124332998Y-128142998D02*
X124332998Y-127889000D01*
X125603000Y-128524000D02*
X124714000Y-128524000D01*
X125857000Y-126935000D02*
X125857000Y-128270000D01*
X124714000Y-128524000D02*
X124332998Y-128142998D01*
X125857000Y-128270000D02*
X125603000Y-128524000D01*
X127127000Y-119126000D02*
X126746000Y-118745000D01*
X127127000Y-121985000D02*
X127127000Y-119126000D01*
X128397000Y-119634000D02*
X129286000Y-118745000D01*
X128397000Y-121985000D02*
X128397000Y-119634000D01*
X129667000Y-121985000D02*
X129667000Y-120650000D01*
X129667000Y-120650000D02*
X130048000Y-120269000D01*
X135382000Y-120269000D02*
X136906000Y-118745000D01*
X130048000Y-120269000D02*
X135382000Y-120269000D01*
D16*
X144526000Y-118745000D02*
X144526000Y-120395000D01*
X140081000Y-124840000D02*
X140081000Y-126746000D01*
X144526000Y-120395000D02*
X140081000Y-124840000D01*
D17*
X129667000Y-125476000D02*
X129667000Y-126935000D01*
X131248686Y-123882686D02*
X131248686Y-123894314D01*
X131248686Y-123894314D02*
X129667000Y-125476000D01*
X129667000Y-128270000D02*
X130175000Y-128778000D01*
X129667000Y-126935000D02*
X129667000Y-128270000D01*
X140081000Y-127889000D02*
X140081000Y-126746000D01*
X130175000Y-128778000D02*
X139192000Y-128778000D01*
X139192000Y-128778000D02*
X140081000Y-127889000D01*
X138596001Y-119594999D02*
X139446000Y-118745000D01*
X135890000Y-122301000D02*
X138596001Y-119594999D01*
X125857000Y-122960000D02*
X126595000Y-123698000D01*
X125857000Y-121985000D02*
X125857000Y-122960000D01*
X126595000Y-123698000D02*
X130302000Y-123698000D01*
X131699000Y-122301000D02*
X135890000Y-122301000D01*
X130302000Y-123698000D02*
X131699000Y-122301000D01*
D18*
G36*
X119700092Y-116326198D02*
G01*
X119660605Y-116358604D01*
X119628198Y-116398092D01*
X119628197Y-116398093D01*
X119531266Y-116516203D01*
X119435160Y-116696007D01*
X119375977Y-116891105D01*
X119355994Y-117094000D01*
X119361001Y-117144838D01*
X119361000Y-118442172D01*
X119312433Y-118490739D01*
X119159767Y-118719220D01*
X119054609Y-118973093D01*
X119001000Y-119242604D01*
X119001000Y-119517396D01*
X119054609Y-119786907D01*
X119159767Y-120040780D01*
X119312433Y-120269261D01*
X119506739Y-120463567D01*
X119735220Y-120616233D01*
X119816740Y-120650000D01*
X119735220Y-120683767D01*
X119506739Y-120836433D01*
X119312433Y-121030739D01*
X119159767Y-121259220D01*
X119054609Y-121513093D01*
X119001000Y-121782604D01*
X119001000Y-122057396D01*
X119054609Y-122326907D01*
X119159767Y-122580780D01*
X119312433Y-122809261D01*
X119506739Y-123003567D01*
X119735220Y-123156233D01*
X119811501Y-123187830D01*
X119793674Y-123194256D01*
X119678206Y-123255975D01*
X119611469Y-123495863D01*
X120396000Y-124280395D01*
X120410142Y-124266252D01*
X120589748Y-124445858D01*
X120575605Y-124460000D01*
X120589748Y-124474142D01*
X120410142Y-124653748D01*
X120396000Y-124639605D01*
X119611469Y-125424137D01*
X119678206Y-125664025D01*
X119926892Y-125780924D01*
X120193606Y-125847061D01*
X120468097Y-125859895D01*
X120739817Y-125818931D01*
X120998326Y-125725744D01*
X121113794Y-125664025D01*
X121180531Y-125424139D01*
X121296948Y-125540556D01*
X121333625Y-125503880D01*
X121647213Y-125817468D01*
X121662072Y-125968335D01*
X121710830Y-126129069D01*
X121790009Y-126277202D01*
X121896565Y-126407042D01*
X122258958Y-126769435D01*
X122388798Y-126875991D01*
X122536931Y-126955170D01*
X122697665Y-127003928D01*
X122848531Y-127018787D01*
X122883175Y-127053431D01*
X122909321Y-127085291D01*
X122941180Y-127111437D01*
X122941182Y-127111439D01*
X122963621Y-127129854D01*
X123036466Y-127189636D01*
X123181525Y-127267172D01*
X123338923Y-127314918D01*
X123461593Y-127327000D01*
X123461594Y-127327000D01*
X123463599Y-127327197D01*
X123415793Y-127398744D01*
X123337772Y-127587102D01*
X123297998Y-127787061D01*
X123297998Y-127990939D01*
X123337772Y-128190898D01*
X123415793Y-128379256D01*
X123529061Y-128548774D01*
X123673224Y-128692937D01*
X123746726Y-128742049D01*
X123771577Y-128762444D01*
X124094554Y-129085421D01*
X124120709Y-129117291D01*
X124247854Y-129221636D01*
X124321499Y-129261000D01*
X106839279Y-129261000D01*
X106689131Y-129246278D01*
X106575754Y-129212047D01*
X106471183Y-129156446D01*
X106379405Y-129081594D01*
X106303909Y-128990335D01*
X106247581Y-128886160D01*
X106212560Y-128773024D01*
X106197000Y-128624979D01*
X106197000Y-126137409D01*
X111786000Y-126137409D01*
X111786000Y-126582591D01*
X111872851Y-127019218D01*
X112043214Y-127430511D01*
X112290544Y-127800666D01*
X112605334Y-128115456D01*
X112975489Y-128362786D01*
X113386782Y-128533149D01*
X113823409Y-128620000D01*
X114268591Y-128620000D01*
X114705218Y-128533149D01*
X115116511Y-128362786D01*
X115486666Y-128115456D01*
X115801456Y-127800666D01*
X116048786Y-127430511D01*
X116219149Y-127019218D01*
X116306000Y-126582591D01*
X116306000Y-126137409D01*
X116219149Y-125700782D01*
X116048786Y-125289489D01*
X115801456Y-124919334D01*
X115486666Y-124604544D01*
X115378242Y-124532097D01*
X118996105Y-124532097D01*
X119037069Y-124803817D01*
X119130256Y-125062326D01*
X119191975Y-125177794D01*
X119431863Y-125244531D01*
X120216395Y-124460000D01*
X119431863Y-123675469D01*
X119191975Y-123742206D01*
X119075076Y-123990892D01*
X119008939Y-124257606D01*
X118996105Y-124532097D01*
X115378242Y-124532097D01*
X115116511Y-124357214D01*
X114705218Y-124186851D01*
X114268591Y-124100000D01*
X113823409Y-124100000D01*
X113386782Y-124186851D01*
X112975489Y-124357214D01*
X112605334Y-124604544D01*
X112290544Y-124919334D01*
X112043214Y-125289489D01*
X111872851Y-125700782D01*
X111786000Y-126137409D01*
X106197000Y-126137409D01*
X106197000Y-115977409D01*
X111786000Y-115977409D01*
X111786000Y-116422591D01*
X111872851Y-116859218D01*
X112043214Y-117270511D01*
X112290544Y-117640666D01*
X112605334Y-117955456D01*
X112975489Y-118202786D01*
X113386782Y-118373149D01*
X113823409Y-118460000D01*
X114268591Y-118460000D01*
X114705218Y-118373149D01*
X115116511Y-118202786D01*
X115486666Y-117955456D01*
X115801456Y-117640666D01*
X116048786Y-117270511D01*
X116219149Y-116859218D01*
X116306000Y-116422591D01*
X116306000Y-115977409D01*
X116219149Y-115540782D01*
X116048786Y-115129489D01*
X115801456Y-114759334D01*
X115486666Y-114444544D01*
X115116511Y-114197214D01*
X114705218Y-114026851D01*
X114268591Y-113940000D01*
X113823409Y-113940000D01*
X113386782Y-114026851D01*
X112975489Y-114197214D01*
X112605334Y-114444544D01*
X112290544Y-114759334D01*
X112043214Y-115129489D01*
X111872851Y-115540782D01*
X111786000Y-115977409D01*
X106197000Y-115977409D01*
X106197000Y-113951279D01*
X106211722Y-113801131D01*
X106245953Y-113687754D01*
X106301555Y-113583181D01*
X106376407Y-113491404D01*
X106467664Y-113415909D01*
X106571844Y-113359581D01*
X106684976Y-113324560D01*
X106833022Y-113309000D01*
X122717289Y-113309000D01*
X119700092Y-116326198D01*
G37*
X119700092Y-116326198D02*
X119660605Y-116358604D01*
X119628198Y-116398092D01*
X119628197Y-116398093D01*
X119531266Y-116516203D01*
X119435160Y-116696007D01*
X119375977Y-116891105D01*
X119355994Y-117094000D01*
X119361001Y-117144838D01*
X119361000Y-118442172D01*
X119312433Y-118490739D01*
X119159767Y-118719220D01*
X119054609Y-118973093D01*
X119001000Y-119242604D01*
X119001000Y-119517396D01*
X119054609Y-119786907D01*
X119159767Y-120040780D01*
X119312433Y-120269261D01*
X119506739Y-120463567D01*
X119735220Y-120616233D01*
X119816740Y-120650000D01*
X119735220Y-120683767D01*
X119506739Y-120836433D01*
X119312433Y-121030739D01*
X119159767Y-121259220D01*
X119054609Y-121513093D01*
X119001000Y-121782604D01*
X119001000Y-122057396D01*
X119054609Y-122326907D01*
X119159767Y-122580780D01*
X119312433Y-122809261D01*
X119506739Y-123003567D01*
X119735220Y-123156233D01*
X119811501Y-123187830D01*
X119793674Y-123194256D01*
X119678206Y-123255975D01*
X119611469Y-123495863D01*
X120396000Y-124280395D01*
X120410142Y-124266252D01*
X120589748Y-124445858D01*
X120575605Y-124460000D01*
X120589748Y-124474142D01*
X120410142Y-124653748D01*
X120396000Y-124639605D01*
X119611469Y-125424137D01*
X119678206Y-125664025D01*
X119926892Y-125780924D01*
X120193606Y-125847061D01*
X120468097Y-125859895D01*
X120739817Y-125818931D01*
X120998326Y-125725744D01*
X121113794Y-125664025D01*
X121180531Y-125424139D01*
X121296948Y-125540556D01*
X121333625Y-125503880D01*
X121647213Y-125817468D01*
X121662072Y-125968335D01*
X121710830Y-126129069D01*
X121790009Y-126277202D01*
X121896565Y-126407042D01*
X122258958Y-126769435D01*
X122388798Y-126875991D01*
X122536931Y-126955170D01*
X122697665Y-127003928D01*
X122848531Y-127018787D01*
X122883175Y-127053431D01*
X122909321Y-127085291D01*
X122941180Y-127111437D01*
X122941182Y-127111439D01*
X122963621Y-127129854D01*
X123036466Y-127189636D01*
X123181525Y-127267172D01*
X123338923Y-127314918D01*
X123461593Y-127327000D01*
X123461594Y-127327000D01*
X123463599Y-127327197D01*
X123415793Y-127398744D01*
X123337772Y-127587102D01*
X123297998Y-127787061D01*
X123297998Y-127990939D01*
X123337772Y-128190898D01*
X123415793Y-128379256D01*
X123529061Y-128548774D01*
X123673224Y-128692937D01*
X123746726Y-128742049D01*
X123771577Y-128762444D01*
X124094554Y-129085421D01*
X124120709Y-129117291D01*
X124247854Y-129221636D01*
X124321499Y-129261000D01*
X106839279Y-129261000D01*
X106689131Y-129246278D01*
X106575754Y-129212047D01*
X106471183Y-129156446D01*
X106379405Y-129081594D01*
X106303909Y-128990335D01*
X106247581Y-128886160D01*
X106212560Y-128773024D01*
X106197000Y-128624979D01*
X106197000Y-126137409D01*
X111786000Y-126137409D01*
X111786000Y-126582591D01*
X111872851Y-127019218D01*
X112043214Y-127430511D01*
X112290544Y-127800666D01*
X112605334Y-128115456D01*
X112975489Y-128362786D01*
X113386782Y-128533149D01*
X113823409Y-128620000D01*
X114268591Y-128620000D01*
X114705218Y-128533149D01*
X115116511Y-128362786D01*
X115486666Y-128115456D01*
X115801456Y-127800666D01*
X116048786Y-127430511D01*
X116219149Y-127019218D01*
X116306000Y-126582591D01*
X116306000Y-126137409D01*
X116219149Y-125700782D01*
X116048786Y-125289489D01*
X115801456Y-124919334D01*
X115486666Y-124604544D01*
X115378242Y-124532097D01*
X118996105Y-124532097D01*
X119037069Y-124803817D01*
X119130256Y-125062326D01*
X119191975Y-125177794D01*
X119431863Y-125244531D01*
X120216395Y-124460000D01*
X119431863Y-123675469D01*
X119191975Y-123742206D01*
X119075076Y-123990892D01*
X119008939Y-124257606D01*
X118996105Y-124532097D01*
X115378242Y-124532097D01*
X115116511Y-124357214D01*
X114705218Y-124186851D01*
X114268591Y-124100000D01*
X113823409Y-124100000D01*
X113386782Y-124186851D01*
X112975489Y-124357214D01*
X112605334Y-124604544D01*
X112290544Y-124919334D01*
X112043214Y-125289489D01*
X111872851Y-125700782D01*
X111786000Y-126137409D01*
X106197000Y-126137409D01*
X106197000Y-115977409D01*
X111786000Y-115977409D01*
X111786000Y-116422591D01*
X111872851Y-116859218D01*
X112043214Y-117270511D01*
X112290544Y-117640666D01*
X112605334Y-117955456D01*
X112975489Y-118202786D01*
X113386782Y-118373149D01*
X113823409Y-118460000D01*
X114268591Y-118460000D01*
X114705218Y-118373149D01*
X115116511Y-118202786D01*
X115486666Y-117955456D01*
X115801456Y-117640666D01*
X116048786Y-117270511D01*
X116219149Y-116859218D01*
X116306000Y-116422591D01*
X116306000Y-115977409D01*
X116219149Y-115540782D01*
X116048786Y-115129489D01*
X115801456Y-114759334D01*
X115486666Y-114444544D01*
X115116511Y-114197214D01*
X114705218Y-114026851D01*
X114268591Y-113940000D01*
X113823409Y-113940000D01*
X113386782Y-114026851D01*
X112975489Y-114197214D01*
X112605334Y-114444544D01*
X112290544Y-114759334D01*
X112043214Y-115129489D01*
X111872851Y-115540782D01*
X111786000Y-115977409D01*
X106197000Y-115977409D01*
X106197000Y-113951279D01*
X106211722Y-113801131D01*
X106245953Y-113687754D01*
X106301555Y-113583181D01*
X106376407Y-113491404D01*
X106467664Y-113415909D01*
X106571844Y-113359581D01*
X106684976Y-113324560D01*
X106833022Y-113309000D01*
X122717289Y-113309000D01*
X119700092Y-116326198D01*
G36*
X145913869Y-113323722D02*
G01*
X146027246Y-113357953D01*
X146131819Y-113413555D01*
X146223596Y-113488407D01*
X146299091Y-113579664D01*
X146355419Y-113683844D01*
X146390440Y-113796976D01*
X146406001Y-113945031D01*
X146406000Y-125936345D01*
X146314475Y-125799368D01*
X146107632Y-125592525D01*
X145864411Y-125430010D01*
X145594158Y-125318068D01*
X145307260Y-125261000D01*
X145014740Y-125261000D01*
X144727842Y-125318068D01*
X144457589Y-125430010D01*
X144214368Y-125592525D01*
X144007525Y-125799368D01*
X143891000Y-125973760D01*
X143774475Y-125799368D01*
X143567632Y-125592525D01*
X143324411Y-125430010D01*
X143054158Y-125318068D01*
X142767260Y-125261000D01*
X142474740Y-125261000D01*
X142187842Y-125318068D01*
X141917589Y-125430010D01*
X141674368Y-125592525D01*
X141467525Y-125799368D01*
X141345805Y-125981534D01*
X141276178Y-125864645D01*
X141081269Y-125648412D01*
X140847920Y-125474359D01*
X140585099Y-125349175D01*
X140437890Y-125304524D01*
X140208000Y-125425845D01*
X140208000Y-126619000D01*
X140228000Y-126619000D01*
X140228000Y-126873000D01*
X140208000Y-126873000D01*
X140208000Y-128066155D01*
X140437890Y-128187476D01*
X140585099Y-128142825D01*
X140847920Y-128017641D01*
X141081269Y-127843588D01*
X141276178Y-127627355D01*
X141345805Y-127510466D01*
X141467525Y-127692632D01*
X141674368Y-127899475D01*
X141917589Y-128061990D01*
X142187842Y-128173932D01*
X142474740Y-128231000D01*
X142495133Y-128231000D01*
X142183118Y-128543015D01*
X130018346Y-128543015D01*
X130091482Y-128535812D01*
X130211180Y-128499502D01*
X130321494Y-128440537D01*
X130418185Y-128361185D01*
X130497537Y-128264494D01*
X130556502Y-128154180D01*
X130592812Y-128034482D01*
X130605072Y-127910000D01*
X130602000Y-127220750D01*
X130443250Y-127062000D01*
X129794000Y-127062000D01*
X129794000Y-127082000D01*
X129540000Y-127082000D01*
X129540000Y-127062000D01*
X129520000Y-127062000D01*
X129520000Y-126808000D01*
X129540000Y-126808000D01*
X129540000Y-125483750D01*
X129794000Y-125483750D01*
X129794000Y-126808000D01*
X130443250Y-126808000D01*
X130602000Y-126649250D01*
X130605072Y-125960000D01*
X130592812Y-125835518D01*
X130556502Y-125715820D01*
X130497537Y-125605506D01*
X130418185Y-125508815D01*
X130321494Y-125429463D01*
X130211180Y-125370498D01*
X130091482Y-125334188D01*
X129967000Y-125321928D01*
X129952750Y-125325000D01*
X129794000Y-125483750D01*
X129540000Y-125483750D01*
X129381250Y-125325000D01*
X129367000Y-125321928D01*
X129242518Y-125334188D01*
X129232000Y-125337379D01*
X129232000Y-125263018D01*
X129236040Y-125221999D01*
X129219918Y-125058311D01*
X129172172Y-124900913D01*
X129094636Y-124755854D01*
X129060287Y-124714000D01*
X128990291Y-124628709D01*
X128958427Y-124602560D01*
X128888868Y-124533000D01*
X130260982Y-124533000D01*
X130302000Y-124537040D01*
X130343018Y-124533000D01*
X130343019Y-124533000D01*
X130465689Y-124520918D01*
X130623087Y-124473172D01*
X130768146Y-124395636D01*
X130895291Y-124291291D01*
X130921446Y-124259421D01*
X131426001Y-123754866D01*
X131426000Y-125288546D01*
X131366820Y-125306498D01*
X131256506Y-125365463D01*
X131159815Y-125444815D01*
X131080463Y-125541506D01*
X131021498Y-125651820D01*
X130985188Y-125771518D01*
X130972928Y-125896000D01*
X130972928Y-127596000D01*
X130985188Y-127720482D01*
X131021498Y-127840180D01*
X131080463Y-127950494D01*
X131159815Y-128047185D01*
X131256506Y-128126537D01*
X131366820Y-128185502D01*
X131486518Y-128221812D01*
X131611000Y-128234072D01*
X133311000Y-128234072D01*
X133435482Y-128221812D01*
X133555180Y-128185502D01*
X133665494Y-128126537D01*
X133762185Y-128047185D01*
X133841537Y-127950494D01*
X133900502Y-127840180D01*
X133922513Y-127767620D01*
X134054368Y-127899475D01*
X134297589Y-128061990D01*
X134567842Y-128173932D01*
X134854740Y-128231000D01*
X135147260Y-128231000D01*
X135434158Y-128173932D01*
X135704411Y-128061990D01*
X135947632Y-127899475D01*
X136154475Y-127692632D01*
X136271000Y-127518240D01*
X136387525Y-127692632D01*
X136594368Y-127899475D01*
X136837589Y-128061990D01*
X137107842Y-128173932D01*
X137394740Y-128231000D01*
X137687260Y-128231000D01*
X137974158Y-128173932D01*
X138244411Y-128061990D01*
X138487632Y-127899475D01*
X138694475Y-127692632D01*
X138816195Y-127510466D01*
X138885822Y-127627355D01*
X139080731Y-127843588D01*
X139314080Y-128017641D01*
X139576901Y-128142825D01*
X139724110Y-128187476D01*
X139954000Y-128066155D01*
X139954000Y-126873000D01*
X139934000Y-126873000D01*
X139934000Y-126619000D01*
X139954000Y-126619000D01*
X139954000Y-125425845D01*
X139724110Y-125304524D01*
X139576901Y-125349175D01*
X139314080Y-125474359D01*
X139080731Y-125648412D01*
X138885822Y-125864645D01*
X138816195Y-125981534D01*
X138694475Y-125799368D01*
X138487632Y-125592525D01*
X138244411Y-125430010D01*
X137974158Y-125318068D01*
X137906167Y-125304544D01*
X142681908Y-120528803D01*
X142721396Y-120496396D01*
X142773680Y-120432688D01*
X142850734Y-120338798D01*
X142908887Y-120230000D01*
X142946841Y-120158993D01*
X143006024Y-119963895D01*
X143021000Y-119811838D01*
X143021000Y-119811835D01*
X143021189Y-119809918D01*
X143064487Y-119766620D01*
X143086498Y-119839180D01*
X143145463Y-119949494D01*
X143224815Y-120046185D01*
X143321506Y-120125537D01*
X143431820Y-120184502D01*
X143551518Y-120220812D01*
X143676000Y-120233072D01*
X144240250Y-120230000D01*
X144399000Y-120071250D01*
X144399000Y-118872000D01*
X144653000Y-118872000D01*
X144653000Y-120071250D01*
X144811750Y-120230000D01*
X145376000Y-120233072D01*
X145500482Y-120220812D01*
X145620180Y-120184502D01*
X145730494Y-120125537D01*
X145827185Y-120046185D01*
X145906537Y-119949494D01*
X145965502Y-119839180D01*
X146001812Y-119719482D01*
X146014072Y-119595000D01*
X146011000Y-119030750D01*
X145852250Y-118872000D01*
X144653000Y-118872000D01*
X144399000Y-118872000D01*
X144379000Y-118872000D01*
X144379000Y-118618000D01*
X144399000Y-118618000D01*
X144399000Y-117418750D01*
X144328250Y-117348000D01*
X144399000Y-117277250D01*
X144399000Y-116078000D01*
X144653000Y-116078000D01*
X144653000Y-117277250D01*
X144723750Y-117348000D01*
X144653000Y-117418750D01*
X144653000Y-118618000D01*
X145852250Y-118618000D01*
X146011000Y-118459250D01*
X146014072Y-117895000D01*
X146001812Y-117770518D01*
X145965502Y-117650820D01*
X145906537Y-117540506D01*
X145827185Y-117443815D01*
X145730494Y-117364463D01*
X145699694Y-117348000D01*
X145730494Y-117331537D01*
X145827185Y-117252185D01*
X145906537Y-117155494D01*
X145965502Y-117045180D01*
X146001812Y-116925482D01*
X146014072Y-116801000D01*
X146011000Y-116236750D01*
X145852250Y-116078000D01*
X144653000Y-116078000D01*
X144399000Y-116078000D01*
X144379000Y-116078000D01*
X144379000Y-115824000D01*
X144399000Y-115824000D01*
X144399000Y-114624750D01*
X144653000Y-114624750D01*
X144653000Y-115824000D01*
X145852250Y-115824000D01*
X146011000Y-115665250D01*
X146014072Y-115101000D01*
X146001812Y-114976518D01*
X145965502Y-114856820D01*
X145906537Y-114746506D01*
X145827185Y-114649815D01*
X145730494Y-114570463D01*
X145620180Y-114511498D01*
X145500482Y-114475188D01*
X145376000Y-114462928D01*
X144811750Y-114466000D01*
X144653000Y-114624750D01*
X144399000Y-114624750D01*
X144240250Y-114466000D01*
X143676000Y-114462928D01*
X143551518Y-114475188D01*
X143431820Y-114511498D01*
X143321506Y-114570463D01*
X143224815Y-114649815D01*
X143145463Y-114746506D01*
X143086498Y-114856820D01*
X143064487Y-114929380D01*
X142932632Y-114797525D01*
X142689411Y-114635010D01*
X142419158Y-114523068D01*
X142132260Y-114466000D01*
X141839740Y-114466000D01*
X141552842Y-114523068D01*
X141282589Y-114635010D01*
X141039368Y-114797525D01*
X140832525Y-115004368D01*
X140716000Y-115178760D01*
X140599475Y-115004368D01*
X140392632Y-114797525D01*
X140149411Y-114635010D01*
X139879158Y-114523068D01*
X139592260Y-114466000D01*
X139299740Y-114466000D01*
X139012842Y-114523068D01*
X138742589Y-114635010D01*
X138499368Y-114797525D01*
X138292525Y-115004368D01*
X138176000Y-115178760D01*
X138059475Y-115004368D01*
X137852632Y-114797525D01*
X137609411Y-114635010D01*
X137339158Y-114523068D01*
X137052260Y-114466000D01*
X136759740Y-114466000D01*
X136472842Y-114523068D01*
X136202589Y-114635010D01*
X135959368Y-114797525D01*
X135752525Y-115004368D01*
X135636000Y-115178760D01*
X135519475Y-115004368D01*
X135312632Y-114797525D01*
X135069411Y-114635010D01*
X134799158Y-114523068D01*
X134512260Y-114466000D01*
X134219740Y-114466000D01*
X133932842Y-114523068D01*
X133662589Y-114635010D01*
X133419368Y-114797525D01*
X133212525Y-115004368D01*
X133096000Y-115178760D01*
X132979475Y-115004368D01*
X132772632Y-114797525D01*
X132529411Y-114635010D01*
X132259158Y-114523068D01*
X131972260Y-114466000D01*
X131804711Y-114466000D01*
X130647710Y-113309000D01*
X145763721Y-113309000D01*
X145913869Y-113323722D01*
G37*
X145913869Y-113323722D02*
X146027246Y-113357953D01*
X146131819Y-113413555D01*
X146223596Y-113488407D01*
X146299091Y-113579664D01*
X146355419Y-113683844D01*
X146390440Y-113796976D01*
X146406001Y-113945031D01*
X146406000Y-125936345D01*
X146314475Y-125799368D01*
X146107632Y-125592525D01*
X145864411Y-125430010D01*
X145594158Y-125318068D01*
X145307260Y-125261000D01*
X145014740Y-125261000D01*
X144727842Y-125318068D01*
X144457589Y-125430010D01*
X144214368Y-125592525D01*
X144007525Y-125799368D01*
X143891000Y-125973760D01*
X143774475Y-125799368D01*
X143567632Y-125592525D01*
X143324411Y-125430010D01*
X143054158Y-125318068D01*
X142767260Y-125261000D01*
X142474740Y-125261000D01*
X142187842Y-125318068D01*
X141917589Y-125430010D01*
X141674368Y-125592525D01*
X141467525Y-125799368D01*
X141345805Y-125981534D01*
X141276178Y-125864645D01*
X141081269Y-125648412D01*
X140847920Y-125474359D01*
X140585099Y-125349175D01*
X140437890Y-125304524D01*
X140208000Y-125425845D01*
X140208000Y-126619000D01*
X140228000Y-126619000D01*
X140228000Y-126873000D01*
X140208000Y-126873000D01*
X140208000Y-128066155D01*
X140437890Y-128187476D01*
X140585099Y-128142825D01*
X140847920Y-128017641D01*
X141081269Y-127843588D01*
X141276178Y-127627355D01*
X141345805Y-127510466D01*
X141467525Y-127692632D01*
X141674368Y-127899475D01*
X141917589Y-128061990D01*
X142187842Y-128173932D01*
X142474740Y-128231000D01*
X142495133Y-128231000D01*
X142183118Y-128543015D01*
X130018346Y-128543015D01*
X130091482Y-128535812D01*
X130211180Y-128499502D01*
X130321494Y-128440537D01*
X130418185Y-128361185D01*
X130497537Y-128264494D01*
X130556502Y-128154180D01*
X130592812Y-128034482D01*
X130605072Y-127910000D01*
X130602000Y-127220750D01*
X130443250Y-127062000D01*
X129794000Y-127062000D01*
X129794000Y-127082000D01*
X129540000Y-127082000D01*
X129540000Y-127062000D01*
X129520000Y-127062000D01*
X129520000Y-126808000D01*
X129540000Y-126808000D01*
X129540000Y-125483750D01*
X129794000Y-125483750D01*
X129794000Y-126808000D01*
X130443250Y-126808000D01*
X130602000Y-126649250D01*
X130605072Y-125960000D01*
X130592812Y-125835518D01*
X130556502Y-125715820D01*
X130497537Y-125605506D01*
X130418185Y-125508815D01*
X130321494Y-125429463D01*
X130211180Y-125370498D01*
X130091482Y-125334188D01*
X129967000Y-125321928D01*
X129952750Y-125325000D01*
X129794000Y-125483750D01*
X129540000Y-125483750D01*
X129381250Y-125325000D01*
X129367000Y-125321928D01*
X129242518Y-125334188D01*
X129232000Y-125337379D01*
X129232000Y-125263018D01*
X129236040Y-125221999D01*
X129219918Y-125058311D01*
X129172172Y-124900913D01*
X129094636Y-124755854D01*
X129060287Y-124714000D01*
X128990291Y-124628709D01*
X128958427Y-124602560D01*
X128888868Y-124533000D01*
X130260982Y-124533000D01*
X130302000Y-124537040D01*
X130343018Y-124533000D01*
X130343019Y-124533000D01*
X130465689Y-124520918D01*
X130623087Y-124473172D01*
X130768146Y-124395636D01*
X130895291Y-124291291D01*
X130921446Y-124259421D01*
X131426001Y-123754866D01*
X131426000Y-125288546D01*
X131366820Y-125306498D01*
X131256506Y-125365463D01*
X131159815Y-125444815D01*
X131080463Y-125541506D01*
X131021498Y-125651820D01*
X130985188Y-125771518D01*
X130972928Y-125896000D01*
X130972928Y-127596000D01*
X130985188Y-127720482D01*
X131021498Y-127840180D01*
X131080463Y-127950494D01*
X131159815Y-128047185D01*
X131256506Y-128126537D01*
X131366820Y-128185502D01*
X131486518Y-128221812D01*
X131611000Y-128234072D01*
X133311000Y-128234072D01*
X133435482Y-128221812D01*
X133555180Y-128185502D01*
X133665494Y-128126537D01*
X133762185Y-128047185D01*
X133841537Y-127950494D01*
X133900502Y-127840180D01*
X133922513Y-127767620D01*
X134054368Y-127899475D01*
X134297589Y-128061990D01*
X134567842Y-128173932D01*
X134854740Y-128231000D01*
X135147260Y-128231000D01*
X135434158Y-128173932D01*
X135704411Y-128061990D01*
X135947632Y-127899475D01*
X136154475Y-127692632D01*
X136271000Y-127518240D01*
X136387525Y-127692632D01*
X136594368Y-127899475D01*
X136837589Y-128061990D01*
X137107842Y-128173932D01*
X137394740Y-128231000D01*
X137687260Y-128231000D01*
X137974158Y-128173932D01*
X138244411Y-128061990D01*
X138487632Y-127899475D01*
X138694475Y-127692632D01*
X138816195Y-127510466D01*
X138885822Y-127627355D01*
X139080731Y-127843588D01*
X139314080Y-128017641D01*
X139576901Y-128142825D01*
X139724110Y-128187476D01*
X139954000Y-128066155D01*
X139954000Y-126873000D01*
X139934000Y-126873000D01*
X139934000Y-126619000D01*
X139954000Y-126619000D01*
X139954000Y-125425845D01*
X139724110Y-125304524D01*
X139576901Y-125349175D01*
X139314080Y-125474359D01*
X139080731Y-125648412D01*
X138885822Y-125864645D01*
X138816195Y-125981534D01*
X138694475Y-125799368D01*
X138487632Y-125592525D01*
X138244411Y-125430010D01*
X137974158Y-125318068D01*
X137906167Y-125304544D01*
X142681908Y-120528803D01*
X142721396Y-120496396D01*
X142773680Y-120432688D01*
X142850734Y-120338798D01*
X142908887Y-120230000D01*
X142946841Y-120158993D01*
X143006024Y-119963895D01*
X143021000Y-119811838D01*
X143021000Y-119811835D01*
X143021189Y-119809918D01*
X143064487Y-119766620D01*
X143086498Y-119839180D01*
X143145463Y-119949494D01*
X143224815Y-120046185D01*
X143321506Y-120125537D01*
X143431820Y-120184502D01*
X143551518Y-120220812D01*
X143676000Y-120233072D01*
X144240250Y-120230000D01*
X144399000Y-120071250D01*
X144399000Y-118872000D01*
X144653000Y-118872000D01*
X144653000Y-120071250D01*
X144811750Y-120230000D01*
X145376000Y-120233072D01*
X145500482Y-120220812D01*
X145620180Y-120184502D01*
X145730494Y-120125537D01*
X145827185Y-120046185D01*
X145906537Y-119949494D01*
X145965502Y-119839180D01*
X146001812Y-119719482D01*
X146014072Y-119595000D01*
X146011000Y-119030750D01*
X145852250Y-118872000D01*
X144653000Y-118872000D01*
X144399000Y-118872000D01*
X144379000Y-118872000D01*
X144379000Y-118618000D01*
X144399000Y-118618000D01*
X144399000Y-117418750D01*
X144328250Y-117348000D01*
X144399000Y-117277250D01*
X144399000Y-116078000D01*
X144653000Y-116078000D01*
X144653000Y-117277250D01*
X144723750Y-117348000D01*
X144653000Y-117418750D01*
X144653000Y-118618000D01*
X145852250Y-118618000D01*
X146011000Y-118459250D01*
X146014072Y-117895000D01*
X146001812Y-117770518D01*
X145965502Y-117650820D01*
X145906537Y-117540506D01*
X145827185Y-117443815D01*
X145730494Y-117364463D01*
X145699694Y-117348000D01*
X145730494Y-117331537D01*
X145827185Y-117252185D01*
X145906537Y-117155494D01*
X145965502Y-117045180D01*
X146001812Y-116925482D01*
X146014072Y-116801000D01*
X146011000Y-116236750D01*
X145852250Y-116078000D01*
X144653000Y-116078000D01*
X144399000Y-116078000D01*
X144379000Y-116078000D01*
X144379000Y-115824000D01*
X144399000Y-115824000D01*
X144399000Y-114624750D01*
X144653000Y-114624750D01*
X144653000Y-115824000D01*
X145852250Y-115824000D01*
X146011000Y-115665250D01*
X146014072Y-115101000D01*
X146001812Y-114976518D01*
X145965502Y-114856820D01*
X145906537Y-114746506D01*
X145827185Y-114649815D01*
X145730494Y-114570463D01*
X145620180Y-114511498D01*
X145500482Y-114475188D01*
X145376000Y-114462928D01*
X144811750Y-114466000D01*
X144653000Y-114624750D01*
X144399000Y-114624750D01*
X144240250Y-114466000D01*
X143676000Y-114462928D01*
X143551518Y-114475188D01*
X143431820Y-114511498D01*
X143321506Y-114570463D01*
X143224815Y-114649815D01*
X143145463Y-114746506D01*
X143086498Y-114856820D01*
X143064487Y-114929380D01*
X142932632Y-114797525D01*
X142689411Y-114635010D01*
X142419158Y-114523068D01*
X142132260Y-114466000D01*
X141839740Y-114466000D01*
X141552842Y-114523068D01*
X141282589Y-114635010D01*
X141039368Y-114797525D01*
X140832525Y-115004368D01*
X140716000Y-115178760D01*
X140599475Y-115004368D01*
X140392632Y-114797525D01*
X140149411Y-114635010D01*
X139879158Y-114523068D01*
X139592260Y-114466000D01*
X139299740Y-114466000D01*
X139012842Y-114523068D01*
X138742589Y-114635010D01*
X138499368Y-114797525D01*
X138292525Y-115004368D01*
X138176000Y-115178760D01*
X138059475Y-115004368D01*
X137852632Y-114797525D01*
X137609411Y-114635010D01*
X137339158Y-114523068D01*
X137052260Y-114466000D01*
X136759740Y-114466000D01*
X136472842Y-114523068D01*
X136202589Y-114635010D01*
X135959368Y-114797525D01*
X135752525Y-115004368D01*
X135636000Y-115178760D01*
X135519475Y-115004368D01*
X135312632Y-114797525D01*
X135069411Y-114635010D01*
X134799158Y-114523068D01*
X134512260Y-114466000D01*
X134219740Y-114466000D01*
X133932842Y-114523068D01*
X133662589Y-114635010D01*
X133419368Y-114797525D01*
X133212525Y-115004368D01*
X133096000Y-115178760D01*
X132979475Y-115004368D01*
X132772632Y-114797525D01*
X132529411Y-114635010D01*
X132259158Y-114523068D01*
X131972260Y-114466000D01*
X131804711Y-114466000D01*
X130647710Y-113309000D01*
X145763721Y-113309000D01*
X145913869Y-113323722D01*
M02*
