M48
; DRILL file {KiCad (5.1.5)-3} date 2020/07/22 19:36:52
; FORMAT={-:-/ absolute / inch / decimal}
; #@! TF.CreationDate,2020-07-22T19:36:52+10:00
; #@! TF.GenerationSoftware,Kicad,Pcbnew,(5.1.5)-3
FMAT,2
INCH
T1C0.0157
T2C0.0299
T3C0.0394
T4C0.1280
%
G90
G05
T1
X4.895Y-5.035
X5.01Y-5.075
X5.1673Y-4.8773
X5.215Y-4.86
T2
X4.74Y-4.7
X4.74Y-4.8
X4.74Y-4.9
X4.84Y-4.65
X4.84Y-4.75
X4.84Y-4.85
T3
X4.99Y-4.675
X5.09Y-4.675
X5.19Y-4.675
X5.29Y-4.675
X5.39Y-4.675
X5.49Y-4.675
X5.59Y-4.675
X5.69Y-4.675
X5.215Y-4.99
X5.315Y-4.99
X5.415Y-4.99
X5.515Y-4.99
X5.615Y-4.99
X5.715Y-4.99
X4.99Y-4.565
X5.09Y-4.565
X5.19Y-4.565
X5.29Y-4.565
X5.39Y-4.565
X5.49Y-4.565
X5.59Y-4.565
X5.69Y-4.565
T4
X4.49Y-4.5748
X4.49Y-4.9748
T0
M30
