G04 #@! TF.GenerationSoftware,KiCad,Pcbnew,(5.1.5)-3*
G04 #@! TF.CreationDate,2020-08-06T15:18:21+10:00*
G04 #@! TF.ProjectId,USART_BoSL_Bus,55534152-545f-4426-9f53-4c5f4275732e,rev 0.1.1*
G04 #@! TF.SameCoordinates,Original*
G04 #@! TF.FileFunction,Copper,L1,Top*
G04 #@! TF.FilePolarity,Positive*
%FSLAX46Y46*%
G04 Gerber Fmt 4.6, Leading zero omitted, Abs format (unit mm)*
G04 Created by KiCad (PCBNEW (5.1.5)-3) date 2020-08-06 15:18:21*
%MOMM*%
%LPD*%
G04 APERTURE LIST*
%ADD10O,1.700000X1.700000*%
%ADD11R,1.700000X1.700000*%
%ADD12C,2.400000*%
%ADD13R,2.400000X2.400000*%
%ADD14C,0.150000*%
%ADD15R,1.520000X1.520000*%
%ADD16C,1.520000*%
%ADD17C,0.800000*%
%ADD18C,0.800000*%
%ADD19C,0.400000*%
%ADD20C,0.254000*%
G04 APERTURE END LIST*
D10*
X133220000Y-118745000D03*
X135760000Y-118745000D03*
X138300000Y-118745000D03*
X140840000Y-118745000D03*
X143380000Y-118745000D03*
X145920000Y-118745000D03*
X148460000Y-118745000D03*
D11*
X151000000Y-118745000D03*
D10*
X133220000Y-115951000D03*
X135760000Y-115951000D03*
X138300000Y-115951000D03*
X140840000Y-115951000D03*
X143380000Y-115951000D03*
X145920000Y-115951000D03*
X148460000Y-115951000D03*
D11*
X151000000Y-115951000D03*
D12*
X150500000Y-124714000D03*
X147000000Y-124714000D03*
X143500000Y-124714000D03*
X140000000Y-124714000D03*
X136500000Y-124714000D03*
D13*
X133000000Y-124714000D03*
G04 #@! TA.AperFunction,SMDPad,CuDef*
D14*
G36*
X130069703Y-121000722D02*
G01*
X130084264Y-121002882D01*
X130098543Y-121006459D01*
X130112403Y-121011418D01*
X130125710Y-121017712D01*
X130138336Y-121025280D01*
X130150159Y-121034048D01*
X130161066Y-121043934D01*
X130170952Y-121054841D01*
X130179720Y-121066664D01*
X130187288Y-121079290D01*
X130193582Y-121092597D01*
X130198541Y-121106457D01*
X130202118Y-121120736D01*
X130204278Y-121135297D01*
X130205000Y-121150000D01*
X130205000Y-122800000D01*
X130204278Y-122814703D01*
X130202118Y-122829264D01*
X130198541Y-122843543D01*
X130193582Y-122857403D01*
X130187288Y-122870710D01*
X130179720Y-122883336D01*
X130170952Y-122895159D01*
X130161066Y-122906066D01*
X130150159Y-122915952D01*
X130138336Y-122924720D01*
X130125710Y-122932288D01*
X130112403Y-122938582D01*
X130098543Y-122943541D01*
X130084264Y-122947118D01*
X130069703Y-122949278D01*
X130055000Y-122950000D01*
X129755000Y-122950000D01*
X129740297Y-122949278D01*
X129725736Y-122947118D01*
X129711457Y-122943541D01*
X129697597Y-122938582D01*
X129684290Y-122932288D01*
X129671664Y-122924720D01*
X129659841Y-122915952D01*
X129648934Y-122906066D01*
X129639048Y-122895159D01*
X129630280Y-122883336D01*
X129622712Y-122870710D01*
X129616418Y-122857403D01*
X129611459Y-122843543D01*
X129607882Y-122829264D01*
X129605722Y-122814703D01*
X129605000Y-122800000D01*
X129605000Y-121150000D01*
X129605722Y-121135297D01*
X129607882Y-121120736D01*
X129611459Y-121106457D01*
X129616418Y-121092597D01*
X129622712Y-121079290D01*
X129630280Y-121066664D01*
X129639048Y-121054841D01*
X129648934Y-121043934D01*
X129659841Y-121034048D01*
X129671664Y-121025280D01*
X129684290Y-121017712D01*
X129697597Y-121011418D01*
X129711457Y-121006459D01*
X129725736Y-121002882D01*
X129740297Y-121000722D01*
X129755000Y-121000000D01*
X130055000Y-121000000D01*
X130069703Y-121000722D01*
G37*
G04 #@! TD.AperFunction*
G04 #@! TA.AperFunction,SMDPad,CuDef*
G36*
X128799703Y-121000722D02*
G01*
X128814264Y-121002882D01*
X128828543Y-121006459D01*
X128842403Y-121011418D01*
X128855710Y-121017712D01*
X128868336Y-121025280D01*
X128880159Y-121034048D01*
X128891066Y-121043934D01*
X128900952Y-121054841D01*
X128909720Y-121066664D01*
X128917288Y-121079290D01*
X128923582Y-121092597D01*
X128928541Y-121106457D01*
X128932118Y-121120736D01*
X128934278Y-121135297D01*
X128935000Y-121150000D01*
X128935000Y-122800000D01*
X128934278Y-122814703D01*
X128932118Y-122829264D01*
X128928541Y-122843543D01*
X128923582Y-122857403D01*
X128917288Y-122870710D01*
X128909720Y-122883336D01*
X128900952Y-122895159D01*
X128891066Y-122906066D01*
X128880159Y-122915952D01*
X128868336Y-122924720D01*
X128855710Y-122932288D01*
X128842403Y-122938582D01*
X128828543Y-122943541D01*
X128814264Y-122947118D01*
X128799703Y-122949278D01*
X128785000Y-122950000D01*
X128485000Y-122950000D01*
X128470297Y-122949278D01*
X128455736Y-122947118D01*
X128441457Y-122943541D01*
X128427597Y-122938582D01*
X128414290Y-122932288D01*
X128401664Y-122924720D01*
X128389841Y-122915952D01*
X128378934Y-122906066D01*
X128369048Y-122895159D01*
X128360280Y-122883336D01*
X128352712Y-122870710D01*
X128346418Y-122857403D01*
X128341459Y-122843543D01*
X128337882Y-122829264D01*
X128335722Y-122814703D01*
X128335000Y-122800000D01*
X128335000Y-121150000D01*
X128335722Y-121135297D01*
X128337882Y-121120736D01*
X128341459Y-121106457D01*
X128346418Y-121092597D01*
X128352712Y-121079290D01*
X128360280Y-121066664D01*
X128369048Y-121054841D01*
X128378934Y-121043934D01*
X128389841Y-121034048D01*
X128401664Y-121025280D01*
X128414290Y-121017712D01*
X128427597Y-121011418D01*
X128441457Y-121006459D01*
X128455736Y-121002882D01*
X128470297Y-121000722D01*
X128485000Y-121000000D01*
X128785000Y-121000000D01*
X128799703Y-121000722D01*
G37*
G04 #@! TD.AperFunction*
G04 #@! TA.AperFunction,SMDPad,CuDef*
G36*
X127529703Y-121000722D02*
G01*
X127544264Y-121002882D01*
X127558543Y-121006459D01*
X127572403Y-121011418D01*
X127585710Y-121017712D01*
X127598336Y-121025280D01*
X127610159Y-121034048D01*
X127621066Y-121043934D01*
X127630952Y-121054841D01*
X127639720Y-121066664D01*
X127647288Y-121079290D01*
X127653582Y-121092597D01*
X127658541Y-121106457D01*
X127662118Y-121120736D01*
X127664278Y-121135297D01*
X127665000Y-121150000D01*
X127665000Y-122800000D01*
X127664278Y-122814703D01*
X127662118Y-122829264D01*
X127658541Y-122843543D01*
X127653582Y-122857403D01*
X127647288Y-122870710D01*
X127639720Y-122883336D01*
X127630952Y-122895159D01*
X127621066Y-122906066D01*
X127610159Y-122915952D01*
X127598336Y-122924720D01*
X127585710Y-122932288D01*
X127572403Y-122938582D01*
X127558543Y-122943541D01*
X127544264Y-122947118D01*
X127529703Y-122949278D01*
X127515000Y-122950000D01*
X127215000Y-122950000D01*
X127200297Y-122949278D01*
X127185736Y-122947118D01*
X127171457Y-122943541D01*
X127157597Y-122938582D01*
X127144290Y-122932288D01*
X127131664Y-122924720D01*
X127119841Y-122915952D01*
X127108934Y-122906066D01*
X127099048Y-122895159D01*
X127090280Y-122883336D01*
X127082712Y-122870710D01*
X127076418Y-122857403D01*
X127071459Y-122843543D01*
X127067882Y-122829264D01*
X127065722Y-122814703D01*
X127065000Y-122800000D01*
X127065000Y-121150000D01*
X127065722Y-121135297D01*
X127067882Y-121120736D01*
X127071459Y-121106457D01*
X127076418Y-121092597D01*
X127082712Y-121079290D01*
X127090280Y-121066664D01*
X127099048Y-121054841D01*
X127108934Y-121043934D01*
X127119841Y-121034048D01*
X127131664Y-121025280D01*
X127144290Y-121017712D01*
X127157597Y-121011418D01*
X127171457Y-121006459D01*
X127185736Y-121002882D01*
X127200297Y-121000722D01*
X127215000Y-121000000D01*
X127515000Y-121000000D01*
X127529703Y-121000722D01*
G37*
G04 #@! TD.AperFunction*
G04 #@! TA.AperFunction,SMDPad,CuDef*
G36*
X126259703Y-121000722D02*
G01*
X126274264Y-121002882D01*
X126288543Y-121006459D01*
X126302403Y-121011418D01*
X126315710Y-121017712D01*
X126328336Y-121025280D01*
X126340159Y-121034048D01*
X126351066Y-121043934D01*
X126360952Y-121054841D01*
X126369720Y-121066664D01*
X126377288Y-121079290D01*
X126383582Y-121092597D01*
X126388541Y-121106457D01*
X126392118Y-121120736D01*
X126394278Y-121135297D01*
X126395000Y-121150000D01*
X126395000Y-122800000D01*
X126394278Y-122814703D01*
X126392118Y-122829264D01*
X126388541Y-122843543D01*
X126383582Y-122857403D01*
X126377288Y-122870710D01*
X126369720Y-122883336D01*
X126360952Y-122895159D01*
X126351066Y-122906066D01*
X126340159Y-122915952D01*
X126328336Y-122924720D01*
X126315710Y-122932288D01*
X126302403Y-122938582D01*
X126288543Y-122943541D01*
X126274264Y-122947118D01*
X126259703Y-122949278D01*
X126245000Y-122950000D01*
X125945000Y-122950000D01*
X125930297Y-122949278D01*
X125915736Y-122947118D01*
X125901457Y-122943541D01*
X125887597Y-122938582D01*
X125874290Y-122932288D01*
X125861664Y-122924720D01*
X125849841Y-122915952D01*
X125838934Y-122906066D01*
X125829048Y-122895159D01*
X125820280Y-122883336D01*
X125812712Y-122870710D01*
X125806418Y-122857403D01*
X125801459Y-122843543D01*
X125797882Y-122829264D01*
X125795722Y-122814703D01*
X125795000Y-122800000D01*
X125795000Y-121150000D01*
X125795722Y-121135297D01*
X125797882Y-121120736D01*
X125801459Y-121106457D01*
X125806418Y-121092597D01*
X125812712Y-121079290D01*
X125820280Y-121066664D01*
X125829048Y-121054841D01*
X125838934Y-121043934D01*
X125849841Y-121034048D01*
X125861664Y-121025280D01*
X125874290Y-121017712D01*
X125887597Y-121011418D01*
X125901457Y-121006459D01*
X125915736Y-121002882D01*
X125930297Y-121000722D01*
X125945000Y-121000000D01*
X126245000Y-121000000D01*
X126259703Y-121000722D01*
G37*
G04 #@! TD.AperFunction*
G04 #@! TA.AperFunction,SMDPad,CuDef*
G36*
X126259703Y-116050722D02*
G01*
X126274264Y-116052882D01*
X126288543Y-116056459D01*
X126302403Y-116061418D01*
X126315710Y-116067712D01*
X126328336Y-116075280D01*
X126340159Y-116084048D01*
X126351066Y-116093934D01*
X126360952Y-116104841D01*
X126369720Y-116116664D01*
X126377288Y-116129290D01*
X126383582Y-116142597D01*
X126388541Y-116156457D01*
X126392118Y-116170736D01*
X126394278Y-116185297D01*
X126395000Y-116200000D01*
X126395000Y-117850000D01*
X126394278Y-117864703D01*
X126392118Y-117879264D01*
X126388541Y-117893543D01*
X126383582Y-117907403D01*
X126377288Y-117920710D01*
X126369720Y-117933336D01*
X126360952Y-117945159D01*
X126351066Y-117956066D01*
X126340159Y-117965952D01*
X126328336Y-117974720D01*
X126315710Y-117982288D01*
X126302403Y-117988582D01*
X126288543Y-117993541D01*
X126274264Y-117997118D01*
X126259703Y-117999278D01*
X126245000Y-118000000D01*
X125945000Y-118000000D01*
X125930297Y-117999278D01*
X125915736Y-117997118D01*
X125901457Y-117993541D01*
X125887597Y-117988582D01*
X125874290Y-117982288D01*
X125861664Y-117974720D01*
X125849841Y-117965952D01*
X125838934Y-117956066D01*
X125829048Y-117945159D01*
X125820280Y-117933336D01*
X125812712Y-117920710D01*
X125806418Y-117907403D01*
X125801459Y-117893543D01*
X125797882Y-117879264D01*
X125795722Y-117864703D01*
X125795000Y-117850000D01*
X125795000Y-116200000D01*
X125795722Y-116185297D01*
X125797882Y-116170736D01*
X125801459Y-116156457D01*
X125806418Y-116142597D01*
X125812712Y-116129290D01*
X125820280Y-116116664D01*
X125829048Y-116104841D01*
X125838934Y-116093934D01*
X125849841Y-116084048D01*
X125861664Y-116075280D01*
X125874290Y-116067712D01*
X125887597Y-116061418D01*
X125901457Y-116056459D01*
X125915736Y-116052882D01*
X125930297Y-116050722D01*
X125945000Y-116050000D01*
X126245000Y-116050000D01*
X126259703Y-116050722D01*
G37*
G04 #@! TD.AperFunction*
G04 #@! TA.AperFunction,SMDPad,CuDef*
G36*
X127529703Y-116050722D02*
G01*
X127544264Y-116052882D01*
X127558543Y-116056459D01*
X127572403Y-116061418D01*
X127585710Y-116067712D01*
X127598336Y-116075280D01*
X127610159Y-116084048D01*
X127621066Y-116093934D01*
X127630952Y-116104841D01*
X127639720Y-116116664D01*
X127647288Y-116129290D01*
X127653582Y-116142597D01*
X127658541Y-116156457D01*
X127662118Y-116170736D01*
X127664278Y-116185297D01*
X127665000Y-116200000D01*
X127665000Y-117850000D01*
X127664278Y-117864703D01*
X127662118Y-117879264D01*
X127658541Y-117893543D01*
X127653582Y-117907403D01*
X127647288Y-117920710D01*
X127639720Y-117933336D01*
X127630952Y-117945159D01*
X127621066Y-117956066D01*
X127610159Y-117965952D01*
X127598336Y-117974720D01*
X127585710Y-117982288D01*
X127572403Y-117988582D01*
X127558543Y-117993541D01*
X127544264Y-117997118D01*
X127529703Y-117999278D01*
X127515000Y-118000000D01*
X127215000Y-118000000D01*
X127200297Y-117999278D01*
X127185736Y-117997118D01*
X127171457Y-117993541D01*
X127157597Y-117988582D01*
X127144290Y-117982288D01*
X127131664Y-117974720D01*
X127119841Y-117965952D01*
X127108934Y-117956066D01*
X127099048Y-117945159D01*
X127090280Y-117933336D01*
X127082712Y-117920710D01*
X127076418Y-117907403D01*
X127071459Y-117893543D01*
X127067882Y-117879264D01*
X127065722Y-117864703D01*
X127065000Y-117850000D01*
X127065000Y-116200000D01*
X127065722Y-116185297D01*
X127067882Y-116170736D01*
X127071459Y-116156457D01*
X127076418Y-116142597D01*
X127082712Y-116129290D01*
X127090280Y-116116664D01*
X127099048Y-116104841D01*
X127108934Y-116093934D01*
X127119841Y-116084048D01*
X127131664Y-116075280D01*
X127144290Y-116067712D01*
X127157597Y-116061418D01*
X127171457Y-116056459D01*
X127185736Y-116052882D01*
X127200297Y-116050722D01*
X127215000Y-116050000D01*
X127515000Y-116050000D01*
X127529703Y-116050722D01*
G37*
G04 #@! TD.AperFunction*
G04 #@! TA.AperFunction,SMDPad,CuDef*
G36*
X128799703Y-116050722D02*
G01*
X128814264Y-116052882D01*
X128828543Y-116056459D01*
X128842403Y-116061418D01*
X128855710Y-116067712D01*
X128868336Y-116075280D01*
X128880159Y-116084048D01*
X128891066Y-116093934D01*
X128900952Y-116104841D01*
X128909720Y-116116664D01*
X128917288Y-116129290D01*
X128923582Y-116142597D01*
X128928541Y-116156457D01*
X128932118Y-116170736D01*
X128934278Y-116185297D01*
X128935000Y-116200000D01*
X128935000Y-117850000D01*
X128934278Y-117864703D01*
X128932118Y-117879264D01*
X128928541Y-117893543D01*
X128923582Y-117907403D01*
X128917288Y-117920710D01*
X128909720Y-117933336D01*
X128900952Y-117945159D01*
X128891066Y-117956066D01*
X128880159Y-117965952D01*
X128868336Y-117974720D01*
X128855710Y-117982288D01*
X128842403Y-117988582D01*
X128828543Y-117993541D01*
X128814264Y-117997118D01*
X128799703Y-117999278D01*
X128785000Y-118000000D01*
X128485000Y-118000000D01*
X128470297Y-117999278D01*
X128455736Y-117997118D01*
X128441457Y-117993541D01*
X128427597Y-117988582D01*
X128414290Y-117982288D01*
X128401664Y-117974720D01*
X128389841Y-117965952D01*
X128378934Y-117956066D01*
X128369048Y-117945159D01*
X128360280Y-117933336D01*
X128352712Y-117920710D01*
X128346418Y-117907403D01*
X128341459Y-117893543D01*
X128337882Y-117879264D01*
X128335722Y-117864703D01*
X128335000Y-117850000D01*
X128335000Y-116200000D01*
X128335722Y-116185297D01*
X128337882Y-116170736D01*
X128341459Y-116156457D01*
X128346418Y-116142597D01*
X128352712Y-116129290D01*
X128360280Y-116116664D01*
X128369048Y-116104841D01*
X128378934Y-116093934D01*
X128389841Y-116084048D01*
X128401664Y-116075280D01*
X128414290Y-116067712D01*
X128427597Y-116061418D01*
X128441457Y-116056459D01*
X128455736Y-116052882D01*
X128470297Y-116050722D01*
X128485000Y-116050000D01*
X128785000Y-116050000D01*
X128799703Y-116050722D01*
G37*
G04 #@! TD.AperFunction*
G04 #@! TA.AperFunction,SMDPad,CuDef*
G36*
X130069703Y-116050722D02*
G01*
X130084264Y-116052882D01*
X130098543Y-116056459D01*
X130112403Y-116061418D01*
X130125710Y-116067712D01*
X130138336Y-116075280D01*
X130150159Y-116084048D01*
X130161066Y-116093934D01*
X130170952Y-116104841D01*
X130179720Y-116116664D01*
X130187288Y-116129290D01*
X130193582Y-116142597D01*
X130198541Y-116156457D01*
X130202118Y-116170736D01*
X130204278Y-116185297D01*
X130205000Y-116200000D01*
X130205000Y-117850000D01*
X130204278Y-117864703D01*
X130202118Y-117879264D01*
X130198541Y-117893543D01*
X130193582Y-117907403D01*
X130187288Y-117920710D01*
X130179720Y-117933336D01*
X130170952Y-117945159D01*
X130161066Y-117956066D01*
X130150159Y-117965952D01*
X130138336Y-117974720D01*
X130125710Y-117982288D01*
X130112403Y-117988582D01*
X130098543Y-117993541D01*
X130084264Y-117997118D01*
X130069703Y-117999278D01*
X130055000Y-118000000D01*
X129755000Y-118000000D01*
X129740297Y-117999278D01*
X129725736Y-117997118D01*
X129711457Y-117993541D01*
X129697597Y-117988582D01*
X129684290Y-117982288D01*
X129671664Y-117974720D01*
X129659841Y-117965952D01*
X129648934Y-117956066D01*
X129639048Y-117945159D01*
X129630280Y-117933336D01*
X129622712Y-117920710D01*
X129616418Y-117907403D01*
X129611459Y-117893543D01*
X129607882Y-117879264D01*
X129605722Y-117864703D01*
X129605000Y-117850000D01*
X129605000Y-116200000D01*
X129605722Y-116185297D01*
X129607882Y-116170736D01*
X129611459Y-116156457D01*
X129616418Y-116142597D01*
X129622712Y-116129290D01*
X129630280Y-116116664D01*
X129639048Y-116104841D01*
X129648934Y-116093934D01*
X129659841Y-116084048D01*
X129671664Y-116075280D01*
X129684290Y-116067712D01*
X129697597Y-116061418D01*
X129711457Y-116056459D01*
X129725736Y-116052882D01*
X129740297Y-116050722D01*
X129755000Y-116050000D01*
X130055000Y-116050000D01*
X130069703Y-116050722D01*
G37*
G04 #@! TD.AperFunction*
G04 #@! TA.AperFunction,SMDPad,CuDef*
G36*
X127527691Y-114526053D02*
G01*
X127548926Y-114529203D01*
X127569750Y-114534419D01*
X127589962Y-114541651D01*
X127609368Y-114550830D01*
X127627781Y-114561866D01*
X127645024Y-114574654D01*
X127660930Y-114589070D01*
X127675346Y-114604976D01*
X127688134Y-114622219D01*
X127699170Y-114640632D01*
X127708349Y-114660038D01*
X127715581Y-114680250D01*
X127720797Y-114701074D01*
X127723947Y-114722309D01*
X127725000Y-114743750D01*
X127725000Y-115256250D01*
X127723947Y-115277691D01*
X127720797Y-115298926D01*
X127715581Y-115319750D01*
X127708349Y-115339962D01*
X127699170Y-115359368D01*
X127688134Y-115377781D01*
X127675346Y-115395024D01*
X127660930Y-115410930D01*
X127645024Y-115425346D01*
X127627781Y-115438134D01*
X127609368Y-115449170D01*
X127589962Y-115458349D01*
X127569750Y-115465581D01*
X127548926Y-115470797D01*
X127527691Y-115473947D01*
X127506250Y-115475000D01*
X127068750Y-115475000D01*
X127047309Y-115473947D01*
X127026074Y-115470797D01*
X127005250Y-115465581D01*
X126985038Y-115458349D01*
X126965632Y-115449170D01*
X126947219Y-115438134D01*
X126929976Y-115425346D01*
X126914070Y-115410930D01*
X126899654Y-115395024D01*
X126886866Y-115377781D01*
X126875830Y-115359368D01*
X126866651Y-115339962D01*
X126859419Y-115319750D01*
X126854203Y-115298926D01*
X126851053Y-115277691D01*
X126850000Y-115256250D01*
X126850000Y-114743750D01*
X126851053Y-114722309D01*
X126854203Y-114701074D01*
X126859419Y-114680250D01*
X126866651Y-114660038D01*
X126875830Y-114640632D01*
X126886866Y-114622219D01*
X126899654Y-114604976D01*
X126914070Y-114589070D01*
X126929976Y-114574654D01*
X126947219Y-114561866D01*
X126965632Y-114550830D01*
X126985038Y-114541651D01*
X127005250Y-114534419D01*
X127026074Y-114529203D01*
X127047309Y-114526053D01*
X127068750Y-114525000D01*
X127506250Y-114525000D01*
X127527691Y-114526053D01*
G37*
G04 #@! TD.AperFunction*
G04 #@! TA.AperFunction,SMDPad,CuDef*
G36*
X125952691Y-114526053D02*
G01*
X125973926Y-114529203D01*
X125994750Y-114534419D01*
X126014962Y-114541651D01*
X126034368Y-114550830D01*
X126052781Y-114561866D01*
X126070024Y-114574654D01*
X126085930Y-114589070D01*
X126100346Y-114604976D01*
X126113134Y-114622219D01*
X126124170Y-114640632D01*
X126133349Y-114660038D01*
X126140581Y-114680250D01*
X126145797Y-114701074D01*
X126148947Y-114722309D01*
X126150000Y-114743750D01*
X126150000Y-115256250D01*
X126148947Y-115277691D01*
X126145797Y-115298926D01*
X126140581Y-115319750D01*
X126133349Y-115339962D01*
X126124170Y-115359368D01*
X126113134Y-115377781D01*
X126100346Y-115395024D01*
X126085930Y-115410930D01*
X126070024Y-115425346D01*
X126052781Y-115438134D01*
X126034368Y-115449170D01*
X126014962Y-115458349D01*
X125994750Y-115465581D01*
X125973926Y-115470797D01*
X125952691Y-115473947D01*
X125931250Y-115475000D01*
X125493750Y-115475000D01*
X125472309Y-115473947D01*
X125451074Y-115470797D01*
X125430250Y-115465581D01*
X125410038Y-115458349D01*
X125390632Y-115449170D01*
X125372219Y-115438134D01*
X125354976Y-115425346D01*
X125339070Y-115410930D01*
X125324654Y-115395024D01*
X125311866Y-115377781D01*
X125300830Y-115359368D01*
X125291651Y-115339962D01*
X125284419Y-115319750D01*
X125279203Y-115298926D01*
X125276053Y-115277691D01*
X125275000Y-115256250D01*
X125275000Y-114743750D01*
X125276053Y-114722309D01*
X125279203Y-114701074D01*
X125284419Y-114680250D01*
X125291651Y-114660038D01*
X125300830Y-114640632D01*
X125311866Y-114622219D01*
X125324654Y-114604976D01*
X125339070Y-114589070D01*
X125354976Y-114574654D01*
X125372219Y-114561866D01*
X125390632Y-114550830D01*
X125410038Y-114541651D01*
X125430250Y-114534419D01*
X125451074Y-114529203D01*
X125472309Y-114526053D01*
X125493750Y-114525000D01*
X125931250Y-114525000D01*
X125952691Y-114526053D01*
G37*
G04 #@! TD.AperFunction*
G04 #@! TA.AperFunction,SMDPad,CuDef*
G36*
X130527691Y-114526053D02*
G01*
X130548926Y-114529203D01*
X130569750Y-114534419D01*
X130589962Y-114541651D01*
X130609368Y-114550830D01*
X130627781Y-114561866D01*
X130645024Y-114574654D01*
X130660930Y-114589070D01*
X130675346Y-114604976D01*
X130688134Y-114622219D01*
X130699170Y-114640632D01*
X130708349Y-114660038D01*
X130715581Y-114680250D01*
X130720797Y-114701074D01*
X130723947Y-114722309D01*
X130725000Y-114743750D01*
X130725000Y-115256250D01*
X130723947Y-115277691D01*
X130720797Y-115298926D01*
X130715581Y-115319750D01*
X130708349Y-115339962D01*
X130699170Y-115359368D01*
X130688134Y-115377781D01*
X130675346Y-115395024D01*
X130660930Y-115410930D01*
X130645024Y-115425346D01*
X130627781Y-115438134D01*
X130609368Y-115449170D01*
X130589962Y-115458349D01*
X130569750Y-115465581D01*
X130548926Y-115470797D01*
X130527691Y-115473947D01*
X130506250Y-115475000D01*
X130068750Y-115475000D01*
X130047309Y-115473947D01*
X130026074Y-115470797D01*
X130005250Y-115465581D01*
X129985038Y-115458349D01*
X129965632Y-115449170D01*
X129947219Y-115438134D01*
X129929976Y-115425346D01*
X129914070Y-115410930D01*
X129899654Y-115395024D01*
X129886866Y-115377781D01*
X129875830Y-115359368D01*
X129866651Y-115339962D01*
X129859419Y-115319750D01*
X129854203Y-115298926D01*
X129851053Y-115277691D01*
X129850000Y-115256250D01*
X129850000Y-114743750D01*
X129851053Y-114722309D01*
X129854203Y-114701074D01*
X129859419Y-114680250D01*
X129866651Y-114660038D01*
X129875830Y-114640632D01*
X129886866Y-114622219D01*
X129899654Y-114604976D01*
X129914070Y-114589070D01*
X129929976Y-114574654D01*
X129947219Y-114561866D01*
X129965632Y-114550830D01*
X129985038Y-114541651D01*
X130005250Y-114534419D01*
X130026074Y-114529203D01*
X130047309Y-114526053D01*
X130068750Y-114525000D01*
X130506250Y-114525000D01*
X130527691Y-114526053D01*
G37*
G04 #@! TD.AperFunction*
G04 #@! TA.AperFunction,SMDPad,CuDef*
G36*
X128952691Y-114526053D02*
G01*
X128973926Y-114529203D01*
X128994750Y-114534419D01*
X129014962Y-114541651D01*
X129034368Y-114550830D01*
X129052781Y-114561866D01*
X129070024Y-114574654D01*
X129085930Y-114589070D01*
X129100346Y-114604976D01*
X129113134Y-114622219D01*
X129124170Y-114640632D01*
X129133349Y-114660038D01*
X129140581Y-114680250D01*
X129145797Y-114701074D01*
X129148947Y-114722309D01*
X129150000Y-114743750D01*
X129150000Y-115256250D01*
X129148947Y-115277691D01*
X129145797Y-115298926D01*
X129140581Y-115319750D01*
X129133349Y-115339962D01*
X129124170Y-115359368D01*
X129113134Y-115377781D01*
X129100346Y-115395024D01*
X129085930Y-115410930D01*
X129070024Y-115425346D01*
X129052781Y-115438134D01*
X129034368Y-115449170D01*
X129014962Y-115458349D01*
X128994750Y-115465581D01*
X128973926Y-115470797D01*
X128952691Y-115473947D01*
X128931250Y-115475000D01*
X128493750Y-115475000D01*
X128472309Y-115473947D01*
X128451074Y-115470797D01*
X128430250Y-115465581D01*
X128410038Y-115458349D01*
X128390632Y-115449170D01*
X128372219Y-115438134D01*
X128354976Y-115425346D01*
X128339070Y-115410930D01*
X128324654Y-115395024D01*
X128311866Y-115377781D01*
X128300830Y-115359368D01*
X128291651Y-115339962D01*
X128284419Y-115319750D01*
X128279203Y-115298926D01*
X128276053Y-115277691D01*
X128275000Y-115256250D01*
X128275000Y-114743750D01*
X128276053Y-114722309D01*
X128279203Y-114701074D01*
X128284419Y-114680250D01*
X128291651Y-114660038D01*
X128300830Y-114640632D01*
X128311866Y-114622219D01*
X128324654Y-114604976D01*
X128339070Y-114589070D01*
X128354976Y-114574654D01*
X128372219Y-114561866D01*
X128390632Y-114550830D01*
X128410038Y-114541651D01*
X128430250Y-114534419D01*
X128451074Y-114529203D01*
X128472309Y-114526053D01*
X128493750Y-114525000D01*
X128931250Y-114525000D01*
X128952691Y-114526053D01*
G37*
G04 #@! TD.AperFunction*
G04 #@! TA.AperFunction,SMDPad,CuDef*
G36*
X127452691Y-124026053D02*
G01*
X127473926Y-124029203D01*
X127494750Y-124034419D01*
X127514962Y-124041651D01*
X127534368Y-124050830D01*
X127552781Y-124061866D01*
X127570024Y-124074654D01*
X127585930Y-124089070D01*
X127600346Y-124104976D01*
X127613134Y-124122219D01*
X127624170Y-124140632D01*
X127633349Y-124160038D01*
X127640581Y-124180250D01*
X127645797Y-124201074D01*
X127648947Y-124222309D01*
X127650000Y-124243750D01*
X127650000Y-124756250D01*
X127648947Y-124777691D01*
X127645797Y-124798926D01*
X127640581Y-124819750D01*
X127633349Y-124839962D01*
X127624170Y-124859368D01*
X127613134Y-124877781D01*
X127600346Y-124895024D01*
X127585930Y-124910930D01*
X127570024Y-124925346D01*
X127552781Y-124938134D01*
X127534368Y-124949170D01*
X127514962Y-124958349D01*
X127494750Y-124965581D01*
X127473926Y-124970797D01*
X127452691Y-124973947D01*
X127431250Y-124975000D01*
X126993750Y-124975000D01*
X126972309Y-124973947D01*
X126951074Y-124970797D01*
X126930250Y-124965581D01*
X126910038Y-124958349D01*
X126890632Y-124949170D01*
X126872219Y-124938134D01*
X126854976Y-124925346D01*
X126839070Y-124910930D01*
X126824654Y-124895024D01*
X126811866Y-124877781D01*
X126800830Y-124859368D01*
X126791651Y-124839962D01*
X126784419Y-124819750D01*
X126779203Y-124798926D01*
X126776053Y-124777691D01*
X126775000Y-124756250D01*
X126775000Y-124243750D01*
X126776053Y-124222309D01*
X126779203Y-124201074D01*
X126784419Y-124180250D01*
X126791651Y-124160038D01*
X126800830Y-124140632D01*
X126811866Y-124122219D01*
X126824654Y-124104976D01*
X126839070Y-124089070D01*
X126854976Y-124074654D01*
X126872219Y-124061866D01*
X126890632Y-124050830D01*
X126910038Y-124041651D01*
X126930250Y-124034419D01*
X126951074Y-124029203D01*
X126972309Y-124026053D01*
X126993750Y-124025000D01*
X127431250Y-124025000D01*
X127452691Y-124026053D01*
G37*
G04 #@! TD.AperFunction*
G04 #@! TA.AperFunction,SMDPad,CuDef*
G36*
X129027691Y-124026053D02*
G01*
X129048926Y-124029203D01*
X129069750Y-124034419D01*
X129089962Y-124041651D01*
X129109368Y-124050830D01*
X129127781Y-124061866D01*
X129145024Y-124074654D01*
X129160930Y-124089070D01*
X129175346Y-124104976D01*
X129188134Y-124122219D01*
X129199170Y-124140632D01*
X129208349Y-124160038D01*
X129215581Y-124180250D01*
X129220797Y-124201074D01*
X129223947Y-124222309D01*
X129225000Y-124243750D01*
X129225000Y-124756250D01*
X129223947Y-124777691D01*
X129220797Y-124798926D01*
X129215581Y-124819750D01*
X129208349Y-124839962D01*
X129199170Y-124859368D01*
X129188134Y-124877781D01*
X129175346Y-124895024D01*
X129160930Y-124910930D01*
X129145024Y-124925346D01*
X129127781Y-124938134D01*
X129109368Y-124949170D01*
X129089962Y-124958349D01*
X129069750Y-124965581D01*
X129048926Y-124970797D01*
X129027691Y-124973947D01*
X129006250Y-124975000D01*
X128568750Y-124975000D01*
X128547309Y-124973947D01*
X128526074Y-124970797D01*
X128505250Y-124965581D01*
X128485038Y-124958349D01*
X128465632Y-124949170D01*
X128447219Y-124938134D01*
X128429976Y-124925346D01*
X128414070Y-124910930D01*
X128399654Y-124895024D01*
X128386866Y-124877781D01*
X128375830Y-124859368D01*
X128366651Y-124839962D01*
X128359419Y-124819750D01*
X128354203Y-124798926D01*
X128351053Y-124777691D01*
X128350000Y-124756250D01*
X128350000Y-124243750D01*
X128351053Y-124222309D01*
X128354203Y-124201074D01*
X128359419Y-124180250D01*
X128366651Y-124160038D01*
X128375830Y-124140632D01*
X128386866Y-124122219D01*
X128399654Y-124104976D01*
X128414070Y-124089070D01*
X128429976Y-124074654D01*
X128447219Y-124061866D01*
X128465632Y-124050830D01*
X128485038Y-124041651D01*
X128505250Y-124034419D01*
X128526074Y-124029203D01*
X128547309Y-124026053D01*
X128568750Y-124025000D01*
X129006250Y-124025000D01*
X129027691Y-124026053D01*
G37*
G04 #@! TD.AperFunction*
D15*
X122936000Y-118110000D03*
D16*
X120396000Y-119380000D03*
X122936000Y-120650000D03*
X120396000Y-121920000D03*
X122936000Y-123190000D03*
X120396000Y-124460000D03*
D17*
X125000000Y-124500000D03*
X127262500Y-126500000D03*
X128700000Y-119400004D03*
X131000000Y-117000000D03*
D18*
X140000000Y-121000000D02*
X140000000Y-124714000D01*
X140840000Y-120160000D02*
X140000000Y-121000000D01*
X140840000Y-118745000D02*
X140840000Y-120160000D01*
X133000000Y-122714000D02*
X134114000Y-121600000D01*
X133000000Y-124714000D02*
X133000000Y-122714000D01*
X134114000Y-121600000D02*
X137200000Y-121600000D01*
X137200000Y-121600000D02*
X138300000Y-120500000D01*
X119320000Y-119380000D02*
X120396000Y-119380000D01*
X118200000Y-120500000D02*
X119320000Y-119380000D01*
X133000000Y-126714000D02*
X132014000Y-127700000D01*
X133000000Y-124714000D02*
X133000000Y-126714000D01*
X118200000Y-125800000D02*
X118200000Y-120500000D01*
X132014000Y-127700000D02*
X120100000Y-127700000D01*
X120100000Y-127700000D02*
X118200000Y-125800000D01*
X138300000Y-120500000D02*
X138300000Y-118745000D01*
D19*
X127365000Y-124347500D02*
X127212500Y-124500000D01*
X127365000Y-121975000D02*
X127365000Y-124347500D01*
X125000000Y-124500000D02*
X127212500Y-124500000D01*
X124500000Y-122214000D02*
X124500000Y-124000000D01*
X122936000Y-120650000D02*
X124500000Y-122214000D01*
X124500000Y-124000000D02*
X125000000Y-124500000D01*
X128635000Y-124347500D02*
X128787500Y-124500000D01*
X128635000Y-121975000D02*
X128635000Y-124347500D01*
X128787500Y-124975000D02*
X127262500Y-126500000D01*
X128787500Y-124500000D02*
X128787500Y-124975000D01*
X121155999Y-122679999D02*
X120396000Y-121920000D01*
X121155999Y-123126801D02*
X121155999Y-122679999D01*
X124529198Y-126500000D02*
X121155999Y-123126801D01*
X127262500Y-126500000D02*
X124529198Y-126500000D01*
X130725000Y-115000000D02*
X130287500Y-115000000D01*
X131800001Y-116075001D02*
X130725000Y-115000000D01*
X129905000Y-121975000D02*
X131800001Y-120079999D01*
X131800001Y-116799999D02*
X131800001Y-117000001D01*
X131800001Y-117299999D02*
X131800001Y-116799999D01*
X131800001Y-116799999D02*
X131800001Y-116075001D01*
X131800001Y-120079999D02*
X131800000Y-117600000D01*
X131800000Y-117600000D02*
X131800001Y-117299999D01*
X132100000Y-117300000D02*
X131800000Y-117600000D01*
X132100000Y-117300000D02*
X147014999Y-117299999D01*
X131800001Y-117299999D02*
X132100000Y-117300000D01*
X131800001Y-117000001D02*
X132100000Y-117300000D01*
X147014999Y-117299999D02*
X148460000Y-118745000D01*
X128635000Y-115077500D02*
X128712500Y-115000000D01*
X128635000Y-117025000D02*
X128635000Y-115077500D01*
X128712500Y-114287500D02*
X128712500Y-115000000D01*
X129100000Y-113900000D02*
X128712500Y-114287500D01*
X133220000Y-114220000D02*
X132900000Y-113900000D01*
X132900000Y-113900000D02*
X129100000Y-113900000D01*
X133220000Y-115951000D02*
X133220000Y-114220000D01*
X127365000Y-115077500D02*
X127287500Y-115000000D01*
X127365000Y-117025000D02*
X127365000Y-115077500D01*
X127287500Y-115000000D02*
X127287500Y-114525000D01*
X127287500Y-114525000D02*
X128512500Y-113300000D01*
X128512500Y-113300000D02*
X134800000Y-113300000D01*
X134800000Y-113300000D02*
X135760000Y-114260000D01*
X135760000Y-114260000D02*
X135760000Y-115951000D01*
X126900004Y-119400004D02*
X128134315Y-119400004D01*
X126095000Y-117025000D02*
X126095000Y-118595000D01*
X128134315Y-119400004D02*
X128700000Y-119400004D01*
X126095000Y-118595000D02*
X126900004Y-119400004D01*
D18*
X151000000Y-120395000D02*
X150095000Y-121300000D01*
X150095000Y-121300000D02*
X144700000Y-121300000D01*
X144700000Y-121300000D02*
X143500000Y-122500000D01*
X143500000Y-122500000D02*
X143500000Y-124714000D01*
X151000000Y-118745000D02*
X151000000Y-120395000D01*
D19*
X129905000Y-117025000D02*
X130975000Y-117025000D01*
X130975000Y-117025000D02*
X131000000Y-117000000D01*
D20*
G36*
X126726074Y-113905559D02*
G01*
X126694210Y-113931709D01*
X126627871Y-114012543D01*
X126592725Y-114031329D01*
X126571070Y-114049100D01*
X126504494Y-113994463D01*
X126394180Y-113935498D01*
X126274482Y-113899188D01*
X126150000Y-113886928D01*
X125998250Y-113890000D01*
X125839500Y-114048750D01*
X125839500Y-114873000D01*
X125859500Y-114873000D01*
X125859500Y-115127000D01*
X125839500Y-115127000D01*
X125839500Y-115147000D01*
X125585500Y-115147000D01*
X125585500Y-115127000D01*
X124798750Y-115127000D01*
X124640000Y-115285750D01*
X124636928Y-115475000D01*
X124649188Y-115599482D01*
X124685498Y-115719180D01*
X124744463Y-115829494D01*
X124823815Y-115926185D01*
X124920506Y-116005537D01*
X125030820Y-116064502D01*
X125150518Y-116100812D01*
X125166542Y-116102390D01*
X125156928Y-116200000D01*
X125156928Y-117850000D01*
X125172071Y-118003745D01*
X125216916Y-118151582D01*
X125260001Y-118232187D01*
X125260001Y-118553972D01*
X125255960Y-118595000D01*
X125272082Y-118758688D01*
X125319828Y-118916086D01*
X125397364Y-119061145D01*
X125397365Y-119061146D01*
X125501710Y-119188291D01*
X125533574Y-119214441D01*
X126280567Y-119961436D01*
X126306713Y-119993295D01*
X126338572Y-120019441D01*
X126338574Y-120019443D01*
X126364574Y-120040780D01*
X126433858Y-120097640D01*
X126578917Y-120175176D01*
X126736315Y-120222922D01*
X126858985Y-120235004D01*
X126858986Y-120235004D01*
X126900004Y-120239044D01*
X126941022Y-120235004D01*
X128086715Y-120235004D01*
X128209744Y-120317209D01*
X128349843Y-120375240D01*
X128331255Y-120377071D01*
X128183418Y-120421916D01*
X128047171Y-120494742D01*
X128000000Y-120533454D01*
X127952829Y-120494742D01*
X127816582Y-120421916D01*
X127668745Y-120377071D01*
X127515000Y-120361928D01*
X127215000Y-120361928D01*
X127061255Y-120377071D01*
X126913418Y-120421916D01*
X126779064Y-120493730D01*
X126749494Y-120469463D01*
X126639180Y-120410498D01*
X126519482Y-120374188D01*
X126395000Y-120361928D01*
X126380750Y-120365000D01*
X126222000Y-120523750D01*
X126222000Y-121848000D01*
X126242000Y-121848000D01*
X126242000Y-122102000D01*
X126222000Y-122102000D01*
X126222000Y-123426250D01*
X126380750Y-123585000D01*
X126395000Y-123588072D01*
X126455890Y-123582075D01*
X126387885Y-123637885D01*
X126365632Y-123665000D01*
X125613285Y-123665000D01*
X125490256Y-123582795D01*
X125335000Y-123518485D01*
X125335000Y-123390444D01*
X125343815Y-123401185D01*
X125440506Y-123480537D01*
X125550820Y-123539502D01*
X125670518Y-123575812D01*
X125795000Y-123588072D01*
X125809250Y-123585000D01*
X125968000Y-123426250D01*
X125968000Y-122102000D01*
X125948000Y-122102000D01*
X125948000Y-121848000D01*
X125968000Y-121848000D01*
X125968000Y-120523750D01*
X125809250Y-120365000D01*
X125795000Y-120361928D01*
X125670518Y-120374188D01*
X125550820Y-120410498D01*
X125440506Y-120469463D01*
X125343815Y-120548815D01*
X125264463Y-120645506D01*
X125205498Y-120755820D01*
X125169188Y-120875518D01*
X125156928Y-121000000D01*
X125160000Y-121689250D01*
X125318748Y-121847998D01*
X125251164Y-121847998D01*
X125197636Y-121747854D01*
X125185911Y-121733567D01*
X125093291Y-121620709D01*
X125061428Y-121594560D01*
X124318269Y-120851401D01*
X124331000Y-120787396D01*
X124331000Y-120512604D01*
X124277391Y-120243093D01*
X124172233Y-119989220D01*
X124019567Y-119760739D01*
X123825261Y-119566433D01*
X123732533Y-119504474D01*
X123820482Y-119495812D01*
X123940180Y-119459502D01*
X124050494Y-119400537D01*
X124147185Y-119321185D01*
X124226537Y-119224494D01*
X124285502Y-119114180D01*
X124321812Y-118994482D01*
X124334072Y-118870000D01*
X124334072Y-117350000D01*
X124321812Y-117225518D01*
X124285502Y-117105820D01*
X124226537Y-116995506D01*
X124147185Y-116898815D01*
X124050494Y-116819463D01*
X123940180Y-116760498D01*
X123820482Y-116724188D01*
X123696000Y-116711928D01*
X122176000Y-116711928D01*
X122051518Y-116724188D01*
X121931820Y-116760498D01*
X121821506Y-116819463D01*
X121724815Y-116898815D01*
X121645463Y-116995506D01*
X121586498Y-117105820D01*
X121550188Y-117225518D01*
X121537928Y-117350000D01*
X121537928Y-118578082D01*
X121479567Y-118490739D01*
X121285261Y-118296433D01*
X121056780Y-118143767D01*
X120802907Y-118038609D01*
X120533396Y-117985000D01*
X120258604Y-117985000D01*
X119989093Y-118038609D01*
X119735220Y-118143767D01*
X119506739Y-118296433D01*
X119458172Y-118345000D01*
X119370827Y-118345000D01*
X119319999Y-118339994D01*
X119269171Y-118345000D01*
X119269162Y-118345000D01*
X119117105Y-118359976D01*
X118922007Y-118419159D01*
X118847002Y-118459250D01*
X118742202Y-118515266D01*
X118624092Y-118612197D01*
X118584604Y-118644604D01*
X118552197Y-118684092D01*
X117504093Y-119732197D01*
X117464605Y-119764604D01*
X117432198Y-119804092D01*
X117432197Y-119804093D01*
X117335266Y-119922203D01*
X117239160Y-120102007D01*
X117179977Y-120297105D01*
X117159994Y-120500000D01*
X117165001Y-120550837D01*
X117165000Y-125749172D01*
X117159994Y-125800000D01*
X117165000Y-125850828D01*
X117165000Y-125850837D01*
X117179976Y-126002894D01*
X117239159Y-126197992D01*
X117335266Y-126377797D01*
X117464604Y-126535396D01*
X117504097Y-126567807D01*
X119332197Y-128395908D01*
X119364604Y-128435396D01*
X119404092Y-128467803D01*
X119522202Y-128564734D01*
X119574067Y-128592456D01*
X119702007Y-128660841D01*
X119897105Y-128720024D01*
X120049162Y-128735000D01*
X120049165Y-128735000D01*
X120100000Y-128740007D01*
X120150835Y-128735000D01*
X131963172Y-128735000D01*
X132014000Y-128740006D01*
X132064828Y-128735000D01*
X132064838Y-128735000D01*
X132216895Y-128720024D01*
X132411993Y-128660841D01*
X132591797Y-128564734D01*
X132749396Y-128435396D01*
X132781807Y-128395903D01*
X133695908Y-127481803D01*
X133735396Y-127449396D01*
X133825963Y-127339040D01*
X133864734Y-127291798D01*
X133960841Y-127111994D01*
X133993572Y-127004093D01*
X134020024Y-126916895D01*
X134035000Y-126764838D01*
X134035000Y-126764835D01*
X134040007Y-126714000D01*
X134035000Y-126663165D01*
X134035000Y-126552072D01*
X134200000Y-126552072D01*
X134324482Y-126539812D01*
X134444180Y-126503502D01*
X134554494Y-126444537D01*
X134651185Y-126365185D01*
X134730537Y-126268494D01*
X134789502Y-126158180D01*
X134825812Y-126038482D01*
X134838072Y-125914000D01*
X134838072Y-125496838D01*
X134873844Y-125583199D01*
X135074662Y-125883744D01*
X135330256Y-126139338D01*
X135630801Y-126340156D01*
X135964750Y-126478482D01*
X136319268Y-126549000D01*
X136680732Y-126549000D01*
X137035250Y-126478482D01*
X137369199Y-126340156D01*
X137669744Y-126139338D01*
X137925338Y-125883744D01*
X138126156Y-125583199D01*
X138250000Y-125284213D01*
X138373844Y-125583199D01*
X138574662Y-125883744D01*
X138830256Y-126139338D01*
X139130801Y-126340156D01*
X139464750Y-126478482D01*
X139819268Y-126549000D01*
X140180732Y-126549000D01*
X140535250Y-126478482D01*
X140869199Y-126340156D01*
X141169744Y-126139338D01*
X141317102Y-125991980D01*
X142401626Y-125991980D01*
X142521514Y-126276836D01*
X142845210Y-126437699D01*
X143194069Y-126532322D01*
X143554684Y-126557067D01*
X143913198Y-126510985D01*
X144255833Y-126395846D01*
X144478486Y-126276836D01*
X144598374Y-125991980D01*
X143500000Y-124893605D01*
X142401626Y-125991980D01*
X141317102Y-125991980D01*
X141425338Y-125883744D01*
X141626156Y-125583199D01*
X141753190Y-125276511D01*
X141818154Y-125469833D01*
X141937164Y-125692486D01*
X142222020Y-125812374D01*
X143320395Y-124714000D01*
X143679605Y-124714000D01*
X144777980Y-125812374D01*
X145062836Y-125692486D01*
X145223699Y-125368790D01*
X145247969Y-125279310D01*
X145373844Y-125583199D01*
X145574662Y-125883744D01*
X145830256Y-126139338D01*
X146130801Y-126340156D01*
X146464750Y-126478482D01*
X146819268Y-126549000D01*
X147180732Y-126549000D01*
X147535250Y-126478482D01*
X147869199Y-126340156D01*
X148169744Y-126139338D01*
X148425338Y-125883744D01*
X148626156Y-125583199D01*
X148750000Y-125284213D01*
X148873844Y-125583199D01*
X149074662Y-125883744D01*
X149330256Y-126139338D01*
X149630801Y-126340156D01*
X149964750Y-126478482D01*
X150319268Y-126549000D01*
X150680732Y-126549000D01*
X151035250Y-126478482D01*
X151369199Y-126340156D01*
X151669744Y-126139338D01*
X151925338Y-125883744D01*
X152126156Y-125583199D01*
X152264482Y-125249250D01*
X152335000Y-124894732D01*
X152335000Y-124533268D01*
X152264482Y-124178750D01*
X152126156Y-123844801D01*
X151925338Y-123544256D01*
X151669744Y-123288662D01*
X151369199Y-123087844D01*
X151035250Y-122949518D01*
X150680732Y-122879000D01*
X150319268Y-122879000D01*
X149964750Y-122949518D01*
X149630801Y-123087844D01*
X149330256Y-123288662D01*
X149074662Y-123544256D01*
X148873844Y-123844801D01*
X148750000Y-124143787D01*
X148626156Y-123844801D01*
X148425338Y-123544256D01*
X148169744Y-123288662D01*
X147869199Y-123087844D01*
X147535250Y-122949518D01*
X147180732Y-122879000D01*
X146819268Y-122879000D01*
X146464750Y-122949518D01*
X146130801Y-123087844D01*
X145830256Y-123288662D01*
X145574662Y-123544256D01*
X145373844Y-123844801D01*
X145246810Y-124151489D01*
X145181846Y-123958167D01*
X145062836Y-123735514D01*
X144777980Y-123615626D01*
X143679605Y-124714000D01*
X143320395Y-124714000D01*
X142222020Y-123615626D01*
X141937164Y-123735514D01*
X141776301Y-124059210D01*
X141752031Y-124148690D01*
X141626156Y-123844801D01*
X141425338Y-123544256D01*
X141317102Y-123436020D01*
X142401626Y-123436020D01*
X143500000Y-124534395D01*
X144598374Y-123436020D01*
X144478486Y-123151164D01*
X144154790Y-122990301D01*
X143805931Y-122895678D01*
X143445316Y-122870933D01*
X143086802Y-122917015D01*
X142744167Y-123032154D01*
X142521514Y-123151164D01*
X142401626Y-123436020D01*
X141317102Y-123436020D01*
X141169744Y-123288662D01*
X141035000Y-123198629D01*
X141035000Y-121428710D01*
X141535908Y-120927803D01*
X141575396Y-120895396D01*
X141642452Y-120813688D01*
X141704734Y-120737798D01*
X141769711Y-120616233D01*
X141800841Y-120557993D01*
X141860024Y-120362895D01*
X141875000Y-120210838D01*
X141875000Y-120210829D01*
X141880006Y-120160001D01*
X141875000Y-120109173D01*
X141875000Y-119810107D01*
X141993475Y-119691632D01*
X142110000Y-119517240D01*
X142226525Y-119691632D01*
X142433368Y-119898475D01*
X142676589Y-120060990D01*
X142946842Y-120172932D01*
X143233740Y-120230000D01*
X143526260Y-120230000D01*
X143813158Y-120172932D01*
X144083411Y-120060990D01*
X144326632Y-119898475D01*
X144533475Y-119691632D01*
X144650000Y-119517240D01*
X144766525Y-119691632D01*
X144973368Y-119898475D01*
X145216589Y-120060990D01*
X145486842Y-120172932D01*
X145773740Y-120230000D01*
X146066260Y-120230000D01*
X146353158Y-120172932D01*
X146623411Y-120060990D01*
X146866632Y-119898475D01*
X147073475Y-119691632D01*
X147190000Y-119517240D01*
X147306525Y-119691632D01*
X147513368Y-119898475D01*
X147756589Y-120060990D01*
X148026842Y-120172932D01*
X148313740Y-120230000D01*
X148606260Y-120230000D01*
X148893158Y-120172932D01*
X149163411Y-120060990D01*
X149406632Y-119898475D01*
X149538487Y-119766620D01*
X149560498Y-119839180D01*
X149619463Y-119949494D01*
X149698815Y-120046185D01*
X149795506Y-120125537D01*
X149905820Y-120184502D01*
X150025518Y-120220812D01*
X150150000Y-120233072D01*
X150714250Y-120230000D01*
X150873000Y-120071250D01*
X150873000Y-118872000D01*
X150853000Y-118872000D01*
X150853000Y-118618000D01*
X150873000Y-118618000D01*
X150873000Y-117418750D01*
X150802250Y-117348000D01*
X150873000Y-117277250D01*
X150873000Y-116078000D01*
X150853000Y-116078000D01*
X150853000Y-115824000D01*
X150873000Y-115824000D01*
X150873000Y-114624750D01*
X150714250Y-114466000D01*
X150150000Y-114462928D01*
X150025518Y-114475188D01*
X149905820Y-114511498D01*
X149795506Y-114570463D01*
X149698815Y-114649815D01*
X149619463Y-114746506D01*
X149560498Y-114856820D01*
X149538487Y-114929380D01*
X149406632Y-114797525D01*
X149163411Y-114635010D01*
X148893158Y-114523068D01*
X148606260Y-114466000D01*
X148313740Y-114466000D01*
X148026842Y-114523068D01*
X147756589Y-114635010D01*
X147513368Y-114797525D01*
X147306525Y-115004368D01*
X147190000Y-115178760D01*
X147073475Y-115004368D01*
X146866632Y-114797525D01*
X146623411Y-114635010D01*
X146353158Y-114523068D01*
X146066260Y-114466000D01*
X145773740Y-114466000D01*
X145486842Y-114523068D01*
X145216589Y-114635010D01*
X144973368Y-114797525D01*
X144766525Y-115004368D01*
X144650000Y-115178760D01*
X144533475Y-115004368D01*
X144326632Y-114797525D01*
X144083411Y-114635010D01*
X143813158Y-114523068D01*
X143526260Y-114466000D01*
X143233740Y-114466000D01*
X142946842Y-114523068D01*
X142676589Y-114635010D01*
X142433368Y-114797525D01*
X142226525Y-115004368D01*
X142110000Y-115178760D01*
X141993475Y-115004368D01*
X141786632Y-114797525D01*
X141543411Y-114635010D01*
X141273158Y-114523068D01*
X140986260Y-114466000D01*
X140693740Y-114466000D01*
X140406842Y-114523068D01*
X140136589Y-114635010D01*
X139893368Y-114797525D01*
X139686525Y-115004368D01*
X139570000Y-115178760D01*
X139453475Y-115004368D01*
X139246632Y-114797525D01*
X139003411Y-114635010D01*
X138733158Y-114523068D01*
X138446260Y-114466000D01*
X138153740Y-114466000D01*
X137866842Y-114523068D01*
X137596589Y-114635010D01*
X137353368Y-114797525D01*
X137146525Y-115004368D01*
X137030000Y-115178760D01*
X136913475Y-115004368D01*
X136706632Y-114797525D01*
X136595000Y-114722935D01*
X136595000Y-114301018D01*
X136599040Y-114259999D01*
X136582918Y-114096311D01*
X136535172Y-113938913D01*
X136457636Y-113793854D01*
X136434896Y-113766145D01*
X136353291Y-113666709D01*
X136321428Y-113640560D01*
X135989868Y-113309000D01*
X151763721Y-113309000D01*
X151913869Y-113323722D01*
X152027246Y-113357953D01*
X152131819Y-113413555D01*
X152223596Y-113488407D01*
X152299091Y-113579664D01*
X152355419Y-113683844D01*
X152390440Y-113796976D01*
X152406001Y-113945031D01*
X152406001Y-114794145D01*
X152380537Y-114746506D01*
X152301185Y-114649815D01*
X152204494Y-114570463D01*
X152094180Y-114511498D01*
X151974482Y-114475188D01*
X151850000Y-114462928D01*
X151285750Y-114466000D01*
X151127000Y-114624750D01*
X151127000Y-115824000D01*
X151147000Y-115824000D01*
X151147000Y-116078000D01*
X151127000Y-116078000D01*
X151127000Y-117277250D01*
X151197750Y-117348000D01*
X151127000Y-117418750D01*
X151127000Y-118618000D01*
X151147000Y-118618000D01*
X151147000Y-118872000D01*
X151127000Y-118872000D01*
X151127000Y-120071250D01*
X151285750Y-120230000D01*
X151850000Y-120233072D01*
X151974482Y-120220812D01*
X152094180Y-120184502D01*
X152204494Y-120125537D01*
X152301185Y-120046185D01*
X152380537Y-119949494D01*
X152406001Y-119901856D01*
X152406000Y-128618721D01*
X152391278Y-128768869D01*
X152357047Y-128882246D01*
X152301446Y-128986817D01*
X152226594Y-129078595D01*
X152135335Y-129154091D01*
X152031160Y-129210419D01*
X151918024Y-129245440D01*
X151769979Y-129261000D01*
X106839279Y-129261000D01*
X106689131Y-129246278D01*
X106575754Y-129212047D01*
X106471183Y-129156446D01*
X106379405Y-129081594D01*
X106303909Y-128990335D01*
X106247581Y-128886160D01*
X106212560Y-128773024D01*
X106197000Y-128624979D01*
X106197000Y-126137409D01*
X111786000Y-126137409D01*
X111786000Y-126582591D01*
X111872851Y-127019218D01*
X112043214Y-127430511D01*
X112290544Y-127800666D01*
X112605334Y-128115456D01*
X112975489Y-128362786D01*
X113386782Y-128533149D01*
X113823409Y-128620000D01*
X114268591Y-128620000D01*
X114705218Y-128533149D01*
X115116511Y-128362786D01*
X115486666Y-128115456D01*
X115801456Y-127800666D01*
X116048786Y-127430511D01*
X116219149Y-127019218D01*
X116306000Y-126582591D01*
X116306000Y-126137409D01*
X116219149Y-125700782D01*
X116048786Y-125289489D01*
X115801456Y-124919334D01*
X115486666Y-124604544D01*
X115116511Y-124357214D01*
X114705218Y-124186851D01*
X114268591Y-124100000D01*
X113823409Y-124100000D01*
X113386782Y-124186851D01*
X112975489Y-124357214D01*
X112605334Y-124604544D01*
X112290544Y-124919334D01*
X112043214Y-125289489D01*
X111872851Y-125700782D01*
X111786000Y-126137409D01*
X106197000Y-126137409D01*
X106197000Y-115977409D01*
X111786000Y-115977409D01*
X111786000Y-116422591D01*
X111872851Y-116859218D01*
X112043214Y-117270511D01*
X112290544Y-117640666D01*
X112605334Y-117955456D01*
X112975489Y-118202786D01*
X113386782Y-118373149D01*
X113823409Y-118460000D01*
X114268591Y-118460000D01*
X114705218Y-118373149D01*
X115116511Y-118202786D01*
X115486666Y-117955456D01*
X115801456Y-117640666D01*
X116048786Y-117270511D01*
X116219149Y-116859218D01*
X116306000Y-116422591D01*
X116306000Y-115977409D01*
X116219149Y-115540782D01*
X116048786Y-115129489D01*
X115801456Y-114759334D01*
X115567122Y-114525000D01*
X124636928Y-114525000D01*
X124640000Y-114714250D01*
X124798750Y-114873000D01*
X125585500Y-114873000D01*
X125585500Y-114048750D01*
X125426750Y-113890000D01*
X125275000Y-113886928D01*
X125150518Y-113899188D01*
X125030820Y-113935498D01*
X124920506Y-113994463D01*
X124823815Y-114073815D01*
X124744463Y-114170506D01*
X124685498Y-114280820D01*
X124649188Y-114400518D01*
X124636928Y-114525000D01*
X115567122Y-114525000D01*
X115486666Y-114444544D01*
X115116511Y-114197214D01*
X114705218Y-114026851D01*
X114268591Y-113940000D01*
X113823409Y-113940000D01*
X113386782Y-114026851D01*
X112975489Y-114197214D01*
X112605334Y-114444544D01*
X112290544Y-114759334D01*
X112043214Y-115129489D01*
X111872851Y-115540782D01*
X111786000Y-115977409D01*
X106197000Y-115977409D01*
X106197000Y-113951279D01*
X106211722Y-113801131D01*
X106245953Y-113687754D01*
X106301555Y-113583181D01*
X106376407Y-113491404D01*
X106467664Y-113415909D01*
X106571844Y-113359581D01*
X106684976Y-113324560D01*
X106833022Y-113309000D01*
X127322632Y-113309000D01*
X126726074Y-113905559D01*
G37*
X126726074Y-113905559D02*
X126694210Y-113931709D01*
X126627871Y-114012543D01*
X126592725Y-114031329D01*
X126571070Y-114049100D01*
X126504494Y-113994463D01*
X126394180Y-113935498D01*
X126274482Y-113899188D01*
X126150000Y-113886928D01*
X125998250Y-113890000D01*
X125839500Y-114048750D01*
X125839500Y-114873000D01*
X125859500Y-114873000D01*
X125859500Y-115127000D01*
X125839500Y-115127000D01*
X125839500Y-115147000D01*
X125585500Y-115147000D01*
X125585500Y-115127000D01*
X124798750Y-115127000D01*
X124640000Y-115285750D01*
X124636928Y-115475000D01*
X124649188Y-115599482D01*
X124685498Y-115719180D01*
X124744463Y-115829494D01*
X124823815Y-115926185D01*
X124920506Y-116005537D01*
X125030820Y-116064502D01*
X125150518Y-116100812D01*
X125166542Y-116102390D01*
X125156928Y-116200000D01*
X125156928Y-117850000D01*
X125172071Y-118003745D01*
X125216916Y-118151582D01*
X125260001Y-118232187D01*
X125260001Y-118553972D01*
X125255960Y-118595000D01*
X125272082Y-118758688D01*
X125319828Y-118916086D01*
X125397364Y-119061145D01*
X125397365Y-119061146D01*
X125501710Y-119188291D01*
X125533574Y-119214441D01*
X126280567Y-119961436D01*
X126306713Y-119993295D01*
X126338572Y-120019441D01*
X126338574Y-120019443D01*
X126364574Y-120040780D01*
X126433858Y-120097640D01*
X126578917Y-120175176D01*
X126736315Y-120222922D01*
X126858985Y-120235004D01*
X126858986Y-120235004D01*
X126900004Y-120239044D01*
X126941022Y-120235004D01*
X128086715Y-120235004D01*
X128209744Y-120317209D01*
X128349843Y-120375240D01*
X128331255Y-120377071D01*
X128183418Y-120421916D01*
X128047171Y-120494742D01*
X128000000Y-120533454D01*
X127952829Y-120494742D01*
X127816582Y-120421916D01*
X127668745Y-120377071D01*
X127515000Y-120361928D01*
X127215000Y-120361928D01*
X127061255Y-120377071D01*
X126913418Y-120421916D01*
X126779064Y-120493730D01*
X126749494Y-120469463D01*
X126639180Y-120410498D01*
X126519482Y-120374188D01*
X126395000Y-120361928D01*
X126380750Y-120365000D01*
X126222000Y-120523750D01*
X126222000Y-121848000D01*
X126242000Y-121848000D01*
X126242000Y-122102000D01*
X126222000Y-122102000D01*
X126222000Y-123426250D01*
X126380750Y-123585000D01*
X126395000Y-123588072D01*
X126455890Y-123582075D01*
X126387885Y-123637885D01*
X126365632Y-123665000D01*
X125613285Y-123665000D01*
X125490256Y-123582795D01*
X125335000Y-123518485D01*
X125335000Y-123390444D01*
X125343815Y-123401185D01*
X125440506Y-123480537D01*
X125550820Y-123539502D01*
X125670518Y-123575812D01*
X125795000Y-123588072D01*
X125809250Y-123585000D01*
X125968000Y-123426250D01*
X125968000Y-122102000D01*
X125948000Y-122102000D01*
X125948000Y-121848000D01*
X125968000Y-121848000D01*
X125968000Y-120523750D01*
X125809250Y-120365000D01*
X125795000Y-120361928D01*
X125670518Y-120374188D01*
X125550820Y-120410498D01*
X125440506Y-120469463D01*
X125343815Y-120548815D01*
X125264463Y-120645506D01*
X125205498Y-120755820D01*
X125169188Y-120875518D01*
X125156928Y-121000000D01*
X125160000Y-121689250D01*
X125318748Y-121847998D01*
X125251164Y-121847998D01*
X125197636Y-121747854D01*
X125185911Y-121733567D01*
X125093291Y-121620709D01*
X125061428Y-121594560D01*
X124318269Y-120851401D01*
X124331000Y-120787396D01*
X124331000Y-120512604D01*
X124277391Y-120243093D01*
X124172233Y-119989220D01*
X124019567Y-119760739D01*
X123825261Y-119566433D01*
X123732533Y-119504474D01*
X123820482Y-119495812D01*
X123940180Y-119459502D01*
X124050494Y-119400537D01*
X124147185Y-119321185D01*
X124226537Y-119224494D01*
X124285502Y-119114180D01*
X124321812Y-118994482D01*
X124334072Y-118870000D01*
X124334072Y-117350000D01*
X124321812Y-117225518D01*
X124285502Y-117105820D01*
X124226537Y-116995506D01*
X124147185Y-116898815D01*
X124050494Y-116819463D01*
X123940180Y-116760498D01*
X123820482Y-116724188D01*
X123696000Y-116711928D01*
X122176000Y-116711928D01*
X122051518Y-116724188D01*
X121931820Y-116760498D01*
X121821506Y-116819463D01*
X121724815Y-116898815D01*
X121645463Y-116995506D01*
X121586498Y-117105820D01*
X121550188Y-117225518D01*
X121537928Y-117350000D01*
X121537928Y-118578082D01*
X121479567Y-118490739D01*
X121285261Y-118296433D01*
X121056780Y-118143767D01*
X120802907Y-118038609D01*
X120533396Y-117985000D01*
X120258604Y-117985000D01*
X119989093Y-118038609D01*
X119735220Y-118143767D01*
X119506739Y-118296433D01*
X119458172Y-118345000D01*
X119370827Y-118345000D01*
X119319999Y-118339994D01*
X119269171Y-118345000D01*
X119269162Y-118345000D01*
X119117105Y-118359976D01*
X118922007Y-118419159D01*
X118847002Y-118459250D01*
X118742202Y-118515266D01*
X118624092Y-118612197D01*
X118584604Y-118644604D01*
X118552197Y-118684092D01*
X117504093Y-119732197D01*
X117464605Y-119764604D01*
X117432198Y-119804092D01*
X117432197Y-119804093D01*
X117335266Y-119922203D01*
X117239160Y-120102007D01*
X117179977Y-120297105D01*
X117159994Y-120500000D01*
X117165001Y-120550837D01*
X117165000Y-125749172D01*
X117159994Y-125800000D01*
X117165000Y-125850828D01*
X117165000Y-125850837D01*
X117179976Y-126002894D01*
X117239159Y-126197992D01*
X117335266Y-126377797D01*
X117464604Y-126535396D01*
X117504097Y-126567807D01*
X119332197Y-128395908D01*
X119364604Y-128435396D01*
X119404092Y-128467803D01*
X119522202Y-128564734D01*
X119574067Y-128592456D01*
X119702007Y-128660841D01*
X119897105Y-128720024D01*
X120049162Y-128735000D01*
X120049165Y-128735000D01*
X120100000Y-128740007D01*
X120150835Y-128735000D01*
X131963172Y-128735000D01*
X132014000Y-128740006D01*
X132064828Y-128735000D01*
X132064838Y-128735000D01*
X132216895Y-128720024D01*
X132411993Y-128660841D01*
X132591797Y-128564734D01*
X132749396Y-128435396D01*
X132781807Y-128395903D01*
X133695908Y-127481803D01*
X133735396Y-127449396D01*
X133825963Y-127339040D01*
X133864734Y-127291798D01*
X133960841Y-127111994D01*
X133993572Y-127004093D01*
X134020024Y-126916895D01*
X134035000Y-126764838D01*
X134035000Y-126764835D01*
X134040007Y-126714000D01*
X134035000Y-126663165D01*
X134035000Y-126552072D01*
X134200000Y-126552072D01*
X134324482Y-126539812D01*
X134444180Y-126503502D01*
X134554494Y-126444537D01*
X134651185Y-126365185D01*
X134730537Y-126268494D01*
X134789502Y-126158180D01*
X134825812Y-126038482D01*
X134838072Y-125914000D01*
X134838072Y-125496838D01*
X134873844Y-125583199D01*
X135074662Y-125883744D01*
X135330256Y-126139338D01*
X135630801Y-126340156D01*
X135964750Y-126478482D01*
X136319268Y-126549000D01*
X136680732Y-126549000D01*
X137035250Y-126478482D01*
X137369199Y-126340156D01*
X137669744Y-126139338D01*
X137925338Y-125883744D01*
X138126156Y-125583199D01*
X138250000Y-125284213D01*
X138373844Y-125583199D01*
X138574662Y-125883744D01*
X138830256Y-126139338D01*
X139130801Y-126340156D01*
X139464750Y-126478482D01*
X139819268Y-126549000D01*
X140180732Y-126549000D01*
X140535250Y-126478482D01*
X140869199Y-126340156D01*
X141169744Y-126139338D01*
X141317102Y-125991980D01*
X142401626Y-125991980D01*
X142521514Y-126276836D01*
X142845210Y-126437699D01*
X143194069Y-126532322D01*
X143554684Y-126557067D01*
X143913198Y-126510985D01*
X144255833Y-126395846D01*
X144478486Y-126276836D01*
X144598374Y-125991980D01*
X143500000Y-124893605D01*
X142401626Y-125991980D01*
X141317102Y-125991980D01*
X141425338Y-125883744D01*
X141626156Y-125583199D01*
X141753190Y-125276511D01*
X141818154Y-125469833D01*
X141937164Y-125692486D01*
X142222020Y-125812374D01*
X143320395Y-124714000D01*
X143679605Y-124714000D01*
X144777980Y-125812374D01*
X145062836Y-125692486D01*
X145223699Y-125368790D01*
X145247969Y-125279310D01*
X145373844Y-125583199D01*
X145574662Y-125883744D01*
X145830256Y-126139338D01*
X146130801Y-126340156D01*
X146464750Y-126478482D01*
X146819268Y-126549000D01*
X147180732Y-126549000D01*
X147535250Y-126478482D01*
X147869199Y-126340156D01*
X148169744Y-126139338D01*
X148425338Y-125883744D01*
X148626156Y-125583199D01*
X148750000Y-125284213D01*
X148873844Y-125583199D01*
X149074662Y-125883744D01*
X149330256Y-126139338D01*
X149630801Y-126340156D01*
X149964750Y-126478482D01*
X150319268Y-126549000D01*
X150680732Y-126549000D01*
X151035250Y-126478482D01*
X151369199Y-126340156D01*
X151669744Y-126139338D01*
X151925338Y-125883744D01*
X152126156Y-125583199D01*
X152264482Y-125249250D01*
X152335000Y-124894732D01*
X152335000Y-124533268D01*
X152264482Y-124178750D01*
X152126156Y-123844801D01*
X151925338Y-123544256D01*
X151669744Y-123288662D01*
X151369199Y-123087844D01*
X151035250Y-122949518D01*
X150680732Y-122879000D01*
X150319268Y-122879000D01*
X149964750Y-122949518D01*
X149630801Y-123087844D01*
X149330256Y-123288662D01*
X149074662Y-123544256D01*
X148873844Y-123844801D01*
X148750000Y-124143787D01*
X148626156Y-123844801D01*
X148425338Y-123544256D01*
X148169744Y-123288662D01*
X147869199Y-123087844D01*
X147535250Y-122949518D01*
X147180732Y-122879000D01*
X146819268Y-122879000D01*
X146464750Y-122949518D01*
X146130801Y-123087844D01*
X145830256Y-123288662D01*
X145574662Y-123544256D01*
X145373844Y-123844801D01*
X145246810Y-124151489D01*
X145181846Y-123958167D01*
X145062836Y-123735514D01*
X144777980Y-123615626D01*
X143679605Y-124714000D01*
X143320395Y-124714000D01*
X142222020Y-123615626D01*
X141937164Y-123735514D01*
X141776301Y-124059210D01*
X141752031Y-124148690D01*
X141626156Y-123844801D01*
X141425338Y-123544256D01*
X141317102Y-123436020D01*
X142401626Y-123436020D01*
X143500000Y-124534395D01*
X144598374Y-123436020D01*
X144478486Y-123151164D01*
X144154790Y-122990301D01*
X143805931Y-122895678D01*
X143445316Y-122870933D01*
X143086802Y-122917015D01*
X142744167Y-123032154D01*
X142521514Y-123151164D01*
X142401626Y-123436020D01*
X141317102Y-123436020D01*
X141169744Y-123288662D01*
X141035000Y-123198629D01*
X141035000Y-121428710D01*
X141535908Y-120927803D01*
X141575396Y-120895396D01*
X141642452Y-120813688D01*
X141704734Y-120737798D01*
X141769711Y-120616233D01*
X141800841Y-120557993D01*
X141860024Y-120362895D01*
X141875000Y-120210838D01*
X141875000Y-120210829D01*
X141880006Y-120160001D01*
X141875000Y-120109173D01*
X141875000Y-119810107D01*
X141993475Y-119691632D01*
X142110000Y-119517240D01*
X142226525Y-119691632D01*
X142433368Y-119898475D01*
X142676589Y-120060990D01*
X142946842Y-120172932D01*
X143233740Y-120230000D01*
X143526260Y-120230000D01*
X143813158Y-120172932D01*
X144083411Y-120060990D01*
X144326632Y-119898475D01*
X144533475Y-119691632D01*
X144650000Y-119517240D01*
X144766525Y-119691632D01*
X144973368Y-119898475D01*
X145216589Y-120060990D01*
X145486842Y-120172932D01*
X145773740Y-120230000D01*
X146066260Y-120230000D01*
X146353158Y-120172932D01*
X146623411Y-120060990D01*
X146866632Y-119898475D01*
X147073475Y-119691632D01*
X147190000Y-119517240D01*
X147306525Y-119691632D01*
X147513368Y-119898475D01*
X147756589Y-120060990D01*
X148026842Y-120172932D01*
X148313740Y-120230000D01*
X148606260Y-120230000D01*
X148893158Y-120172932D01*
X149163411Y-120060990D01*
X149406632Y-119898475D01*
X149538487Y-119766620D01*
X149560498Y-119839180D01*
X149619463Y-119949494D01*
X149698815Y-120046185D01*
X149795506Y-120125537D01*
X149905820Y-120184502D01*
X150025518Y-120220812D01*
X150150000Y-120233072D01*
X150714250Y-120230000D01*
X150873000Y-120071250D01*
X150873000Y-118872000D01*
X150853000Y-118872000D01*
X150853000Y-118618000D01*
X150873000Y-118618000D01*
X150873000Y-117418750D01*
X150802250Y-117348000D01*
X150873000Y-117277250D01*
X150873000Y-116078000D01*
X150853000Y-116078000D01*
X150853000Y-115824000D01*
X150873000Y-115824000D01*
X150873000Y-114624750D01*
X150714250Y-114466000D01*
X150150000Y-114462928D01*
X150025518Y-114475188D01*
X149905820Y-114511498D01*
X149795506Y-114570463D01*
X149698815Y-114649815D01*
X149619463Y-114746506D01*
X149560498Y-114856820D01*
X149538487Y-114929380D01*
X149406632Y-114797525D01*
X149163411Y-114635010D01*
X148893158Y-114523068D01*
X148606260Y-114466000D01*
X148313740Y-114466000D01*
X148026842Y-114523068D01*
X147756589Y-114635010D01*
X147513368Y-114797525D01*
X147306525Y-115004368D01*
X147190000Y-115178760D01*
X147073475Y-115004368D01*
X146866632Y-114797525D01*
X146623411Y-114635010D01*
X146353158Y-114523068D01*
X146066260Y-114466000D01*
X145773740Y-114466000D01*
X145486842Y-114523068D01*
X145216589Y-114635010D01*
X144973368Y-114797525D01*
X144766525Y-115004368D01*
X144650000Y-115178760D01*
X144533475Y-115004368D01*
X144326632Y-114797525D01*
X144083411Y-114635010D01*
X143813158Y-114523068D01*
X143526260Y-114466000D01*
X143233740Y-114466000D01*
X142946842Y-114523068D01*
X142676589Y-114635010D01*
X142433368Y-114797525D01*
X142226525Y-115004368D01*
X142110000Y-115178760D01*
X141993475Y-115004368D01*
X141786632Y-114797525D01*
X141543411Y-114635010D01*
X141273158Y-114523068D01*
X140986260Y-114466000D01*
X140693740Y-114466000D01*
X140406842Y-114523068D01*
X140136589Y-114635010D01*
X139893368Y-114797525D01*
X139686525Y-115004368D01*
X139570000Y-115178760D01*
X139453475Y-115004368D01*
X139246632Y-114797525D01*
X139003411Y-114635010D01*
X138733158Y-114523068D01*
X138446260Y-114466000D01*
X138153740Y-114466000D01*
X137866842Y-114523068D01*
X137596589Y-114635010D01*
X137353368Y-114797525D01*
X137146525Y-115004368D01*
X137030000Y-115178760D01*
X136913475Y-115004368D01*
X136706632Y-114797525D01*
X136595000Y-114722935D01*
X136595000Y-114301018D01*
X136599040Y-114259999D01*
X136582918Y-114096311D01*
X136535172Y-113938913D01*
X136457636Y-113793854D01*
X136434896Y-113766145D01*
X136353291Y-113666709D01*
X136321428Y-113640560D01*
X135989868Y-113309000D01*
X151763721Y-113309000D01*
X151913869Y-113323722D01*
X152027246Y-113357953D01*
X152131819Y-113413555D01*
X152223596Y-113488407D01*
X152299091Y-113579664D01*
X152355419Y-113683844D01*
X152390440Y-113796976D01*
X152406001Y-113945031D01*
X152406001Y-114794145D01*
X152380537Y-114746506D01*
X152301185Y-114649815D01*
X152204494Y-114570463D01*
X152094180Y-114511498D01*
X151974482Y-114475188D01*
X151850000Y-114462928D01*
X151285750Y-114466000D01*
X151127000Y-114624750D01*
X151127000Y-115824000D01*
X151147000Y-115824000D01*
X151147000Y-116078000D01*
X151127000Y-116078000D01*
X151127000Y-117277250D01*
X151197750Y-117348000D01*
X151127000Y-117418750D01*
X151127000Y-118618000D01*
X151147000Y-118618000D01*
X151147000Y-118872000D01*
X151127000Y-118872000D01*
X151127000Y-120071250D01*
X151285750Y-120230000D01*
X151850000Y-120233072D01*
X151974482Y-120220812D01*
X152094180Y-120184502D01*
X152204494Y-120125537D01*
X152301185Y-120046185D01*
X152380537Y-119949494D01*
X152406001Y-119901856D01*
X152406000Y-128618721D01*
X152391278Y-128768869D01*
X152357047Y-128882246D01*
X152301446Y-128986817D01*
X152226594Y-129078595D01*
X152135335Y-129154091D01*
X152031160Y-129210419D01*
X151918024Y-129245440D01*
X151769979Y-129261000D01*
X106839279Y-129261000D01*
X106689131Y-129246278D01*
X106575754Y-129212047D01*
X106471183Y-129156446D01*
X106379405Y-129081594D01*
X106303909Y-128990335D01*
X106247581Y-128886160D01*
X106212560Y-128773024D01*
X106197000Y-128624979D01*
X106197000Y-126137409D01*
X111786000Y-126137409D01*
X111786000Y-126582591D01*
X111872851Y-127019218D01*
X112043214Y-127430511D01*
X112290544Y-127800666D01*
X112605334Y-128115456D01*
X112975489Y-128362786D01*
X113386782Y-128533149D01*
X113823409Y-128620000D01*
X114268591Y-128620000D01*
X114705218Y-128533149D01*
X115116511Y-128362786D01*
X115486666Y-128115456D01*
X115801456Y-127800666D01*
X116048786Y-127430511D01*
X116219149Y-127019218D01*
X116306000Y-126582591D01*
X116306000Y-126137409D01*
X116219149Y-125700782D01*
X116048786Y-125289489D01*
X115801456Y-124919334D01*
X115486666Y-124604544D01*
X115116511Y-124357214D01*
X114705218Y-124186851D01*
X114268591Y-124100000D01*
X113823409Y-124100000D01*
X113386782Y-124186851D01*
X112975489Y-124357214D01*
X112605334Y-124604544D01*
X112290544Y-124919334D01*
X112043214Y-125289489D01*
X111872851Y-125700782D01*
X111786000Y-126137409D01*
X106197000Y-126137409D01*
X106197000Y-115977409D01*
X111786000Y-115977409D01*
X111786000Y-116422591D01*
X111872851Y-116859218D01*
X112043214Y-117270511D01*
X112290544Y-117640666D01*
X112605334Y-117955456D01*
X112975489Y-118202786D01*
X113386782Y-118373149D01*
X113823409Y-118460000D01*
X114268591Y-118460000D01*
X114705218Y-118373149D01*
X115116511Y-118202786D01*
X115486666Y-117955456D01*
X115801456Y-117640666D01*
X116048786Y-117270511D01*
X116219149Y-116859218D01*
X116306000Y-116422591D01*
X116306000Y-115977409D01*
X116219149Y-115540782D01*
X116048786Y-115129489D01*
X115801456Y-114759334D01*
X115567122Y-114525000D01*
X124636928Y-114525000D01*
X124640000Y-114714250D01*
X124798750Y-114873000D01*
X125585500Y-114873000D01*
X125585500Y-114048750D01*
X125426750Y-113890000D01*
X125275000Y-113886928D01*
X125150518Y-113899188D01*
X125030820Y-113935498D01*
X124920506Y-113994463D01*
X124823815Y-114073815D01*
X124744463Y-114170506D01*
X124685498Y-114280820D01*
X124649188Y-114400518D01*
X124636928Y-114525000D01*
X115567122Y-114525000D01*
X115486666Y-114444544D01*
X115116511Y-114197214D01*
X114705218Y-114026851D01*
X114268591Y-113940000D01*
X113823409Y-113940000D01*
X113386782Y-114026851D01*
X112975489Y-114197214D01*
X112605334Y-114444544D01*
X112290544Y-114759334D01*
X112043214Y-115129489D01*
X111872851Y-115540782D01*
X111786000Y-115977409D01*
X106197000Y-115977409D01*
X106197000Y-113951279D01*
X106211722Y-113801131D01*
X106245953Y-113687754D01*
X106301555Y-113583181D01*
X106376407Y-113491404D01*
X106467664Y-113415909D01*
X106571844Y-113359581D01*
X106684976Y-113324560D01*
X106833022Y-113309000D01*
X127322632Y-113309000D01*
X126726074Y-113905559D01*
G36*
X119312433Y-122809261D02*
G01*
X119506739Y-123003567D01*
X119735220Y-123156233D01*
X119811501Y-123187830D01*
X119793674Y-123194256D01*
X119678206Y-123255975D01*
X119611469Y-123495863D01*
X120396000Y-124280395D01*
X120410143Y-124266253D01*
X120589748Y-124445858D01*
X120575605Y-124460000D01*
X121360137Y-125244531D01*
X121600025Y-125177794D01*
X121716924Y-124929108D01*
X121728948Y-124880618D01*
X123513329Y-126665000D01*
X120528711Y-126665000D01*
X119287848Y-125424137D01*
X119611469Y-125424137D01*
X119678206Y-125664025D01*
X119926892Y-125780924D01*
X120193606Y-125847061D01*
X120468097Y-125859895D01*
X120739817Y-125818931D01*
X120998326Y-125725744D01*
X121113794Y-125664025D01*
X121180531Y-125424137D01*
X120396000Y-124639605D01*
X119611469Y-125424137D01*
X119287848Y-125424137D01*
X119235000Y-125371290D01*
X119235000Y-125189764D01*
X119431863Y-125244531D01*
X120216395Y-124460000D01*
X119431863Y-123675469D01*
X119235000Y-123730236D01*
X119235000Y-122693374D01*
X119312433Y-122809261D01*
G37*
X119312433Y-122809261D02*
X119506739Y-123003567D01*
X119735220Y-123156233D01*
X119811501Y-123187830D01*
X119793674Y-123194256D01*
X119678206Y-123255975D01*
X119611469Y-123495863D01*
X120396000Y-124280395D01*
X120410143Y-124266253D01*
X120589748Y-124445858D01*
X120575605Y-124460000D01*
X121360137Y-125244531D01*
X121600025Y-125177794D01*
X121716924Y-124929108D01*
X121728948Y-124880618D01*
X123513329Y-126665000D01*
X120528711Y-126665000D01*
X119287848Y-125424137D01*
X119611469Y-125424137D01*
X119678206Y-125664025D01*
X119926892Y-125780924D01*
X120193606Y-125847061D01*
X120468097Y-125859895D01*
X120739817Y-125818931D01*
X120998326Y-125725744D01*
X121113794Y-125664025D01*
X121180531Y-125424137D01*
X120396000Y-124639605D01*
X119611469Y-125424137D01*
X119287848Y-125424137D01*
X119235000Y-125371290D01*
X119235000Y-125189764D01*
X119431863Y-125244531D01*
X120216395Y-124460000D01*
X119431863Y-123675469D01*
X119235000Y-123730236D01*
X119235000Y-122693374D01*
X119312433Y-122809261D01*
M02*
