G04 #@! TF.GenerationSoftware,KiCad,Pcbnew,(5.1.5)-3*
G04 #@! TF.CreationDate,2020-07-22T19:36:44+10:00*
G04 #@! TF.ProjectId,USART_BoSL_Bus,55534152-545f-4426-9f53-4c5f4275732e,rev?*
G04 #@! TF.SameCoordinates,Original*
G04 #@! TF.FileFunction,Soldermask,Bot*
G04 #@! TF.FilePolarity,Negative*
%FSLAX46Y46*%
G04 Gerber Fmt 4.6, Leading zero omitted, Abs format (unit mm)*
G04 Created by KiCad (PCBNEW (5.1.5)-3) date 2020-07-22 19:36:44*
%MOMM*%
%LPD*%
G04 APERTURE LIST*
%ADD10C,0.150000*%
G04 APERTURE END LIST*
D10*
G36*
X114372971Y-124716204D02*
G01*
X114534871Y-124748408D01*
X114839883Y-124874748D01*
X115114387Y-125058166D01*
X115347834Y-125291613D01*
X115531252Y-125566117D01*
X115657592Y-125871129D01*
X115722000Y-126194928D01*
X115722000Y-126525072D01*
X115657592Y-126848871D01*
X115531252Y-127153883D01*
X115347834Y-127428387D01*
X115114387Y-127661834D01*
X114839883Y-127845252D01*
X114534871Y-127971592D01*
X114211073Y-128036000D01*
X113880927Y-128036000D01*
X113557129Y-127971592D01*
X113252117Y-127845252D01*
X112977613Y-127661834D01*
X112744166Y-127428387D01*
X112560748Y-127153883D01*
X112434408Y-126848871D01*
X112370000Y-126525072D01*
X112370000Y-126194928D01*
X112434408Y-125871129D01*
X112560748Y-125566117D01*
X112744166Y-125291613D01*
X112977613Y-125058166D01*
X113252117Y-124874748D01*
X113557129Y-124748408D01*
X113719029Y-124716204D01*
X113880927Y-124684000D01*
X114211073Y-124684000D01*
X114372971Y-124716204D01*
G37*
G36*
X129926928Y-125911764D02*
G01*
X129948009Y-125918160D01*
X129967445Y-125928548D01*
X129984476Y-125942524D01*
X129998452Y-125959555D01*
X130008840Y-125978991D01*
X130015236Y-126000072D01*
X130018000Y-126028140D01*
X130018000Y-127841860D01*
X130015236Y-127869928D01*
X130008840Y-127891009D01*
X129998452Y-127910445D01*
X129984476Y-127927476D01*
X129967445Y-127941452D01*
X129948009Y-127951840D01*
X129926928Y-127958236D01*
X129898860Y-127961000D01*
X129435140Y-127961000D01*
X129407072Y-127958236D01*
X129385991Y-127951840D01*
X129366555Y-127941452D01*
X129349524Y-127927476D01*
X129335548Y-127910445D01*
X129325160Y-127891009D01*
X129318764Y-127869928D01*
X129316000Y-127841860D01*
X129316000Y-126028140D01*
X129318764Y-126000072D01*
X129325160Y-125978991D01*
X129335548Y-125959555D01*
X129349524Y-125942524D01*
X129366555Y-125928548D01*
X129385991Y-125918160D01*
X129407072Y-125911764D01*
X129435140Y-125909000D01*
X129898860Y-125909000D01*
X129926928Y-125911764D01*
G37*
G36*
X126116928Y-125911764D02*
G01*
X126138009Y-125918160D01*
X126157445Y-125928548D01*
X126174476Y-125942524D01*
X126188452Y-125959555D01*
X126198840Y-125978991D01*
X126205236Y-126000072D01*
X126208000Y-126028140D01*
X126208000Y-127841860D01*
X126205236Y-127869928D01*
X126198840Y-127891009D01*
X126188452Y-127910445D01*
X126174476Y-127927476D01*
X126157445Y-127941452D01*
X126138009Y-127951840D01*
X126116928Y-127958236D01*
X126088860Y-127961000D01*
X125625140Y-127961000D01*
X125597072Y-127958236D01*
X125575991Y-127951840D01*
X125556555Y-127941452D01*
X125539524Y-127927476D01*
X125525548Y-127910445D01*
X125515160Y-127891009D01*
X125508764Y-127869928D01*
X125506000Y-127841860D01*
X125506000Y-126028140D01*
X125508764Y-126000072D01*
X125515160Y-125978991D01*
X125525548Y-125959555D01*
X125539524Y-125942524D01*
X125556555Y-125928548D01*
X125575991Y-125918160D01*
X125597072Y-125911764D01*
X125625140Y-125909000D01*
X126088860Y-125909000D01*
X126116928Y-125911764D01*
G37*
G36*
X128656928Y-125911764D02*
G01*
X128678009Y-125918160D01*
X128697445Y-125928548D01*
X128714476Y-125942524D01*
X128728452Y-125959555D01*
X128738840Y-125978991D01*
X128745236Y-126000072D01*
X128748000Y-126028140D01*
X128748000Y-127841860D01*
X128745236Y-127869928D01*
X128738840Y-127891009D01*
X128728452Y-127910445D01*
X128714476Y-127927476D01*
X128697445Y-127941452D01*
X128678009Y-127951840D01*
X128656928Y-127958236D01*
X128628860Y-127961000D01*
X128165140Y-127961000D01*
X128137072Y-127958236D01*
X128115991Y-127951840D01*
X128096555Y-127941452D01*
X128079524Y-127927476D01*
X128065548Y-127910445D01*
X128055160Y-127891009D01*
X128048764Y-127869928D01*
X128046000Y-127841860D01*
X128046000Y-126028140D01*
X128048764Y-126000072D01*
X128055160Y-125978991D01*
X128065548Y-125959555D01*
X128079524Y-125942524D01*
X128096555Y-125928548D01*
X128115991Y-125918160D01*
X128137072Y-125911764D01*
X128165140Y-125909000D01*
X128628860Y-125909000D01*
X128656928Y-125911764D01*
G37*
G36*
X127386928Y-125911764D02*
G01*
X127408009Y-125918160D01*
X127427445Y-125928548D01*
X127444476Y-125942524D01*
X127458452Y-125959555D01*
X127468840Y-125978991D01*
X127475236Y-126000072D01*
X127478000Y-126028140D01*
X127478000Y-127841860D01*
X127475236Y-127869928D01*
X127468840Y-127891009D01*
X127458452Y-127910445D01*
X127444476Y-127927476D01*
X127427445Y-127941452D01*
X127408009Y-127951840D01*
X127386928Y-127958236D01*
X127358860Y-127961000D01*
X126895140Y-127961000D01*
X126867072Y-127958236D01*
X126845991Y-127951840D01*
X126826555Y-127941452D01*
X126809524Y-127927476D01*
X126795548Y-127910445D01*
X126785160Y-127891009D01*
X126778764Y-127869928D01*
X126776000Y-127841860D01*
X126776000Y-126028140D01*
X126778764Y-126000072D01*
X126785160Y-125978991D01*
X126795548Y-125959555D01*
X126809524Y-125942524D01*
X126826555Y-125928548D01*
X126845991Y-125918160D01*
X126867072Y-125911764D01*
X126895140Y-125909000D01*
X127358860Y-125909000D01*
X127386928Y-125911764D01*
G37*
G36*
X137648986Y-125848828D02*
G01*
X137803812Y-125879624D01*
X137967784Y-125947544D01*
X138115354Y-126046147D01*
X138240853Y-126171646D01*
X138339456Y-126319216D01*
X138407376Y-126483188D01*
X138437073Y-126632488D01*
X138442000Y-126657258D01*
X138442000Y-126834742D01*
X138437073Y-126859512D01*
X138407376Y-127008812D01*
X138339456Y-127172784D01*
X138240853Y-127320354D01*
X138115354Y-127445853D01*
X137967784Y-127544456D01*
X137803812Y-127612376D01*
X137654512Y-127642073D01*
X137629742Y-127647000D01*
X137452258Y-127647000D01*
X137427488Y-127642073D01*
X137278188Y-127612376D01*
X137114216Y-127544456D01*
X136966646Y-127445853D01*
X136841147Y-127320354D01*
X136742544Y-127172784D01*
X136674624Y-127008812D01*
X136644927Y-126859512D01*
X136640000Y-126834742D01*
X136640000Y-126657258D01*
X136644927Y-126632488D01*
X136674624Y-126483188D01*
X136742544Y-126319216D01*
X136841147Y-126171646D01*
X136966646Y-126046147D01*
X137114216Y-125947544D01*
X137278188Y-125879624D01*
X137433014Y-125848828D01*
X137452258Y-125845000D01*
X137629742Y-125845000D01*
X137648986Y-125848828D01*
G37*
G36*
X145268986Y-125848828D02*
G01*
X145423812Y-125879624D01*
X145587784Y-125947544D01*
X145735354Y-126046147D01*
X145860853Y-126171646D01*
X145959456Y-126319216D01*
X146027376Y-126483188D01*
X146057073Y-126632488D01*
X146062000Y-126657258D01*
X146062000Y-126834742D01*
X146057073Y-126859512D01*
X146027376Y-127008812D01*
X145959456Y-127172784D01*
X145860853Y-127320354D01*
X145735354Y-127445853D01*
X145587784Y-127544456D01*
X145423812Y-127612376D01*
X145274512Y-127642073D01*
X145249742Y-127647000D01*
X145072258Y-127647000D01*
X145047488Y-127642073D01*
X144898188Y-127612376D01*
X144734216Y-127544456D01*
X144586646Y-127445853D01*
X144461147Y-127320354D01*
X144362544Y-127172784D01*
X144294624Y-127008812D01*
X144264927Y-126859512D01*
X144260000Y-126834742D01*
X144260000Y-126657258D01*
X144264927Y-126632488D01*
X144294624Y-126483188D01*
X144362544Y-126319216D01*
X144461147Y-126171646D01*
X144586646Y-126046147D01*
X144734216Y-125947544D01*
X144898188Y-125879624D01*
X145053014Y-125848828D01*
X145072258Y-125845000D01*
X145249742Y-125845000D01*
X145268986Y-125848828D01*
G37*
G36*
X142728986Y-125848828D02*
G01*
X142883812Y-125879624D01*
X143047784Y-125947544D01*
X143195354Y-126046147D01*
X143320853Y-126171646D01*
X143419456Y-126319216D01*
X143487376Y-126483188D01*
X143517073Y-126632488D01*
X143522000Y-126657258D01*
X143522000Y-126834742D01*
X143517073Y-126859512D01*
X143487376Y-127008812D01*
X143419456Y-127172784D01*
X143320853Y-127320354D01*
X143195354Y-127445853D01*
X143047784Y-127544456D01*
X142883812Y-127612376D01*
X142734512Y-127642073D01*
X142709742Y-127647000D01*
X142532258Y-127647000D01*
X142507488Y-127642073D01*
X142358188Y-127612376D01*
X142194216Y-127544456D01*
X142046646Y-127445853D01*
X141921147Y-127320354D01*
X141822544Y-127172784D01*
X141754624Y-127008812D01*
X141724927Y-126859512D01*
X141720000Y-126834742D01*
X141720000Y-126657258D01*
X141724927Y-126632488D01*
X141754624Y-126483188D01*
X141822544Y-126319216D01*
X141921147Y-126171646D01*
X142046646Y-126046147D01*
X142194216Y-125947544D01*
X142358188Y-125879624D01*
X142513014Y-125848828D01*
X142532258Y-125845000D01*
X142709742Y-125845000D01*
X142728986Y-125848828D01*
G37*
G36*
X133362000Y-127647000D02*
G01*
X131560000Y-127647000D01*
X131560000Y-125845000D01*
X133362000Y-125845000D01*
X133362000Y-127647000D01*
G37*
G36*
X135108986Y-125848828D02*
G01*
X135263812Y-125879624D01*
X135427784Y-125947544D01*
X135575354Y-126046147D01*
X135700853Y-126171646D01*
X135799456Y-126319216D01*
X135867376Y-126483188D01*
X135897073Y-126632488D01*
X135902000Y-126657258D01*
X135902000Y-126834742D01*
X135897073Y-126859512D01*
X135867376Y-127008812D01*
X135799456Y-127172784D01*
X135700853Y-127320354D01*
X135575354Y-127445853D01*
X135427784Y-127544456D01*
X135263812Y-127612376D01*
X135114512Y-127642073D01*
X135089742Y-127647000D01*
X134912258Y-127647000D01*
X134887488Y-127642073D01*
X134738188Y-127612376D01*
X134574216Y-127544456D01*
X134426646Y-127445853D01*
X134301147Y-127320354D01*
X134202544Y-127172784D01*
X134134624Y-127008812D01*
X134104927Y-126859512D01*
X134100000Y-126834742D01*
X134100000Y-126657258D01*
X134104927Y-126632488D01*
X134134624Y-126483188D01*
X134202544Y-126319216D01*
X134301147Y-126171646D01*
X134426646Y-126046147D01*
X134574216Y-125947544D01*
X134738188Y-125879624D01*
X134893014Y-125848828D01*
X134912258Y-125845000D01*
X135089742Y-125845000D01*
X135108986Y-125848828D01*
G37*
G36*
X140188986Y-125848828D02*
G01*
X140343812Y-125879624D01*
X140507784Y-125947544D01*
X140655354Y-126046147D01*
X140780853Y-126171646D01*
X140879456Y-126319216D01*
X140947376Y-126483188D01*
X140977073Y-126632488D01*
X140982000Y-126657258D01*
X140982000Y-126834742D01*
X140977073Y-126859512D01*
X140947376Y-127008812D01*
X140879456Y-127172784D01*
X140780853Y-127320354D01*
X140655354Y-127445853D01*
X140507784Y-127544456D01*
X140343812Y-127612376D01*
X140194512Y-127642073D01*
X140169742Y-127647000D01*
X139992258Y-127647000D01*
X139967488Y-127642073D01*
X139818188Y-127612376D01*
X139654216Y-127544456D01*
X139506646Y-127445853D01*
X139381147Y-127320354D01*
X139282544Y-127172784D01*
X139214624Y-127008812D01*
X139184927Y-126859512D01*
X139180000Y-126834742D01*
X139180000Y-126657258D01*
X139184927Y-126632488D01*
X139214624Y-126483188D01*
X139282544Y-126319216D01*
X139381147Y-126171646D01*
X139506646Y-126046147D01*
X139654216Y-125947544D01*
X139818188Y-125879624D01*
X139973014Y-125848828D01*
X139992258Y-125845000D01*
X140169742Y-125845000D01*
X140188986Y-125848828D01*
G37*
G36*
X122847130Y-125189702D02*
G01*
X122881108Y-125200010D01*
X122912429Y-125216751D01*
X122944643Y-125243189D01*
X122984494Y-125283040D01*
X122984500Y-125283045D01*
X123382955Y-125681500D01*
X123382960Y-125681506D01*
X123422811Y-125721357D01*
X123449249Y-125753571D01*
X123465990Y-125784892D01*
X123476298Y-125818870D01*
X123479778Y-125854211D01*
X123476298Y-125889552D01*
X123465990Y-125923530D01*
X123449249Y-125954851D01*
X123422811Y-125987065D01*
X123382960Y-126026916D01*
X123382955Y-126026922D01*
X123037534Y-126372343D01*
X123037528Y-126372348D01*
X122997677Y-126412199D01*
X122965463Y-126438637D01*
X122934142Y-126455378D01*
X122900164Y-126465686D01*
X122864823Y-126469166D01*
X122829482Y-126465686D01*
X122795504Y-126455378D01*
X122764183Y-126438637D01*
X122731969Y-126412199D01*
X122692118Y-126372348D01*
X122692112Y-126372343D01*
X122293657Y-125973888D01*
X122293652Y-125973882D01*
X122253801Y-125934031D01*
X122227363Y-125901817D01*
X122210622Y-125870496D01*
X122200314Y-125836518D01*
X122196834Y-125801177D01*
X122200314Y-125765836D01*
X122210622Y-125731858D01*
X122227363Y-125700537D01*
X122253801Y-125668323D01*
X122293652Y-125628472D01*
X122293657Y-125628466D01*
X122639078Y-125283045D01*
X122639084Y-125283040D01*
X122678935Y-125243189D01*
X122711149Y-125216751D01*
X122742470Y-125200010D01*
X122776448Y-125189702D01*
X122811789Y-125186222D01*
X122847130Y-125189702D01*
G37*
G36*
X123960824Y-124076008D02*
G01*
X123994802Y-124086316D01*
X124026123Y-124103057D01*
X124058337Y-124129495D01*
X124098188Y-124169346D01*
X124098194Y-124169351D01*
X124496649Y-124567806D01*
X124496654Y-124567812D01*
X124536505Y-124607663D01*
X124562943Y-124639877D01*
X124579684Y-124671198D01*
X124589992Y-124705176D01*
X124593472Y-124740517D01*
X124589992Y-124775858D01*
X124579684Y-124809836D01*
X124562943Y-124841157D01*
X124536505Y-124873371D01*
X124496654Y-124913222D01*
X124496649Y-124913228D01*
X124151228Y-125258649D01*
X124151222Y-125258654D01*
X124111371Y-125298505D01*
X124079157Y-125324943D01*
X124047836Y-125341684D01*
X124013858Y-125351992D01*
X123978517Y-125355472D01*
X123943176Y-125351992D01*
X123909198Y-125341684D01*
X123877877Y-125324943D01*
X123845663Y-125298505D01*
X123805812Y-125258654D01*
X123805806Y-125258649D01*
X123407351Y-124860194D01*
X123407346Y-124860188D01*
X123367495Y-124820337D01*
X123341057Y-124788123D01*
X123324316Y-124756802D01*
X123314008Y-124722824D01*
X123310528Y-124687483D01*
X123314008Y-124652142D01*
X123324316Y-124618164D01*
X123341057Y-124586843D01*
X123367495Y-124554629D01*
X123407346Y-124514778D01*
X123407351Y-124514772D01*
X123752772Y-124169351D01*
X123752778Y-124169346D01*
X123792629Y-124129495D01*
X123824843Y-124103057D01*
X123856164Y-124086316D01*
X123890142Y-124076008D01*
X123925483Y-124072528D01*
X123960824Y-124076008D01*
G37*
G36*
X120632560Y-123680166D02*
G01*
X120780153Y-123741301D01*
X120912982Y-123830055D01*
X121025945Y-123943018D01*
X121064688Y-124001000D01*
X121114700Y-124075849D01*
X121175834Y-124223440D01*
X121207000Y-124380122D01*
X121207000Y-124539878D01*
X121204066Y-124554629D01*
X121175834Y-124696560D01*
X121114699Y-124844153D01*
X121025945Y-124976982D01*
X120912982Y-125089945D01*
X120780153Y-125178699D01*
X120780152Y-125178700D01*
X120780151Y-125178700D01*
X120632560Y-125239834D01*
X120475878Y-125271000D01*
X120316122Y-125271000D01*
X120159440Y-125239834D01*
X120011849Y-125178700D01*
X120011848Y-125178700D01*
X120011847Y-125178699D01*
X119879018Y-125089945D01*
X119766055Y-124976982D01*
X119677301Y-124844153D01*
X119616166Y-124696560D01*
X119587934Y-124554629D01*
X119585000Y-124539878D01*
X119585000Y-124380122D01*
X119616166Y-124223440D01*
X119677300Y-124075849D01*
X119727313Y-124001000D01*
X119766055Y-123943018D01*
X119879018Y-123830055D01*
X120011847Y-123741301D01*
X120159440Y-123680166D01*
X120316122Y-123649000D01*
X120475878Y-123649000D01*
X120632560Y-123680166D01*
G37*
G36*
X123172560Y-122410166D02*
G01*
X123320153Y-122471301D01*
X123452982Y-122560055D01*
X123565945Y-122673018D01*
X123654699Y-122805847D01*
X123715834Y-122953440D01*
X123747000Y-123110123D01*
X123747000Y-123269877D01*
X123715834Y-123426560D01*
X123654699Y-123574153D01*
X123565945Y-123706982D01*
X123452982Y-123819945D01*
X123320153Y-123908699D01*
X123320152Y-123908700D01*
X123320151Y-123908700D01*
X123172560Y-123969834D01*
X123015878Y-124001000D01*
X122856122Y-124001000D01*
X122699440Y-123969834D01*
X122551849Y-123908700D01*
X122551848Y-123908700D01*
X122551847Y-123908699D01*
X122419018Y-123819945D01*
X122306055Y-123706982D01*
X122217301Y-123574153D01*
X122156166Y-123426560D01*
X122125000Y-123269877D01*
X122125000Y-123110123D01*
X122156166Y-122953440D01*
X122217301Y-122805847D01*
X122306055Y-122673018D01*
X122419018Y-122560055D01*
X122551847Y-122471301D01*
X122699440Y-122410166D01*
X122856122Y-122379000D01*
X123015878Y-122379000D01*
X123172560Y-122410166D01*
G37*
G36*
X127386928Y-120961764D02*
G01*
X127408009Y-120968160D01*
X127427445Y-120978548D01*
X127444476Y-120992524D01*
X127458452Y-121009555D01*
X127468840Y-121028991D01*
X127475236Y-121050072D01*
X127478000Y-121078140D01*
X127478000Y-122891860D01*
X127475236Y-122919928D01*
X127468840Y-122941009D01*
X127458452Y-122960445D01*
X127444476Y-122977476D01*
X127427445Y-122991452D01*
X127408009Y-123001840D01*
X127386928Y-123008236D01*
X127358860Y-123011000D01*
X126895140Y-123011000D01*
X126867072Y-123008236D01*
X126845991Y-123001840D01*
X126826555Y-122991452D01*
X126809524Y-122977476D01*
X126795548Y-122960445D01*
X126785160Y-122941009D01*
X126778764Y-122919928D01*
X126776000Y-122891860D01*
X126776000Y-121078140D01*
X126778764Y-121050072D01*
X126785160Y-121028991D01*
X126795548Y-121009555D01*
X126809524Y-120992524D01*
X126826555Y-120978548D01*
X126845991Y-120968160D01*
X126867072Y-120961764D01*
X126895140Y-120959000D01*
X127358860Y-120959000D01*
X127386928Y-120961764D01*
G37*
G36*
X126116928Y-120961764D02*
G01*
X126138009Y-120968160D01*
X126157445Y-120978548D01*
X126174476Y-120992524D01*
X126188452Y-121009555D01*
X126198840Y-121028991D01*
X126205236Y-121050072D01*
X126208000Y-121078140D01*
X126208000Y-122891860D01*
X126205236Y-122919928D01*
X126198840Y-122941009D01*
X126188452Y-122960445D01*
X126174476Y-122977476D01*
X126157445Y-122991452D01*
X126138009Y-123001840D01*
X126116928Y-123008236D01*
X126088860Y-123011000D01*
X125625140Y-123011000D01*
X125597072Y-123008236D01*
X125575991Y-123001840D01*
X125556555Y-122991452D01*
X125539524Y-122977476D01*
X125525548Y-122960445D01*
X125515160Y-122941009D01*
X125508764Y-122919928D01*
X125506000Y-122891860D01*
X125506000Y-121078140D01*
X125508764Y-121050072D01*
X125515160Y-121028991D01*
X125525548Y-121009555D01*
X125539524Y-120992524D01*
X125556555Y-120978548D01*
X125575991Y-120968160D01*
X125597072Y-120961764D01*
X125625140Y-120959000D01*
X126088860Y-120959000D01*
X126116928Y-120961764D01*
G37*
G36*
X128656928Y-120961764D02*
G01*
X128678009Y-120968160D01*
X128697445Y-120978548D01*
X128714476Y-120992524D01*
X128728452Y-121009555D01*
X128738840Y-121028991D01*
X128745236Y-121050072D01*
X128748000Y-121078140D01*
X128748000Y-122891860D01*
X128745236Y-122919928D01*
X128738840Y-122941009D01*
X128728452Y-122960445D01*
X128714476Y-122977476D01*
X128697445Y-122991452D01*
X128678009Y-123001840D01*
X128656928Y-123008236D01*
X128628860Y-123011000D01*
X128165140Y-123011000D01*
X128137072Y-123008236D01*
X128115991Y-123001840D01*
X128096555Y-122991452D01*
X128079524Y-122977476D01*
X128065548Y-122960445D01*
X128055160Y-122941009D01*
X128048764Y-122919928D01*
X128046000Y-122891860D01*
X128046000Y-121078140D01*
X128048764Y-121050072D01*
X128055160Y-121028991D01*
X128065548Y-121009555D01*
X128079524Y-120992524D01*
X128096555Y-120978548D01*
X128115991Y-120968160D01*
X128137072Y-120961764D01*
X128165140Y-120959000D01*
X128628860Y-120959000D01*
X128656928Y-120961764D01*
G37*
G36*
X129926928Y-120961764D02*
G01*
X129948009Y-120968160D01*
X129967445Y-120978548D01*
X129984476Y-120992524D01*
X129998452Y-121009555D01*
X130008840Y-121028991D01*
X130015236Y-121050072D01*
X130018000Y-121078140D01*
X130018000Y-122891860D01*
X130015236Y-122919928D01*
X130008840Y-122941009D01*
X129998452Y-122960445D01*
X129984476Y-122977476D01*
X129967445Y-122991452D01*
X129948009Y-123001840D01*
X129926928Y-123008236D01*
X129898860Y-123011000D01*
X129435140Y-123011000D01*
X129407072Y-123008236D01*
X129385991Y-123001840D01*
X129366555Y-122991452D01*
X129349524Y-122977476D01*
X129335548Y-122960445D01*
X129325160Y-122941009D01*
X129318764Y-122919928D01*
X129316000Y-122891860D01*
X129316000Y-121078140D01*
X129318764Y-121050072D01*
X129325160Y-121028991D01*
X129335548Y-121009555D01*
X129349524Y-120992524D01*
X129366555Y-120978548D01*
X129385991Y-120968160D01*
X129407072Y-120961764D01*
X129435140Y-120959000D01*
X129898860Y-120959000D01*
X129926928Y-120961764D01*
G37*
G36*
X120604075Y-121134500D02*
G01*
X120632560Y-121140166D01*
X120780153Y-121201301D01*
X120912982Y-121290055D01*
X121025945Y-121403018D01*
X121114699Y-121535847D01*
X121175834Y-121683440D01*
X121207000Y-121840123D01*
X121207000Y-121999877D01*
X121175834Y-122156560D01*
X121114699Y-122304153D01*
X121025945Y-122436982D01*
X120912982Y-122549945D01*
X120780153Y-122638699D01*
X120780152Y-122638700D01*
X120780151Y-122638700D01*
X120632560Y-122699834D01*
X120475878Y-122731000D01*
X120316122Y-122731000D01*
X120159440Y-122699834D01*
X120011849Y-122638700D01*
X120011848Y-122638700D01*
X120011847Y-122638699D01*
X119879018Y-122549945D01*
X119766055Y-122436982D01*
X119677301Y-122304153D01*
X119616166Y-122156560D01*
X119585000Y-121999877D01*
X119585000Y-121840123D01*
X119616166Y-121683440D01*
X119677301Y-121535847D01*
X119766055Y-121403018D01*
X119879018Y-121290055D01*
X120011847Y-121201301D01*
X120159440Y-121140166D01*
X120187925Y-121134500D01*
X120316122Y-121109000D01*
X120475878Y-121109000D01*
X120604075Y-121134500D01*
G37*
G36*
X123172560Y-119870166D02*
G01*
X123320153Y-119931301D01*
X123452982Y-120020055D01*
X123565945Y-120133018D01*
X123604688Y-120191000D01*
X123654700Y-120265849D01*
X123715834Y-120413440D01*
X123747000Y-120570122D01*
X123747000Y-120729878D01*
X123715834Y-120886560D01*
X123684684Y-120961764D01*
X123654699Y-121034153D01*
X123565945Y-121166982D01*
X123452982Y-121279945D01*
X123320153Y-121368699D01*
X123320152Y-121368700D01*
X123320151Y-121368700D01*
X123172560Y-121429834D01*
X123015878Y-121461000D01*
X122856122Y-121461000D01*
X122699440Y-121429834D01*
X122551849Y-121368700D01*
X122551848Y-121368700D01*
X122551847Y-121368699D01*
X122419018Y-121279945D01*
X122306055Y-121166982D01*
X122217301Y-121034153D01*
X122187317Y-120961764D01*
X122156166Y-120886560D01*
X122125000Y-120729878D01*
X122125000Y-120570122D01*
X122156166Y-120413440D01*
X122217300Y-120265849D01*
X122267313Y-120191000D01*
X122306055Y-120133018D01*
X122419018Y-120020055D01*
X122551847Y-119931301D01*
X122699440Y-119870166D01*
X122856122Y-119839000D01*
X123015878Y-119839000D01*
X123172560Y-119870166D01*
G37*
G36*
X120632560Y-118600166D02*
G01*
X120780153Y-118661301D01*
X120912982Y-118750055D01*
X121025945Y-118863018D01*
X121114699Y-118995847D01*
X121175834Y-119143440D01*
X121207000Y-119300123D01*
X121207000Y-119459877D01*
X121175834Y-119616560D01*
X121114699Y-119764153D01*
X121025945Y-119896982D01*
X120912982Y-120009945D01*
X120780153Y-120098699D01*
X120780152Y-120098700D01*
X120780151Y-120098700D01*
X120632560Y-120159834D01*
X120475878Y-120191000D01*
X120316122Y-120191000D01*
X120159440Y-120159834D01*
X120011849Y-120098700D01*
X120011848Y-120098700D01*
X120011847Y-120098699D01*
X119879018Y-120009945D01*
X119766055Y-119896982D01*
X119677301Y-119764153D01*
X119616166Y-119616560D01*
X119585000Y-119459877D01*
X119585000Y-119300123D01*
X119616166Y-119143440D01*
X119677301Y-118995847D01*
X119766055Y-118863018D01*
X119879018Y-118750055D01*
X120011847Y-118661301D01*
X120159440Y-118600166D01*
X120316122Y-118569000D01*
X120475878Y-118569000D01*
X120632560Y-118600166D01*
G37*
G36*
X139559512Y-117848927D02*
G01*
X139708812Y-117878624D01*
X139872784Y-117946544D01*
X140020354Y-118045147D01*
X140145853Y-118170646D01*
X140244456Y-118318216D01*
X140312376Y-118482188D01*
X140347000Y-118656259D01*
X140347000Y-118833741D01*
X140312376Y-119007812D01*
X140244456Y-119171784D01*
X140145853Y-119319354D01*
X140020354Y-119444853D01*
X139872784Y-119543456D01*
X139708812Y-119611376D01*
X139559512Y-119641073D01*
X139534742Y-119646000D01*
X139357258Y-119646000D01*
X139332488Y-119641073D01*
X139183188Y-119611376D01*
X139019216Y-119543456D01*
X138871646Y-119444853D01*
X138746147Y-119319354D01*
X138647544Y-119171784D01*
X138579624Y-119007812D01*
X138545000Y-118833741D01*
X138545000Y-118656259D01*
X138579624Y-118482188D01*
X138647544Y-118318216D01*
X138746147Y-118170646D01*
X138871646Y-118045147D01*
X139019216Y-117946544D01*
X139183188Y-117878624D01*
X139332488Y-117848927D01*
X139357258Y-117844000D01*
X139534742Y-117844000D01*
X139559512Y-117848927D01*
G37*
G36*
X145427000Y-119646000D02*
G01*
X143625000Y-119646000D01*
X143625000Y-117844000D01*
X145427000Y-117844000D01*
X145427000Y-119646000D01*
G37*
G36*
X142099512Y-117848927D02*
G01*
X142248812Y-117878624D01*
X142412784Y-117946544D01*
X142560354Y-118045147D01*
X142685853Y-118170646D01*
X142784456Y-118318216D01*
X142852376Y-118482188D01*
X142887000Y-118656259D01*
X142887000Y-118833741D01*
X142852376Y-119007812D01*
X142784456Y-119171784D01*
X142685853Y-119319354D01*
X142560354Y-119444853D01*
X142412784Y-119543456D01*
X142248812Y-119611376D01*
X142099512Y-119641073D01*
X142074742Y-119646000D01*
X141897258Y-119646000D01*
X141872488Y-119641073D01*
X141723188Y-119611376D01*
X141559216Y-119543456D01*
X141411646Y-119444853D01*
X141286147Y-119319354D01*
X141187544Y-119171784D01*
X141119624Y-119007812D01*
X141085000Y-118833741D01*
X141085000Y-118656259D01*
X141119624Y-118482188D01*
X141187544Y-118318216D01*
X141286147Y-118170646D01*
X141411646Y-118045147D01*
X141559216Y-117946544D01*
X141723188Y-117878624D01*
X141872488Y-117848927D01*
X141897258Y-117844000D01*
X142074742Y-117844000D01*
X142099512Y-117848927D01*
G37*
G36*
X137019512Y-117848927D02*
G01*
X137168812Y-117878624D01*
X137332784Y-117946544D01*
X137480354Y-118045147D01*
X137605853Y-118170646D01*
X137704456Y-118318216D01*
X137772376Y-118482188D01*
X137807000Y-118656259D01*
X137807000Y-118833741D01*
X137772376Y-119007812D01*
X137704456Y-119171784D01*
X137605853Y-119319354D01*
X137480354Y-119444853D01*
X137332784Y-119543456D01*
X137168812Y-119611376D01*
X137019512Y-119641073D01*
X136994742Y-119646000D01*
X136817258Y-119646000D01*
X136792488Y-119641073D01*
X136643188Y-119611376D01*
X136479216Y-119543456D01*
X136331646Y-119444853D01*
X136206147Y-119319354D01*
X136107544Y-119171784D01*
X136039624Y-119007812D01*
X136005000Y-118833741D01*
X136005000Y-118656259D01*
X136039624Y-118482188D01*
X136107544Y-118318216D01*
X136206147Y-118170646D01*
X136331646Y-118045147D01*
X136479216Y-117946544D01*
X136643188Y-117878624D01*
X136792488Y-117848927D01*
X136817258Y-117844000D01*
X136994742Y-117844000D01*
X137019512Y-117848927D01*
G37*
G36*
X134479512Y-117848927D02*
G01*
X134628812Y-117878624D01*
X134792784Y-117946544D01*
X134940354Y-118045147D01*
X135065853Y-118170646D01*
X135164456Y-118318216D01*
X135232376Y-118482188D01*
X135267000Y-118656259D01*
X135267000Y-118833741D01*
X135232376Y-119007812D01*
X135164456Y-119171784D01*
X135065853Y-119319354D01*
X134940354Y-119444853D01*
X134792784Y-119543456D01*
X134628812Y-119611376D01*
X134479512Y-119641073D01*
X134454742Y-119646000D01*
X134277258Y-119646000D01*
X134252488Y-119641073D01*
X134103188Y-119611376D01*
X133939216Y-119543456D01*
X133791646Y-119444853D01*
X133666147Y-119319354D01*
X133567544Y-119171784D01*
X133499624Y-119007812D01*
X133465000Y-118833741D01*
X133465000Y-118656259D01*
X133499624Y-118482188D01*
X133567544Y-118318216D01*
X133666147Y-118170646D01*
X133791646Y-118045147D01*
X133939216Y-117946544D01*
X134103188Y-117878624D01*
X134252488Y-117848927D01*
X134277258Y-117844000D01*
X134454742Y-117844000D01*
X134479512Y-117848927D01*
G37*
G36*
X131939512Y-117848927D02*
G01*
X132088812Y-117878624D01*
X132252784Y-117946544D01*
X132400354Y-118045147D01*
X132525853Y-118170646D01*
X132624456Y-118318216D01*
X132692376Y-118482188D01*
X132727000Y-118656259D01*
X132727000Y-118833741D01*
X132692376Y-119007812D01*
X132624456Y-119171784D01*
X132525853Y-119319354D01*
X132400354Y-119444853D01*
X132252784Y-119543456D01*
X132088812Y-119611376D01*
X131939512Y-119641073D01*
X131914742Y-119646000D01*
X131737258Y-119646000D01*
X131712488Y-119641073D01*
X131563188Y-119611376D01*
X131399216Y-119543456D01*
X131251646Y-119444853D01*
X131126147Y-119319354D01*
X131027544Y-119171784D01*
X130959624Y-119007812D01*
X130925000Y-118833741D01*
X130925000Y-118656259D01*
X130959624Y-118482188D01*
X131027544Y-118318216D01*
X131126147Y-118170646D01*
X131251646Y-118045147D01*
X131399216Y-117946544D01*
X131563188Y-117878624D01*
X131712488Y-117848927D01*
X131737258Y-117844000D01*
X131914742Y-117844000D01*
X131939512Y-117848927D01*
G37*
G36*
X129399512Y-117848927D02*
G01*
X129548812Y-117878624D01*
X129712784Y-117946544D01*
X129860354Y-118045147D01*
X129985853Y-118170646D01*
X130084456Y-118318216D01*
X130152376Y-118482188D01*
X130187000Y-118656259D01*
X130187000Y-118833741D01*
X130152376Y-119007812D01*
X130084456Y-119171784D01*
X129985853Y-119319354D01*
X129860354Y-119444853D01*
X129712784Y-119543456D01*
X129548812Y-119611376D01*
X129399512Y-119641073D01*
X129374742Y-119646000D01*
X129197258Y-119646000D01*
X129172488Y-119641073D01*
X129023188Y-119611376D01*
X128859216Y-119543456D01*
X128711646Y-119444853D01*
X128586147Y-119319354D01*
X128487544Y-119171784D01*
X128419624Y-119007812D01*
X128385000Y-118833741D01*
X128385000Y-118656259D01*
X128419624Y-118482188D01*
X128487544Y-118318216D01*
X128586147Y-118170646D01*
X128711646Y-118045147D01*
X128859216Y-117946544D01*
X129023188Y-117878624D01*
X129172488Y-117848927D01*
X129197258Y-117844000D01*
X129374742Y-117844000D01*
X129399512Y-117848927D01*
G37*
G36*
X126859512Y-117848927D02*
G01*
X127008812Y-117878624D01*
X127172784Y-117946544D01*
X127320354Y-118045147D01*
X127445853Y-118170646D01*
X127544456Y-118318216D01*
X127612376Y-118482188D01*
X127647000Y-118656259D01*
X127647000Y-118833741D01*
X127612376Y-119007812D01*
X127544456Y-119171784D01*
X127445853Y-119319354D01*
X127320354Y-119444853D01*
X127172784Y-119543456D01*
X127008812Y-119611376D01*
X126859512Y-119641073D01*
X126834742Y-119646000D01*
X126657258Y-119646000D01*
X126632488Y-119641073D01*
X126483188Y-119611376D01*
X126319216Y-119543456D01*
X126171646Y-119444853D01*
X126046147Y-119319354D01*
X125947544Y-119171784D01*
X125879624Y-119007812D01*
X125845000Y-118833741D01*
X125845000Y-118656259D01*
X125879624Y-118482188D01*
X125947544Y-118318216D01*
X126046147Y-118170646D01*
X126171646Y-118045147D01*
X126319216Y-117946544D01*
X126483188Y-117878624D01*
X126632488Y-117848927D01*
X126657258Y-117844000D01*
X126834742Y-117844000D01*
X126859512Y-117848927D01*
G37*
G36*
X123747000Y-118921000D02*
G01*
X122125000Y-118921000D01*
X122125000Y-117299000D01*
X123747000Y-117299000D01*
X123747000Y-118921000D01*
G37*
G36*
X114534871Y-114588408D02*
G01*
X114839883Y-114714748D01*
X115114387Y-114898166D01*
X115347834Y-115131613D01*
X115531252Y-115406117D01*
X115648090Y-115688189D01*
X115657592Y-115711130D01*
X115722000Y-116034927D01*
X115722000Y-116365073D01*
X115690118Y-116525353D01*
X115657592Y-116688871D01*
X115531252Y-116993883D01*
X115347834Y-117268387D01*
X115114387Y-117501834D01*
X114839883Y-117685252D01*
X114534871Y-117811592D01*
X114211073Y-117876000D01*
X113880927Y-117876000D01*
X113557129Y-117811592D01*
X113252117Y-117685252D01*
X112977613Y-117501834D01*
X112744166Y-117268387D01*
X112560748Y-116993883D01*
X112434408Y-116688871D01*
X112401882Y-116525353D01*
X112370000Y-116365073D01*
X112370000Y-116034927D01*
X112434408Y-115711130D01*
X112443910Y-115688189D01*
X112560748Y-115406117D01*
X112744166Y-115131613D01*
X112977613Y-114898166D01*
X113252117Y-114714748D01*
X113557129Y-114588408D01*
X113880927Y-114524000D01*
X114211073Y-114524000D01*
X114534871Y-114588408D01*
G37*
G36*
X129399512Y-115054927D02*
G01*
X129548812Y-115084624D01*
X129712784Y-115152544D01*
X129860354Y-115251147D01*
X129985853Y-115376646D01*
X130084456Y-115524216D01*
X130152376Y-115688188D01*
X130187000Y-115862259D01*
X130187000Y-116039741D01*
X130152376Y-116213812D01*
X130084456Y-116377784D01*
X129985853Y-116525354D01*
X129860354Y-116650853D01*
X129712784Y-116749456D01*
X129548812Y-116817376D01*
X129399512Y-116847073D01*
X129374742Y-116852000D01*
X129197258Y-116852000D01*
X129172488Y-116847073D01*
X129023188Y-116817376D01*
X128859216Y-116749456D01*
X128711646Y-116650853D01*
X128586147Y-116525354D01*
X128487544Y-116377784D01*
X128419624Y-116213812D01*
X128385000Y-116039741D01*
X128385000Y-115862259D01*
X128419624Y-115688188D01*
X128487544Y-115524216D01*
X128586147Y-115376646D01*
X128711646Y-115251147D01*
X128859216Y-115152544D01*
X129023188Y-115084624D01*
X129172488Y-115054927D01*
X129197258Y-115050000D01*
X129374742Y-115050000D01*
X129399512Y-115054927D01*
G37*
G36*
X131939512Y-115054927D02*
G01*
X132088812Y-115084624D01*
X132252784Y-115152544D01*
X132400354Y-115251147D01*
X132525853Y-115376646D01*
X132624456Y-115524216D01*
X132692376Y-115688188D01*
X132727000Y-115862259D01*
X132727000Y-116039741D01*
X132692376Y-116213812D01*
X132624456Y-116377784D01*
X132525853Y-116525354D01*
X132400354Y-116650853D01*
X132252784Y-116749456D01*
X132088812Y-116817376D01*
X131939512Y-116847073D01*
X131914742Y-116852000D01*
X131737258Y-116852000D01*
X131712488Y-116847073D01*
X131563188Y-116817376D01*
X131399216Y-116749456D01*
X131251646Y-116650853D01*
X131126147Y-116525354D01*
X131027544Y-116377784D01*
X130959624Y-116213812D01*
X130925000Y-116039741D01*
X130925000Y-115862259D01*
X130959624Y-115688188D01*
X131027544Y-115524216D01*
X131126147Y-115376646D01*
X131251646Y-115251147D01*
X131399216Y-115152544D01*
X131563188Y-115084624D01*
X131712488Y-115054927D01*
X131737258Y-115050000D01*
X131914742Y-115050000D01*
X131939512Y-115054927D01*
G37*
G36*
X134479512Y-115054927D02*
G01*
X134628812Y-115084624D01*
X134792784Y-115152544D01*
X134940354Y-115251147D01*
X135065853Y-115376646D01*
X135164456Y-115524216D01*
X135232376Y-115688188D01*
X135267000Y-115862259D01*
X135267000Y-116039741D01*
X135232376Y-116213812D01*
X135164456Y-116377784D01*
X135065853Y-116525354D01*
X134940354Y-116650853D01*
X134792784Y-116749456D01*
X134628812Y-116817376D01*
X134479512Y-116847073D01*
X134454742Y-116852000D01*
X134277258Y-116852000D01*
X134252488Y-116847073D01*
X134103188Y-116817376D01*
X133939216Y-116749456D01*
X133791646Y-116650853D01*
X133666147Y-116525354D01*
X133567544Y-116377784D01*
X133499624Y-116213812D01*
X133465000Y-116039741D01*
X133465000Y-115862259D01*
X133499624Y-115688188D01*
X133567544Y-115524216D01*
X133666147Y-115376646D01*
X133791646Y-115251147D01*
X133939216Y-115152544D01*
X134103188Y-115084624D01*
X134252488Y-115054927D01*
X134277258Y-115050000D01*
X134454742Y-115050000D01*
X134479512Y-115054927D01*
G37*
G36*
X137019512Y-115054927D02*
G01*
X137168812Y-115084624D01*
X137332784Y-115152544D01*
X137480354Y-115251147D01*
X137605853Y-115376646D01*
X137704456Y-115524216D01*
X137772376Y-115688188D01*
X137807000Y-115862259D01*
X137807000Y-116039741D01*
X137772376Y-116213812D01*
X137704456Y-116377784D01*
X137605853Y-116525354D01*
X137480354Y-116650853D01*
X137332784Y-116749456D01*
X137168812Y-116817376D01*
X137019512Y-116847073D01*
X136994742Y-116852000D01*
X136817258Y-116852000D01*
X136792488Y-116847073D01*
X136643188Y-116817376D01*
X136479216Y-116749456D01*
X136331646Y-116650853D01*
X136206147Y-116525354D01*
X136107544Y-116377784D01*
X136039624Y-116213812D01*
X136005000Y-116039741D01*
X136005000Y-115862259D01*
X136039624Y-115688188D01*
X136107544Y-115524216D01*
X136206147Y-115376646D01*
X136331646Y-115251147D01*
X136479216Y-115152544D01*
X136643188Y-115084624D01*
X136792488Y-115054927D01*
X136817258Y-115050000D01*
X136994742Y-115050000D01*
X137019512Y-115054927D01*
G37*
G36*
X139559512Y-115054927D02*
G01*
X139708812Y-115084624D01*
X139872784Y-115152544D01*
X140020354Y-115251147D01*
X140145853Y-115376646D01*
X140244456Y-115524216D01*
X140312376Y-115688188D01*
X140347000Y-115862259D01*
X140347000Y-116039741D01*
X140312376Y-116213812D01*
X140244456Y-116377784D01*
X140145853Y-116525354D01*
X140020354Y-116650853D01*
X139872784Y-116749456D01*
X139708812Y-116817376D01*
X139559512Y-116847073D01*
X139534742Y-116852000D01*
X139357258Y-116852000D01*
X139332488Y-116847073D01*
X139183188Y-116817376D01*
X139019216Y-116749456D01*
X138871646Y-116650853D01*
X138746147Y-116525354D01*
X138647544Y-116377784D01*
X138579624Y-116213812D01*
X138545000Y-116039741D01*
X138545000Y-115862259D01*
X138579624Y-115688188D01*
X138647544Y-115524216D01*
X138746147Y-115376646D01*
X138871646Y-115251147D01*
X139019216Y-115152544D01*
X139183188Y-115084624D01*
X139332488Y-115054927D01*
X139357258Y-115050000D01*
X139534742Y-115050000D01*
X139559512Y-115054927D01*
G37*
G36*
X142099512Y-115054927D02*
G01*
X142248812Y-115084624D01*
X142412784Y-115152544D01*
X142560354Y-115251147D01*
X142685853Y-115376646D01*
X142784456Y-115524216D01*
X142852376Y-115688188D01*
X142887000Y-115862259D01*
X142887000Y-116039741D01*
X142852376Y-116213812D01*
X142784456Y-116377784D01*
X142685853Y-116525354D01*
X142560354Y-116650853D01*
X142412784Y-116749456D01*
X142248812Y-116817376D01*
X142099512Y-116847073D01*
X142074742Y-116852000D01*
X141897258Y-116852000D01*
X141872488Y-116847073D01*
X141723188Y-116817376D01*
X141559216Y-116749456D01*
X141411646Y-116650853D01*
X141286147Y-116525354D01*
X141187544Y-116377784D01*
X141119624Y-116213812D01*
X141085000Y-116039741D01*
X141085000Y-115862259D01*
X141119624Y-115688188D01*
X141187544Y-115524216D01*
X141286147Y-115376646D01*
X141411646Y-115251147D01*
X141559216Y-115152544D01*
X141723188Y-115084624D01*
X141872488Y-115054927D01*
X141897258Y-115050000D01*
X142074742Y-115050000D01*
X142099512Y-115054927D01*
G37*
G36*
X145427000Y-116852000D02*
G01*
X143625000Y-116852000D01*
X143625000Y-115050000D01*
X145427000Y-115050000D01*
X145427000Y-116852000D01*
G37*
G36*
X126859512Y-115054927D02*
G01*
X127008812Y-115084624D01*
X127172784Y-115152544D01*
X127320354Y-115251147D01*
X127445853Y-115376646D01*
X127544456Y-115524216D01*
X127612376Y-115688188D01*
X127647000Y-115862259D01*
X127647000Y-116039741D01*
X127612376Y-116213812D01*
X127544456Y-116377784D01*
X127445853Y-116525354D01*
X127320354Y-116650853D01*
X127172784Y-116749456D01*
X127008812Y-116817376D01*
X126859512Y-116847073D01*
X126834742Y-116852000D01*
X126657258Y-116852000D01*
X126632488Y-116847073D01*
X126483188Y-116817376D01*
X126319216Y-116749456D01*
X126171646Y-116650853D01*
X126046147Y-116525354D01*
X125947544Y-116377784D01*
X125879624Y-116213812D01*
X125845000Y-116039741D01*
X125845000Y-115862259D01*
X125879624Y-115688188D01*
X125947544Y-115524216D01*
X126046147Y-115376646D01*
X126171646Y-115251147D01*
X126319216Y-115152544D01*
X126483188Y-115084624D01*
X126632488Y-115054927D01*
X126657258Y-115050000D01*
X126834742Y-115050000D01*
X126859512Y-115054927D01*
G37*
M02*
