G04 #@! TF.GenerationSoftware,KiCad,Pcbnew,(5.1.5)-3*
G04 #@! TF.CreationDate,2020-07-22T19:36:44+10:00*
G04 #@! TF.ProjectId,USART_BoSL_Bus,55534152-545f-4426-9f53-4c5f4275732e,rev?*
G04 #@! TF.SameCoordinates,Original*
G04 #@! TF.FileFunction,Legend,Top*
G04 #@! TF.FilePolarity,Positive*
%FSLAX46Y46*%
G04 Gerber Fmt 4.6, Leading zero omitted, Abs format (unit mm)*
G04 Created by KiCad (PCBNEW (5.1.5)-3) date 2020-07-22 19:36:44*
%MOMM*%
%LPD*%
G04 APERTURE LIST*
%ADD10C,0.120000*%
%ADD11C,0.150000*%
%ADD12C,0.125000*%
%ADD13C,0.100000*%
G04 APERTURE END LIST*
D10*
X134366000Y-120396000D02*
X134112000Y-120777000D01*
X134366000Y-120396000D02*
X134620000Y-120777000D01*
X134366000Y-121793000D02*
X134366000Y-120396000D01*
X134366000Y-120396000D02*
X134366000Y-121793000D01*
D11*
X132294571Y-123071380D02*
X132294571Y-122071380D01*
X132675523Y-122071380D01*
X132770761Y-122119000D01*
X132818380Y-122166619D01*
X132866000Y-122261857D01*
X132866000Y-122404714D01*
X132818380Y-122499952D01*
X132770761Y-122547571D01*
X132675523Y-122595190D01*
X132294571Y-122595190D01*
X133866000Y-123071380D02*
X133532666Y-122595190D01*
X133294571Y-123071380D02*
X133294571Y-122071380D01*
X133675523Y-122071380D01*
X133770761Y-122119000D01*
X133818380Y-122166619D01*
X133866000Y-122261857D01*
X133866000Y-122404714D01*
X133818380Y-122499952D01*
X133770761Y-122547571D01*
X133675523Y-122595190D01*
X133294571Y-122595190D01*
X134818380Y-122119000D02*
X134723142Y-122071380D01*
X134580285Y-122071380D01*
X134437428Y-122119000D01*
X134342190Y-122214238D01*
X134294571Y-122309476D01*
X134246952Y-122499952D01*
X134246952Y-122642809D01*
X134294571Y-122833285D01*
X134342190Y-122928523D01*
X134437428Y-123023761D01*
X134580285Y-123071380D01*
X134675523Y-123071380D01*
X134818380Y-123023761D01*
X134866000Y-122976142D01*
X134866000Y-122642809D01*
X134675523Y-122642809D01*
X135294571Y-123071380D02*
X135294571Y-122071380D01*
X135627904Y-122785666D01*
X135961238Y-122071380D01*
X135961238Y-123071380D01*
X136437428Y-122976142D02*
X136485047Y-123023761D01*
X136437428Y-123071380D01*
X136389809Y-123023761D01*
X136437428Y-122976142D01*
X136437428Y-123071380D01*
X136437428Y-122452333D02*
X136485047Y-122499952D01*
X136437428Y-122547571D01*
X136389809Y-122499952D01*
X136437428Y-122452333D01*
X136437428Y-122547571D01*
X133604095Y-123721380D02*
X134175523Y-123721380D01*
X133889809Y-124721380D02*
X133889809Y-123721380D01*
X134413619Y-123721380D02*
X135080285Y-124721380D01*
X135080285Y-123721380D02*
X134413619Y-124721380D01*
X145232428Y-128960571D02*
X145375285Y-129008190D01*
X145422904Y-129055809D01*
X145470523Y-129151047D01*
X145470523Y-129293904D01*
X145422904Y-129389142D01*
X145375285Y-129436761D01*
X145280047Y-129484380D01*
X144899095Y-129484380D01*
X144899095Y-128484380D01*
X145232428Y-128484380D01*
X145327666Y-128532000D01*
X145375285Y-128579619D01*
X145422904Y-128674857D01*
X145422904Y-128770095D01*
X145375285Y-128865333D01*
X145327666Y-128912952D01*
X145232428Y-128960571D01*
X144899095Y-128960571D01*
X141835285Y-129484380D02*
X141835285Y-128484380D01*
X141835285Y-128960571D02*
X142406714Y-128960571D01*
X142406714Y-129484380D02*
X142406714Y-128484380D01*
X143216238Y-128960571D02*
X143359095Y-129008190D01*
X143406714Y-129055809D01*
X143454333Y-129151047D01*
X143454333Y-129293904D01*
X143406714Y-129389142D01*
X143359095Y-129436761D01*
X143263857Y-129484380D01*
X142882904Y-129484380D01*
X142882904Y-128484380D01*
X143216238Y-128484380D01*
X143311476Y-128532000D01*
X143359095Y-128579619D01*
X143406714Y-128674857D01*
X143406714Y-128770095D01*
X143359095Y-128865333D01*
X143311476Y-128912952D01*
X143216238Y-128960571D01*
X142882904Y-128960571D01*
X140342904Y-128532000D02*
X140247666Y-128484380D01*
X140104809Y-128484380D01*
X139961952Y-128532000D01*
X139866714Y-128627238D01*
X139819095Y-128722476D01*
X139771476Y-128912952D01*
X139771476Y-129055809D01*
X139819095Y-129246285D01*
X139866714Y-129341523D01*
X139961952Y-129436761D01*
X140104809Y-129484380D01*
X140200047Y-129484380D01*
X140342904Y-129436761D01*
X140390523Y-129389142D01*
X140390523Y-129055809D01*
X140200047Y-129055809D01*
X136755285Y-129484380D02*
X136755285Y-128484380D01*
X136755285Y-128960571D02*
X137326714Y-128960571D01*
X137326714Y-129484380D02*
X137326714Y-128484380D01*
X138326714Y-128532000D02*
X138231476Y-128484380D01*
X138088619Y-128484380D01*
X137945761Y-128532000D01*
X137850523Y-128627238D01*
X137802904Y-128722476D01*
X137755285Y-128912952D01*
X137755285Y-129055809D01*
X137802904Y-129246285D01*
X137850523Y-129341523D01*
X137945761Y-129436761D01*
X138088619Y-129484380D01*
X138183857Y-129484380D01*
X138326714Y-129436761D01*
X138374333Y-129389142D01*
X138374333Y-129055809D01*
X138183857Y-129055809D01*
X134905761Y-128484380D02*
X135096238Y-128484380D01*
X135191476Y-128532000D01*
X135286714Y-128627238D01*
X135334333Y-128817714D01*
X135334333Y-129151047D01*
X135286714Y-129341523D01*
X135191476Y-129436761D01*
X135096238Y-129484380D01*
X134905761Y-129484380D01*
X134810523Y-129436761D01*
X134715285Y-129341523D01*
X134667666Y-129151047D01*
X134667666Y-128817714D01*
X134715285Y-128627238D01*
X134810523Y-128532000D01*
X134905761Y-128484380D01*
X131651476Y-129484380D02*
X131651476Y-128484380D01*
X131651476Y-128960571D02*
X132222904Y-128960571D01*
X132222904Y-129484380D02*
X132222904Y-128484380D01*
X132889571Y-128484380D02*
X133080047Y-128484380D01*
X133175285Y-128532000D01*
X133270523Y-128627238D01*
X133318142Y-128817714D01*
X133318142Y-129151047D01*
X133270523Y-129341523D01*
X133175285Y-129436761D01*
X133080047Y-129484380D01*
X132889571Y-129484380D01*
X132794333Y-129436761D01*
X132699095Y-129341523D01*
X132651476Y-129151047D01*
X132651476Y-128817714D01*
X132699095Y-128627238D01*
X132794333Y-128532000D01*
X132889571Y-128484380D01*
X143916476Y-113292000D02*
X143840285Y-113244380D01*
X143726000Y-113244380D01*
X143611714Y-113292000D01*
X143535523Y-113387238D01*
X143497428Y-113482476D01*
X143459333Y-113672952D01*
X143459333Y-113815809D01*
X143497428Y-114006285D01*
X143535523Y-114101523D01*
X143611714Y-114196761D01*
X143726000Y-114244380D01*
X143802190Y-114244380D01*
X143916476Y-114196761D01*
X143954571Y-114149142D01*
X143954571Y-113815809D01*
X143802190Y-113815809D01*
X144297428Y-114244380D02*
X144297428Y-113244380D01*
X144754571Y-114244380D01*
X144754571Y-113244380D01*
X145135523Y-114244380D02*
X145135523Y-113244380D01*
X145326000Y-113244380D01*
X145440285Y-113292000D01*
X145516476Y-113387238D01*
X145554571Y-113482476D01*
X145592666Y-113672952D01*
X145592666Y-113815809D01*
X145554571Y-114006285D01*
X145516476Y-114101523D01*
X145440285Y-114196761D01*
X145326000Y-114244380D01*
X145135523Y-114244380D01*
X140995523Y-113244380D02*
X141490761Y-113244380D01*
X141224095Y-113625333D01*
X141338380Y-113625333D01*
X141414571Y-113672952D01*
X141452666Y-113720571D01*
X141490761Y-113815809D01*
X141490761Y-114053904D01*
X141452666Y-114149142D01*
X141414571Y-114196761D01*
X141338380Y-114244380D01*
X141109809Y-114244380D01*
X141033619Y-114196761D01*
X140995523Y-114149142D01*
X141719333Y-113244380D02*
X141986000Y-114244380D01*
X142252666Y-113244380D01*
X142443142Y-113244380D02*
X142938380Y-113244380D01*
X142671714Y-113625333D01*
X142786000Y-113625333D01*
X142862190Y-113672952D01*
X142900285Y-113720571D01*
X142938380Y-113815809D01*
X142938380Y-114053904D01*
X142900285Y-114149142D01*
X142862190Y-114196761D01*
X142786000Y-114244380D01*
X142557428Y-114244380D01*
X142481238Y-114196761D01*
X142443142Y-114149142D01*
X139279333Y-114244380D02*
X138946000Y-113768190D01*
X138707904Y-114244380D02*
X138707904Y-113244380D01*
X139088857Y-113244380D01*
X139184095Y-113292000D01*
X139231714Y-113339619D01*
X139279333Y-113434857D01*
X139279333Y-113577714D01*
X139231714Y-113672952D01*
X139184095Y-113720571D01*
X139088857Y-113768190D01*
X138707904Y-113768190D01*
X139612666Y-113244380D02*
X140279333Y-114244380D01*
X140279333Y-113244380D02*
X139612666Y-114244380D01*
X136144095Y-113244380D02*
X136715523Y-113244380D01*
X136429809Y-114244380D02*
X136429809Y-113244380D01*
X136953619Y-113244380D02*
X137620285Y-114244380D01*
X137620285Y-113244380D02*
X136953619Y-114244380D01*
X133261238Y-113244380D02*
X133451714Y-114244380D01*
X133604095Y-113530095D01*
X133756476Y-114244380D01*
X133946952Y-113244380D01*
X134251714Y-114244380D02*
X134251714Y-113244380D01*
X134708857Y-114244380D02*
X134366000Y-113672952D01*
X134708857Y-113244380D02*
X134251714Y-113815809D01*
X135051714Y-113720571D02*
X135318380Y-113720571D01*
X135432666Y-114244380D02*
X135051714Y-114244380D01*
X135051714Y-113244380D01*
X135432666Y-113244380D01*
D12*
X131387904Y-113580690D02*
X131121238Y-113342595D01*
X130930761Y-113580690D02*
X130930761Y-113080690D01*
X131235523Y-113080690D01*
X131311714Y-113104500D01*
X131349809Y-113128309D01*
X131387904Y-113175928D01*
X131387904Y-113247357D01*
X131349809Y-113294976D01*
X131311714Y-113318785D01*
X131235523Y-113342595D01*
X130930761Y-113342595D01*
X131692666Y-113556880D02*
X131806952Y-113580690D01*
X131997428Y-113580690D01*
X132073619Y-113556880D01*
X132111714Y-113533071D01*
X132149809Y-113485452D01*
X132149809Y-113437833D01*
X132111714Y-113390214D01*
X132073619Y-113366404D01*
X131997428Y-113342595D01*
X131845047Y-113318785D01*
X131768857Y-113294976D01*
X131730761Y-113271166D01*
X131692666Y-113223547D01*
X131692666Y-113175928D01*
X131730761Y-113128309D01*
X131768857Y-113104500D01*
X131845047Y-113080690D01*
X132035523Y-113080690D01*
X132149809Y-113104500D01*
X132378380Y-113080690D02*
X132835523Y-113080690D01*
X132606952Y-113580690D02*
X132606952Y-113080690D01*
X131445047Y-113931880D02*
X130759333Y-114574738D01*
X132092666Y-113955690D02*
X131711714Y-113955690D01*
X131673619Y-114193785D01*
X131711714Y-114169976D01*
X131787904Y-114146166D01*
X131978380Y-114146166D01*
X132054571Y-114169976D01*
X132092666Y-114193785D01*
X132130761Y-114241404D01*
X132130761Y-114360452D01*
X132092666Y-114408071D01*
X132054571Y-114431880D01*
X131978380Y-114455690D01*
X131787904Y-114455690D01*
X131711714Y-114431880D01*
X131673619Y-114408071D01*
X132359333Y-113955690D02*
X132626000Y-114455690D01*
X132892666Y-113955690D01*
D11*
X128571714Y-114244380D02*
X128571714Y-113244380D01*
X128809809Y-113244380D01*
X128952666Y-113292000D01*
X129047904Y-113387238D01*
X129095523Y-113482476D01*
X129143142Y-113672952D01*
X129143142Y-113815809D01*
X129095523Y-114006285D01*
X129047904Y-114101523D01*
X128952666Y-114196761D01*
X128809809Y-114244380D01*
X128571714Y-114244380D01*
X129571714Y-113720571D02*
X129905047Y-113720571D01*
X130047904Y-114244380D02*
X129571714Y-114244380D01*
X129571714Y-113244380D01*
X130047904Y-113244380D01*
X126603142Y-114244380D02*
X126269809Y-113768190D01*
X126031714Y-114244380D02*
X126031714Y-113244380D01*
X126412666Y-113244380D01*
X126507904Y-113292000D01*
X126555523Y-113339619D01*
X126603142Y-113434857D01*
X126603142Y-113577714D01*
X126555523Y-113672952D01*
X126507904Y-113720571D01*
X126412666Y-113768190D01*
X126031714Y-113768190D01*
X127031714Y-113720571D02*
X127365047Y-113720571D01*
X127507904Y-114244380D02*
X127031714Y-114244380D01*
X127031714Y-113244380D01*
X127507904Y-113244380D01*
D10*
X131131000Y-126746000D02*
X131131000Y-125416000D01*
X131131000Y-125416000D02*
X132461000Y-125416000D01*
X133731000Y-125416000D02*
X146491000Y-125416000D01*
X146491000Y-128076000D02*
X146491000Y-125416000D01*
X133731000Y-128076000D02*
X146491000Y-128076000D01*
X133731000Y-128076000D02*
X133731000Y-125416000D01*
X129796000Y-122590779D02*
X129796000Y-122265221D01*
X128776000Y-122590779D02*
X128776000Y-122265221D01*
X126236000Y-122265221D02*
X126236000Y-122590779D01*
X127256000Y-122265221D02*
X127256000Y-122590779D01*
X145856000Y-117415000D02*
X145856000Y-118745000D01*
X144526000Y-117415000D02*
X145856000Y-117415000D01*
X143256000Y-117415000D02*
X143256000Y-120075000D01*
X143256000Y-120075000D02*
X125416000Y-120075000D01*
X143256000Y-117415000D02*
X125416000Y-117415000D01*
X125416000Y-117415000D02*
X125416000Y-120075000D01*
X145856000Y-115951000D02*
X145856000Y-117281000D01*
X145856000Y-117281000D02*
X144526000Y-117281000D01*
X143256000Y-117281000D02*
X125416000Y-117281000D01*
X125416000Y-114621000D02*
X125416000Y-117281000D01*
X143256000Y-114621000D02*
X125416000Y-114621000D01*
X143256000Y-114621000D02*
X143256000Y-117281000D01*
X124166000Y-114680000D02*
X124166000Y-127880000D01*
X124166000Y-127880000D02*
X115146000Y-127880000D01*
D13*
X106286000Y-127880000D02*
X106166000Y-127880000D01*
D10*
X106166000Y-127880000D02*
X112946000Y-127880000D01*
D13*
X106176000Y-127880000D02*
X106166000Y-127880000D01*
D10*
X106166000Y-127880000D02*
X106166000Y-114680000D01*
X106166000Y-114680000D02*
X112946000Y-114680000D01*
D13*
X115216000Y-114680000D02*
X115146000Y-114680000D01*
D10*
X115146000Y-114680000D02*
X124166000Y-114680000D01*
X122166000Y-114210000D02*
X123696000Y-114210000D01*
D11*
X129714666Y-125944380D02*
X129714666Y-126658666D01*
X129667047Y-126801523D01*
X129571809Y-126896761D01*
X129428952Y-126944380D01*
X129333714Y-126944380D01*
X130143238Y-126039619D02*
X130190857Y-125992000D01*
X130286095Y-125944380D01*
X130524190Y-125944380D01*
X130619428Y-125992000D01*
X130667047Y-126039619D01*
X130714666Y-126134857D01*
X130714666Y-126230095D01*
X130667047Y-126372952D01*
X130095619Y-126944380D01*
X130714666Y-126944380D01*
X131138380Y-122594666D02*
X130662190Y-122928000D01*
X131138380Y-123166095D02*
X130138380Y-123166095D01*
X130138380Y-122785142D01*
X130186000Y-122689904D01*
X130233619Y-122642285D01*
X130328857Y-122594666D01*
X130471714Y-122594666D01*
X130566952Y-122642285D01*
X130614571Y-122689904D01*
X130662190Y-122785142D01*
X130662190Y-123166095D01*
X130138380Y-122261333D02*
X130138380Y-121642285D01*
X130519333Y-121975619D01*
X130519333Y-121832761D01*
X130566952Y-121737523D01*
X130614571Y-121689904D01*
X130709809Y-121642285D01*
X130947904Y-121642285D01*
X131043142Y-121689904D01*
X131090761Y-121737523D01*
X131138380Y-121832761D01*
X131138380Y-122118476D01*
X131090761Y-122213714D01*
X131043142Y-122261333D01*
X125898380Y-122594666D02*
X125422190Y-122928000D01*
X125898380Y-123166095D02*
X124898380Y-123166095D01*
X124898380Y-122785142D01*
X124946000Y-122689904D01*
X124993619Y-122642285D01*
X125088857Y-122594666D01*
X125231714Y-122594666D01*
X125326952Y-122642285D01*
X125374571Y-122689904D01*
X125422190Y-122785142D01*
X125422190Y-123166095D01*
X124993619Y-122213714D02*
X124946000Y-122166095D01*
X124898380Y-122070857D01*
X124898380Y-121832761D01*
X124946000Y-121737523D01*
X124993619Y-121689904D01*
X125088857Y-121642285D01*
X125184095Y-121642285D01*
X125326952Y-121689904D01*
X125898380Y-122261333D01*
X125898380Y-121642285D01*
X146010380Y-119078333D02*
X146724666Y-119078333D01*
X146867523Y-119125952D01*
X146962761Y-119221190D01*
X147010380Y-119364047D01*
X147010380Y-119459285D01*
X146343714Y-118173571D02*
X147010380Y-118173571D01*
X145962761Y-118411666D02*
X146677047Y-118649761D01*
X146677047Y-118030714D01*
X146010380Y-116284333D02*
X146724666Y-116284333D01*
X146867523Y-116331952D01*
X146962761Y-116427190D01*
X147010380Y-116570047D01*
X147010380Y-116665285D01*
X146010380Y-115903380D02*
X146010380Y-115284333D01*
X146391333Y-115617666D01*
X146391333Y-115474809D01*
X146438952Y-115379571D01*
X146486571Y-115331952D01*
X146581809Y-115284333D01*
X146819904Y-115284333D01*
X146915142Y-115331952D01*
X146962761Y-115379571D01*
X147010380Y-115474809D01*
X147010380Y-115760523D01*
X146962761Y-115855761D01*
X146915142Y-115903380D01*
X106132380Y-113871333D02*
X106846666Y-113871333D01*
X106989523Y-113918952D01*
X107084761Y-114014190D01*
X107132380Y-114157047D01*
X107132380Y-114252285D01*
X107132380Y-112871333D02*
X107132380Y-113442761D01*
X107132380Y-113157047D02*
X106132380Y-113157047D01*
X106275238Y-113252285D01*
X106370476Y-113347523D01*
X106418095Y-113442761D01*
M02*
