G04 #@! TF.GenerationSoftware,KiCad,Pcbnew,(5.1.5)-3*
G04 #@! TF.CreationDate,2020-08-06T15:18:22+10:00*
G04 #@! TF.ProjectId,USART_BoSL_Bus,55534152-545f-4426-9f53-4c5f4275732e,rev 0.1.1*
G04 #@! TF.SameCoordinates,Original*
G04 #@! TF.FileFunction,Legend,Top*
G04 #@! TF.FilePolarity,Positive*
%FSLAX46Y46*%
G04 Gerber Fmt 4.6, Leading zero omitted, Abs format (unit mm)*
G04 Created by KiCad (PCBNEW (5.1.5)-3) date 2020-08-06 15:18:22*
%MOMM*%
%LPD*%
G04 APERTURE LIST*
%ADD10C,0.150000*%
%ADD11C,0.125000*%
%ADD12C,0.120000*%
%ADD13C,0.100000*%
G04 APERTURE END LIST*
D10*
X146279333Y-114244380D02*
X145946000Y-113768190D01*
X145707904Y-114244380D02*
X145707904Y-113244380D01*
X146088857Y-113244380D01*
X146184095Y-113292000D01*
X146231714Y-113339619D01*
X146279333Y-113434857D01*
X146279333Y-113577714D01*
X146231714Y-113672952D01*
X146184095Y-113720571D01*
X146088857Y-113768190D01*
X145707904Y-113768190D01*
X146612666Y-113244380D02*
X147279333Y-114244380D01*
X147279333Y-113244380D02*
X146612666Y-114244380D01*
X143144095Y-113244380D02*
X143715523Y-113244380D01*
X143429809Y-114244380D02*
X143429809Y-113244380D01*
X143953619Y-113244380D02*
X144620285Y-114244380D01*
X144620285Y-113244380D02*
X143953619Y-114244380D01*
X135571714Y-114244380D02*
X135571714Y-113244380D01*
X135809809Y-113244380D01*
X135952666Y-113292000D01*
X136047904Y-113387238D01*
X136095523Y-113482476D01*
X136143142Y-113672952D01*
X136143142Y-113815809D01*
X136095523Y-114006285D01*
X136047904Y-114101523D01*
X135952666Y-114196761D01*
X135809809Y-114244380D01*
X135571714Y-114244380D01*
X136571714Y-113720571D02*
X136905047Y-113720571D01*
X137047904Y-114244380D02*
X136571714Y-114244380D01*
X136571714Y-113244380D01*
X137047904Y-113244380D01*
D11*
X138387904Y-113580690D02*
X138121238Y-113342595D01*
X137930761Y-113580690D02*
X137930761Y-113080690D01*
X138235523Y-113080690D01*
X138311714Y-113104500D01*
X138349809Y-113128309D01*
X138387904Y-113175928D01*
X138387904Y-113247357D01*
X138349809Y-113294976D01*
X138311714Y-113318785D01*
X138235523Y-113342595D01*
X137930761Y-113342595D01*
X138692666Y-113556880D02*
X138806952Y-113580690D01*
X138997428Y-113580690D01*
X139073619Y-113556880D01*
X139111714Y-113533071D01*
X139149809Y-113485452D01*
X139149809Y-113437833D01*
X139111714Y-113390214D01*
X139073619Y-113366404D01*
X138997428Y-113342595D01*
X138845047Y-113318785D01*
X138768857Y-113294976D01*
X138730761Y-113271166D01*
X138692666Y-113223547D01*
X138692666Y-113175928D01*
X138730761Y-113128309D01*
X138768857Y-113104500D01*
X138845047Y-113080690D01*
X139035523Y-113080690D01*
X139149809Y-113104500D01*
X139378380Y-113080690D02*
X139835523Y-113080690D01*
X139606952Y-113580690D02*
X139606952Y-113080690D01*
X138445047Y-113931880D02*
X137759333Y-114574738D01*
X139092666Y-113955690D02*
X138711714Y-113955690D01*
X138673619Y-114193785D01*
X138711714Y-114169976D01*
X138787904Y-114146166D01*
X138978380Y-114146166D01*
X139054571Y-114169976D01*
X139092666Y-114193785D01*
X139130761Y-114241404D01*
X139130761Y-114360452D01*
X139092666Y-114408071D01*
X139054571Y-114431880D01*
X138978380Y-114455690D01*
X138787904Y-114455690D01*
X138711714Y-114431880D01*
X138673619Y-114408071D01*
X139359333Y-113955690D02*
X139626000Y-114455690D01*
X139892666Y-113955690D01*
D10*
X140261238Y-113244380D02*
X140451714Y-114244380D01*
X140604095Y-113530095D01*
X140756476Y-114244380D01*
X140946952Y-113244380D01*
X141251714Y-114244380D02*
X141251714Y-113244380D01*
X141708857Y-114244380D02*
X141366000Y-113672952D01*
X141708857Y-113244380D02*
X141251714Y-113815809D01*
X142051714Y-113720571D02*
X142318380Y-113720571D01*
X142432666Y-114244380D02*
X142051714Y-114244380D01*
X142051714Y-113244380D01*
X142432666Y-113244380D01*
X133603142Y-114244380D02*
X133269809Y-113768190D01*
X133031714Y-114244380D02*
X133031714Y-113244380D01*
X133412666Y-113244380D01*
X133507904Y-113292000D01*
X133555523Y-113339619D01*
X133603142Y-113434857D01*
X133603142Y-113577714D01*
X133555523Y-113672952D01*
X133507904Y-113720571D01*
X133412666Y-113768190D01*
X133031714Y-113768190D01*
X134031714Y-113720571D02*
X134365047Y-113720571D01*
X134507904Y-114244380D02*
X134031714Y-114244380D01*
X134031714Y-113244380D01*
X134507904Y-113244380D01*
D11*
X124974107Y-128199404D02*
X124974107Y-127399404D01*
X124974107Y-127780357D02*
X125316964Y-127780357D01*
X125316964Y-128199404D02*
X125316964Y-127399404D01*
X125716964Y-127399404D02*
X125831250Y-127399404D01*
X125888392Y-127437500D01*
X125945535Y-127513690D01*
X125974107Y-127666071D01*
X125974107Y-127932738D01*
X125945535Y-128085119D01*
X125888392Y-128161309D01*
X125831250Y-128199404D01*
X125716964Y-128199404D01*
X125659821Y-128161309D01*
X125602678Y-128085119D01*
X125574107Y-127932738D01*
X125574107Y-127666071D01*
X125602678Y-127513690D01*
X125659821Y-127437500D01*
X125716964Y-127399404D01*
X126374107Y-128466071D02*
X126374107Y-127323214D01*
X126802678Y-128199404D02*
X126802678Y-127399404D01*
X126802678Y-127780357D02*
X127145535Y-127780357D01*
X127145535Y-128199404D02*
X127145535Y-127399404D01*
X127574107Y-128466071D02*
X127574107Y-127323214D01*
X128002678Y-128199404D02*
X128002678Y-127399404D01*
X128002678Y-127780357D02*
X128345535Y-127780357D01*
X128345535Y-128199404D02*
X128345535Y-127399404D01*
X128945535Y-127437500D02*
X128888392Y-127399404D01*
X128802678Y-127399404D01*
X128716964Y-127437500D01*
X128659821Y-127513690D01*
X128631250Y-127589880D01*
X128602678Y-127742261D01*
X128602678Y-127856547D01*
X128631250Y-128008928D01*
X128659821Y-128085119D01*
X128716964Y-128161309D01*
X128802678Y-128199404D01*
X128859821Y-128199404D01*
X128945535Y-128161309D01*
X128974107Y-128123214D01*
X128974107Y-127856547D01*
X128859821Y-127856547D01*
X129231250Y-127894642D02*
X129688392Y-127894642D01*
X129974107Y-127666071D02*
X130431250Y-127894642D01*
X129974107Y-128123214D01*
X124974107Y-129219642D02*
X125431250Y-129219642D01*
X125716964Y-128991071D02*
X126174107Y-129219642D01*
X125716964Y-129448214D01*
X126774107Y-128762500D02*
X126716964Y-128724404D01*
X126631250Y-128724404D01*
X126545535Y-128762500D01*
X126488392Y-128838690D01*
X126459821Y-128914880D01*
X126431250Y-129067261D01*
X126431250Y-129181547D01*
X126459821Y-129333928D01*
X126488392Y-129410119D01*
X126545535Y-129486309D01*
X126631250Y-129524404D01*
X126688392Y-129524404D01*
X126774107Y-129486309D01*
X126802678Y-129448214D01*
X126802678Y-129181547D01*
X126688392Y-129181547D01*
X127202678Y-129791071D02*
X127202678Y-128648214D01*
X127631250Y-129524404D02*
X127631250Y-128724404D01*
X127631250Y-129105357D02*
X127974107Y-129105357D01*
X127974107Y-129524404D02*
X127974107Y-128724404D01*
X128459821Y-129105357D02*
X128545535Y-129143452D01*
X128574107Y-129181547D01*
X128602678Y-129257738D01*
X128602678Y-129372023D01*
X128574107Y-129448214D01*
X128545535Y-129486309D01*
X128488392Y-129524404D01*
X128259821Y-129524404D01*
X128259821Y-128724404D01*
X128459821Y-128724404D01*
X128516964Y-128762500D01*
X128545535Y-128800595D01*
X128574107Y-128876785D01*
X128574107Y-128952976D01*
X128545535Y-129029166D01*
X128516964Y-129067261D01*
X128459821Y-129105357D01*
X128259821Y-129105357D01*
X129002678Y-129791071D02*
X129002678Y-128648214D01*
X129631250Y-129105357D02*
X129716964Y-129143452D01*
X129745535Y-129181547D01*
X129774107Y-129257738D01*
X129774107Y-129372023D01*
X129745535Y-129448214D01*
X129716964Y-129486309D01*
X129659821Y-129524404D01*
X129431250Y-129524404D01*
X129431250Y-128724404D01*
X129631250Y-128724404D01*
X129688392Y-128762500D01*
X129716964Y-128800595D01*
X129745535Y-128876785D01*
X129745535Y-128952976D01*
X129716964Y-129029166D01*
X129688392Y-129067261D01*
X129631250Y-129105357D01*
X129431250Y-129105357D01*
D10*
X150571428Y-120960571D02*
X150714285Y-121008190D01*
X150761904Y-121055809D01*
X150809523Y-121151047D01*
X150809523Y-121293904D01*
X150761904Y-121389142D01*
X150714285Y-121436761D01*
X150619047Y-121484380D01*
X150238095Y-121484380D01*
X150238095Y-120484380D01*
X150571428Y-120484380D01*
X150666666Y-120532000D01*
X150714285Y-120579619D01*
X150761904Y-120674857D01*
X150761904Y-120770095D01*
X150714285Y-120865333D01*
X150666666Y-120912952D01*
X150571428Y-120960571D01*
X150238095Y-120960571D01*
X146214285Y-121452380D02*
X146214285Y-120452380D01*
X146214285Y-120928571D02*
X146785714Y-120928571D01*
X146785714Y-121452380D02*
X146785714Y-120452380D01*
X147595238Y-120928571D02*
X147738095Y-120976190D01*
X147785714Y-121023809D01*
X147833333Y-121119047D01*
X147833333Y-121261904D01*
X147785714Y-121357142D01*
X147738095Y-121404761D01*
X147642857Y-121452380D01*
X147261904Y-121452380D01*
X147261904Y-120452380D01*
X147595238Y-120452380D01*
X147690476Y-120500000D01*
X147738095Y-120547619D01*
X147785714Y-120642857D01*
X147785714Y-120738095D01*
X147738095Y-120833333D01*
X147690476Y-120880952D01*
X147595238Y-120928571D01*
X147261904Y-120928571D01*
X143761904Y-120500000D02*
X143666666Y-120452380D01*
X143523809Y-120452380D01*
X143380952Y-120500000D01*
X143285714Y-120595238D01*
X143238095Y-120690476D01*
X143190476Y-120880952D01*
X143190476Y-121023809D01*
X143238095Y-121214285D01*
X143285714Y-121309523D01*
X143380952Y-121404761D01*
X143523809Y-121452380D01*
X143619047Y-121452380D01*
X143761904Y-121404761D01*
X143809523Y-121357142D01*
X143809523Y-121023809D01*
X143619047Y-121023809D01*
X139214285Y-121452380D02*
X139214285Y-120452380D01*
X139214285Y-120928571D02*
X139785714Y-120928571D01*
X139785714Y-121452380D02*
X139785714Y-120452380D01*
X140785714Y-120500000D02*
X140690476Y-120452380D01*
X140547619Y-120452380D01*
X140404761Y-120500000D01*
X140309523Y-120595238D01*
X140261904Y-120690476D01*
X140214285Y-120880952D01*
X140214285Y-121023809D01*
X140261904Y-121214285D01*
X140309523Y-121309523D01*
X140404761Y-121404761D01*
X140547619Y-121452380D01*
X140642857Y-121452380D01*
X140785714Y-121404761D01*
X140833333Y-121357142D01*
X140833333Y-121023809D01*
X140642857Y-121023809D01*
X136404761Y-120484380D02*
X136595238Y-120484380D01*
X136690476Y-120532000D01*
X136785714Y-120627238D01*
X136833333Y-120817714D01*
X136833333Y-121151047D01*
X136785714Y-121341523D01*
X136690476Y-121436761D01*
X136595238Y-121484380D01*
X136404761Y-121484380D01*
X136309523Y-121436761D01*
X136214285Y-121341523D01*
X136166666Y-121151047D01*
X136166666Y-120817714D01*
X136214285Y-120627238D01*
X136309523Y-120532000D01*
X136404761Y-120484380D01*
X132190476Y-121484380D02*
X132190476Y-120484380D01*
X132190476Y-120960571D02*
X132761904Y-120960571D01*
X132761904Y-121484380D02*
X132761904Y-120484380D01*
X133428571Y-120484380D02*
X133619047Y-120484380D01*
X133714285Y-120532000D01*
X133809523Y-120627238D01*
X133857142Y-120817714D01*
X133857142Y-121151047D01*
X133809523Y-121341523D01*
X133714285Y-121436761D01*
X133619047Y-121484380D01*
X133428571Y-121484380D01*
X133333333Y-121436761D01*
X133238095Y-121341523D01*
X133190476Y-121151047D01*
X133190476Y-120817714D01*
X133238095Y-120627238D01*
X133333333Y-120532000D01*
X133428571Y-120484380D01*
X150916476Y-113292000D02*
X150840285Y-113244380D01*
X150726000Y-113244380D01*
X150611714Y-113292000D01*
X150535523Y-113387238D01*
X150497428Y-113482476D01*
X150459333Y-113672952D01*
X150459333Y-113815809D01*
X150497428Y-114006285D01*
X150535523Y-114101523D01*
X150611714Y-114196761D01*
X150726000Y-114244380D01*
X150802190Y-114244380D01*
X150916476Y-114196761D01*
X150954571Y-114149142D01*
X150954571Y-113815809D01*
X150802190Y-113815809D01*
X151297428Y-114244380D02*
X151297428Y-113244380D01*
X151754571Y-114244380D01*
X151754571Y-113244380D01*
X152135523Y-114244380D02*
X152135523Y-113244380D01*
X152326000Y-113244380D01*
X152440285Y-113292000D01*
X152516476Y-113387238D01*
X152554571Y-113482476D01*
X152592666Y-113672952D01*
X152592666Y-113815809D01*
X152554571Y-114006285D01*
X152516476Y-114101523D01*
X152440285Y-114196761D01*
X152326000Y-114244380D01*
X152135523Y-114244380D01*
X147995523Y-113244380D02*
X148490761Y-113244380D01*
X148224095Y-113625333D01*
X148338380Y-113625333D01*
X148414571Y-113672952D01*
X148452666Y-113720571D01*
X148490761Y-113815809D01*
X148490761Y-114053904D01*
X148452666Y-114149142D01*
X148414571Y-114196761D01*
X148338380Y-114244380D01*
X148109809Y-114244380D01*
X148033619Y-114196761D01*
X147995523Y-114149142D01*
X148719333Y-113244380D02*
X148986000Y-114244380D01*
X149252666Y-113244380D01*
X149443142Y-113244380D02*
X149938380Y-113244380D01*
X149671714Y-113625333D01*
X149786000Y-113625333D01*
X149862190Y-113672952D01*
X149900285Y-113720571D01*
X149938380Y-113815809D01*
X149938380Y-114053904D01*
X149900285Y-114149142D01*
X149862190Y-114196761D01*
X149786000Y-114244380D01*
X149557428Y-114244380D01*
X149481238Y-114196761D01*
X149443142Y-114149142D01*
D12*
X152330000Y-117415000D02*
X152330000Y-118745000D01*
X151000000Y-117415000D02*
X152330000Y-117415000D01*
X149730000Y-117415000D02*
X149730000Y-120075000D01*
X149730000Y-120075000D02*
X131890000Y-120075000D01*
X149730000Y-117415000D02*
X131890000Y-117415000D01*
X131890000Y-117415000D02*
X131890000Y-120075000D01*
X152330000Y-115951000D02*
X152330000Y-117281000D01*
X152330000Y-117281000D02*
X151000000Y-117281000D01*
X149730000Y-117281000D02*
X131890000Y-117281000D01*
X131890000Y-114621000D02*
X131890000Y-117281000D01*
X149730000Y-114621000D02*
X131890000Y-114621000D01*
X149730000Y-114621000D02*
X149730000Y-117281000D01*
X130950000Y-129514000D02*
X131350000Y-129514000D01*
X130950000Y-128874000D02*
X130950000Y-129514000D01*
X149355000Y-125655000D02*
X149226000Y-125783000D01*
X151570000Y-123439000D02*
X151476000Y-123533000D01*
X149525000Y-125895000D02*
X149431000Y-125988000D01*
X151775000Y-123645000D02*
X151646000Y-123773000D01*
X145855000Y-125655000D02*
X145726000Y-125783000D01*
X148070000Y-123439000D02*
X147976000Y-123533000D01*
X146025000Y-125895000D02*
X145931000Y-125988000D01*
X148275000Y-123645000D02*
X148146000Y-123773000D01*
X142355000Y-125655000D02*
X142226000Y-125783000D01*
X144570000Y-123439000D02*
X144476000Y-123533000D01*
X142525000Y-125895000D02*
X142431000Y-125988000D01*
X144775000Y-123645000D02*
X144646000Y-123773000D01*
X138855000Y-125655000D02*
X138726000Y-125783000D01*
X141070000Y-123439000D02*
X140976000Y-123533000D01*
X139025000Y-125895000D02*
X138931000Y-125988000D01*
X141275000Y-123645000D02*
X141146000Y-123773000D01*
X135355000Y-125655000D02*
X135226000Y-125783000D01*
X137570000Y-123439000D02*
X137476000Y-123533000D01*
X135525000Y-125895000D02*
X135431000Y-125988000D01*
X137775000Y-123645000D02*
X137646000Y-123773000D01*
X152311000Y-121554000D02*
X152311000Y-129274000D01*
X131190000Y-121554000D02*
X131190000Y-129274000D01*
X131190000Y-129274000D02*
X152311000Y-129274000D01*
X131190000Y-121554000D02*
X152311000Y-121554000D01*
X131190000Y-127714000D02*
X152311000Y-127714000D01*
X131190000Y-128814000D02*
X152311000Y-128814000D01*
X152180000Y-124714000D02*
G75*
G03X152180000Y-124714000I-1680000J0D01*
G01*
X148680000Y-124714000D02*
G75*
G03X148680000Y-124714000I-1680000J0D01*
G01*
X145180000Y-124714000D02*
G75*
G03X145180000Y-124714000I-1680000J0D01*
G01*
X141680000Y-124714000D02*
G75*
G03X141680000Y-124714000I-1680000J0D01*
G01*
X138180000Y-124714000D02*
G75*
G03X138180000Y-124714000I-1680000J0D01*
G01*
X133028674Y-126394099D02*
G75*
G02X132134000Y-126154000I-28674J1680099D01*
G01*
X131574642Y-125603894D02*
G75*
G02X131560000Y-123848000I1425358J889894D01*
G01*
X132110106Y-123288642D02*
G75*
G02X133866000Y-123274000I889894J-1425358D01*
G01*
X134425505Y-123823807D02*
G75*
G02X134425000Y-125605000I-1425505J-890193D01*
G01*
X133890264Y-126138721D02*
G75*
G02X133000000Y-126394000I-890264J1424721D01*
G01*
X130560000Y-119500000D02*
X130560000Y-116050000D01*
X130560000Y-119500000D02*
X130560000Y-121450000D01*
X125440000Y-119500000D02*
X125440000Y-117550000D01*
X125440000Y-119500000D02*
X125440000Y-121450000D01*
X126337221Y-115510000D02*
X126662779Y-115510000D01*
X126337221Y-114490000D02*
X126662779Y-114490000D01*
X129337221Y-115510000D02*
X129662779Y-115510000D01*
X129337221Y-114490000D02*
X129662779Y-114490000D01*
X128162779Y-123990000D02*
X127837221Y-123990000D01*
X128162779Y-125010000D02*
X127837221Y-125010000D01*
X124166000Y-114680000D02*
X124166000Y-127880000D01*
X124166000Y-127880000D02*
X115146000Y-127880000D01*
D13*
X106286000Y-127880000D02*
X106166000Y-127880000D01*
D12*
X106166000Y-127880000D02*
X112946000Y-127880000D01*
D13*
X106176000Y-127880000D02*
X106166000Y-127880000D01*
D12*
X106166000Y-127880000D02*
X106166000Y-114680000D01*
X106166000Y-114680000D02*
X112946000Y-114680000D01*
D13*
X115216000Y-114680000D02*
X115146000Y-114680000D01*
D12*
X115146000Y-114680000D02*
X124166000Y-114680000D01*
X122166000Y-114210000D02*
X123696000Y-114210000D01*
D10*
X152484380Y-119078333D02*
X153198666Y-119078333D01*
X153341523Y-119125952D01*
X153436761Y-119221190D01*
X153484380Y-119364047D01*
X153484380Y-119459285D01*
X152817714Y-118173571D02*
X153484380Y-118173571D01*
X152436761Y-118411666D02*
X153151047Y-118649761D01*
X153151047Y-118030714D01*
X152484380Y-116284333D02*
X153198666Y-116284333D01*
X153341523Y-116331952D01*
X153436761Y-116427190D01*
X153484380Y-116570047D01*
X153484380Y-116665285D01*
X152484380Y-115903380D02*
X152484380Y-115284333D01*
X152865333Y-115617666D01*
X152865333Y-115474809D01*
X152912952Y-115379571D01*
X152960571Y-115331952D01*
X153055809Y-115284333D01*
X153293904Y-115284333D01*
X153389142Y-115331952D01*
X153436761Y-115379571D01*
X153484380Y-115474809D01*
X153484380Y-115760523D01*
X153436761Y-115855761D01*
X153389142Y-115903380D01*
X132666666Y-126702380D02*
X132666666Y-127416666D01*
X132619047Y-127559523D01*
X132523809Y-127654761D01*
X132380952Y-127702380D01*
X132285714Y-127702380D01*
X133095238Y-126797619D02*
X133142857Y-126750000D01*
X133238095Y-126702380D01*
X133476190Y-126702380D01*
X133571428Y-126750000D01*
X133619047Y-126797619D01*
X133666666Y-126892857D01*
X133666666Y-126988095D01*
X133619047Y-127130952D01*
X133047619Y-127702380D01*
X133666666Y-127702380D01*
X130452380Y-117761904D02*
X131261904Y-117761904D01*
X131357142Y-117714285D01*
X131404761Y-117666666D01*
X131452380Y-117571428D01*
X131452380Y-117380952D01*
X131404761Y-117285714D01*
X131357142Y-117238095D01*
X131261904Y-117190476D01*
X130452380Y-117190476D01*
X131452380Y-116190476D02*
X131452380Y-116761904D01*
X131452380Y-116476190D02*
X130452380Y-116476190D01*
X130595238Y-116571428D01*
X130690476Y-116666666D01*
X130738095Y-116761904D01*
X126333333Y-113952380D02*
X126000000Y-113476190D01*
X125761904Y-113952380D02*
X125761904Y-112952380D01*
X126142857Y-112952380D01*
X126238095Y-113000000D01*
X126285714Y-113047619D01*
X126333333Y-113142857D01*
X126333333Y-113285714D01*
X126285714Y-113380952D01*
X126238095Y-113428571D01*
X126142857Y-113476190D01*
X125761904Y-113476190D01*
X126666666Y-112952380D02*
X127285714Y-112952380D01*
X126952380Y-113333333D01*
X127095238Y-113333333D01*
X127190476Y-113380952D01*
X127238095Y-113428571D01*
X127285714Y-113523809D01*
X127285714Y-113761904D01*
X127238095Y-113857142D01*
X127190476Y-113904761D01*
X127095238Y-113952380D01*
X126809523Y-113952380D01*
X126714285Y-113904761D01*
X126666666Y-113857142D01*
X129333333Y-113952380D02*
X129000000Y-113476190D01*
X128761904Y-113952380D02*
X128761904Y-112952380D01*
X129142857Y-112952380D01*
X129238095Y-113000000D01*
X129285714Y-113047619D01*
X129333333Y-113142857D01*
X129333333Y-113285714D01*
X129285714Y-113380952D01*
X129238095Y-113428571D01*
X129142857Y-113476190D01*
X128761904Y-113476190D01*
X129714285Y-113047619D02*
X129761904Y-113000000D01*
X129857142Y-112952380D01*
X130095238Y-112952380D01*
X130190476Y-113000000D01*
X130238095Y-113047619D01*
X130285714Y-113142857D01*
X130285714Y-113238095D01*
X130238095Y-113380952D01*
X129666666Y-113952380D01*
X130285714Y-113952380D01*
X127833333Y-126382380D02*
X127500000Y-125906190D01*
X127261904Y-126382380D02*
X127261904Y-125382380D01*
X127642857Y-125382380D01*
X127738095Y-125430000D01*
X127785714Y-125477619D01*
X127833333Y-125572857D01*
X127833333Y-125715714D01*
X127785714Y-125810952D01*
X127738095Y-125858571D01*
X127642857Y-125906190D01*
X127261904Y-125906190D01*
X128785714Y-126382380D02*
X128214285Y-126382380D01*
X128500000Y-126382380D02*
X128500000Y-125382380D01*
X128404761Y-125525238D01*
X128309523Y-125620476D01*
X128214285Y-125668095D01*
X106132380Y-113871333D02*
X106846666Y-113871333D01*
X106989523Y-113918952D01*
X107084761Y-114014190D01*
X107132380Y-114157047D01*
X107132380Y-114252285D01*
X107132380Y-112871333D02*
X107132380Y-113442761D01*
X107132380Y-113157047D02*
X106132380Y-113157047D01*
X106275238Y-113252285D01*
X106370476Y-113347523D01*
X106418095Y-113442761D01*
M02*
