M48
; DRILL file {KiCad (5.1.5)-3} date 2020/08/06 15:18:23
; FORMAT={-:-/ absolute / inch / decimal}
; #@! TF.CreationDate,2020-08-06T15:18:23+10:00
; #@! TF.GenerationSoftware,Kicad,Pcbnew,(5.1.5)-3
FMAT,2
INCH
T1C0.0157
T2C0.0299
T3C0.0394
T4C0.0472
T5C0.1280
%
G90
G05
T1
X4.9213Y-4.9016
X5.0103Y-4.9803
X5.0669Y-4.7008
X5.1575Y-4.6063
T2
X4.74Y-4.7
X4.74Y-4.8
X4.74Y-4.9
X4.84Y-4.65
X4.84Y-4.75
X4.84Y-4.85
T3
X5.2449Y-4.675
X5.3449Y-4.675
X5.4449Y-4.675
X5.5449Y-4.675
X5.6449Y-4.675
X5.7449Y-4.675
X5.8449Y-4.675
X5.9449Y-4.675
X5.2449Y-4.565
X5.3449Y-4.565
X5.4449Y-4.565
X5.5449Y-4.565
X5.6449Y-4.565
X5.7449Y-4.565
X5.8449Y-4.565
X5.9449Y-4.565
T4
X5.2362Y-4.91
X5.374Y-4.91
X5.5118Y-4.91
X5.6496Y-4.91
X5.7874Y-4.91
X5.9252Y-4.91
T5
X4.49Y-4.5748
X4.49Y-4.9748
T0
M30
