G04 #@! TF.GenerationSoftware,KiCad,Pcbnew,(5.1.5)-3*
G04 #@! TF.CreationDate,2020-07-22T19:36:44+10:00*
G04 #@! TF.ProjectId,USART_BoSL_Bus,55534152-545f-4426-9f53-4c5f4275732e,rev?*
G04 #@! TF.SameCoordinates,Original*
G04 #@! TF.FileFunction,Paste,Bot*
G04 #@! TF.FilePolarity,Positive*
%FSLAX46Y46*%
G04 Gerber Fmt 4.6, Leading zero omitted, Abs format (unit mm)*
G04 Created by KiCad (PCBNEW (5.1.5)-3) date 2020-07-22 19:36:44*
%MOMM*%
%LPD*%
G04 APERTURE LIST*
%ADD10C,0.150000*%
G04 APERTURE END LIST*
D10*
G36*
X126021703Y-125960722D02*
G01*
X126036264Y-125962882D01*
X126050543Y-125966459D01*
X126064403Y-125971418D01*
X126077710Y-125977712D01*
X126090336Y-125985280D01*
X126102159Y-125994048D01*
X126113066Y-126003934D01*
X126122952Y-126014841D01*
X126131720Y-126026664D01*
X126139288Y-126039290D01*
X126145582Y-126052597D01*
X126150541Y-126066457D01*
X126154118Y-126080736D01*
X126156278Y-126095297D01*
X126157000Y-126110000D01*
X126157000Y-127760000D01*
X126156278Y-127774703D01*
X126154118Y-127789264D01*
X126150541Y-127803543D01*
X126145582Y-127817403D01*
X126139288Y-127830710D01*
X126131720Y-127843336D01*
X126122952Y-127855159D01*
X126113066Y-127866066D01*
X126102159Y-127875952D01*
X126090336Y-127884720D01*
X126077710Y-127892288D01*
X126064403Y-127898582D01*
X126050543Y-127903541D01*
X126036264Y-127907118D01*
X126021703Y-127909278D01*
X126007000Y-127910000D01*
X125707000Y-127910000D01*
X125692297Y-127909278D01*
X125677736Y-127907118D01*
X125663457Y-127903541D01*
X125649597Y-127898582D01*
X125636290Y-127892288D01*
X125623664Y-127884720D01*
X125611841Y-127875952D01*
X125600934Y-127866066D01*
X125591048Y-127855159D01*
X125582280Y-127843336D01*
X125574712Y-127830710D01*
X125568418Y-127817403D01*
X125563459Y-127803543D01*
X125559882Y-127789264D01*
X125557722Y-127774703D01*
X125557000Y-127760000D01*
X125557000Y-126110000D01*
X125557722Y-126095297D01*
X125559882Y-126080736D01*
X125563459Y-126066457D01*
X125568418Y-126052597D01*
X125574712Y-126039290D01*
X125582280Y-126026664D01*
X125591048Y-126014841D01*
X125600934Y-126003934D01*
X125611841Y-125994048D01*
X125623664Y-125985280D01*
X125636290Y-125977712D01*
X125649597Y-125971418D01*
X125663457Y-125966459D01*
X125677736Y-125962882D01*
X125692297Y-125960722D01*
X125707000Y-125960000D01*
X126007000Y-125960000D01*
X126021703Y-125960722D01*
G37*
G36*
X127291703Y-125960722D02*
G01*
X127306264Y-125962882D01*
X127320543Y-125966459D01*
X127334403Y-125971418D01*
X127347710Y-125977712D01*
X127360336Y-125985280D01*
X127372159Y-125994048D01*
X127383066Y-126003934D01*
X127392952Y-126014841D01*
X127401720Y-126026664D01*
X127409288Y-126039290D01*
X127415582Y-126052597D01*
X127420541Y-126066457D01*
X127424118Y-126080736D01*
X127426278Y-126095297D01*
X127427000Y-126110000D01*
X127427000Y-127760000D01*
X127426278Y-127774703D01*
X127424118Y-127789264D01*
X127420541Y-127803543D01*
X127415582Y-127817403D01*
X127409288Y-127830710D01*
X127401720Y-127843336D01*
X127392952Y-127855159D01*
X127383066Y-127866066D01*
X127372159Y-127875952D01*
X127360336Y-127884720D01*
X127347710Y-127892288D01*
X127334403Y-127898582D01*
X127320543Y-127903541D01*
X127306264Y-127907118D01*
X127291703Y-127909278D01*
X127277000Y-127910000D01*
X126977000Y-127910000D01*
X126962297Y-127909278D01*
X126947736Y-127907118D01*
X126933457Y-127903541D01*
X126919597Y-127898582D01*
X126906290Y-127892288D01*
X126893664Y-127884720D01*
X126881841Y-127875952D01*
X126870934Y-127866066D01*
X126861048Y-127855159D01*
X126852280Y-127843336D01*
X126844712Y-127830710D01*
X126838418Y-127817403D01*
X126833459Y-127803543D01*
X126829882Y-127789264D01*
X126827722Y-127774703D01*
X126827000Y-127760000D01*
X126827000Y-126110000D01*
X126827722Y-126095297D01*
X126829882Y-126080736D01*
X126833459Y-126066457D01*
X126838418Y-126052597D01*
X126844712Y-126039290D01*
X126852280Y-126026664D01*
X126861048Y-126014841D01*
X126870934Y-126003934D01*
X126881841Y-125994048D01*
X126893664Y-125985280D01*
X126906290Y-125977712D01*
X126919597Y-125971418D01*
X126933457Y-125966459D01*
X126947736Y-125962882D01*
X126962297Y-125960722D01*
X126977000Y-125960000D01*
X127277000Y-125960000D01*
X127291703Y-125960722D01*
G37*
G36*
X128561703Y-125960722D02*
G01*
X128576264Y-125962882D01*
X128590543Y-125966459D01*
X128604403Y-125971418D01*
X128617710Y-125977712D01*
X128630336Y-125985280D01*
X128642159Y-125994048D01*
X128653066Y-126003934D01*
X128662952Y-126014841D01*
X128671720Y-126026664D01*
X128679288Y-126039290D01*
X128685582Y-126052597D01*
X128690541Y-126066457D01*
X128694118Y-126080736D01*
X128696278Y-126095297D01*
X128697000Y-126110000D01*
X128697000Y-127760000D01*
X128696278Y-127774703D01*
X128694118Y-127789264D01*
X128690541Y-127803543D01*
X128685582Y-127817403D01*
X128679288Y-127830710D01*
X128671720Y-127843336D01*
X128662952Y-127855159D01*
X128653066Y-127866066D01*
X128642159Y-127875952D01*
X128630336Y-127884720D01*
X128617710Y-127892288D01*
X128604403Y-127898582D01*
X128590543Y-127903541D01*
X128576264Y-127907118D01*
X128561703Y-127909278D01*
X128547000Y-127910000D01*
X128247000Y-127910000D01*
X128232297Y-127909278D01*
X128217736Y-127907118D01*
X128203457Y-127903541D01*
X128189597Y-127898582D01*
X128176290Y-127892288D01*
X128163664Y-127884720D01*
X128151841Y-127875952D01*
X128140934Y-127866066D01*
X128131048Y-127855159D01*
X128122280Y-127843336D01*
X128114712Y-127830710D01*
X128108418Y-127817403D01*
X128103459Y-127803543D01*
X128099882Y-127789264D01*
X128097722Y-127774703D01*
X128097000Y-127760000D01*
X128097000Y-126110000D01*
X128097722Y-126095297D01*
X128099882Y-126080736D01*
X128103459Y-126066457D01*
X128108418Y-126052597D01*
X128114712Y-126039290D01*
X128122280Y-126026664D01*
X128131048Y-126014841D01*
X128140934Y-126003934D01*
X128151841Y-125994048D01*
X128163664Y-125985280D01*
X128176290Y-125977712D01*
X128189597Y-125971418D01*
X128203457Y-125966459D01*
X128217736Y-125962882D01*
X128232297Y-125960722D01*
X128247000Y-125960000D01*
X128547000Y-125960000D01*
X128561703Y-125960722D01*
G37*
G36*
X129831703Y-125960722D02*
G01*
X129846264Y-125962882D01*
X129860543Y-125966459D01*
X129874403Y-125971418D01*
X129887710Y-125977712D01*
X129900336Y-125985280D01*
X129912159Y-125994048D01*
X129923066Y-126003934D01*
X129932952Y-126014841D01*
X129941720Y-126026664D01*
X129949288Y-126039290D01*
X129955582Y-126052597D01*
X129960541Y-126066457D01*
X129964118Y-126080736D01*
X129966278Y-126095297D01*
X129967000Y-126110000D01*
X129967000Y-127760000D01*
X129966278Y-127774703D01*
X129964118Y-127789264D01*
X129960541Y-127803543D01*
X129955582Y-127817403D01*
X129949288Y-127830710D01*
X129941720Y-127843336D01*
X129932952Y-127855159D01*
X129923066Y-127866066D01*
X129912159Y-127875952D01*
X129900336Y-127884720D01*
X129887710Y-127892288D01*
X129874403Y-127898582D01*
X129860543Y-127903541D01*
X129846264Y-127907118D01*
X129831703Y-127909278D01*
X129817000Y-127910000D01*
X129517000Y-127910000D01*
X129502297Y-127909278D01*
X129487736Y-127907118D01*
X129473457Y-127903541D01*
X129459597Y-127898582D01*
X129446290Y-127892288D01*
X129433664Y-127884720D01*
X129421841Y-127875952D01*
X129410934Y-127866066D01*
X129401048Y-127855159D01*
X129392280Y-127843336D01*
X129384712Y-127830710D01*
X129378418Y-127817403D01*
X129373459Y-127803543D01*
X129369882Y-127789264D01*
X129367722Y-127774703D01*
X129367000Y-127760000D01*
X129367000Y-126110000D01*
X129367722Y-126095297D01*
X129369882Y-126080736D01*
X129373459Y-126066457D01*
X129378418Y-126052597D01*
X129384712Y-126039290D01*
X129392280Y-126026664D01*
X129401048Y-126014841D01*
X129410934Y-126003934D01*
X129421841Y-125994048D01*
X129433664Y-125985280D01*
X129446290Y-125977712D01*
X129459597Y-125971418D01*
X129473457Y-125966459D01*
X129487736Y-125962882D01*
X129502297Y-125960722D01*
X129517000Y-125960000D01*
X129817000Y-125960000D01*
X129831703Y-125960722D01*
G37*
G36*
X129831703Y-121010722D02*
G01*
X129846264Y-121012882D01*
X129860543Y-121016459D01*
X129874403Y-121021418D01*
X129887710Y-121027712D01*
X129900336Y-121035280D01*
X129912159Y-121044048D01*
X129923066Y-121053934D01*
X129932952Y-121064841D01*
X129941720Y-121076664D01*
X129949288Y-121089290D01*
X129955582Y-121102597D01*
X129960541Y-121116457D01*
X129964118Y-121130736D01*
X129966278Y-121145297D01*
X129967000Y-121160000D01*
X129967000Y-122810000D01*
X129966278Y-122824703D01*
X129964118Y-122839264D01*
X129960541Y-122853543D01*
X129955582Y-122867403D01*
X129949288Y-122880710D01*
X129941720Y-122893336D01*
X129932952Y-122905159D01*
X129923066Y-122916066D01*
X129912159Y-122925952D01*
X129900336Y-122934720D01*
X129887710Y-122942288D01*
X129874403Y-122948582D01*
X129860543Y-122953541D01*
X129846264Y-122957118D01*
X129831703Y-122959278D01*
X129817000Y-122960000D01*
X129517000Y-122960000D01*
X129502297Y-122959278D01*
X129487736Y-122957118D01*
X129473457Y-122953541D01*
X129459597Y-122948582D01*
X129446290Y-122942288D01*
X129433664Y-122934720D01*
X129421841Y-122925952D01*
X129410934Y-122916066D01*
X129401048Y-122905159D01*
X129392280Y-122893336D01*
X129384712Y-122880710D01*
X129378418Y-122867403D01*
X129373459Y-122853543D01*
X129369882Y-122839264D01*
X129367722Y-122824703D01*
X129367000Y-122810000D01*
X129367000Y-121160000D01*
X129367722Y-121145297D01*
X129369882Y-121130736D01*
X129373459Y-121116457D01*
X129378418Y-121102597D01*
X129384712Y-121089290D01*
X129392280Y-121076664D01*
X129401048Y-121064841D01*
X129410934Y-121053934D01*
X129421841Y-121044048D01*
X129433664Y-121035280D01*
X129446290Y-121027712D01*
X129459597Y-121021418D01*
X129473457Y-121016459D01*
X129487736Y-121012882D01*
X129502297Y-121010722D01*
X129517000Y-121010000D01*
X129817000Y-121010000D01*
X129831703Y-121010722D01*
G37*
G36*
X128561703Y-121010722D02*
G01*
X128576264Y-121012882D01*
X128590543Y-121016459D01*
X128604403Y-121021418D01*
X128617710Y-121027712D01*
X128630336Y-121035280D01*
X128642159Y-121044048D01*
X128653066Y-121053934D01*
X128662952Y-121064841D01*
X128671720Y-121076664D01*
X128679288Y-121089290D01*
X128685582Y-121102597D01*
X128690541Y-121116457D01*
X128694118Y-121130736D01*
X128696278Y-121145297D01*
X128697000Y-121160000D01*
X128697000Y-122810000D01*
X128696278Y-122824703D01*
X128694118Y-122839264D01*
X128690541Y-122853543D01*
X128685582Y-122867403D01*
X128679288Y-122880710D01*
X128671720Y-122893336D01*
X128662952Y-122905159D01*
X128653066Y-122916066D01*
X128642159Y-122925952D01*
X128630336Y-122934720D01*
X128617710Y-122942288D01*
X128604403Y-122948582D01*
X128590543Y-122953541D01*
X128576264Y-122957118D01*
X128561703Y-122959278D01*
X128547000Y-122960000D01*
X128247000Y-122960000D01*
X128232297Y-122959278D01*
X128217736Y-122957118D01*
X128203457Y-122953541D01*
X128189597Y-122948582D01*
X128176290Y-122942288D01*
X128163664Y-122934720D01*
X128151841Y-122925952D01*
X128140934Y-122916066D01*
X128131048Y-122905159D01*
X128122280Y-122893336D01*
X128114712Y-122880710D01*
X128108418Y-122867403D01*
X128103459Y-122853543D01*
X128099882Y-122839264D01*
X128097722Y-122824703D01*
X128097000Y-122810000D01*
X128097000Y-121160000D01*
X128097722Y-121145297D01*
X128099882Y-121130736D01*
X128103459Y-121116457D01*
X128108418Y-121102597D01*
X128114712Y-121089290D01*
X128122280Y-121076664D01*
X128131048Y-121064841D01*
X128140934Y-121053934D01*
X128151841Y-121044048D01*
X128163664Y-121035280D01*
X128176290Y-121027712D01*
X128189597Y-121021418D01*
X128203457Y-121016459D01*
X128217736Y-121012882D01*
X128232297Y-121010722D01*
X128247000Y-121010000D01*
X128547000Y-121010000D01*
X128561703Y-121010722D01*
G37*
G36*
X127291703Y-121010722D02*
G01*
X127306264Y-121012882D01*
X127320543Y-121016459D01*
X127334403Y-121021418D01*
X127347710Y-121027712D01*
X127360336Y-121035280D01*
X127372159Y-121044048D01*
X127383066Y-121053934D01*
X127392952Y-121064841D01*
X127401720Y-121076664D01*
X127409288Y-121089290D01*
X127415582Y-121102597D01*
X127420541Y-121116457D01*
X127424118Y-121130736D01*
X127426278Y-121145297D01*
X127427000Y-121160000D01*
X127427000Y-122810000D01*
X127426278Y-122824703D01*
X127424118Y-122839264D01*
X127420541Y-122853543D01*
X127415582Y-122867403D01*
X127409288Y-122880710D01*
X127401720Y-122893336D01*
X127392952Y-122905159D01*
X127383066Y-122916066D01*
X127372159Y-122925952D01*
X127360336Y-122934720D01*
X127347710Y-122942288D01*
X127334403Y-122948582D01*
X127320543Y-122953541D01*
X127306264Y-122957118D01*
X127291703Y-122959278D01*
X127277000Y-122960000D01*
X126977000Y-122960000D01*
X126962297Y-122959278D01*
X126947736Y-122957118D01*
X126933457Y-122953541D01*
X126919597Y-122948582D01*
X126906290Y-122942288D01*
X126893664Y-122934720D01*
X126881841Y-122925952D01*
X126870934Y-122916066D01*
X126861048Y-122905159D01*
X126852280Y-122893336D01*
X126844712Y-122880710D01*
X126838418Y-122867403D01*
X126833459Y-122853543D01*
X126829882Y-122839264D01*
X126827722Y-122824703D01*
X126827000Y-122810000D01*
X126827000Y-121160000D01*
X126827722Y-121145297D01*
X126829882Y-121130736D01*
X126833459Y-121116457D01*
X126838418Y-121102597D01*
X126844712Y-121089290D01*
X126852280Y-121076664D01*
X126861048Y-121064841D01*
X126870934Y-121053934D01*
X126881841Y-121044048D01*
X126893664Y-121035280D01*
X126906290Y-121027712D01*
X126919597Y-121021418D01*
X126933457Y-121016459D01*
X126947736Y-121012882D01*
X126962297Y-121010722D01*
X126977000Y-121010000D01*
X127277000Y-121010000D01*
X127291703Y-121010722D01*
G37*
G36*
X126021703Y-121010722D02*
G01*
X126036264Y-121012882D01*
X126050543Y-121016459D01*
X126064403Y-121021418D01*
X126077710Y-121027712D01*
X126090336Y-121035280D01*
X126102159Y-121044048D01*
X126113066Y-121053934D01*
X126122952Y-121064841D01*
X126131720Y-121076664D01*
X126139288Y-121089290D01*
X126145582Y-121102597D01*
X126150541Y-121116457D01*
X126154118Y-121130736D01*
X126156278Y-121145297D01*
X126157000Y-121160000D01*
X126157000Y-122810000D01*
X126156278Y-122824703D01*
X126154118Y-122839264D01*
X126150541Y-122853543D01*
X126145582Y-122867403D01*
X126139288Y-122880710D01*
X126131720Y-122893336D01*
X126122952Y-122905159D01*
X126113066Y-122916066D01*
X126102159Y-122925952D01*
X126090336Y-122934720D01*
X126077710Y-122942288D01*
X126064403Y-122948582D01*
X126050543Y-122953541D01*
X126036264Y-122957118D01*
X126021703Y-122959278D01*
X126007000Y-122960000D01*
X125707000Y-122960000D01*
X125692297Y-122959278D01*
X125677736Y-122957118D01*
X125663457Y-122953541D01*
X125649597Y-122948582D01*
X125636290Y-122942288D01*
X125623664Y-122934720D01*
X125611841Y-122925952D01*
X125600934Y-122916066D01*
X125591048Y-122905159D01*
X125582280Y-122893336D01*
X125574712Y-122880710D01*
X125568418Y-122867403D01*
X125563459Y-122853543D01*
X125559882Y-122839264D01*
X125557722Y-122824703D01*
X125557000Y-122810000D01*
X125557000Y-121160000D01*
X125557722Y-121145297D01*
X125559882Y-121130736D01*
X125563459Y-121116457D01*
X125568418Y-121102597D01*
X125574712Y-121089290D01*
X125582280Y-121076664D01*
X125591048Y-121064841D01*
X125600934Y-121053934D01*
X125611841Y-121044048D01*
X125623664Y-121035280D01*
X125636290Y-121027712D01*
X125649597Y-121021418D01*
X125663457Y-121016459D01*
X125677736Y-121012882D01*
X125692297Y-121010722D01*
X125707000Y-121010000D01*
X126007000Y-121010000D01*
X126021703Y-121010722D01*
G37*
G36*
X123946924Y-124160427D02*
G01*
X123968159Y-124163577D01*
X123988983Y-124168793D01*
X124009195Y-124176025D01*
X124028601Y-124185204D01*
X124047014Y-124196240D01*
X124064257Y-124209028D01*
X124080163Y-124223444D01*
X124442556Y-124585837D01*
X124456972Y-124601743D01*
X124469760Y-124618986D01*
X124480796Y-124637399D01*
X124489975Y-124656805D01*
X124497207Y-124677017D01*
X124502423Y-124697841D01*
X124505573Y-124719076D01*
X124506626Y-124740517D01*
X124505573Y-124761958D01*
X124502423Y-124783193D01*
X124497207Y-124804017D01*
X124489975Y-124824229D01*
X124480796Y-124843635D01*
X124469760Y-124862048D01*
X124456972Y-124879291D01*
X124442556Y-124895197D01*
X124133197Y-125204556D01*
X124117291Y-125218972D01*
X124100048Y-125231760D01*
X124081635Y-125242796D01*
X124062229Y-125251975D01*
X124042017Y-125259207D01*
X124021193Y-125264423D01*
X123999958Y-125267573D01*
X123978517Y-125268626D01*
X123957076Y-125267573D01*
X123935841Y-125264423D01*
X123915017Y-125259207D01*
X123894805Y-125251975D01*
X123875399Y-125242796D01*
X123856986Y-125231760D01*
X123839743Y-125218972D01*
X123823837Y-125204556D01*
X123461444Y-124842163D01*
X123447028Y-124826257D01*
X123434240Y-124809014D01*
X123423204Y-124790601D01*
X123414025Y-124771195D01*
X123406793Y-124750983D01*
X123401577Y-124730159D01*
X123398427Y-124708924D01*
X123397374Y-124687483D01*
X123398427Y-124666042D01*
X123401577Y-124644807D01*
X123406793Y-124623983D01*
X123414025Y-124603771D01*
X123423204Y-124584365D01*
X123434240Y-124565952D01*
X123447028Y-124548709D01*
X123461444Y-124532803D01*
X123770803Y-124223444D01*
X123786709Y-124209028D01*
X123803952Y-124196240D01*
X123822365Y-124185204D01*
X123841771Y-124176025D01*
X123861983Y-124168793D01*
X123882807Y-124163577D01*
X123904042Y-124160427D01*
X123925483Y-124159374D01*
X123946924Y-124160427D01*
G37*
G36*
X122833230Y-125274121D02*
G01*
X122854465Y-125277271D01*
X122875289Y-125282487D01*
X122895501Y-125289719D01*
X122914907Y-125298898D01*
X122933320Y-125309934D01*
X122950563Y-125322722D01*
X122966469Y-125337138D01*
X123328862Y-125699531D01*
X123343278Y-125715437D01*
X123356066Y-125732680D01*
X123367102Y-125751093D01*
X123376281Y-125770499D01*
X123383513Y-125790711D01*
X123388729Y-125811535D01*
X123391879Y-125832770D01*
X123392932Y-125854211D01*
X123391879Y-125875652D01*
X123388729Y-125896887D01*
X123383513Y-125917711D01*
X123376281Y-125937923D01*
X123367102Y-125957329D01*
X123356066Y-125975742D01*
X123343278Y-125992985D01*
X123328862Y-126008891D01*
X123019503Y-126318250D01*
X123003597Y-126332666D01*
X122986354Y-126345454D01*
X122967941Y-126356490D01*
X122948535Y-126365669D01*
X122928323Y-126372901D01*
X122907499Y-126378117D01*
X122886264Y-126381267D01*
X122864823Y-126382320D01*
X122843382Y-126381267D01*
X122822147Y-126378117D01*
X122801323Y-126372901D01*
X122781111Y-126365669D01*
X122761705Y-126356490D01*
X122743292Y-126345454D01*
X122726049Y-126332666D01*
X122710143Y-126318250D01*
X122347750Y-125955857D01*
X122333334Y-125939951D01*
X122320546Y-125922708D01*
X122309510Y-125904295D01*
X122300331Y-125884889D01*
X122293099Y-125864677D01*
X122287883Y-125843853D01*
X122284733Y-125822618D01*
X122283680Y-125801177D01*
X122284733Y-125779736D01*
X122287883Y-125758501D01*
X122293099Y-125737677D01*
X122300331Y-125717465D01*
X122309510Y-125698059D01*
X122320546Y-125679646D01*
X122333334Y-125662403D01*
X122347750Y-125646497D01*
X122657109Y-125337138D01*
X122673015Y-125322722D01*
X122690258Y-125309934D01*
X122708671Y-125298898D01*
X122728077Y-125289719D01*
X122748289Y-125282487D01*
X122769113Y-125277271D01*
X122790348Y-125274121D01*
X122811789Y-125273068D01*
X122833230Y-125274121D01*
G37*
M02*
