G04 #@! TF.GenerationSoftware,KiCad,Pcbnew,(5.1.5)-3*
G04 #@! TF.CreationDate,2020-07-22T19:36:44+10:00*
G04 #@! TF.ProjectId,USART_BoSL_Bus,55534152-545f-4426-9f53-4c5f4275732e,rev?*
G04 #@! TF.SameCoordinates,Original*
G04 #@! TF.FileFunction,Copper,L1,Top*
G04 #@! TF.FilePolarity,Positive*
%FSLAX46Y46*%
G04 Gerber Fmt 4.6, Leading zero omitted, Abs format (unit mm)*
G04 Created by KiCad (PCBNEW (5.1.5)-3) date 2020-07-22 19:36:44*
%MOMM*%
%LPD*%
G04 APERTURE LIST*
%ADD10O,1.700000X1.700000*%
%ADD11R,1.700000X1.700000*%
%ADD12C,0.150000*%
%ADD13R,1.520000X1.520000*%
%ADD14C,1.520000*%
%ADD15C,0.800000*%
%ADD16C,0.800000*%
%ADD17C,0.400000*%
%ADD18C,0.254000*%
G04 APERTURE END LIST*
D10*
X145161000Y-126746000D03*
X142621000Y-126746000D03*
X140081000Y-126746000D03*
X137541000Y-126746000D03*
X135001000Y-126746000D03*
D11*
X132461000Y-126746000D03*
G04 #@! TA.AperFunction,SMDPad,CuDef*
D12*
G36*
X129563691Y-121204053D02*
G01*
X129584926Y-121207203D01*
X129605750Y-121212419D01*
X129625962Y-121219651D01*
X129645368Y-121228830D01*
X129663781Y-121239866D01*
X129681024Y-121252654D01*
X129696930Y-121267070D01*
X129711346Y-121282976D01*
X129724134Y-121300219D01*
X129735170Y-121318632D01*
X129744349Y-121338038D01*
X129751581Y-121358250D01*
X129756797Y-121379074D01*
X129759947Y-121400309D01*
X129761000Y-121421750D01*
X129761000Y-121859250D01*
X129759947Y-121880691D01*
X129756797Y-121901926D01*
X129751581Y-121922750D01*
X129744349Y-121942962D01*
X129735170Y-121962368D01*
X129724134Y-121980781D01*
X129711346Y-121998024D01*
X129696930Y-122013930D01*
X129681024Y-122028346D01*
X129663781Y-122041134D01*
X129645368Y-122052170D01*
X129625962Y-122061349D01*
X129605750Y-122068581D01*
X129584926Y-122073797D01*
X129563691Y-122076947D01*
X129542250Y-122078000D01*
X129029750Y-122078000D01*
X129008309Y-122076947D01*
X128987074Y-122073797D01*
X128966250Y-122068581D01*
X128946038Y-122061349D01*
X128926632Y-122052170D01*
X128908219Y-122041134D01*
X128890976Y-122028346D01*
X128875070Y-122013930D01*
X128860654Y-121998024D01*
X128847866Y-121980781D01*
X128836830Y-121962368D01*
X128827651Y-121942962D01*
X128820419Y-121922750D01*
X128815203Y-121901926D01*
X128812053Y-121880691D01*
X128811000Y-121859250D01*
X128811000Y-121421750D01*
X128812053Y-121400309D01*
X128815203Y-121379074D01*
X128820419Y-121358250D01*
X128827651Y-121338038D01*
X128836830Y-121318632D01*
X128847866Y-121300219D01*
X128860654Y-121282976D01*
X128875070Y-121267070D01*
X128890976Y-121252654D01*
X128908219Y-121239866D01*
X128926632Y-121228830D01*
X128946038Y-121219651D01*
X128966250Y-121212419D01*
X128987074Y-121207203D01*
X129008309Y-121204053D01*
X129029750Y-121203000D01*
X129542250Y-121203000D01*
X129563691Y-121204053D01*
G37*
G04 #@! TD.AperFunction*
G04 #@! TA.AperFunction,SMDPad,CuDef*
G36*
X129563691Y-122779053D02*
G01*
X129584926Y-122782203D01*
X129605750Y-122787419D01*
X129625962Y-122794651D01*
X129645368Y-122803830D01*
X129663781Y-122814866D01*
X129681024Y-122827654D01*
X129696930Y-122842070D01*
X129711346Y-122857976D01*
X129724134Y-122875219D01*
X129735170Y-122893632D01*
X129744349Y-122913038D01*
X129751581Y-122933250D01*
X129756797Y-122954074D01*
X129759947Y-122975309D01*
X129761000Y-122996750D01*
X129761000Y-123434250D01*
X129759947Y-123455691D01*
X129756797Y-123476926D01*
X129751581Y-123497750D01*
X129744349Y-123517962D01*
X129735170Y-123537368D01*
X129724134Y-123555781D01*
X129711346Y-123573024D01*
X129696930Y-123588930D01*
X129681024Y-123603346D01*
X129663781Y-123616134D01*
X129645368Y-123627170D01*
X129625962Y-123636349D01*
X129605750Y-123643581D01*
X129584926Y-123648797D01*
X129563691Y-123651947D01*
X129542250Y-123653000D01*
X129029750Y-123653000D01*
X129008309Y-123651947D01*
X128987074Y-123648797D01*
X128966250Y-123643581D01*
X128946038Y-123636349D01*
X128926632Y-123627170D01*
X128908219Y-123616134D01*
X128890976Y-123603346D01*
X128875070Y-123588930D01*
X128860654Y-123573024D01*
X128847866Y-123555781D01*
X128836830Y-123537368D01*
X128827651Y-123517962D01*
X128820419Y-123497750D01*
X128815203Y-123476926D01*
X128812053Y-123455691D01*
X128811000Y-123434250D01*
X128811000Y-122996750D01*
X128812053Y-122975309D01*
X128815203Y-122954074D01*
X128820419Y-122933250D01*
X128827651Y-122913038D01*
X128836830Y-122893632D01*
X128847866Y-122875219D01*
X128860654Y-122857976D01*
X128875070Y-122842070D01*
X128890976Y-122827654D01*
X128908219Y-122814866D01*
X128926632Y-122803830D01*
X128946038Y-122794651D01*
X128966250Y-122787419D01*
X128987074Y-122782203D01*
X129008309Y-122779053D01*
X129029750Y-122778000D01*
X129542250Y-122778000D01*
X129563691Y-122779053D01*
G37*
G04 #@! TD.AperFunction*
G04 #@! TA.AperFunction,SMDPad,CuDef*
G36*
X127023691Y-122779053D02*
G01*
X127044926Y-122782203D01*
X127065750Y-122787419D01*
X127085962Y-122794651D01*
X127105368Y-122803830D01*
X127123781Y-122814866D01*
X127141024Y-122827654D01*
X127156930Y-122842070D01*
X127171346Y-122857976D01*
X127184134Y-122875219D01*
X127195170Y-122893632D01*
X127204349Y-122913038D01*
X127211581Y-122933250D01*
X127216797Y-122954074D01*
X127219947Y-122975309D01*
X127221000Y-122996750D01*
X127221000Y-123434250D01*
X127219947Y-123455691D01*
X127216797Y-123476926D01*
X127211581Y-123497750D01*
X127204349Y-123517962D01*
X127195170Y-123537368D01*
X127184134Y-123555781D01*
X127171346Y-123573024D01*
X127156930Y-123588930D01*
X127141024Y-123603346D01*
X127123781Y-123616134D01*
X127105368Y-123627170D01*
X127085962Y-123636349D01*
X127065750Y-123643581D01*
X127044926Y-123648797D01*
X127023691Y-123651947D01*
X127002250Y-123653000D01*
X126489750Y-123653000D01*
X126468309Y-123651947D01*
X126447074Y-123648797D01*
X126426250Y-123643581D01*
X126406038Y-123636349D01*
X126386632Y-123627170D01*
X126368219Y-123616134D01*
X126350976Y-123603346D01*
X126335070Y-123588930D01*
X126320654Y-123573024D01*
X126307866Y-123555781D01*
X126296830Y-123537368D01*
X126287651Y-123517962D01*
X126280419Y-123497750D01*
X126275203Y-123476926D01*
X126272053Y-123455691D01*
X126271000Y-123434250D01*
X126271000Y-122996750D01*
X126272053Y-122975309D01*
X126275203Y-122954074D01*
X126280419Y-122933250D01*
X126287651Y-122913038D01*
X126296830Y-122893632D01*
X126307866Y-122875219D01*
X126320654Y-122857976D01*
X126335070Y-122842070D01*
X126350976Y-122827654D01*
X126368219Y-122814866D01*
X126386632Y-122803830D01*
X126406038Y-122794651D01*
X126426250Y-122787419D01*
X126447074Y-122782203D01*
X126468309Y-122779053D01*
X126489750Y-122778000D01*
X127002250Y-122778000D01*
X127023691Y-122779053D01*
G37*
G04 #@! TD.AperFunction*
G04 #@! TA.AperFunction,SMDPad,CuDef*
G36*
X127023691Y-121204053D02*
G01*
X127044926Y-121207203D01*
X127065750Y-121212419D01*
X127085962Y-121219651D01*
X127105368Y-121228830D01*
X127123781Y-121239866D01*
X127141024Y-121252654D01*
X127156930Y-121267070D01*
X127171346Y-121282976D01*
X127184134Y-121300219D01*
X127195170Y-121318632D01*
X127204349Y-121338038D01*
X127211581Y-121358250D01*
X127216797Y-121379074D01*
X127219947Y-121400309D01*
X127221000Y-121421750D01*
X127221000Y-121859250D01*
X127219947Y-121880691D01*
X127216797Y-121901926D01*
X127211581Y-121922750D01*
X127204349Y-121942962D01*
X127195170Y-121962368D01*
X127184134Y-121980781D01*
X127171346Y-121998024D01*
X127156930Y-122013930D01*
X127141024Y-122028346D01*
X127123781Y-122041134D01*
X127105368Y-122052170D01*
X127085962Y-122061349D01*
X127065750Y-122068581D01*
X127044926Y-122073797D01*
X127023691Y-122076947D01*
X127002250Y-122078000D01*
X126489750Y-122078000D01*
X126468309Y-122076947D01*
X126447074Y-122073797D01*
X126426250Y-122068581D01*
X126406038Y-122061349D01*
X126386632Y-122052170D01*
X126368219Y-122041134D01*
X126350976Y-122028346D01*
X126335070Y-122013930D01*
X126320654Y-121998024D01*
X126307866Y-121980781D01*
X126296830Y-121962368D01*
X126287651Y-121942962D01*
X126280419Y-121922750D01*
X126275203Y-121901926D01*
X126272053Y-121880691D01*
X126271000Y-121859250D01*
X126271000Y-121421750D01*
X126272053Y-121400309D01*
X126275203Y-121379074D01*
X126280419Y-121358250D01*
X126287651Y-121338038D01*
X126296830Y-121318632D01*
X126307866Y-121300219D01*
X126320654Y-121282976D01*
X126335070Y-121267070D01*
X126350976Y-121252654D01*
X126368219Y-121239866D01*
X126386632Y-121228830D01*
X126406038Y-121219651D01*
X126426250Y-121212419D01*
X126447074Y-121207203D01*
X126468309Y-121204053D01*
X126489750Y-121203000D01*
X127002250Y-121203000D01*
X127023691Y-121204053D01*
G37*
G04 #@! TD.AperFunction*
D10*
X126746000Y-118745000D03*
X129286000Y-118745000D03*
X131826000Y-118745000D03*
X134366000Y-118745000D03*
X136906000Y-118745000D03*
X139446000Y-118745000D03*
X141986000Y-118745000D03*
D11*
X144526000Y-118745000D03*
D10*
X126746000Y-115951000D03*
X129286000Y-115951000D03*
X131826000Y-115951000D03*
X134366000Y-115951000D03*
X136906000Y-115951000D03*
X139446000Y-115951000D03*
X141986000Y-115951000D03*
D11*
X144526000Y-115951000D03*
D13*
X122936000Y-118110000D03*
D14*
X120396000Y-119380000D03*
X122936000Y-120650000D03*
X120396000Y-121920000D03*
X122936000Y-123190000D03*
X120396000Y-124460000D03*
D15*
X132461000Y-123444000D03*
X127254000Y-128905000D03*
X124332998Y-127889000D03*
X131248686Y-123882686D03*
D16*
X134366000Y-118745000D02*
X134366000Y-115951000D01*
X134366000Y-118745000D02*
X134366000Y-121412000D01*
X137541000Y-124587000D02*
X137541000Y-126746000D01*
X134366000Y-121412000D02*
X137541000Y-124587000D01*
X122936000Y-116550000D02*
X122936000Y-118110000D01*
X134366000Y-115951000D02*
X132334000Y-113919000D01*
X125567000Y-113919000D02*
X122936000Y-116550000D01*
X132334000Y-113919000D02*
X125567000Y-113919000D01*
X131826000Y-118745000D02*
X131826000Y-115951000D01*
X131826000Y-122809000D02*
X131826000Y-118745000D01*
X132461000Y-123444000D02*
X131826000Y-122809000D01*
D17*
X127635000Y-129286000D02*
X127254000Y-128905000D01*
X142621000Y-126746000D02*
X140081000Y-129286000D01*
X140081000Y-129286000D02*
X127635000Y-129286000D01*
D16*
X141986000Y-118745000D02*
X141986000Y-115951000D01*
X124714000Y-124968000D02*
X122936000Y-123190000D01*
X135001000Y-126746000D02*
X135001000Y-125857000D01*
X135001000Y-125857000D02*
X134112000Y-124968000D01*
D17*
X126746000Y-123215500D02*
X126746000Y-123653000D01*
D16*
X134112000Y-124968000D02*
X126746000Y-124968000D01*
D17*
X126746000Y-123653000D02*
X126746000Y-124968000D01*
D16*
X126746000Y-124968000D02*
X124714000Y-124968000D01*
D17*
X124714000Y-124968000D02*
X124332998Y-125349002D01*
X124332998Y-125349002D02*
X124332998Y-127323315D01*
X124332998Y-127323315D02*
X124332998Y-127889000D01*
X126746000Y-121640500D02*
X126746000Y-118745000D01*
D16*
X126746000Y-118745000D02*
X126746000Y-115951000D01*
D17*
X129286000Y-118745000D02*
X129286000Y-121640500D01*
D16*
X129286000Y-118745000D02*
X129286000Y-115951000D01*
X136906000Y-118745000D02*
X136906000Y-115951000D01*
X144526000Y-115951000D02*
X144526000Y-118745000D01*
D17*
X129286000Y-123215500D02*
X130581500Y-123215500D01*
X130581500Y-123215500D02*
X131248686Y-123882686D01*
D16*
X126916998Y-127762000D02*
X130302000Y-127762000D01*
X123063000Y-128905000D02*
X125773998Y-128905000D01*
X125773998Y-128905000D02*
X126916998Y-127762000D01*
X120396000Y-124460000D02*
X120396000Y-126238000D01*
X120396000Y-126238000D02*
X123063000Y-128905000D01*
X139231001Y-127595999D02*
X140081000Y-126746000D01*
X130302000Y-127762000D02*
X130937000Y-128397000D01*
X130937000Y-128397000D02*
X138430000Y-128397000D01*
X138430000Y-128397000D02*
X139231001Y-127595999D01*
X139446000Y-118745000D02*
X139446000Y-115951000D01*
D18*
G36*
X122240097Y-115782193D02*
G01*
X122200604Y-115814604D01*
X122071266Y-115972203D01*
X121975159Y-116152008D01*
X121915976Y-116347106D01*
X121901000Y-116499163D01*
X121901000Y-116499172D01*
X121895994Y-116550000D01*
X121901000Y-116600828D01*
X121901000Y-116776972D01*
X121821506Y-116819463D01*
X121724815Y-116898815D01*
X121645463Y-116995506D01*
X121586498Y-117105820D01*
X121550188Y-117225518D01*
X121537928Y-117350000D01*
X121537928Y-118578082D01*
X121479567Y-118490739D01*
X121285261Y-118296433D01*
X121056780Y-118143767D01*
X120802907Y-118038609D01*
X120533396Y-117985000D01*
X120258604Y-117985000D01*
X119989093Y-118038609D01*
X119735220Y-118143767D01*
X119506739Y-118296433D01*
X119312433Y-118490739D01*
X119159767Y-118719220D01*
X119054609Y-118973093D01*
X119001000Y-119242604D01*
X119001000Y-119517396D01*
X119054609Y-119786907D01*
X119159767Y-120040780D01*
X119312433Y-120269261D01*
X119506739Y-120463567D01*
X119735220Y-120616233D01*
X119816740Y-120650000D01*
X119735220Y-120683767D01*
X119506739Y-120836433D01*
X119312433Y-121030739D01*
X119159767Y-121259220D01*
X119054609Y-121513093D01*
X119001000Y-121782604D01*
X119001000Y-122057396D01*
X119054609Y-122326907D01*
X119159767Y-122580780D01*
X119312433Y-122809261D01*
X119506739Y-123003567D01*
X119735220Y-123156233D01*
X119811501Y-123187830D01*
X119793674Y-123194256D01*
X119678206Y-123255975D01*
X119611469Y-123495863D01*
X120396000Y-124280395D01*
X121180531Y-123495863D01*
X121113794Y-123255975D01*
X120974293Y-123190400D01*
X121056780Y-123156233D01*
X121285261Y-123003567D01*
X121479567Y-122809261D01*
X121632233Y-122580780D01*
X121737391Y-122326907D01*
X121791000Y-122057396D01*
X121791000Y-121782604D01*
X121737391Y-121513093D01*
X121632233Y-121259220D01*
X121479567Y-121030739D01*
X121285261Y-120836433D01*
X121056780Y-120683767D01*
X120975260Y-120650000D01*
X121056780Y-120616233D01*
X121285261Y-120463567D01*
X121479567Y-120269261D01*
X121632233Y-120040780D01*
X121737391Y-119786907D01*
X121791000Y-119517396D01*
X121791000Y-119375501D01*
X121821506Y-119400537D01*
X121931820Y-119459502D01*
X122051518Y-119495812D01*
X122139467Y-119504474D01*
X122046739Y-119566433D01*
X121852433Y-119760739D01*
X121699767Y-119989220D01*
X121594609Y-120243093D01*
X121541000Y-120512604D01*
X121541000Y-120787396D01*
X121594609Y-121056907D01*
X121699767Y-121310780D01*
X121852433Y-121539261D01*
X122046739Y-121733567D01*
X122275220Y-121886233D01*
X122356740Y-121920000D01*
X122275220Y-121953767D01*
X122046739Y-122106433D01*
X121852433Y-122300739D01*
X121699767Y-122529220D01*
X121594609Y-122783093D01*
X121541000Y-123052604D01*
X121541000Y-123327396D01*
X121594609Y-123596907D01*
X121699767Y-123850780D01*
X121852433Y-124079261D01*
X122046739Y-124273567D01*
X122275220Y-124426233D01*
X122529093Y-124531391D01*
X122798604Y-124585000D01*
X122867290Y-124585000D01*
X123506271Y-125223982D01*
X123493958Y-125349002D01*
X123497998Y-125390021D01*
X123497999Y-127275714D01*
X123415793Y-127398744D01*
X123337772Y-127587102D01*
X123297998Y-127787061D01*
X123297998Y-127990939D01*
X123337772Y-128190898D01*
X123415793Y-128379256D01*
X123529061Y-128548774D01*
X123673224Y-128692937D01*
X123842742Y-128806205D01*
X124031100Y-128884226D01*
X124231059Y-128924000D01*
X124434937Y-128924000D01*
X124634896Y-128884226D01*
X124823254Y-128806205D01*
X124992772Y-128692937D01*
X125136935Y-128548774D01*
X125250203Y-128379256D01*
X125328224Y-128190898D01*
X125367998Y-127990939D01*
X125367998Y-127787061D01*
X125328224Y-127587102D01*
X125250203Y-127398744D01*
X125167998Y-127275715D01*
X125167998Y-126003000D01*
X130972928Y-126003000D01*
X130972928Y-127596000D01*
X130985188Y-127720482D01*
X131021498Y-127840180D01*
X131080463Y-127950494D01*
X131159815Y-128047185D01*
X131256506Y-128126537D01*
X131366820Y-128185502D01*
X131486518Y-128221812D01*
X131611000Y-128234072D01*
X133311000Y-128234072D01*
X133435482Y-128221812D01*
X133555180Y-128185502D01*
X133665494Y-128126537D01*
X133762185Y-128047185D01*
X133841537Y-127950494D01*
X133900502Y-127840180D01*
X133922513Y-127767620D01*
X134054368Y-127899475D01*
X134297589Y-128061990D01*
X134567842Y-128173932D01*
X134854740Y-128231000D01*
X135147260Y-128231000D01*
X135434158Y-128173932D01*
X135704411Y-128061990D01*
X135947632Y-127899475D01*
X136154475Y-127692632D01*
X136271000Y-127518240D01*
X136387525Y-127692632D01*
X136594368Y-127899475D01*
X136837589Y-128061990D01*
X137107842Y-128173932D01*
X137394740Y-128231000D01*
X137687260Y-128231000D01*
X137974158Y-128173932D01*
X138244411Y-128061990D01*
X138487632Y-127899475D01*
X138694475Y-127692632D01*
X138816195Y-127510466D01*
X138885822Y-127627355D01*
X139080731Y-127843588D01*
X139314080Y-128017641D01*
X139576901Y-128142825D01*
X139724110Y-128187476D01*
X139953998Y-128066156D01*
X139953998Y-128231000D01*
X139955133Y-128231000D01*
X139735133Y-128451000D01*
X128186223Y-128451000D01*
X128171205Y-128414744D01*
X128057937Y-128245226D01*
X127913774Y-128101063D01*
X127744256Y-127987795D01*
X127555898Y-127909774D01*
X127355939Y-127870000D01*
X127152061Y-127870000D01*
X126952102Y-127909774D01*
X126763744Y-127987795D01*
X126594226Y-128101063D01*
X126450063Y-128245226D01*
X126336795Y-128414744D01*
X126258774Y-128603102D01*
X126219000Y-128803061D01*
X126219000Y-129006939D01*
X126258774Y-129206898D01*
X126281184Y-129261000D01*
X106839279Y-129261000D01*
X106689131Y-129246278D01*
X106575754Y-129212047D01*
X106471183Y-129156446D01*
X106379405Y-129081594D01*
X106303909Y-128990335D01*
X106247581Y-128886160D01*
X106212560Y-128773024D01*
X106197000Y-128624979D01*
X106197000Y-126137409D01*
X111786000Y-126137409D01*
X111786000Y-126582591D01*
X111872851Y-127019218D01*
X112043214Y-127430511D01*
X112290544Y-127800666D01*
X112605334Y-128115456D01*
X112975489Y-128362786D01*
X113386782Y-128533149D01*
X113823409Y-128620000D01*
X114268591Y-128620000D01*
X114705218Y-128533149D01*
X115116511Y-128362786D01*
X115486666Y-128115456D01*
X115801456Y-127800666D01*
X116048786Y-127430511D01*
X116219149Y-127019218D01*
X116306000Y-126582591D01*
X116306000Y-126137409D01*
X116219149Y-125700782D01*
X116104559Y-125424137D01*
X119611469Y-125424137D01*
X119678206Y-125664025D01*
X119926892Y-125780924D01*
X120193606Y-125847061D01*
X120468097Y-125859895D01*
X120739817Y-125818931D01*
X120998326Y-125725744D01*
X121113794Y-125664025D01*
X121180531Y-125424137D01*
X120396000Y-124639605D01*
X119611469Y-125424137D01*
X116104559Y-125424137D01*
X116048786Y-125289489D01*
X115801456Y-124919334D01*
X115486666Y-124604544D01*
X115378242Y-124532097D01*
X118996105Y-124532097D01*
X119037069Y-124803817D01*
X119130256Y-125062326D01*
X119191975Y-125177794D01*
X119431863Y-125244531D01*
X120216395Y-124460000D01*
X120575605Y-124460000D01*
X121360137Y-125244531D01*
X121600025Y-125177794D01*
X121716924Y-124929108D01*
X121783061Y-124662394D01*
X121795895Y-124387903D01*
X121754931Y-124116183D01*
X121661744Y-123857674D01*
X121600025Y-123742206D01*
X121360137Y-123675469D01*
X120575605Y-124460000D01*
X120216395Y-124460000D01*
X119431863Y-123675469D01*
X119191975Y-123742206D01*
X119075076Y-123990892D01*
X119008939Y-124257606D01*
X118996105Y-124532097D01*
X115378242Y-124532097D01*
X115116511Y-124357214D01*
X114705218Y-124186851D01*
X114268591Y-124100000D01*
X113823409Y-124100000D01*
X113386782Y-124186851D01*
X112975489Y-124357214D01*
X112605334Y-124604544D01*
X112290544Y-124919334D01*
X112043214Y-125289489D01*
X111872851Y-125700782D01*
X111786000Y-126137409D01*
X106197000Y-126137409D01*
X106197000Y-115977409D01*
X111786000Y-115977409D01*
X111786000Y-116422591D01*
X111872851Y-116859218D01*
X112043214Y-117270511D01*
X112290544Y-117640666D01*
X112605334Y-117955456D01*
X112975489Y-118202786D01*
X113386782Y-118373149D01*
X113823409Y-118460000D01*
X114268591Y-118460000D01*
X114705218Y-118373149D01*
X115116511Y-118202786D01*
X115486666Y-117955456D01*
X115801456Y-117640666D01*
X116048786Y-117270511D01*
X116219149Y-116859218D01*
X116306000Y-116422591D01*
X116306000Y-115977409D01*
X116219149Y-115540782D01*
X116048786Y-115129489D01*
X115801456Y-114759334D01*
X115486666Y-114444544D01*
X115116511Y-114197214D01*
X114705218Y-114026851D01*
X114268591Y-113940000D01*
X113823409Y-113940000D01*
X113386782Y-114026851D01*
X112975489Y-114197214D01*
X112605334Y-114444544D01*
X112290544Y-114759334D01*
X112043214Y-115129489D01*
X111872851Y-115540782D01*
X111786000Y-115977409D01*
X106197000Y-115977409D01*
X106197000Y-113951279D01*
X106211722Y-113801131D01*
X106245953Y-113687754D01*
X106301555Y-113583181D01*
X106376407Y-113491404D01*
X106467664Y-113415909D01*
X106571844Y-113359581D01*
X106684976Y-113324560D01*
X106833022Y-113309000D01*
X124713289Y-113309000D01*
X122240097Y-115782193D01*
G37*
X122240097Y-115782193D02*
X122200604Y-115814604D01*
X122071266Y-115972203D01*
X121975159Y-116152008D01*
X121915976Y-116347106D01*
X121901000Y-116499163D01*
X121901000Y-116499172D01*
X121895994Y-116550000D01*
X121901000Y-116600828D01*
X121901000Y-116776972D01*
X121821506Y-116819463D01*
X121724815Y-116898815D01*
X121645463Y-116995506D01*
X121586498Y-117105820D01*
X121550188Y-117225518D01*
X121537928Y-117350000D01*
X121537928Y-118578082D01*
X121479567Y-118490739D01*
X121285261Y-118296433D01*
X121056780Y-118143767D01*
X120802907Y-118038609D01*
X120533396Y-117985000D01*
X120258604Y-117985000D01*
X119989093Y-118038609D01*
X119735220Y-118143767D01*
X119506739Y-118296433D01*
X119312433Y-118490739D01*
X119159767Y-118719220D01*
X119054609Y-118973093D01*
X119001000Y-119242604D01*
X119001000Y-119517396D01*
X119054609Y-119786907D01*
X119159767Y-120040780D01*
X119312433Y-120269261D01*
X119506739Y-120463567D01*
X119735220Y-120616233D01*
X119816740Y-120650000D01*
X119735220Y-120683767D01*
X119506739Y-120836433D01*
X119312433Y-121030739D01*
X119159767Y-121259220D01*
X119054609Y-121513093D01*
X119001000Y-121782604D01*
X119001000Y-122057396D01*
X119054609Y-122326907D01*
X119159767Y-122580780D01*
X119312433Y-122809261D01*
X119506739Y-123003567D01*
X119735220Y-123156233D01*
X119811501Y-123187830D01*
X119793674Y-123194256D01*
X119678206Y-123255975D01*
X119611469Y-123495863D01*
X120396000Y-124280395D01*
X121180531Y-123495863D01*
X121113794Y-123255975D01*
X120974293Y-123190400D01*
X121056780Y-123156233D01*
X121285261Y-123003567D01*
X121479567Y-122809261D01*
X121632233Y-122580780D01*
X121737391Y-122326907D01*
X121791000Y-122057396D01*
X121791000Y-121782604D01*
X121737391Y-121513093D01*
X121632233Y-121259220D01*
X121479567Y-121030739D01*
X121285261Y-120836433D01*
X121056780Y-120683767D01*
X120975260Y-120650000D01*
X121056780Y-120616233D01*
X121285261Y-120463567D01*
X121479567Y-120269261D01*
X121632233Y-120040780D01*
X121737391Y-119786907D01*
X121791000Y-119517396D01*
X121791000Y-119375501D01*
X121821506Y-119400537D01*
X121931820Y-119459502D01*
X122051518Y-119495812D01*
X122139467Y-119504474D01*
X122046739Y-119566433D01*
X121852433Y-119760739D01*
X121699767Y-119989220D01*
X121594609Y-120243093D01*
X121541000Y-120512604D01*
X121541000Y-120787396D01*
X121594609Y-121056907D01*
X121699767Y-121310780D01*
X121852433Y-121539261D01*
X122046739Y-121733567D01*
X122275220Y-121886233D01*
X122356740Y-121920000D01*
X122275220Y-121953767D01*
X122046739Y-122106433D01*
X121852433Y-122300739D01*
X121699767Y-122529220D01*
X121594609Y-122783093D01*
X121541000Y-123052604D01*
X121541000Y-123327396D01*
X121594609Y-123596907D01*
X121699767Y-123850780D01*
X121852433Y-124079261D01*
X122046739Y-124273567D01*
X122275220Y-124426233D01*
X122529093Y-124531391D01*
X122798604Y-124585000D01*
X122867290Y-124585000D01*
X123506271Y-125223982D01*
X123493958Y-125349002D01*
X123497998Y-125390021D01*
X123497999Y-127275714D01*
X123415793Y-127398744D01*
X123337772Y-127587102D01*
X123297998Y-127787061D01*
X123297998Y-127990939D01*
X123337772Y-128190898D01*
X123415793Y-128379256D01*
X123529061Y-128548774D01*
X123673224Y-128692937D01*
X123842742Y-128806205D01*
X124031100Y-128884226D01*
X124231059Y-128924000D01*
X124434937Y-128924000D01*
X124634896Y-128884226D01*
X124823254Y-128806205D01*
X124992772Y-128692937D01*
X125136935Y-128548774D01*
X125250203Y-128379256D01*
X125328224Y-128190898D01*
X125367998Y-127990939D01*
X125367998Y-127787061D01*
X125328224Y-127587102D01*
X125250203Y-127398744D01*
X125167998Y-127275715D01*
X125167998Y-126003000D01*
X130972928Y-126003000D01*
X130972928Y-127596000D01*
X130985188Y-127720482D01*
X131021498Y-127840180D01*
X131080463Y-127950494D01*
X131159815Y-128047185D01*
X131256506Y-128126537D01*
X131366820Y-128185502D01*
X131486518Y-128221812D01*
X131611000Y-128234072D01*
X133311000Y-128234072D01*
X133435482Y-128221812D01*
X133555180Y-128185502D01*
X133665494Y-128126537D01*
X133762185Y-128047185D01*
X133841537Y-127950494D01*
X133900502Y-127840180D01*
X133922513Y-127767620D01*
X134054368Y-127899475D01*
X134297589Y-128061990D01*
X134567842Y-128173932D01*
X134854740Y-128231000D01*
X135147260Y-128231000D01*
X135434158Y-128173932D01*
X135704411Y-128061990D01*
X135947632Y-127899475D01*
X136154475Y-127692632D01*
X136271000Y-127518240D01*
X136387525Y-127692632D01*
X136594368Y-127899475D01*
X136837589Y-128061990D01*
X137107842Y-128173932D01*
X137394740Y-128231000D01*
X137687260Y-128231000D01*
X137974158Y-128173932D01*
X138244411Y-128061990D01*
X138487632Y-127899475D01*
X138694475Y-127692632D01*
X138816195Y-127510466D01*
X138885822Y-127627355D01*
X139080731Y-127843588D01*
X139314080Y-128017641D01*
X139576901Y-128142825D01*
X139724110Y-128187476D01*
X139953998Y-128066156D01*
X139953998Y-128231000D01*
X139955133Y-128231000D01*
X139735133Y-128451000D01*
X128186223Y-128451000D01*
X128171205Y-128414744D01*
X128057937Y-128245226D01*
X127913774Y-128101063D01*
X127744256Y-127987795D01*
X127555898Y-127909774D01*
X127355939Y-127870000D01*
X127152061Y-127870000D01*
X126952102Y-127909774D01*
X126763744Y-127987795D01*
X126594226Y-128101063D01*
X126450063Y-128245226D01*
X126336795Y-128414744D01*
X126258774Y-128603102D01*
X126219000Y-128803061D01*
X126219000Y-129006939D01*
X126258774Y-129206898D01*
X126281184Y-129261000D01*
X106839279Y-129261000D01*
X106689131Y-129246278D01*
X106575754Y-129212047D01*
X106471183Y-129156446D01*
X106379405Y-129081594D01*
X106303909Y-128990335D01*
X106247581Y-128886160D01*
X106212560Y-128773024D01*
X106197000Y-128624979D01*
X106197000Y-126137409D01*
X111786000Y-126137409D01*
X111786000Y-126582591D01*
X111872851Y-127019218D01*
X112043214Y-127430511D01*
X112290544Y-127800666D01*
X112605334Y-128115456D01*
X112975489Y-128362786D01*
X113386782Y-128533149D01*
X113823409Y-128620000D01*
X114268591Y-128620000D01*
X114705218Y-128533149D01*
X115116511Y-128362786D01*
X115486666Y-128115456D01*
X115801456Y-127800666D01*
X116048786Y-127430511D01*
X116219149Y-127019218D01*
X116306000Y-126582591D01*
X116306000Y-126137409D01*
X116219149Y-125700782D01*
X116104559Y-125424137D01*
X119611469Y-125424137D01*
X119678206Y-125664025D01*
X119926892Y-125780924D01*
X120193606Y-125847061D01*
X120468097Y-125859895D01*
X120739817Y-125818931D01*
X120998326Y-125725744D01*
X121113794Y-125664025D01*
X121180531Y-125424137D01*
X120396000Y-124639605D01*
X119611469Y-125424137D01*
X116104559Y-125424137D01*
X116048786Y-125289489D01*
X115801456Y-124919334D01*
X115486666Y-124604544D01*
X115378242Y-124532097D01*
X118996105Y-124532097D01*
X119037069Y-124803817D01*
X119130256Y-125062326D01*
X119191975Y-125177794D01*
X119431863Y-125244531D01*
X120216395Y-124460000D01*
X120575605Y-124460000D01*
X121360137Y-125244531D01*
X121600025Y-125177794D01*
X121716924Y-124929108D01*
X121783061Y-124662394D01*
X121795895Y-124387903D01*
X121754931Y-124116183D01*
X121661744Y-123857674D01*
X121600025Y-123742206D01*
X121360137Y-123675469D01*
X120575605Y-124460000D01*
X120216395Y-124460000D01*
X119431863Y-123675469D01*
X119191975Y-123742206D01*
X119075076Y-123990892D01*
X119008939Y-124257606D01*
X118996105Y-124532097D01*
X115378242Y-124532097D01*
X115116511Y-124357214D01*
X114705218Y-124186851D01*
X114268591Y-124100000D01*
X113823409Y-124100000D01*
X113386782Y-124186851D01*
X112975489Y-124357214D01*
X112605334Y-124604544D01*
X112290544Y-124919334D01*
X112043214Y-125289489D01*
X111872851Y-125700782D01*
X111786000Y-126137409D01*
X106197000Y-126137409D01*
X106197000Y-115977409D01*
X111786000Y-115977409D01*
X111786000Y-116422591D01*
X111872851Y-116859218D01*
X112043214Y-117270511D01*
X112290544Y-117640666D01*
X112605334Y-117955456D01*
X112975489Y-118202786D01*
X113386782Y-118373149D01*
X113823409Y-118460000D01*
X114268591Y-118460000D01*
X114705218Y-118373149D01*
X115116511Y-118202786D01*
X115486666Y-117955456D01*
X115801456Y-117640666D01*
X116048786Y-117270511D01*
X116219149Y-116859218D01*
X116306000Y-116422591D01*
X116306000Y-115977409D01*
X116219149Y-115540782D01*
X116048786Y-115129489D01*
X115801456Y-114759334D01*
X115486666Y-114444544D01*
X115116511Y-114197214D01*
X114705218Y-114026851D01*
X114268591Y-113940000D01*
X113823409Y-113940000D01*
X113386782Y-114026851D01*
X112975489Y-114197214D01*
X112605334Y-114444544D01*
X112290544Y-114759334D01*
X112043214Y-115129489D01*
X111872851Y-115540782D01*
X111786000Y-115977409D01*
X106197000Y-115977409D01*
X106197000Y-113951279D01*
X106211722Y-113801131D01*
X106245953Y-113687754D01*
X106301555Y-113583181D01*
X106376407Y-113491404D01*
X106467664Y-113415909D01*
X106571844Y-113359581D01*
X106684976Y-113324560D01*
X106833022Y-113309000D01*
X124713289Y-113309000D01*
X122240097Y-115782193D01*
G36*
X145913869Y-113323722D02*
G01*
X146027246Y-113357953D01*
X146131819Y-113413555D01*
X146223596Y-113488407D01*
X146299091Y-113579664D01*
X146355419Y-113683844D01*
X146390440Y-113796976D01*
X146406001Y-113945031D01*
X146406000Y-125936345D01*
X146314475Y-125799368D01*
X146107632Y-125592525D01*
X145864411Y-125430010D01*
X145594158Y-125318068D01*
X145307260Y-125261000D01*
X145014740Y-125261000D01*
X144727842Y-125318068D01*
X144457589Y-125430010D01*
X144214368Y-125592525D01*
X144007525Y-125799368D01*
X143891000Y-125973760D01*
X143774475Y-125799368D01*
X143567632Y-125592525D01*
X143324411Y-125430010D01*
X143054158Y-125318068D01*
X142767260Y-125261000D01*
X142474740Y-125261000D01*
X142187842Y-125318068D01*
X141917589Y-125430010D01*
X141674368Y-125592525D01*
X141467525Y-125799368D01*
X141345805Y-125981534D01*
X141276178Y-125864645D01*
X141081269Y-125648412D01*
X140847920Y-125474359D01*
X140585099Y-125349175D01*
X140437890Y-125304524D01*
X140208000Y-125425845D01*
X140208000Y-126619000D01*
X140228000Y-126619000D01*
X140228000Y-126873000D01*
X140208000Y-126873000D01*
X140208000Y-126893000D01*
X139954000Y-126893000D01*
X139954000Y-126873000D01*
X139934000Y-126873000D01*
X139934000Y-126619000D01*
X139954000Y-126619000D01*
X139954000Y-125425845D01*
X139724110Y-125304524D01*
X139576901Y-125349175D01*
X139314080Y-125474359D01*
X139080731Y-125648412D01*
X138885822Y-125864645D01*
X138816195Y-125981534D01*
X138694475Y-125799368D01*
X138576000Y-125680893D01*
X138576000Y-124637827D01*
X138581006Y-124586999D01*
X138576000Y-124536171D01*
X138576000Y-124536162D01*
X138561024Y-124384105D01*
X138501841Y-124189007D01*
X138412466Y-124021797D01*
X138405734Y-124009202D01*
X138308803Y-123891092D01*
X138276396Y-123851604D01*
X138236908Y-123819197D01*
X135401000Y-120983290D01*
X135401000Y-119810107D01*
X135519475Y-119691632D01*
X135636000Y-119517240D01*
X135752525Y-119691632D01*
X135959368Y-119898475D01*
X136202589Y-120060990D01*
X136472842Y-120172932D01*
X136759740Y-120230000D01*
X137052260Y-120230000D01*
X137339158Y-120172932D01*
X137609411Y-120060990D01*
X137852632Y-119898475D01*
X138059475Y-119691632D01*
X138176000Y-119517240D01*
X138292525Y-119691632D01*
X138499368Y-119898475D01*
X138742589Y-120060990D01*
X139012842Y-120172932D01*
X139299740Y-120230000D01*
X139592260Y-120230000D01*
X139879158Y-120172932D01*
X140149411Y-120060990D01*
X140392632Y-119898475D01*
X140599475Y-119691632D01*
X140716000Y-119517240D01*
X140832525Y-119691632D01*
X141039368Y-119898475D01*
X141282589Y-120060990D01*
X141552842Y-120172932D01*
X141839740Y-120230000D01*
X142132260Y-120230000D01*
X142419158Y-120172932D01*
X142689411Y-120060990D01*
X142932632Y-119898475D01*
X143064487Y-119766620D01*
X143086498Y-119839180D01*
X143145463Y-119949494D01*
X143224815Y-120046185D01*
X143321506Y-120125537D01*
X143431820Y-120184502D01*
X143551518Y-120220812D01*
X143676000Y-120233072D01*
X144240250Y-120230000D01*
X144399000Y-120071250D01*
X144399000Y-118872000D01*
X144653000Y-118872000D01*
X144653000Y-120071250D01*
X144811750Y-120230000D01*
X145376000Y-120233072D01*
X145500482Y-120220812D01*
X145620180Y-120184502D01*
X145730494Y-120125537D01*
X145827185Y-120046185D01*
X145906537Y-119949494D01*
X145965502Y-119839180D01*
X146001812Y-119719482D01*
X146014072Y-119595000D01*
X146011000Y-119030750D01*
X145852250Y-118872000D01*
X144653000Y-118872000D01*
X144399000Y-118872000D01*
X144379000Y-118872000D01*
X144379000Y-118618000D01*
X144399000Y-118618000D01*
X144399000Y-117418750D01*
X144328250Y-117348000D01*
X144399000Y-117277250D01*
X144399000Y-116078000D01*
X144653000Y-116078000D01*
X144653000Y-117277250D01*
X144723750Y-117348000D01*
X144653000Y-117418750D01*
X144653000Y-118618000D01*
X145852250Y-118618000D01*
X146011000Y-118459250D01*
X146014072Y-117895000D01*
X146001812Y-117770518D01*
X145965502Y-117650820D01*
X145906537Y-117540506D01*
X145827185Y-117443815D01*
X145730494Y-117364463D01*
X145699694Y-117348000D01*
X145730494Y-117331537D01*
X145827185Y-117252185D01*
X145906537Y-117155494D01*
X145965502Y-117045180D01*
X146001812Y-116925482D01*
X146014072Y-116801000D01*
X146011000Y-116236750D01*
X145852250Y-116078000D01*
X144653000Y-116078000D01*
X144399000Y-116078000D01*
X144379000Y-116078000D01*
X144379000Y-115824000D01*
X144399000Y-115824000D01*
X144399000Y-114624750D01*
X144653000Y-114624750D01*
X144653000Y-115824000D01*
X145852250Y-115824000D01*
X146011000Y-115665250D01*
X146014072Y-115101000D01*
X146001812Y-114976518D01*
X145965502Y-114856820D01*
X145906537Y-114746506D01*
X145827185Y-114649815D01*
X145730494Y-114570463D01*
X145620180Y-114511498D01*
X145500482Y-114475188D01*
X145376000Y-114462928D01*
X144811750Y-114466000D01*
X144653000Y-114624750D01*
X144399000Y-114624750D01*
X144240250Y-114466000D01*
X143676000Y-114462928D01*
X143551518Y-114475188D01*
X143431820Y-114511498D01*
X143321506Y-114570463D01*
X143224815Y-114649815D01*
X143145463Y-114746506D01*
X143086498Y-114856820D01*
X143064487Y-114929380D01*
X142932632Y-114797525D01*
X142689411Y-114635010D01*
X142419158Y-114523068D01*
X142132260Y-114466000D01*
X141839740Y-114466000D01*
X141552842Y-114523068D01*
X141282589Y-114635010D01*
X141039368Y-114797525D01*
X140832525Y-115004368D01*
X140716000Y-115178760D01*
X140599475Y-115004368D01*
X140392632Y-114797525D01*
X140149411Y-114635010D01*
X139879158Y-114523068D01*
X139592260Y-114466000D01*
X139299740Y-114466000D01*
X139012842Y-114523068D01*
X138742589Y-114635010D01*
X138499368Y-114797525D01*
X138292525Y-115004368D01*
X138176000Y-115178760D01*
X138059475Y-115004368D01*
X137852632Y-114797525D01*
X137609411Y-114635010D01*
X137339158Y-114523068D01*
X137052260Y-114466000D01*
X136759740Y-114466000D01*
X136472842Y-114523068D01*
X136202589Y-114635010D01*
X135959368Y-114797525D01*
X135752525Y-115004368D01*
X135636000Y-115178760D01*
X135519475Y-115004368D01*
X135312632Y-114797525D01*
X135069411Y-114635010D01*
X134799158Y-114523068D01*
X134512260Y-114466000D01*
X134344711Y-114466000D01*
X133187710Y-113309000D01*
X145763721Y-113309000D01*
X145913869Y-113323722D01*
G37*
X145913869Y-113323722D02*
X146027246Y-113357953D01*
X146131819Y-113413555D01*
X146223596Y-113488407D01*
X146299091Y-113579664D01*
X146355419Y-113683844D01*
X146390440Y-113796976D01*
X146406001Y-113945031D01*
X146406000Y-125936345D01*
X146314475Y-125799368D01*
X146107632Y-125592525D01*
X145864411Y-125430010D01*
X145594158Y-125318068D01*
X145307260Y-125261000D01*
X145014740Y-125261000D01*
X144727842Y-125318068D01*
X144457589Y-125430010D01*
X144214368Y-125592525D01*
X144007525Y-125799368D01*
X143891000Y-125973760D01*
X143774475Y-125799368D01*
X143567632Y-125592525D01*
X143324411Y-125430010D01*
X143054158Y-125318068D01*
X142767260Y-125261000D01*
X142474740Y-125261000D01*
X142187842Y-125318068D01*
X141917589Y-125430010D01*
X141674368Y-125592525D01*
X141467525Y-125799368D01*
X141345805Y-125981534D01*
X141276178Y-125864645D01*
X141081269Y-125648412D01*
X140847920Y-125474359D01*
X140585099Y-125349175D01*
X140437890Y-125304524D01*
X140208000Y-125425845D01*
X140208000Y-126619000D01*
X140228000Y-126619000D01*
X140228000Y-126873000D01*
X140208000Y-126873000D01*
X140208000Y-126893000D01*
X139954000Y-126893000D01*
X139954000Y-126873000D01*
X139934000Y-126873000D01*
X139934000Y-126619000D01*
X139954000Y-126619000D01*
X139954000Y-125425845D01*
X139724110Y-125304524D01*
X139576901Y-125349175D01*
X139314080Y-125474359D01*
X139080731Y-125648412D01*
X138885822Y-125864645D01*
X138816195Y-125981534D01*
X138694475Y-125799368D01*
X138576000Y-125680893D01*
X138576000Y-124637827D01*
X138581006Y-124586999D01*
X138576000Y-124536171D01*
X138576000Y-124536162D01*
X138561024Y-124384105D01*
X138501841Y-124189007D01*
X138412466Y-124021797D01*
X138405734Y-124009202D01*
X138308803Y-123891092D01*
X138276396Y-123851604D01*
X138236908Y-123819197D01*
X135401000Y-120983290D01*
X135401000Y-119810107D01*
X135519475Y-119691632D01*
X135636000Y-119517240D01*
X135752525Y-119691632D01*
X135959368Y-119898475D01*
X136202589Y-120060990D01*
X136472842Y-120172932D01*
X136759740Y-120230000D01*
X137052260Y-120230000D01*
X137339158Y-120172932D01*
X137609411Y-120060990D01*
X137852632Y-119898475D01*
X138059475Y-119691632D01*
X138176000Y-119517240D01*
X138292525Y-119691632D01*
X138499368Y-119898475D01*
X138742589Y-120060990D01*
X139012842Y-120172932D01*
X139299740Y-120230000D01*
X139592260Y-120230000D01*
X139879158Y-120172932D01*
X140149411Y-120060990D01*
X140392632Y-119898475D01*
X140599475Y-119691632D01*
X140716000Y-119517240D01*
X140832525Y-119691632D01*
X141039368Y-119898475D01*
X141282589Y-120060990D01*
X141552842Y-120172932D01*
X141839740Y-120230000D01*
X142132260Y-120230000D01*
X142419158Y-120172932D01*
X142689411Y-120060990D01*
X142932632Y-119898475D01*
X143064487Y-119766620D01*
X143086498Y-119839180D01*
X143145463Y-119949494D01*
X143224815Y-120046185D01*
X143321506Y-120125537D01*
X143431820Y-120184502D01*
X143551518Y-120220812D01*
X143676000Y-120233072D01*
X144240250Y-120230000D01*
X144399000Y-120071250D01*
X144399000Y-118872000D01*
X144653000Y-118872000D01*
X144653000Y-120071250D01*
X144811750Y-120230000D01*
X145376000Y-120233072D01*
X145500482Y-120220812D01*
X145620180Y-120184502D01*
X145730494Y-120125537D01*
X145827185Y-120046185D01*
X145906537Y-119949494D01*
X145965502Y-119839180D01*
X146001812Y-119719482D01*
X146014072Y-119595000D01*
X146011000Y-119030750D01*
X145852250Y-118872000D01*
X144653000Y-118872000D01*
X144399000Y-118872000D01*
X144379000Y-118872000D01*
X144379000Y-118618000D01*
X144399000Y-118618000D01*
X144399000Y-117418750D01*
X144328250Y-117348000D01*
X144399000Y-117277250D01*
X144399000Y-116078000D01*
X144653000Y-116078000D01*
X144653000Y-117277250D01*
X144723750Y-117348000D01*
X144653000Y-117418750D01*
X144653000Y-118618000D01*
X145852250Y-118618000D01*
X146011000Y-118459250D01*
X146014072Y-117895000D01*
X146001812Y-117770518D01*
X145965502Y-117650820D01*
X145906537Y-117540506D01*
X145827185Y-117443815D01*
X145730494Y-117364463D01*
X145699694Y-117348000D01*
X145730494Y-117331537D01*
X145827185Y-117252185D01*
X145906537Y-117155494D01*
X145965502Y-117045180D01*
X146001812Y-116925482D01*
X146014072Y-116801000D01*
X146011000Y-116236750D01*
X145852250Y-116078000D01*
X144653000Y-116078000D01*
X144399000Y-116078000D01*
X144379000Y-116078000D01*
X144379000Y-115824000D01*
X144399000Y-115824000D01*
X144399000Y-114624750D01*
X144653000Y-114624750D01*
X144653000Y-115824000D01*
X145852250Y-115824000D01*
X146011000Y-115665250D01*
X146014072Y-115101000D01*
X146001812Y-114976518D01*
X145965502Y-114856820D01*
X145906537Y-114746506D01*
X145827185Y-114649815D01*
X145730494Y-114570463D01*
X145620180Y-114511498D01*
X145500482Y-114475188D01*
X145376000Y-114462928D01*
X144811750Y-114466000D01*
X144653000Y-114624750D01*
X144399000Y-114624750D01*
X144240250Y-114466000D01*
X143676000Y-114462928D01*
X143551518Y-114475188D01*
X143431820Y-114511498D01*
X143321506Y-114570463D01*
X143224815Y-114649815D01*
X143145463Y-114746506D01*
X143086498Y-114856820D01*
X143064487Y-114929380D01*
X142932632Y-114797525D01*
X142689411Y-114635010D01*
X142419158Y-114523068D01*
X142132260Y-114466000D01*
X141839740Y-114466000D01*
X141552842Y-114523068D01*
X141282589Y-114635010D01*
X141039368Y-114797525D01*
X140832525Y-115004368D01*
X140716000Y-115178760D01*
X140599475Y-115004368D01*
X140392632Y-114797525D01*
X140149411Y-114635010D01*
X139879158Y-114523068D01*
X139592260Y-114466000D01*
X139299740Y-114466000D01*
X139012842Y-114523068D01*
X138742589Y-114635010D01*
X138499368Y-114797525D01*
X138292525Y-115004368D01*
X138176000Y-115178760D01*
X138059475Y-115004368D01*
X137852632Y-114797525D01*
X137609411Y-114635010D01*
X137339158Y-114523068D01*
X137052260Y-114466000D01*
X136759740Y-114466000D01*
X136472842Y-114523068D01*
X136202589Y-114635010D01*
X135959368Y-114797525D01*
X135752525Y-115004368D01*
X135636000Y-115178760D01*
X135519475Y-115004368D01*
X135312632Y-114797525D01*
X135069411Y-114635010D01*
X134799158Y-114523068D01*
X134512260Y-114466000D01*
X134344711Y-114466000D01*
X133187710Y-113309000D01*
X145763721Y-113309000D01*
X145913869Y-113323722D01*
G36*
X130672525Y-119691632D02*
G01*
X130791001Y-119810108D01*
X130791000Y-122758172D01*
X130785994Y-122809000D01*
X130791000Y-122859828D01*
X130791000Y-122859837D01*
X130805976Y-123011894D01*
X130865159Y-123206992D01*
X130961266Y-123386797D01*
X131090604Y-123544396D01*
X131130097Y-123576807D01*
X131486290Y-123933000D01*
X130331356Y-123933000D01*
X130350502Y-123897180D01*
X130386812Y-123777482D01*
X130399072Y-123653000D01*
X130396000Y-123501250D01*
X130237250Y-123342500D01*
X129413000Y-123342500D01*
X129413000Y-123362500D01*
X129159000Y-123362500D01*
X129159000Y-123342500D01*
X128334750Y-123342500D01*
X128176000Y-123501250D01*
X128172928Y-123653000D01*
X128185188Y-123777482D01*
X128221498Y-123897180D01*
X128240644Y-123933000D01*
X127696021Y-123933000D01*
X127714671Y-123910275D01*
X127793850Y-123762142D01*
X127842608Y-123601408D01*
X127859072Y-123434250D01*
X127859072Y-122996750D01*
X127842608Y-122829592D01*
X127793850Y-122668858D01*
X127714671Y-122520725D01*
X127638574Y-122428000D01*
X127714671Y-122335275D01*
X127793850Y-122187142D01*
X127842608Y-122026408D01*
X127859072Y-121859250D01*
X127859072Y-121421750D01*
X127842608Y-121254592D01*
X127793850Y-121093858D01*
X127714671Y-120945725D01*
X127608115Y-120815885D01*
X127581000Y-120793632D01*
X127581000Y-119973065D01*
X127692632Y-119898475D01*
X127899475Y-119691632D01*
X128016000Y-119517240D01*
X128132525Y-119691632D01*
X128339368Y-119898475D01*
X128451000Y-119973065D01*
X128451001Y-120793632D01*
X128423885Y-120815885D01*
X128317329Y-120945725D01*
X128238150Y-121093858D01*
X128189392Y-121254592D01*
X128172928Y-121421750D01*
X128172928Y-121859250D01*
X128189392Y-122026408D01*
X128238150Y-122187142D01*
X128317329Y-122335275D01*
X128335100Y-122356930D01*
X128280463Y-122423506D01*
X128221498Y-122533820D01*
X128185188Y-122653518D01*
X128172928Y-122778000D01*
X128176000Y-122929750D01*
X128334750Y-123088500D01*
X129159000Y-123088500D01*
X129159000Y-123068500D01*
X129413000Y-123068500D01*
X129413000Y-123088500D01*
X130237250Y-123088500D01*
X130396000Y-122929750D01*
X130399072Y-122778000D01*
X130386812Y-122653518D01*
X130350502Y-122533820D01*
X130291537Y-122423506D01*
X130236900Y-122356930D01*
X130254671Y-122335275D01*
X130333850Y-122187142D01*
X130382608Y-122026408D01*
X130399072Y-121859250D01*
X130399072Y-121421750D01*
X130382608Y-121254592D01*
X130333850Y-121093858D01*
X130254671Y-120945725D01*
X130148115Y-120815885D01*
X130121000Y-120793632D01*
X130121000Y-119973065D01*
X130232632Y-119898475D01*
X130439475Y-119691632D01*
X130556000Y-119517240D01*
X130672525Y-119691632D01*
G37*
X130672525Y-119691632D02*
X130791001Y-119810108D01*
X130791000Y-122758172D01*
X130785994Y-122809000D01*
X130791000Y-122859828D01*
X130791000Y-122859837D01*
X130805976Y-123011894D01*
X130865159Y-123206992D01*
X130961266Y-123386797D01*
X131090604Y-123544396D01*
X131130097Y-123576807D01*
X131486290Y-123933000D01*
X130331356Y-123933000D01*
X130350502Y-123897180D01*
X130386812Y-123777482D01*
X130399072Y-123653000D01*
X130396000Y-123501250D01*
X130237250Y-123342500D01*
X129413000Y-123342500D01*
X129413000Y-123362500D01*
X129159000Y-123362500D01*
X129159000Y-123342500D01*
X128334750Y-123342500D01*
X128176000Y-123501250D01*
X128172928Y-123653000D01*
X128185188Y-123777482D01*
X128221498Y-123897180D01*
X128240644Y-123933000D01*
X127696021Y-123933000D01*
X127714671Y-123910275D01*
X127793850Y-123762142D01*
X127842608Y-123601408D01*
X127859072Y-123434250D01*
X127859072Y-122996750D01*
X127842608Y-122829592D01*
X127793850Y-122668858D01*
X127714671Y-122520725D01*
X127638574Y-122428000D01*
X127714671Y-122335275D01*
X127793850Y-122187142D01*
X127842608Y-122026408D01*
X127859072Y-121859250D01*
X127859072Y-121421750D01*
X127842608Y-121254592D01*
X127793850Y-121093858D01*
X127714671Y-120945725D01*
X127608115Y-120815885D01*
X127581000Y-120793632D01*
X127581000Y-119973065D01*
X127692632Y-119898475D01*
X127899475Y-119691632D01*
X128016000Y-119517240D01*
X128132525Y-119691632D01*
X128339368Y-119898475D01*
X128451000Y-119973065D01*
X128451001Y-120793632D01*
X128423885Y-120815885D01*
X128317329Y-120945725D01*
X128238150Y-121093858D01*
X128189392Y-121254592D01*
X128172928Y-121421750D01*
X128172928Y-121859250D01*
X128189392Y-122026408D01*
X128238150Y-122187142D01*
X128317329Y-122335275D01*
X128335100Y-122356930D01*
X128280463Y-122423506D01*
X128221498Y-122533820D01*
X128185188Y-122653518D01*
X128172928Y-122778000D01*
X128176000Y-122929750D01*
X128334750Y-123088500D01*
X129159000Y-123088500D01*
X129159000Y-123068500D01*
X129413000Y-123068500D01*
X129413000Y-123088500D01*
X130237250Y-123088500D01*
X130396000Y-122929750D01*
X130399072Y-122778000D01*
X130386812Y-122653518D01*
X130350502Y-122533820D01*
X130291537Y-122423506D01*
X130236900Y-122356930D01*
X130254671Y-122335275D01*
X130333850Y-122187142D01*
X130382608Y-122026408D01*
X130399072Y-121859250D01*
X130399072Y-121421750D01*
X130382608Y-121254592D01*
X130333850Y-121093858D01*
X130254671Y-120945725D01*
X130148115Y-120815885D01*
X130121000Y-120793632D01*
X130121000Y-119973065D01*
X130232632Y-119898475D01*
X130439475Y-119691632D01*
X130556000Y-119517240D01*
X130672525Y-119691632D01*
M02*
