G04 #@! TF.GenerationSoftware,KiCad,Pcbnew,(5.1.5)-3*
G04 #@! TF.CreationDate,2020-08-06T15:18:21+10:00*
G04 #@! TF.ProjectId,USART_BoSL_Bus,55534152-545f-4426-9f53-4c5f4275732e,rev 0.1.1*
G04 #@! TF.SameCoordinates,Original*
G04 #@! TF.FileFunction,Paste,Top*
G04 #@! TF.FilePolarity,Positive*
%FSLAX46Y46*%
G04 Gerber Fmt 4.6, Leading zero omitted, Abs format (unit mm)*
G04 Created by KiCad (PCBNEW (5.1.5)-3) date 2020-08-06 15:18:21*
%MOMM*%
%LPD*%
G04 APERTURE LIST*
%ADD10C,0.150000*%
G04 APERTURE END LIST*
D10*
G36*
X130069703Y-121000722D02*
G01*
X130084264Y-121002882D01*
X130098543Y-121006459D01*
X130112403Y-121011418D01*
X130125710Y-121017712D01*
X130138336Y-121025280D01*
X130150159Y-121034048D01*
X130161066Y-121043934D01*
X130170952Y-121054841D01*
X130179720Y-121066664D01*
X130187288Y-121079290D01*
X130193582Y-121092597D01*
X130198541Y-121106457D01*
X130202118Y-121120736D01*
X130204278Y-121135297D01*
X130205000Y-121150000D01*
X130205000Y-122800000D01*
X130204278Y-122814703D01*
X130202118Y-122829264D01*
X130198541Y-122843543D01*
X130193582Y-122857403D01*
X130187288Y-122870710D01*
X130179720Y-122883336D01*
X130170952Y-122895159D01*
X130161066Y-122906066D01*
X130150159Y-122915952D01*
X130138336Y-122924720D01*
X130125710Y-122932288D01*
X130112403Y-122938582D01*
X130098543Y-122943541D01*
X130084264Y-122947118D01*
X130069703Y-122949278D01*
X130055000Y-122950000D01*
X129755000Y-122950000D01*
X129740297Y-122949278D01*
X129725736Y-122947118D01*
X129711457Y-122943541D01*
X129697597Y-122938582D01*
X129684290Y-122932288D01*
X129671664Y-122924720D01*
X129659841Y-122915952D01*
X129648934Y-122906066D01*
X129639048Y-122895159D01*
X129630280Y-122883336D01*
X129622712Y-122870710D01*
X129616418Y-122857403D01*
X129611459Y-122843543D01*
X129607882Y-122829264D01*
X129605722Y-122814703D01*
X129605000Y-122800000D01*
X129605000Y-121150000D01*
X129605722Y-121135297D01*
X129607882Y-121120736D01*
X129611459Y-121106457D01*
X129616418Y-121092597D01*
X129622712Y-121079290D01*
X129630280Y-121066664D01*
X129639048Y-121054841D01*
X129648934Y-121043934D01*
X129659841Y-121034048D01*
X129671664Y-121025280D01*
X129684290Y-121017712D01*
X129697597Y-121011418D01*
X129711457Y-121006459D01*
X129725736Y-121002882D01*
X129740297Y-121000722D01*
X129755000Y-121000000D01*
X130055000Y-121000000D01*
X130069703Y-121000722D01*
G37*
G36*
X128799703Y-121000722D02*
G01*
X128814264Y-121002882D01*
X128828543Y-121006459D01*
X128842403Y-121011418D01*
X128855710Y-121017712D01*
X128868336Y-121025280D01*
X128880159Y-121034048D01*
X128891066Y-121043934D01*
X128900952Y-121054841D01*
X128909720Y-121066664D01*
X128917288Y-121079290D01*
X128923582Y-121092597D01*
X128928541Y-121106457D01*
X128932118Y-121120736D01*
X128934278Y-121135297D01*
X128935000Y-121150000D01*
X128935000Y-122800000D01*
X128934278Y-122814703D01*
X128932118Y-122829264D01*
X128928541Y-122843543D01*
X128923582Y-122857403D01*
X128917288Y-122870710D01*
X128909720Y-122883336D01*
X128900952Y-122895159D01*
X128891066Y-122906066D01*
X128880159Y-122915952D01*
X128868336Y-122924720D01*
X128855710Y-122932288D01*
X128842403Y-122938582D01*
X128828543Y-122943541D01*
X128814264Y-122947118D01*
X128799703Y-122949278D01*
X128785000Y-122950000D01*
X128485000Y-122950000D01*
X128470297Y-122949278D01*
X128455736Y-122947118D01*
X128441457Y-122943541D01*
X128427597Y-122938582D01*
X128414290Y-122932288D01*
X128401664Y-122924720D01*
X128389841Y-122915952D01*
X128378934Y-122906066D01*
X128369048Y-122895159D01*
X128360280Y-122883336D01*
X128352712Y-122870710D01*
X128346418Y-122857403D01*
X128341459Y-122843543D01*
X128337882Y-122829264D01*
X128335722Y-122814703D01*
X128335000Y-122800000D01*
X128335000Y-121150000D01*
X128335722Y-121135297D01*
X128337882Y-121120736D01*
X128341459Y-121106457D01*
X128346418Y-121092597D01*
X128352712Y-121079290D01*
X128360280Y-121066664D01*
X128369048Y-121054841D01*
X128378934Y-121043934D01*
X128389841Y-121034048D01*
X128401664Y-121025280D01*
X128414290Y-121017712D01*
X128427597Y-121011418D01*
X128441457Y-121006459D01*
X128455736Y-121002882D01*
X128470297Y-121000722D01*
X128485000Y-121000000D01*
X128785000Y-121000000D01*
X128799703Y-121000722D01*
G37*
G36*
X127529703Y-121000722D02*
G01*
X127544264Y-121002882D01*
X127558543Y-121006459D01*
X127572403Y-121011418D01*
X127585710Y-121017712D01*
X127598336Y-121025280D01*
X127610159Y-121034048D01*
X127621066Y-121043934D01*
X127630952Y-121054841D01*
X127639720Y-121066664D01*
X127647288Y-121079290D01*
X127653582Y-121092597D01*
X127658541Y-121106457D01*
X127662118Y-121120736D01*
X127664278Y-121135297D01*
X127665000Y-121150000D01*
X127665000Y-122800000D01*
X127664278Y-122814703D01*
X127662118Y-122829264D01*
X127658541Y-122843543D01*
X127653582Y-122857403D01*
X127647288Y-122870710D01*
X127639720Y-122883336D01*
X127630952Y-122895159D01*
X127621066Y-122906066D01*
X127610159Y-122915952D01*
X127598336Y-122924720D01*
X127585710Y-122932288D01*
X127572403Y-122938582D01*
X127558543Y-122943541D01*
X127544264Y-122947118D01*
X127529703Y-122949278D01*
X127515000Y-122950000D01*
X127215000Y-122950000D01*
X127200297Y-122949278D01*
X127185736Y-122947118D01*
X127171457Y-122943541D01*
X127157597Y-122938582D01*
X127144290Y-122932288D01*
X127131664Y-122924720D01*
X127119841Y-122915952D01*
X127108934Y-122906066D01*
X127099048Y-122895159D01*
X127090280Y-122883336D01*
X127082712Y-122870710D01*
X127076418Y-122857403D01*
X127071459Y-122843543D01*
X127067882Y-122829264D01*
X127065722Y-122814703D01*
X127065000Y-122800000D01*
X127065000Y-121150000D01*
X127065722Y-121135297D01*
X127067882Y-121120736D01*
X127071459Y-121106457D01*
X127076418Y-121092597D01*
X127082712Y-121079290D01*
X127090280Y-121066664D01*
X127099048Y-121054841D01*
X127108934Y-121043934D01*
X127119841Y-121034048D01*
X127131664Y-121025280D01*
X127144290Y-121017712D01*
X127157597Y-121011418D01*
X127171457Y-121006459D01*
X127185736Y-121002882D01*
X127200297Y-121000722D01*
X127215000Y-121000000D01*
X127515000Y-121000000D01*
X127529703Y-121000722D01*
G37*
G36*
X126259703Y-121000722D02*
G01*
X126274264Y-121002882D01*
X126288543Y-121006459D01*
X126302403Y-121011418D01*
X126315710Y-121017712D01*
X126328336Y-121025280D01*
X126340159Y-121034048D01*
X126351066Y-121043934D01*
X126360952Y-121054841D01*
X126369720Y-121066664D01*
X126377288Y-121079290D01*
X126383582Y-121092597D01*
X126388541Y-121106457D01*
X126392118Y-121120736D01*
X126394278Y-121135297D01*
X126395000Y-121150000D01*
X126395000Y-122800000D01*
X126394278Y-122814703D01*
X126392118Y-122829264D01*
X126388541Y-122843543D01*
X126383582Y-122857403D01*
X126377288Y-122870710D01*
X126369720Y-122883336D01*
X126360952Y-122895159D01*
X126351066Y-122906066D01*
X126340159Y-122915952D01*
X126328336Y-122924720D01*
X126315710Y-122932288D01*
X126302403Y-122938582D01*
X126288543Y-122943541D01*
X126274264Y-122947118D01*
X126259703Y-122949278D01*
X126245000Y-122950000D01*
X125945000Y-122950000D01*
X125930297Y-122949278D01*
X125915736Y-122947118D01*
X125901457Y-122943541D01*
X125887597Y-122938582D01*
X125874290Y-122932288D01*
X125861664Y-122924720D01*
X125849841Y-122915952D01*
X125838934Y-122906066D01*
X125829048Y-122895159D01*
X125820280Y-122883336D01*
X125812712Y-122870710D01*
X125806418Y-122857403D01*
X125801459Y-122843543D01*
X125797882Y-122829264D01*
X125795722Y-122814703D01*
X125795000Y-122800000D01*
X125795000Y-121150000D01*
X125795722Y-121135297D01*
X125797882Y-121120736D01*
X125801459Y-121106457D01*
X125806418Y-121092597D01*
X125812712Y-121079290D01*
X125820280Y-121066664D01*
X125829048Y-121054841D01*
X125838934Y-121043934D01*
X125849841Y-121034048D01*
X125861664Y-121025280D01*
X125874290Y-121017712D01*
X125887597Y-121011418D01*
X125901457Y-121006459D01*
X125915736Y-121002882D01*
X125930297Y-121000722D01*
X125945000Y-121000000D01*
X126245000Y-121000000D01*
X126259703Y-121000722D01*
G37*
G36*
X126259703Y-116050722D02*
G01*
X126274264Y-116052882D01*
X126288543Y-116056459D01*
X126302403Y-116061418D01*
X126315710Y-116067712D01*
X126328336Y-116075280D01*
X126340159Y-116084048D01*
X126351066Y-116093934D01*
X126360952Y-116104841D01*
X126369720Y-116116664D01*
X126377288Y-116129290D01*
X126383582Y-116142597D01*
X126388541Y-116156457D01*
X126392118Y-116170736D01*
X126394278Y-116185297D01*
X126395000Y-116200000D01*
X126395000Y-117850000D01*
X126394278Y-117864703D01*
X126392118Y-117879264D01*
X126388541Y-117893543D01*
X126383582Y-117907403D01*
X126377288Y-117920710D01*
X126369720Y-117933336D01*
X126360952Y-117945159D01*
X126351066Y-117956066D01*
X126340159Y-117965952D01*
X126328336Y-117974720D01*
X126315710Y-117982288D01*
X126302403Y-117988582D01*
X126288543Y-117993541D01*
X126274264Y-117997118D01*
X126259703Y-117999278D01*
X126245000Y-118000000D01*
X125945000Y-118000000D01*
X125930297Y-117999278D01*
X125915736Y-117997118D01*
X125901457Y-117993541D01*
X125887597Y-117988582D01*
X125874290Y-117982288D01*
X125861664Y-117974720D01*
X125849841Y-117965952D01*
X125838934Y-117956066D01*
X125829048Y-117945159D01*
X125820280Y-117933336D01*
X125812712Y-117920710D01*
X125806418Y-117907403D01*
X125801459Y-117893543D01*
X125797882Y-117879264D01*
X125795722Y-117864703D01*
X125795000Y-117850000D01*
X125795000Y-116200000D01*
X125795722Y-116185297D01*
X125797882Y-116170736D01*
X125801459Y-116156457D01*
X125806418Y-116142597D01*
X125812712Y-116129290D01*
X125820280Y-116116664D01*
X125829048Y-116104841D01*
X125838934Y-116093934D01*
X125849841Y-116084048D01*
X125861664Y-116075280D01*
X125874290Y-116067712D01*
X125887597Y-116061418D01*
X125901457Y-116056459D01*
X125915736Y-116052882D01*
X125930297Y-116050722D01*
X125945000Y-116050000D01*
X126245000Y-116050000D01*
X126259703Y-116050722D01*
G37*
G36*
X127529703Y-116050722D02*
G01*
X127544264Y-116052882D01*
X127558543Y-116056459D01*
X127572403Y-116061418D01*
X127585710Y-116067712D01*
X127598336Y-116075280D01*
X127610159Y-116084048D01*
X127621066Y-116093934D01*
X127630952Y-116104841D01*
X127639720Y-116116664D01*
X127647288Y-116129290D01*
X127653582Y-116142597D01*
X127658541Y-116156457D01*
X127662118Y-116170736D01*
X127664278Y-116185297D01*
X127665000Y-116200000D01*
X127665000Y-117850000D01*
X127664278Y-117864703D01*
X127662118Y-117879264D01*
X127658541Y-117893543D01*
X127653582Y-117907403D01*
X127647288Y-117920710D01*
X127639720Y-117933336D01*
X127630952Y-117945159D01*
X127621066Y-117956066D01*
X127610159Y-117965952D01*
X127598336Y-117974720D01*
X127585710Y-117982288D01*
X127572403Y-117988582D01*
X127558543Y-117993541D01*
X127544264Y-117997118D01*
X127529703Y-117999278D01*
X127515000Y-118000000D01*
X127215000Y-118000000D01*
X127200297Y-117999278D01*
X127185736Y-117997118D01*
X127171457Y-117993541D01*
X127157597Y-117988582D01*
X127144290Y-117982288D01*
X127131664Y-117974720D01*
X127119841Y-117965952D01*
X127108934Y-117956066D01*
X127099048Y-117945159D01*
X127090280Y-117933336D01*
X127082712Y-117920710D01*
X127076418Y-117907403D01*
X127071459Y-117893543D01*
X127067882Y-117879264D01*
X127065722Y-117864703D01*
X127065000Y-117850000D01*
X127065000Y-116200000D01*
X127065722Y-116185297D01*
X127067882Y-116170736D01*
X127071459Y-116156457D01*
X127076418Y-116142597D01*
X127082712Y-116129290D01*
X127090280Y-116116664D01*
X127099048Y-116104841D01*
X127108934Y-116093934D01*
X127119841Y-116084048D01*
X127131664Y-116075280D01*
X127144290Y-116067712D01*
X127157597Y-116061418D01*
X127171457Y-116056459D01*
X127185736Y-116052882D01*
X127200297Y-116050722D01*
X127215000Y-116050000D01*
X127515000Y-116050000D01*
X127529703Y-116050722D01*
G37*
G36*
X128799703Y-116050722D02*
G01*
X128814264Y-116052882D01*
X128828543Y-116056459D01*
X128842403Y-116061418D01*
X128855710Y-116067712D01*
X128868336Y-116075280D01*
X128880159Y-116084048D01*
X128891066Y-116093934D01*
X128900952Y-116104841D01*
X128909720Y-116116664D01*
X128917288Y-116129290D01*
X128923582Y-116142597D01*
X128928541Y-116156457D01*
X128932118Y-116170736D01*
X128934278Y-116185297D01*
X128935000Y-116200000D01*
X128935000Y-117850000D01*
X128934278Y-117864703D01*
X128932118Y-117879264D01*
X128928541Y-117893543D01*
X128923582Y-117907403D01*
X128917288Y-117920710D01*
X128909720Y-117933336D01*
X128900952Y-117945159D01*
X128891066Y-117956066D01*
X128880159Y-117965952D01*
X128868336Y-117974720D01*
X128855710Y-117982288D01*
X128842403Y-117988582D01*
X128828543Y-117993541D01*
X128814264Y-117997118D01*
X128799703Y-117999278D01*
X128785000Y-118000000D01*
X128485000Y-118000000D01*
X128470297Y-117999278D01*
X128455736Y-117997118D01*
X128441457Y-117993541D01*
X128427597Y-117988582D01*
X128414290Y-117982288D01*
X128401664Y-117974720D01*
X128389841Y-117965952D01*
X128378934Y-117956066D01*
X128369048Y-117945159D01*
X128360280Y-117933336D01*
X128352712Y-117920710D01*
X128346418Y-117907403D01*
X128341459Y-117893543D01*
X128337882Y-117879264D01*
X128335722Y-117864703D01*
X128335000Y-117850000D01*
X128335000Y-116200000D01*
X128335722Y-116185297D01*
X128337882Y-116170736D01*
X128341459Y-116156457D01*
X128346418Y-116142597D01*
X128352712Y-116129290D01*
X128360280Y-116116664D01*
X128369048Y-116104841D01*
X128378934Y-116093934D01*
X128389841Y-116084048D01*
X128401664Y-116075280D01*
X128414290Y-116067712D01*
X128427597Y-116061418D01*
X128441457Y-116056459D01*
X128455736Y-116052882D01*
X128470297Y-116050722D01*
X128485000Y-116050000D01*
X128785000Y-116050000D01*
X128799703Y-116050722D01*
G37*
G36*
X130069703Y-116050722D02*
G01*
X130084264Y-116052882D01*
X130098543Y-116056459D01*
X130112403Y-116061418D01*
X130125710Y-116067712D01*
X130138336Y-116075280D01*
X130150159Y-116084048D01*
X130161066Y-116093934D01*
X130170952Y-116104841D01*
X130179720Y-116116664D01*
X130187288Y-116129290D01*
X130193582Y-116142597D01*
X130198541Y-116156457D01*
X130202118Y-116170736D01*
X130204278Y-116185297D01*
X130205000Y-116200000D01*
X130205000Y-117850000D01*
X130204278Y-117864703D01*
X130202118Y-117879264D01*
X130198541Y-117893543D01*
X130193582Y-117907403D01*
X130187288Y-117920710D01*
X130179720Y-117933336D01*
X130170952Y-117945159D01*
X130161066Y-117956066D01*
X130150159Y-117965952D01*
X130138336Y-117974720D01*
X130125710Y-117982288D01*
X130112403Y-117988582D01*
X130098543Y-117993541D01*
X130084264Y-117997118D01*
X130069703Y-117999278D01*
X130055000Y-118000000D01*
X129755000Y-118000000D01*
X129740297Y-117999278D01*
X129725736Y-117997118D01*
X129711457Y-117993541D01*
X129697597Y-117988582D01*
X129684290Y-117982288D01*
X129671664Y-117974720D01*
X129659841Y-117965952D01*
X129648934Y-117956066D01*
X129639048Y-117945159D01*
X129630280Y-117933336D01*
X129622712Y-117920710D01*
X129616418Y-117907403D01*
X129611459Y-117893543D01*
X129607882Y-117879264D01*
X129605722Y-117864703D01*
X129605000Y-117850000D01*
X129605000Y-116200000D01*
X129605722Y-116185297D01*
X129607882Y-116170736D01*
X129611459Y-116156457D01*
X129616418Y-116142597D01*
X129622712Y-116129290D01*
X129630280Y-116116664D01*
X129639048Y-116104841D01*
X129648934Y-116093934D01*
X129659841Y-116084048D01*
X129671664Y-116075280D01*
X129684290Y-116067712D01*
X129697597Y-116061418D01*
X129711457Y-116056459D01*
X129725736Y-116052882D01*
X129740297Y-116050722D01*
X129755000Y-116050000D01*
X130055000Y-116050000D01*
X130069703Y-116050722D01*
G37*
G36*
X127527691Y-114526053D02*
G01*
X127548926Y-114529203D01*
X127569750Y-114534419D01*
X127589962Y-114541651D01*
X127609368Y-114550830D01*
X127627781Y-114561866D01*
X127645024Y-114574654D01*
X127660930Y-114589070D01*
X127675346Y-114604976D01*
X127688134Y-114622219D01*
X127699170Y-114640632D01*
X127708349Y-114660038D01*
X127715581Y-114680250D01*
X127720797Y-114701074D01*
X127723947Y-114722309D01*
X127725000Y-114743750D01*
X127725000Y-115256250D01*
X127723947Y-115277691D01*
X127720797Y-115298926D01*
X127715581Y-115319750D01*
X127708349Y-115339962D01*
X127699170Y-115359368D01*
X127688134Y-115377781D01*
X127675346Y-115395024D01*
X127660930Y-115410930D01*
X127645024Y-115425346D01*
X127627781Y-115438134D01*
X127609368Y-115449170D01*
X127589962Y-115458349D01*
X127569750Y-115465581D01*
X127548926Y-115470797D01*
X127527691Y-115473947D01*
X127506250Y-115475000D01*
X127068750Y-115475000D01*
X127047309Y-115473947D01*
X127026074Y-115470797D01*
X127005250Y-115465581D01*
X126985038Y-115458349D01*
X126965632Y-115449170D01*
X126947219Y-115438134D01*
X126929976Y-115425346D01*
X126914070Y-115410930D01*
X126899654Y-115395024D01*
X126886866Y-115377781D01*
X126875830Y-115359368D01*
X126866651Y-115339962D01*
X126859419Y-115319750D01*
X126854203Y-115298926D01*
X126851053Y-115277691D01*
X126850000Y-115256250D01*
X126850000Y-114743750D01*
X126851053Y-114722309D01*
X126854203Y-114701074D01*
X126859419Y-114680250D01*
X126866651Y-114660038D01*
X126875830Y-114640632D01*
X126886866Y-114622219D01*
X126899654Y-114604976D01*
X126914070Y-114589070D01*
X126929976Y-114574654D01*
X126947219Y-114561866D01*
X126965632Y-114550830D01*
X126985038Y-114541651D01*
X127005250Y-114534419D01*
X127026074Y-114529203D01*
X127047309Y-114526053D01*
X127068750Y-114525000D01*
X127506250Y-114525000D01*
X127527691Y-114526053D01*
G37*
G36*
X125952691Y-114526053D02*
G01*
X125973926Y-114529203D01*
X125994750Y-114534419D01*
X126014962Y-114541651D01*
X126034368Y-114550830D01*
X126052781Y-114561866D01*
X126070024Y-114574654D01*
X126085930Y-114589070D01*
X126100346Y-114604976D01*
X126113134Y-114622219D01*
X126124170Y-114640632D01*
X126133349Y-114660038D01*
X126140581Y-114680250D01*
X126145797Y-114701074D01*
X126148947Y-114722309D01*
X126150000Y-114743750D01*
X126150000Y-115256250D01*
X126148947Y-115277691D01*
X126145797Y-115298926D01*
X126140581Y-115319750D01*
X126133349Y-115339962D01*
X126124170Y-115359368D01*
X126113134Y-115377781D01*
X126100346Y-115395024D01*
X126085930Y-115410930D01*
X126070024Y-115425346D01*
X126052781Y-115438134D01*
X126034368Y-115449170D01*
X126014962Y-115458349D01*
X125994750Y-115465581D01*
X125973926Y-115470797D01*
X125952691Y-115473947D01*
X125931250Y-115475000D01*
X125493750Y-115475000D01*
X125472309Y-115473947D01*
X125451074Y-115470797D01*
X125430250Y-115465581D01*
X125410038Y-115458349D01*
X125390632Y-115449170D01*
X125372219Y-115438134D01*
X125354976Y-115425346D01*
X125339070Y-115410930D01*
X125324654Y-115395024D01*
X125311866Y-115377781D01*
X125300830Y-115359368D01*
X125291651Y-115339962D01*
X125284419Y-115319750D01*
X125279203Y-115298926D01*
X125276053Y-115277691D01*
X125275000Y-115256250D01*
X125275000Y-114743750D01*
X125276053Y-114722309D01*
X125279203Y-114701074D01*
X125284419Y-114680250D01*
X125291651Y-114660038D01*
X125300830Y-114640632D01*
X125311866Y-114622219D01*
X125324654Y-114604976D01*
X125339070Y-114589070D01*
X125354976Y-114574654D01*
X125372219Y-114561866D01*
X125390632Y-114550830D01*
X125410038Y-114541651D01*
X125430250Y-114534419D01*
X125451074Y-114529203D01*
X125472309Y-114526053D01*
X125493750Y-114525000D01*
X125931250Y-114525000D01*
X125952691Y-114526053D01*
G37*
G36*
X130527691Y-114526053D02*
G01*
X130548926Y-114529203D01*
X130569750Y-114534419D01*
X130589962Y-114541651D01*
X130609368Y-114550830D01*
X130627781Y-114561866D01*
X130645024Y-114574654D01*
X130660930Y-114589070D01*
X130675346Y-114604976D01*
X130688134Y-114622219D01*
X130699170Y-114640632D01*
X130708349Y-114660038D01*
X130715581Y-114680250D01*
X130720797Y-114701074D01*
X130723947Y-114722309D01*
X130725000Y-114743750D01*
X130725000Y-115256250D01*
X130723947Y-115277691D01*
X130720797Y-115298926D01*
X130715581Y-115319750D01*
X130708349Y-115339962D01*
X130699170Y-115359368D01*
X130688134Y-115377781D01*
X130675346Y-115395024D01*
X130660930Y-115410930D01*
X130645024Y-115425346D01*
X130627781Y-115438134D01*
X130609368Y-115449170D01*
X130589962Y-115458349D01*
X130569750Y-115465581D01*
X130548926Y-115470797D01*
X130527691Y-115473947D01*
X130506250Y-115475000D01*
X130068750Y-115475000D01*
X130047309Y-115473947D01*
X130026074Y-115470797D01*
X130005250Y-115465581D01*
X129985038Y-115458349D01*
X129965632Y-115449170D01*
X129947219Y-115438134D01*
X129929976Y-115425346D01*
X129914070Y-115410930D01*
X129899654Y-115395024D01*
X129886866Y-115377781D01*
X129875830Y-115359368D01*
X129866651Y-115339962D01*
X129859419Y-115319750D01*
X129854203Y-115298926D01*
X129851053Y-115277691D01*
X129850000Y-115256250D01*
X129850000Y-114743750D01*
X129851053Y-114722309D01*
X129854203Y-114701074D01*
X129859419Y-114680250D01*
X129866651Y-114660038D01*
X129875830Y-114640632D01*
X129886866Y-114622219D01*
X129899654Y-114604976D01*
X129914070Y-114589070D01*
X129929976Y-114574654D01*
X129947219Y-114561866D01*
X129965632Y-114550830D01*
X129985038Y-114541651D01*
X130005250Y-114534419D01*
X130026074Y-114529203D01*
X130047309Y-114526053D01*
X130068750Y-114525000D01*
X130506250Y-114525000D01*
X130527691Y-114526053D01*
G37*
G36*
X128952691Y-114526053D02*
G01*
X128973926Y-114529203D01*
X128994750Y-114534419D01*
X129014962Y-114541651D01*
X129034368Y-114550830D01*
X129052781Y-114561866D01*
X129070024Y-114574654D01*
X129085930Y-114589070D01*
X129100346Y-114604976D01*
X129113134Y-114622219D01*
X129124170Y-114640632D01*
X129133349Y-114660038D01*
X129140581Y-114680250D01*
X129145797Y-114701074D01*
X129148947Y-114722309D01*
X129150000Y-114743750D01*
X129150000Y-115256250D01*
X129148947Y-115277691D01*
X129145797Y-115298926D01*
X129140581Y-115319750D01*
X129133349Y-115339962D01*
X129124170Y-115359368D01*
X129113134Y-115377781D01*
X129100346Y-115395024D01*
X129085930Y-115410930D01*
X129070024Y-115425346D01*
X129052781Y-115438134D01*
X129034368Y-115449170D01*
X129014962Y-115458349D01*
X128994750Y-115465581D01*
X128973926Y-115470797D01*
X128952691Y-115473947D01*
X128931250Y-115475000D01*
X128493750Y-115475000D01*
X128472309Y-115473947D01*
X128451074Y-115470797D01*
X128430250Y-115465581D01*
X128410038Y-115458349D01*
X128390632Y-115449170D01*
X128372219Y-115438134D01*
X128354976Y-115425346D01*
X128339070Y-115410930D01*
X128324654Y-115395024D01*
X128311866Y-115377781D01*
X128300830Y-115359368D01*
X128291651Y-115339962D01*
X128284419Y-115319750D01*
X128279203Y-115298926D01*
X128276053Y-115277691D01*
X128275000Y-115256250D01*
X128275000Y-114743750D01*
X128276053Y-114722309D01*
X128279203Y-114701074D01*
X128284419Y-114680250D01*
X128291651Y-114660038D01*
X128300830Y-114640632D01*
X128311866Y-114622219D01*
X128324654Y-114604976D01*
X128339070Y-114589070D01*
X128354976Y-114574654D01*
X128372219Y-114561866D01*
X128390632Y-114550830D01*
X128410038Y-114541651D01*
X128430250Y-114534419D01*
X128451074Y-114529203D01*
X128472309Y-114526053D01*
X128493750Y-114525000D01*
X128931250Y-114525000D01*
X128952691Y-114526053D01*
G37*
G36*
X127452691Y-124026053D02*
G01*
X127473926Y-124029203D01*
X127494750Y-124034419D01*
X127514962Y-124041651D01*
X127534368Y-124050830D01*
X127552781Y-124061866D01*
X127570024Y-124074654D01*
X127585930Y-124089070D01*
X127600346Y-124104976D01*
X127613134Y-124122219D01*
X127624170Y-124140632D01*
X127633349Y-124160038D01*
X127640581Y-124180250D01*
X127645797Y-124201074D01*
X127648947Y-124222309D01*
X127650000Y-124243750D01*
X127650000Y-124756250D01*
X127648947Y-124777691D01*
X127645797Y-124798926D01*
X127640581Y-124819750D01*
X127633349Y-124839962D01*
X127624170Y-124859368D01*
X127613134Y-124877781D01*
X127600346Y-124895024D01*
X127585930Y-124910930D01*
X127570024Y-124925346D01*
X127552781Y-124938134D01*
X127534368Y-124949170D01*
X127514962Y-124958349D01*
X127494750Y-124965581D01*
X127473926Y-124970797D01*
X127452691Y-124973947D01*
X127431250Y-124975000D01*
X126993750Y-124975000D01*
X126972309Y-124973947D01*
X126951074Y-124970797D01*
X126930250Y-124965581D01*
X126910038Y-124958349D01*
X126890632Y-124949170D01*
X126872219Y-124938134D01*
X126854976Y-124925346D01*
X126839070Y-124910930D01*
X126824654Y-124895024D01*
X126811866Y-124877781D01*
X126800830Y-124859368D01*
X126791651Y-124839962D01*
X126784419Y-124819750D01*
X126779203Y-124798926D01*
X126776053Y-124777691D01*
X126775000Y-124756250D01*
X126775000Y-124243750D01*
X126776053Y-124222309D01*
X126779203Y-124201074D01*
X126784419Y-124180250D01*
X126791651Y-124160038D01*
X126800830Y-124140632D01*
X126811866Y-124122219D01*
X126824654Y-124104976D01*
X126839070Y-124089070D01*
X126854976Y-124074654D01*
X126872219Y-124061866D01*
X126890632Y-124050830D01*
X126910038Y-124041651D01*
X126930250Y-124034419D01*
X126951074Y-124029203D01*
X126972309Y-124026053D01*
X126993750Y-124025000D01*
X127431250Y-124025000D01*
X127452691Y-124026053D01*
G37*
G36*
X129027691Y-124026053D02*
G01*
X129048926Y-124029203D01*
X129069750Y-124034419D01*
X129089962Y-124041651D01*
X129109368Y-124050830D01*
X129127781Y-124061866D01*
X129145024Y-124074654D01*
X129160930Y-124089070D01*
X129175346Y-124104976D01*
X129188134Y-124122219D01*
X129199170Y-124140632D01*
X129208349Y-124160038D01*
X129215581Y-124180250D01*
X129220797Y-124201074D01*
X129223947Y-124222309D01*
X129225000Y-124243750D01*
X129225000Y-124756250D01*
X129223947Y-124777691D01*
X129220797Y-124798926D01*
X129215581Y-124819750D01*
X129208349Y-124839962D01*
X129199170Y-124859368D01*
X129188134Y-124877781D01*
X129175346Y-124895024D01*
X129160930Y-124910930D01*
X129145024Y-124925346D01*
X129127781Y-124938134D01*
X129109368Y-124949170D01*
X129089962Y-124958349D01*
X129069750Y-124965581D01*
X129048926Y-124970797D01*
X129027691Y-124973947D01*
X129006250Y-124975000D01*
X128568750Y-124975000D01*
X128547309Y-124973947D01*
X128526074Y-124970797D01*
X128505250Y-124965581D01*
X128485038Y-124958349D01*
X128465632Y-124949170D01*
X128447219Y-124938134D01*
X128429976Y-124925346D01*
X128414070Y-124910930D01*
X128399654Y-124895024D01*
X128386866Y-124877781D01*
X128375830Y-124859368D01*
X128366651Y-124839962D01*
X128359419Y-124819750D01*
X128354203Y-124798926D01*
X128351053Y-124777691D01*
X128350000Y-124756250D01*
X128350000Y-124243750D01*
X128351053Y-124222309D01*
X128354203Y-124201074D01*
X128359419Y-124180250D01*
X128366651Y-124160038D01*
X128375830Y-124140632D01*
X128386866Y-124122219D01*
X128399654Y-124104976D01*
X128414070Y-124089070D01*
X128429976Y-124074654D01*
X128447219Y-124061866D01*
X128465632Y-124050830D01*
X128485038Y-124041651D01*
X128505250Y-124034419D01*
X128526074Y-124029203D01*
X128547309Y-124026053D01*
X128568750Y-124025000D01*
X129006250Y-124025000D01*
X129027691Y-124026053D01*
G37*
M02*
