G04 #@! TF.GenerationSoftware,KiCad,Pcbnew,(5.1.5)-3*
G04 #@! TF.CreationDate,2020-08-06T15:18:22+10:00*
G04 #@! TF.ProjectId,USART_BoSL_Bus,55534152-545f-4426-9f53-4c5f4275732e,rev 0.1.1*
G04 #@! TF.SameCoordinates,Original*
G04 #@! TF.FileFunction,Soldermask,Bot*
G04 #@! TF.FilePolarity,Negative*
%FSLAX46Y46*%
G04 Gerber Fmt 4.6, Leading zero omitted, Abs format (unit mm)*
G04 Created by KiCad (PCBNEW (5.1.5)-3) date 2020-08-06 15:18:22*
%MOMM*%
%LPD*%
G04 APERTURE LIST*
%ADD10C,0.150000*%
G04 APERTURE END LIST*
D10*
G36*
X114372971Y-124716204D02*
G01*
X114534871Y-124748408D01*
X114839883Y-124874748D01*
X115114387Y-125058166D01*
X115347834Y-125291613D01*
X115531252Y-125566117D01*
X115657592Y-125871129D01*
X115722000Y-126194928D01*
X115722000Y-126525072D01*
X115657592Y-126848871D01*
X115531252Y-127153883D01*
X115347834Y-127428387D01*
X115114387Y-127661834D01*
X114839883Y-127845252D01*
X114534871Y-127971592D01*
X114211073Y-128036000D01*
X113880927Y-128036000D01*
X113557129Y-127971592D01*
X113252117Y-127845252D01*
X112977613Y-127661834D01*
X112744166Y-127428387D01*
X112560748Y-127153883D01*
X112434408Y-126848871D01*
X112370000Y-126525072D01*
X112370000Y-126194928D01*
X112434408Y-125871129D01*
X112560748Y-125566117D01*
X112744166Y-125291613D01*
X112977613Y-125058166D01*
X113252117Y-124874748D01*
X113557129Y-124748408D01*
X113719029Y-124716204D01*
X113880927Y-124684000D01*
X114211073Y-124684000D01*
X114372971Y-124716204D01*
G37*
G36*
X150864903Y-123511075D02*
G01*
X151092571Y-123605378D01*
X151297466Y-123742285D01*
X151471715Y-123916534D01*
X151578165Y-124075847D01*
X151608623Y-124121431D01*
X151702925Y-124349097D01*
X151740874Y-124539877D01*
X151751000Y-124590787D01*
X151751000Y-124837213D01*
X151702925Y-125078903D01*
X151608622Y-125306571D01*
X151471715Y-125511466D01*
X151297466Y-125685715D01*
X151092571Y-125822622D01*
X151092570Y-125822623D01*
X151092569Y-125822623D01*
X150864903Y-125916925D01*
X150623214Y-125965000D01*
X150376786Y-125965000D01*
X150135097Y-125916925D01*
X149907431Y-125822623D01*
X149907430Y-125822623D01*
X149907429Y-125822622D01*
X149702534Y-125685715D01*
X149528285Y-125511466D01*
X149391378Y-125306571D01*
X149297075Y-125078903D01*
X149249000Y-124837213D01*
X149249000Y-124590787D01*
X149259127Y-124539877D01*
X149297075Y-124349097D01*
X149391377Y-124121431D01*
X149421835Y-124075847D01*
X149528285Y-123916534D01*
X149702534Y-123742285D01*
X149907429Y-123605378D01*
X150135097Y-123511075D01*
X150376786Y-123463000D01*
X150623214Y-123463000D01*
X150864903Y-123511075D01*
G37*
G36*
X134251000Y-125965000D02*
G01*
X131749000Y-125965000D01*
X131749000Y-123463000D01*
X134251000Y-123463000D01*
X134251000Y-125965000D01*
G37*
G36*
X136864903Y-123511075D02*
G01*
X137092571Y-123605378D01*
X137297466Y-123742285D01*
X137471715Y-123916534D01*
X137578165Y-124075847D01*
X137608623Y-124121431D01*
X137702925Y-124349097D01*
X137740874Y-124539877D01*
X137751000Y-124590787D01*
X137751000Y-124837213D01*
X137702925Y-125078903D01*
X137608622Y-125306571D01*
X137471715Y-125511466D01*
X137297466Y-125685715D01*
X137092571Y-125822622D01*
X137092570Y-125822623D01*
X137092569Y-125822623D01*
X136864903Y-125916925D01*
X136623214Y-125965000D01*
X136376786Y-125965000D01*
X136135097Y-125916925D01*
X135907431Y-125822623D01*
X135907430Y-125822623D01*
X135907429Y-125822622D01*
X135702534Y-125685715D01*
X135528285Y-125511466D01*
X135391378Y-125306571D01*
X135297075Y-125078903D01*
X135249000Y-124837213D01*
X135249000Y-124590787D01*
X135259127Y-124539877D01*
X135297075Y-124349097D01*
X135391377Y-124121431D01*
X135421835Y-124075847D01*
X135528285Y-123916534D01*
X135702534Y-123742285D01*
X135907429Y-123605378D01*
X136135097Y-123511075D01*
X136376786Y-123463000D01*
X136623214Y-123463000D01*
X136864903Y-123511075D01*
G37*
G36*
X140364903Y-123511075D02*
G01*
X140592571Y-123605378D01*
X140797466Y-123742285D01*
X140971715Y-123916534D01*
X141078165Y-124075847D01*
X141108623Y-124121431D01*
X141202925Y-124349097D01*
X141240874Y-124539877D01*
X141251000Y-124590787D01*
X141251000Y-124837213D01*
X141202925Y-125078903D01*
X141108622Y-125306571D01*
X140971715Y-125511466D01*
X140797466Y-125685715D01*
X140592571Y-125822622D01*
X140592570Y-125822623D01*
X140592569Y-125822623D01*
X140364903Y-125916925D01*
X140123214Y-125965000D01*
X139876786Y-125965000D01*
X139635097Y-125916925D01*
X139407431Y-125822623D01*
X139407430Y-125822623D01*
X139407429Y-125822622D01*
X139202534Y-125685715D01*
X139028285Y-125511466D01*
X138891378Y-125306571D01*
X138797075Y-125078903D01*
X138749000Y-124837213D01*
X138749000Y-124590787D01*
X138759127Y-124539877D01*
X138797075Y-124349097D01*
X138891377Y-124121431D01*
X138921835Y-124075847D01*
X139028285Y-123916534D01*
X139202534Y-123742285D01*
X139407429Y-123605378D01*
X139635097Y-123511075D01*
X139876786Y-123463000D01*
X140123214Y-123463000D01*
X140364903Y-123511075D01*
G37*
G36*
X143864903Y-123511075D02*
G01*
X144092571Y-123605378D01*
X144297466Y-123742285D01*
X144471715Y-123916534D01*
X144578165Y-124075847D01*
X144608623Y-124121431D01*
X144702925Y-124349097D01*
X144740874Y-124539877D01*
X144751000Y-124590787D01*
X144751000Y-124837213D01*
X144702925Y-125078903D01*
X144608622Y-125306571D01*
X144471715Y-125511466D01*
X144297466Y-125685715D01*
X144092571Y-125822622D01*
X144092570Y-125822623D01*
X144092569Y-125822623D01*
X143864903Y-125916925D01*
X143623214Y-125965000D01*
X143376786Y-125965000D01*
X143135097Y-125916925D01*
X142907431Y-125822623D01*
X142907430Y-125822623D01*
X142907429Y-125822622D01*
X142702534Y-125685715D01*
X142528285Y-125511466D01*
X142391378Y-125306571D01*
X142297075Y-125078903D01*
X142249000Y-124837213D01*
X142249000Y-124590787D01*
X142259127Y-124539877D01*
X142297075Y-124349097D01*
X142391377Y-124121431D01*
X142421835Y-124075847D01*
X142528285Y-123916534D01*
X142702534Y-123742285D01*
X142907429Y-123605378D01*
X143135097Y-123511075D01*
X143376786Y-123463000D01*
X143623214Y-123463000D01*
X143864903Y-123511075D01*
G37*
G36*
X147364903Y-123511075D02*
G01*
X147592571Y-123605378D01*
X147797466Y-123742285D01*
X147971715Y-123916534D01*
X148078165Y-124075847D01*
X148108623Y-124121431D01*
X148202925Y-124349097D01*
X148240874Y-124539877D01*
X148251000Y-124590787D01*
X148251000Y-124837213D01*
X148202925Y-125078903D01*
X148108622Y-125306571D01*
X147971715Y-125511466D01*
X147797466Y-125685715D01*
X147592571Y-125822622D01*
X147592570Y-125822623D01*
X147592569Y-125822623D01*
X147364903Y-125916925D01*
X147123214Y-125965000D01*
X146876786Y-125965000D01*
X146635097Y-125916925D01*
X146407431Y-125822623D01*
X146407430Y-125822623D01*
X146407429Y-125822622D01*
X146202534Y-125685715D01*
X146028285Y-125511466D01*
X145891378Y-125306571D01*
X145797075Y-125078903D01*
X145749000Y-124837213D01*
X145749000Y-124590787D01*
X145759127Y-124539877D01*
X145797075Y-124349097D01*
X145891377Y-124121431D01*
X145921835Y-124075847D01*
X146028285Y-123916534D01*
X146202534Y-123742285D01*
X146407429Y-123605378D01*
X146635097Y-123511075D01*
X146876786Y-123463000D01*
X147123214Y-123463000D01*
X147364903Y-123511075D01*
G37*
G36*
X120632560Y-123680166D02*
G01*
X120780153Y-123741301D01*
X120912982Y-123830055D01*
X121025945Y-123943018D01*
X121064688Y-124001000D01*
X121114700Y-124075849D01*
X121175834Y-124223440D01*
X121207000Y-124380122D01*
X121207000Y-124539878D01*
X121178332Y-124684000D01*
X121175834Y-124696560D01*
X121114699Y-124844153D01*
X121025945Y-124976982D01*
X120912982Y-125089945D01*
X120780153Y-125178699D01*
X120780152Y-125178700D01*
X120780151Y-125178700D01*
X120632560Y-125239834D01*
X120475878Y-125271000D01*
X120316122Y-125271000D01*
X120159440Y-125239834D01*
X120011849Y-125178700D01*
X120011848Y-125178700D01*
X120011847Y-125178699D01*
X119879018Y-125089945D01*
X119766055Y-124976982D01*
X119677301Y-124844153D01*
X119616166Y-124696560D01*
X119613668Y-124684000D01*
X119585000Y-124539878D01*
X119585000Y-124380122D01*
X119616166Y-124223440D01*
X119677300Y-124075849D01*
X119727313Y-124001000D01*
X119766055Y-123943018D01*
X119879018Y-123830055D01*
X120011847Y-123741301D01*
X120159440Y-123680166D01*
X120316122Y-123649000D01*
X120475878Y-123649000D01*
X120632560Y-123680166D01*
G37*
G36*
X123172560Y-122410166D02*
G01*
X123320153Y-122471301D01*
X123452982Y-122560055D01*
X123565945Y-122673018D01*
X123654699Y-122805847D01*
X123715834Y-122953440D01*
X123747000Y-123110123D01*
X123747000Y-123269877D01*
X123715834Y-123426560D01*
X123654699Y-123574153D01*
X123565945Y-123706982D01*
X123452982Y-123819945D01*
X123320153Y-123908699D01*
X123320152Y-123908700D01*
X123320151Y-123908700D01*
X123172560Y-123969834D01*
X123015878Y-124001000D01*
X122856122Y-124001000D01*
X122699440Y-123969834D01*
X122551849Y-123908700D01*
X122551848Y-123908700D01*
X122551847Y-123908699D01*
X122419018Y-123819945D01*
X122306055Y-123706982D01*
X122217301Y-123574153D01*
X122156166Y-123426560D01*
X122125000Y-123269877D01*
X122125000Y-123110123D01*
X122156166Y-122953440D01*
X122217301Y-122805847D01*
X122306055Y-122673018D01*
X122419018Y-122560055D01*
X122551847Y-122471301D01*
X122699440Y-122410166D01*
X122856122Y-122379000D01*
X123015878Y-122379000D01*
X123172560Y-122410166D01*
G37*
G36*
X120632560Y-121140166D02*
G01*
X120780153Y-121201301D01*
X120912982Y-121290055D01*
X121025945Y-121403018D01*
X121114699Y-121535847D01*
X121175834Y-121683440D01*
X121207000Y-121840123D01*
X121207000Y-121999877D01*
X121175834Y-122156560D01*
X121114699Y-122304153D01*
X121025945Y-122436982D01*
X120912982Y-122549945D01*
X120780153Y-122638699D01*
X120780152Y-122638700D01*
X120780151Y-122638700D01*
X120632560Y-122699834D01*
X120475878Y-122731000D01*
X120316122Y-122731000D01*
X120159440Y-122699834D01*
X120011849Y-122638700D01*
X120011848Y-122638700D01*
X120011847Y-122638699D01*
X119879018Y-122549945D01*
X119766055Y-122436982D01*
X119677301Y-122304153D01*
X119616166Y-122156560D01*
X119585000Y-121999877D01*
X119585000Y-121840123D01*
X119616166Y-121683440D01*
X119677301Y-121535847D01*
X119766055Y-121403018D01*
X119879018Y-121290055D01*
X120011847Y-121201301D01*
X120159440Y-121140166D01*
X120316122Y-121109000D01*
X120475878Y-121109000D01*
X120632560Y-121140166D01*
G37*
G36*
X123172560Y-119870166D02*
G01*
X123320153Y-119931301D01*
X123452982Y-120020055D01*
X123565945Y-120133018D01*
X123654699Y-120265847D01*
X123715834Y-120413440D01*
X123747000Y-120570123D01*
X123747000Y-120729877D01*
X123715834Y-120886560D01*
X123654699Y-121034153D01*
X123565945Y-121166982D01*
X123452982Y-121279945D01*
X123320153Y-121368699D01*
X123320152Y-121368700D01*
X123320151Y-121368700D01*
X123172560Y-121429834D01*
X123015878Y-121461000D01*
X122856122Y-121461000D01*
X122699440Y-121429834D01*
X122551849Y-121368700D01*
X122551848Y-121368700D01*
X122551847Y-121368699D01*
X122419018Y-121279945D01*
X122306055Y-121166982D01*
X122217301Y-121034153D01*
X122156166Y-120886560D01*
X122125000Y-120729877D01*
X122125000Y-120570123D01*
X122156166Y-120413440D01*
X122217301Y-120265847D01*
X122306055Y-120133018D01*
X122419018Y-120020055D01*
X122551847Y-119931301D01*
X122699440Y-119870166D01*
X122856122Y-119839000D01*
X123015878Y-119839000D01*
X123172560Y-119870166D01*
G37*
G36*
X120632560Y-118600166D02*
G01*
X120780153Y-118661301D01*
X120912982Y-118750055D01*
X121025945Y-118863018D01*
X121114699Y-118995847D01*
X121175834Y-119143440D01*
X121207000Y-119300123D01*
X121207000Y-119459877D01*
X121175834Y-119616560D01*
X121114699Y-119764153D01*
X121025945Y-119896982D01*
X120912982Y-120009945D01*
X120780153Y-120098699D01*
X120780152Y-120098700D01*
X120780151Y-120098700D01*
X120632560Y-120159834D01*
X120475878Y-120191000D01*
X120316122Y-120191000D01*
X120159440Y-120159834D01*
X120011849Y-120098700D01*
X120011848Y-120098700D01*
X120011847Y-120098699D01*
X119879018Y-120009945D01*
X119766055Y-119896982D01*
X119677301Y-119764153D01*
X119616166Y-119616560D01*
X119585000Y-119459877D01*
X119585000Y-119300123D01*
X119616166Y-119143440D01*
X119677301Y-118995847D01*
X119766055Y-118863018D01*
X119879018Y-118750055D01*
X120011847Y-118661301D01*
X120159440Y-118600166D01*
X120316122Y-118569000D01*
X120475878Y-118569000D01*
X120632560Y-118600166D01*
G37*
G36*
X138413512Y-117848927D02*
G01*
X138562812Y-117878624D01*
X138726784Y-117946544D01*
X138874354Y-118045147D01*
X138999853Y-118170646D01*
X139098456Y-118318216D01*
X139166376Y-118482188D01*
X139201000Y-118656259D01*
X139201000Y-118833741D01*
X139166376Y-119007812D01*
X139098456Y-119171784D01*
X138999853Y-119319354D01*
X138874354Y-119444853D01*
X138726784Y-119543456D01*
X138562812Y-119611376D01*
X138413512Y-119641073D01*
X138388742Y-119646000D01*
X138211258Y-119646000D01*
X138186488Y-119641073D01*
X138037188Y-119611376D01*
X137873216Y-119543456D01*
X137725646Y-119444853D01*
X137600147Y-119319354D01*
X137501544Y-119171784D01*
X137433624Y-119007812D01*
X137399000Y-118833741D01*
X137399000Y-118656259D01*
X137433624Y-118482188D01*
X137501544Y-118318216D01*
X137600147Y-118170646D01*
X137725646Y-118045147D01*
X137873216Y-117946544D01*
X138037188Y-117878624D01*
X138186488Y-117848927D01*
X138211258Y-117844000D01*
X138388742Y-117844000D01*
X138413512Y-117848927D01*
G37*
G36*
X143493512Y-117848927D02*
G01*
X143642812Y-117878624D01*
X143806784Y-117946544D01*
X143954354Y-118045147D01*
X144079853Y-118170646D01*
X144178456Y-118318216D01*
X144246376Y-118482188D01*
X144281000Y-118656259D01*
X144281000Y-118833741D01*
X144246376Y-119007812D01*
X144178456Y-119171784D01*
X144079853Y-119319354D01*
X143954354Y-119444853D01*
X143806784Y-119543456D01*
X143642812Y-119611376D01*
X143493512Y-119641073D01*
X143468742Y-119646000D01*
X143291258Y-119646000D01*
X143266488Y-119641073D01*
X143117188Y-119611376D01*
X142953216Y-119543456D01*
X142805646Y-119444853D01*
X142680147Y-119319354D01*
X142581544Y-119171784D01*
X142513624Y-119007812D01*
X142479000Y-118833741D01*
X142479000Y-118656259D01*
X142513624Y-118482188D01*
X142581544Y-118318216D01*
X142680147Y-118170646D01*
X142805646Y-118045147D01*
X142953216Y-117946544D01*
X143117188Y-117878624D01*
X143266488Y-117848927D01*
X143291258Y-117844000D01*
X143468742Y-117844000D01*
X143493512Y-117848927D01*
G37*
G36*
X146033512Y-117848927D02*
G01*
X146182812Y-117878624D01*
X146346784Y-117946544D01*
X146494354Y-118045147D01*
X146619853Y-118170646D01*
X146718456Y-118318216D01*
X146786376Y-118482188D01*
X146821000Y-118656259D01*
X146821000Y-118833741D01*
X146786376Y-119007812D01*
X146718456Y-119171784D01*
X146619853Y-119319354D01*
X146494354Y-119444853D01*
X146346784Y-119543456D01*
X146182812Y-119611376D01*
X146033512Y-119641073D01*
X146008742Y-119646000D01*
X145831258Y-119646000D01*
X145806488Y-119641073D01*
X145657188Y-119611376D01*
X145493216Y-119543456D01*
X145345646Y-119444853D01*
X145220147Y-119319354D01*
X145121544Y-119171784D01*
X145053624Y-119007812D01*
X145019000Y-118833741D01*
X145019000Y-118656259D01*
X145053624Y-118482188D01*
X145121544Y-118318216D01*
X145220147Y-118170646D01*
X145345646Y-118045147D01*
X145493216Y-117946544D01*
X145657188Y-117878624D01*
X145806488Y-117848927D01*
X145831258Y-117844000D01*
X146008742Y-117844000D01*
X146033512Y-117848927D01*
G37*
G36*
X148573512Y-117848927D02*
G01*
X148722812Y-117878624D01*
X148886784Y-117946544D01*
X149034354Y-118045147D01*
X149159853Y-118170646D01*
X149258456Y-118318216D01*
X149326376Y-118482188D01*
X149361000Y-118656259D01*
X149361000Y-118833741D01*
X149326376Y-119007812D01*
X149258456Y-119171784D01*
X149159853Y-119319354D01*
X149034354Y-119444853D01*
X148886784Y-119543456D01*
X148722812Y-119611376D01*
X148573512Y-119641073D01*
X148548742Y-119646000D01*
X148371258Y-119646000D01*
X148346488Y-119641073D01*
X148197188Y-119611376D01*
X148033216Y-119543456D01*
X147885646Y-119444853D01*
X147760147Y-119319354D01*
X147661544Y-119171784D01*
X147593624Y-119007812D01*
X147559000Y-118833741D01*
X147559000Y-118656259D01*
X147593624Y-118482188D01*
X147661544Y-118318216D01*
X147760147Y-118170646D01*
X147885646Y-118045147D01*
X148033216Y-117946544D01*
X148197188Y-117878624D01*
X148346488Y-117848927D01*
X148371258Y-117844000D01*
X148548742Y-117844000D01*
X148573512Y-117848927D01*
G37*
G36*
X151901000Y-119646000D02*
G01*
X150099000Y-119646000D01*
X150099000Y-117844000D01*
X151901000Y-117844000D01*
X151901000Y-119646000D01*
G37*
G36*
X135873512Y-117848927D02*
G01*
X136022812Y-117878624D01*
X136186784Y-117946544D01*
X136334354Y-118045147D01*
X136459853Y-118170646D01*
X136558456Y-118318216D01*
X136626376Y-118482188D01*
X136661000Y-118656259D01*
X136661000Y-118833741D01*
X136626376Y-119007812D01*
X136558456Y-119171784D01*
X136459853Y-119319354D01*
X136334354Y-119444853D01*
X136186784Y-119543456D01*
X136022812Y-119611376D01*
X135873512Y-119641073D01*
X135848742Y-119646000D01*
X135671258Y-119646000D01*
X135646488Y-119641073D01*
X135497188Y-119611376D01*
X135333216Y-119543456D01*
X135185646Y-119444853D01*
X135060147Y-119319354D01*
X134961544Y-119171784D01*
X134893624Y-119007812D01*
X134859000Y-118833741D01*
X134859000Y-118656259D01*
X134893624Y-118482188D01*
X134961544Y-118318216D01*
X135060147Y-118170646D01*
X135185646Y-118045147D01*
X135333216Y-117946544D01*
X135497188Y-117878624D01*
X135646488Y-117848927D01*
X135671258Y-117844000D01*
X135848742Y-117844000D01*
X135873512Y-117848927D01*
G37*
G36*
X133333512Y-117848927D02*
G01*
X133482812Y-117878624D01*
X133646784Y-117946544D01*
X133794354Y-118045147D01*
X133919853Y-118170646D01*
X134018456Y-118318216D01*
X134086376Y-118482188D01*
X134121000Y-118656259D01*
X134121000Y-118833741D01*
X134086376Y-119007812D01*
X134018456Y-119171784D01*
X133919853Y-119319354D01*
X133794354Y-119444853D01*
X133646784Y-119543456D01*
X133482812Y-119611376D01*
X133333512Y-119641073D01*
X133308742Y-119646000D01*
X133131258Y-119646000D01*
X133106488Y-119641073D01*
X132957188Y-119611376D01*
X132793216Y-119543456D01*
X132645646Y-119444853D01*
X132520147Y-119319354D01*
X132421544Y-119171784D01*
X132353624Y-119007812D01*
X132319000Y-118833741D01*
X132319000Y-118656259D01*
X132353624Y-118482188D01*
X132421544Y-118318216D01*
X132520147Y-118170646D01*
X132645646Y-118045147D01*
X132793216Y-117946544D01*
X132957188Y-117878624D01*
X133106488Y-117848927D01*
X133131258Y-117844000D01*
X133308742Y-117844000D01*
X133333512Y-117848927D01*
G37*
G36*
X140953512Y-117848927D02*
G01*
X141102812Y-117878624D01*
X141266784Y-117946544D01*
X141414354Y-118045147D01*
X141539853Y-118170646D01*
X141638456Y-118318216D01*
X141706376Y-118482188D01*
X141741000Y-118656259D01*
X141741000Y-118833741D01*
X141706376Y-119007812D01*
X141638456Y-119171784D01*
X141539853Y-119319354D01*
X141414354Y-119444853D01*
X141266784Y-119543456D01*
X141102812Y-119611376D01*
X140953512Y-119641073D01*
X140928742Y-119646000D01*
X140751258Y-119646000D01*
X140726488Y-119641073D01*
X140577188Y-119611376D01*
X140413216Y-119543456D01*
X140265646Y-119444853D01*
X140140147Y-119319354D01*
X140041544Y-119171784D01*
X139973624Y-119007812D01*
X139939000Y-118833741D01*
X139939000Y-118656259D01*
X139973624Y-118482188D01*
X140041544Y-118318216D01*
X140140147Y-118170646D01*
X140265646Y-118045147D01*
X140413216Y-117946544D01*
X140577188Y-117878624D01*
X140726488Y-117848927D01*
X140751258Y-117844000D01*
X140928742Y-117844000D01*
X140953512Y-117848927D01*
G37*
G36*
X123747000Y-118921000D02*
G01*
X122125000Y-118921000D01*
X122125000Y-117299000D01*
X123747000Y-117299000D01*
X123747000Y-118921000D01*
G37*
G36*
X114534871Y-114588408D02*
G01*
X114839883Y-114714748D01*
X115114387Y-114898166D01*
X115347834Y-115131613D01*
X115531252Y-115406117D01*
X115648090Y-115688189D01*
X115657592Y-115711130D01*
X115722000Y-116034927D01*
X115722000Y-116365073D01*
X115690118Y-116525353D01*
X115657592Y-116688871D01*
X115531252Y-116993883D01*
X115347834Y-117268387D01*
X115114387Y-117501834D01*
X114839883Y-117685252D01*
X114534871Y-117811592D01*
X114211073Y-117876000D01*
X113880927Y-117876000D01*
X113557129Y-117811592D01*
X113252117Y-117685252D01*
X112977613Y-117501834D01*
X112744166Y-117268387D01*
X112560748Y-116993883D01*
X112434408Y-116688871D01*
X112401882Y-116525353D01*
X112370000Y-116365073D01*
X112370000Y-116034927D01*
X112434408Y-115711130D01*
X112443910Y-115688189D01*
X112560748Y-115406117D01*
X112744166Y-115131613D01*
X112977613Y-114898166D01*
X113252117Y-114714748D01*
X113557129Y-114588408D01*
X113880927Y-114524000D01*
X114211073Y-114524000D01*
X114534871Y-114588408D01*
G37*
G36*
X140953512Y-115054927D02*
G01*
X141102812Y-115084624D01*
X141266784Y-115152544D01*
X141414354Y-115251147D01*
X141539853Y-115376646D01*
X141638456Y-115524216D01*
X141706376Y-115688188D01*
X141741000Y-115862259D01*
X141741000Y-116039741D01*
X141706376Y-116213812D01*
X141638456Y-116377784D01*
X141539853Y-116525354D01*
X141414354Y-116650853D01*
X141266784Y-116749456D01*
X141102812Y-116817376D01*
X140953512Y-116847073D01*
X140928742Y-116852000D01*
X140751258Y-116852000D01*
X140726488Y-116847073D01*
X140577188Y-116817376D01*
X140413216Y-116749456D01*
X140265646Y-116650853D01*
X140140147Y-116525354D01*
X140041544Y-116377784D01*
X139973624Y-116213812D01*
X139939000Y-116039741D01*
X139939000Y-115862259D01*
X139973624Y-115688188D01*
X140041544Y-115524216D01*
X140140147Y-115376646D01*
X140265646Y-115251147D01*
X140413216Y-115152544D01*
X140577188Y-115084624D01*
X140726488Y-115054927D01*
X140751258Y-115050000D01*
X140928742Y-115050000D01*
X140953512Y-115054927D01*
G37*
G36*
X151901000Y-116852000D02*
G01*
X150099000Y-116852000D01*
X150099000Y-115050000D01*
X151901000Y-115050000D01*
X151901000Y-116852000D01*
G37*
G36*
X148573512Y-115054927D02*
G01*
X148722812Y-115084624D01*
X148886784Y-115152544D01*
X149034354Y-115251147D01*
X149159853Y-115376646D01*
X149258456Y-115524216D01*
X149326376Y-115688188D01*
X149361000Y-115862259D01*
X149361000Y-116039741D01*
X149326376Y-116213812D01*
X149258456Y-116377784D01*
X149159853Y-116525354D01*
X149034354Y-116650853D01*
X148886784Y-116749456D01*
X148722812Y-116817376D01*
X148573512Y-116847073D01*
X148548742Y-116852000D01*
X148371258Y-116852000D01*
X148346488Y-116847073D01*
X148197188Y-116817376D01*
X148033216Y-116749456D01*
X147885646Y-116650853D01*
X147760147Y-116525354D01*
X147661544Y-116377784D01*
X147593624Y-116213812D01*
X147559000Y-116039741D01*
X147559000Y-115862259D01*
X147593624Y-115688188D01*
X147661544Y-115524216D01*
X147760147Y-115376646D01*
X147885646Y-115251147D01*
X148033216Y-115152544D01*
X148197188Y-115084624D01*
X148346488Y-115054927D01*
X148371258Y-115050000D01*
X148548742Y-115050000D01*
X148573512Y-115054927D01*
G37*
G36*
X146033512Y-115054927D02*
G01*
X146182812Y-115084624D01*
X146346784Y-115152544D01*
X146494354Y-115251147D01*
X146619853Y-115376646D01*
X146718456Y-115524216D01*
X146786376Y-115688188D01*
X146821000Y-115862259D01*
X146821000Y-116039741D01*
X146786376Y-116213812D01*
X146718456Y-116377784D01*
X146619853Y-116525354D01*
X146494354Y-116650853D01*
X146346784Y-116749456D01*
X146182812Y-116817376D01*
X146033512Y-116847073D01*
X146008742Y-116852000D01*
X145831258Y-116852000D01*
X145806488Y-116847073D01*
X145657188Y-116817376D01*
X145493216Y-116749456D01*
X145345646Y-116650853D01*
X145220147Y-116525354D01*
X145121544Y-116377784D01*
X145053624Y-116213812D01*
X145019000Y-116039741D01*
X145019000Y-115862259D01*
X145053624Y-115688188D01*
X145121544Y-115524216D01*
X145220147Y-115376646D01*
X145345646Y-115251147D01*
X145493216Y-115152544D01*
X145657188Y-115084624D01*
X145806488Y-115054927D01*
X145831258Y-115050000D01*
X146008742Y-115050000D01*
X146033512Y-115054927D01*
G37*
G36*
X143493512Y-115054927D02*
G01*
X143642812Y-115084624D01*
X143806784Y-115152544D01*
X143954354Y-115251147D01*
X144079853Y-115376646D01*
X144178456Y-115524216D01*
X144246376Y-115688188D01*
X144281000Y-115862259D01*
X144281000Y-116039741D01*
X144246376Y-116213812D01*
X144178456Y-116377784D01*
X144079853Y-116525354D01*
X143954354Y-116650853D01*
X143806784Y-116749456D01*
X143642812Y-116817376D01*
X143493512Y-116847073D01*
X143468742Y-116852000D01*
X143291258Y-116852000D01*
X143266488Y-116847073D01*
X143117188Y-116817376D01*
X142953216Y-116749456D01*
X142805646Y-116650853D01*
X142680147Y-116525354D01*
X142581544Y-116377784D01*
X142513624Y-116213812D01*
X142479000Y-116039741D01*
X142479000Y-115862259D01*
X142513624Y-115688188D01*
X142581544Y-115524216D01*
X142680147Y-115376646D01*
X142805646Y-115251147D01*
X142953216Y-115152544D01*
X143117188Y-115084624D01*
X143266488Y-115054927D01*
X143291258Y-115050000D01*
X143468742Y-115050000D01*
X143493512Y-115054927D01*
G37*
G36*
X138413512Y-115054927D02*
G01*
X138562812Y-115084624D01*
X138726784Y-115152544D01*
X138874354Y-115251147D01*
X138999853Y-115376646D01*
X139098456Y-115524216D01*
X139166376Y-115688188D01*
X139201000Y-115862259D01*
X139201000Y-116039741D01*
X139166376Y-116213812D01*
X139098456Y-116377784D01*
X138999853Y-116525354D01*
X138874354Y-116650853D01*
X138726784Y-116749456D01*
X138562812Y-116817376D01*
X138413512Y-116847073D01*
X138388742Y-116852000D01*
X138211258Y-116852000D01*
X138186488Y-116847073D01*
X138037188Y-116817376D01*
X137873216Y-116749456D01*
X137725646Y-116650853D01*
X137600147Y-116525354D01*
X137501544Y-116377784D01*
X137433624Y-116213812D01*
X137399000Y-116039741D01*
X137399000Y-115862259D01*
X137433624Y-115688188D01*
X137501544Y-115524216D01*
X137600147Y-115376646D01*
X137725646Y-115251147D01*
X137873216Y-115152544D01*
X138037188Y-115084624D01*
X138186488Y-115054927D01*
X138211258Y-115050000D01*
X138388742Y-115050000D01*
X138413512Y-115054927D01*
G37*
G36*
X135873512Y-115054927D02*
G01*
X136022812Y-115084624D01*
X136186784Y-115152544D01*
X136334354Y-115251147D01*
X136459853Y-115376646D01*
X136558456Y-115524216D01*
X136626376Y-115688188D01*
X136661000Y-115862259D01*
X136661000Y-116039741D01*
X136626376Y-116213812D01*
X136558456Y-116377784D01*
X136459853Y-116525354D01*
X136334354Y-116650853D01*
X136186784Y-116749456D01*
X136022812Y-116817376D01*
X135873512Y-116847073D01*
X135848742Y-116852000D01*
X135671258Y-116852000D01*
X135646488Y-116847073D01*
X135497188Y-116817376D01*
X135333216Y-116749456D01*
X135185646Y-116650853D01*
X135060147Y-116525354D01*
X134961544Y-116377784D01*
X134893624Y-116213812D01*
X134859000Y-116039741D01*
X134859000Y-115862259D01*
X134893624Y-115688188D01*
X134961544Y-115524216D01*
X135060147Y-115376646D01*
X135185646Y-115251147D01*
X135333216Y-115152544D01*
X135497188Y-115084624D01*
X135646488Y-115054927D01*
X135671258Y-115050000D01*
X135848742Y-115050000D01*
X135873512Y-115054927D01*
G37*
G36*
X133333512Y-115054927D02*
G01*
X133482812Y-115084624D01*
X133646784Y-115152544D01*
X133794354Y-115251147D01*
X133919853Y-115376646D01*
X134018456Y-115524216D01*
X134086376Y-115688188D01*
X134121000Y-115862259D01*
X134121000Y-116039741D01*
X134086376Y-116213812D01*
X134018456Y-116377784D01*
X133919853Y-116525354D01*
X133794354Y-116650853D01*
X133646784Y-116749456D01*
X133482812Y-116817376D01*
X133333512Y-116847073D01*
X133308742Y-116852000D01*
X133131258Y-116852000D01*
X133106488Y-116847073D01*
X132957188Y-116817376D01*
X132793216Y-116749456D01*
X132645646Y-116650853D01*
X132520147Y-116525354D01*
X132421544Y-116377784D01*
X132353624Y-116213812D01*
X132319000Y-116039741D01*
X132319000Y-115862259D01*
X132353624Y-115688188D01*
X132421544Y-115524216D01*
X132520147Y-115376646D01*
X132645646Y-115251147D01*
X132793216Y-115152544D01*
X132957188Y-115084624D01*
X133106488Y-115054927D01*
X133131258Y-115050000D01*
X133308742Y-115050000D01*
X133333512Y-115054927D01*
G37*
M02*
