G04 #@! TF.GenerationSoftware,KiCad,Pcbnew,(5.1.5)-3*
G04 #@! TF.CreationDate,2020-08-06T15:18:21+10:00*
G04 #@! TF.ProjectId,USART_BoSL_Bus,55534152-545f-4426-9f53-4c5f4275732e,rev 0.1.1*
G04 #@! TF.SameCoordinates,Original*
G04 #@! TF.FileFunction,Copper,L2,Bot*
G04 #@! TF.FilePolarity,Positive*
%FSLAX46Y46*%
G04 Gerber Fmt 4.6, Leading zero omitted, Abs format (unit mm)*
G04 Created by KiCad (PCBNEW (5.1.5)-3) date 2020-08-06 15:18:21*
%MOMM*%
%LPD*%
G04 APERTURE LIST*
%ADD10O,1.700000X1.700000*%
%ADD11R,1.700000X1.700000*%
%ADD12C,2.400000*%
%ADD13R,2.400000X2.400000*%
%ADD14R,1.520000X1.520000*%
%ADD15C,1.520000*%
%ADD16C,0.800000*%
%ADD17C,0.800000*%
%ADD18C,0.400000*%
%ADD19C,0.254000*%
G04 APERTURE END LIST*
D10*
X133220000Y-118745000D03*
X135760000Y-118745000D03*
X138300000Y-118745000D03*
X140840000Y-118745000D03*
X143380000Y-118745000D03*
X145920000Y-118745000D03*
X148460000Y-118745000D03*
D11*
X151000000Y-118745000D03*
D10*
X133220000Y-115951000D03*
X135760000Y-115951000D03*
X138300000Y-115951000D03*
X140840000Y-115951000D03*
X143380000Y-115951000D03*
X145920000Y-115951000D03*
X148460000Y-115951000D03*
D11*
X151000000Y-115951000D03*
D12*
X150500000Y-124714000D03*
X147000000Y-124714000D03*
X143500000Y-124714000D03*
X140000000Y-124714000D03*
X136500000Y-124714000D03*
D13*
X133000000Y-124714000D03*
D14*
X122936000Y-118110000D03*
D15*
X120396000Y-119380000D03*
X122936000Y-120650000D03*
X120396000Y-121920000D03*
X122936000Y-123190000D03*
X120396000Y-124460000D03*
D16*
X125000000Y-124500000D03*
X127262500Y-126500000D03*
X128700000Y-119400004D03*
X131000000Y-117000000D03*
D17*
X138585000Y-121000000D02*
X139990001Y-119594999D01*
X127386000Y-121000000D02*
X138585000Y-121000000D01*
X122936000Y-118110000D02*
X124496000Y-118110000D01*
X124496000Y-118110000D02*
X127386000Y-121000000D01*
X139990001Y-119594999D02*
X140840000Y-118745000D01*
X140840000Y-115951000D02*
X140840000Y-118745000D01*
X138300000Y-118745000D02*
X138300000Y-115951000D01*
D18*
X125000000Y-125065685D02*
X125000000Y-124500000D01*
X125000000Y-125421502D02*
X125000000Y-125065685D01*
X127278509Y-127700011D02*
X125000000Y-125421502D01*
X147513989Y-127700011D02*
X127278509Y-127700011D01*
X150500000Y-124714000D02*
X147513989Y-127700011D01*
X127862500Y-127100000D02*
X127262500Y-126500000D01*
X144614000Y-127100000D02*
X127862500Y-127100000D01*
X147000000Y-124714000D02*
X144614000Y-127100000D01*
D17*
X137800000Y-122100000D02*
X136500000Y-123400000D01*
X136500000Y-123400000D02*
X136500000Y-124714000D01*
X146307081Y-122100000D02*
X137800000Y-122100000D01*
X148460000Y-119947081D02*
X146307081Y-122100000D01*
X126400000Y-123200000D02*
X127500000Y-122100000D01*
X122936000Y-123190000D02*
X122946000Y-123200000D01*
X127500000Y-122100000D02*
X137800000Y-122100000D01*
X122946000Y-123200000D02*
X126400000Y-123200000D01*
X148460000Y-118745000D02*
X148460000Y-119947081D01*
X148460000Y-118745000D02*
X148460000Y-115951000D01*
X133220000Y-118745000D02*
X133220000Y-115951000D01*
X135760000Y-115951000D02*
X135760000Y-118745000D01*
D18*
X129265685Y-119400004D02*
X128700000Y-119400004D01*
X129765681Y-119400004D02*
X129265685Y-119400004D01*
X131800000Y-117365685D02*
X129765681Y-119400004D01*
X131800000Y-115520998D02*
X131800000Y-117365685D01*
X133220998Y-114100000D02*
X131800000Y-115520998D01*
X143380000Y-115951000D02*
X141529000Y-114100000D01*
X141529000Y-114100000D02*
X133220998Y-114100000D01*
D17*
X143380000Y-118745000D02*
X143380000Y-115951000D01*
X151000000Y-115951000D02*
X151000000Y-118745000D01*
D18*
X131000000Y-117000000D02*
X131000000Y-115000000D01*
X131000000Y-115000000D02*
X132600000Y-113400000D01*
X145920000Y-114420000D02*
X145920000Y-115951000D01*
X144900000Y-113400000D02*
X145920000Y-114420000D01*
X132600000Y-113400000D02*
X144900000Y-113400000D01*
D17*
X145920000Y-115951000D02*
X145920000Y-118745000D01*
D19*
G36*
X130438574Y-114380559D02*
G01*
X130406710Y-114406709D01*
X130330503Y-114499568D01*
X130302364Y-114533855D01*
X130224828Y-114678914D01*
X130177082Y-114836312D01*
X130160960Y-115000000D01*
X130165001Y-115041028D01*
X130165000Y-116386715D01*
X130082795Y-116509744D01*
X130004774Y-116698102D01*
X129965000Y-116898061D01*
X129965000Y-117101939D01*
X130004774Y-117301898D01*
X130082795Y-117490256D01*
X130196063Y-117659774D01*
X130260553Y-117724264D01*
X129419814Y-118565004D01*
X129313285Y-118565004D01*
X129190256Y-118482799D01*
X129001898Y-118404778D01*
X128801939Y-118365004D01*
X128598061Y-118365004D01*
X128398102Y-118404778D01*
X128209744Y-118482799D01*
X128040226Y-118596067D01*
X127896063Y-118740230D01*
X127782795Y-118909748D01*
X127704774Y-119098106D01*
X127665000Y-119298065D01*
X127665000Y-119501943D01*
X127704774Y-119701902D01*
X127782795Y-119890260D01*
X127832735Y-119965000D01*
X127814711Y-119965000D01*
X125263807Y-117414097D01*
X125231396Y-117374604D01*
X125073797Y-117245266D01*
X124893993Y-117149159D01*
X124698895Y-117089976D01*
X124546838Y-117075000D01*
X124546828Y-117075000D01*
X124496000Y-117069994D01*
X124445172Y-117075000D01*
X124269028Y-117075000D01*
X124226537Y-116995506D01*
X124147185Y-116898815D01*
X124050494Y-116819463D01*
X123940180Y-116760498D01*
X123820482Y-116724188D01*
X123696000Y-116711928D01*
X122176000Y-116711928D01*
X122051518Y-116724188D01*
X121931820Y-116760498D01*
X121821506Y-116819463D01*
X121724815Y-116898815D01*
X121645463Y-116995506D01*
X121586498Y-117105820D01*
X121550188Y-117225518D01*
X121537928Y-117350000D01*
X121537928Y-118578082D01*
X121479567Y-118490739D01*
X121285261Y-118296433D01*
X121056780Y-118143767D01*
X120802907Y-118038609D01*
X120533396Y-117985000D01*
X120258604Y-117985000D01*
X119989093Y-118038609D01*
X119735220Y-118143767D01*
X119506739Y-118296433D01*
X119312433Y-118490739D01*
X119159767Y-118719220D01*
X119054609Y-118973093D01*
X119001000Y-119242604D01*
X119001000Y-119517396D01*
X119054609Y-119786907D01*
X119159767Y-120040780D01*
X119312433Y-120269261D01*
X119506739Y-120463567D01*
X119735220Y-120616233D01*
X119816740Y-120650000D01*
X119735220Y-120683767D01*
X119506739Y-120836433D01*
X119312433Y-121030739D01*
X119159767Y-121259220D01*
X119054609Y-121513093D01*
X119001000Y-121782604D01*
X119001000Y-122057396D01*
X119054609Y-122326907D01*
X119159767Y-122580780D01*
X119312433Y-122809261D01*
X119506739Y-123003567D01*
X119735220Y-123156233D01*
X119811501Y-123187830D01*
X119793674Y-123194256D01*
X119678206Y-123255975D01*
X119611469Y-123495863D01*
X120396000Y-124280395D01*
X121180531Y-123495863D01*
X121113794Y-123255975D01*
X120974293Y-123190400D01*
X121056780Y-123156233D01*
X121285261Y-123003567D01*
X121479567Y-122809261D01*
X121632233Y-122580780D01*
X121737391Y-122326907D01*
X121791000Y-122057396D01*
X121791000Y-121782604D01*
X121737391Y-121513093D01*
X121632233Y-121259220D01*
X121479567Y-121030739D01*
X121285261Y-120836433D01*
X121056780Y-120683767D01*
X120975260Y-120650000D01*
X121056780Y-120616233D01*
X121285261Y-120463567D01*
X121479567Y-120269261D01*
X121632233Y-120040780D01*
X121737391Y-119786907D01*
X121791000Y-119517396D01*
X121791000Y-119375501D01*
X121821506Y-119400537D01*
X121931820Y-119459502D01*
X122051518Y-119495812D01*
X122139467Y-119504474D01*
X122046739Y-119566433D01*
X121852433Y-119760739D01*
X121699767Y-119989220D01*
X121594609Y-120243093D01*
X121541000Y-120512604D01*
X121541000Y-120787396D01*
X121594609Y-121056907D01*
X121699767Y-121310780D01*
X121852433Y-121539261D01*
X122046739Y-121733567D01*
X122275220Y-121886233D01*
X122356740Y-121920000D01*
X122275220Y-121953767D01*
X122046739Y-122106433D01*
X121852433Y-122300739D01*
X121699767Y-122529220D01*
X121594609Y-122783093D01*
X121541000Y-123052604D01*
X121541000Y-123327396D01*
X121594609Y-123596907D01*
X121699767Y-123850780D01*
X121852433Y-124079261D01*
X122046739Y-124273567D01*
X122275220Y-124426233D01*
X122529093Y-124531391D01*
X122798604Y-124585000D01*
X123073396Y-124585000D01*
X123342907Y-124531391D01*
X123596780Y-124426233D01*
X123825261Y-124273567D01*
X123863828Y-124235000D01*
X123997435Y-124235000D01*
X123965000Y-124398061D01*
X123965000Y-124601939D01*
X124004774Y-124801898D01*
X124082795Y-124990256D01*
X124165000Y-125113285D01*
X124165000Y-125380484D01*
X124160960Y-125421502D01*
X124165000Y-125462520D01*
X124177082Y-125585190D01*
X124224828Y-125742588D01*
X124302364Y-125887647D01*
X124406709Y-126014793D01*
X124438579Y-126040948D01*
X126659068Y-128261438D01*
X126685218Y-128293302D01*
X126812363Y-128397647D01*
X126957422Y-128475183D01*
X127114820Y-128522929D01*
X127237490Y-128535011D01*
X127237500Y-128535011D01*
X127278508Y-128539050D01*
X127319516Y-128535011D01*
X147472971Y-128535011D01*
X147513989Y-128539051D01*
X147555007Y-128535011D01*
X147555008Y-128535011D01*
X147677678Y-128522929D01*
X147835076Y-128475183D01*
X147980135Y-128397647D01*
X148107280Y-128293302D01*
X148133435Y-128261432D01*
X149930551Y-126464316D01*
X149964750Y-126478482D01*
X150319268Y-126549000D01*
X150680732Y-126549000D01*
X151035250Y-126478482D01*
X151369199Y-126340156D01*
X151669744Y-126139338D01*
X151925338Y-125883744D01*
X152126156Y-125583199D01*
X152264482Y-125249250D01*
X152335000Y-124894732D01*
X152335000Y-124533268D01*
X152264482Y-124178750D01*
X152126156Y-123844801D01*
X151925338Y-123544256D01*
X151669744Y-123288662D01*
X151369199Y-123087844D01*
X151035250Y-122949518D01*
X150680732Y-122879000D01*
X150319268Y-122879000D01*
X149964750Y-122949518D01*
X149630801Y-123087844D01*
X149330256Y-123288662D01*
X149074662Y-123544256D01*
X148873844Y-123844801D01*
X148750000Y-124143787D01*
X148626156Y-123844801D01*
X148425338Y-123544256D01*
X148169744Y-123288662D01*
X147869199Y-123087844D01*
X147535250Y-122949518D01*
X147180732Y-122879000D01*
X146989345Y-122879000D01*
X147042477Y-122835396D01*
X147074888Y-122795903D01*
X149155908Y-120714884D01*
X149195396Y-120682477D01*
X149261437Y-120602006D01*
X149324734Y-120524879D01*
X149420840Y-120345075D01*
X149420841Y-120345074D01*
X149480024Y-120149976D01*
X149495000Y-119997919D01*
X149495000Y-119997910D01*
X149500006Y-119947082D01*
X149495000Y-119896254D01*
X149495000Y-119810107D01*
X149538487Y-119766620D01*
X149560498Y-119839180D01*
X149619463Y-119949494D01*
X149698815Y-120046185D01*
X149795506Y-120125537D01*
X149905820Y-120184502D01*
X150025518Y-120220812D01*
X150150000Y-120233072D01*
X150714250Y-120230000D01*
X150873000Y-120071250D01*
X150873000Y-118872000D01*
X150853000Y-118872000D01*
X150853000Y-118618000D01*
X150873000Y-118618000D01*
X150873000Y-117418750D01*
X150802250Y-117348000D01*
X150873000Y-117277250D01*
X150873000Y-116078000D01*
X150853000Y-116078000D01*
X150853000Y-115824000D01*
X150873000Y-115824000D01*
X150873000Y-114624750D01*
X150714250Y-114466000D01*
X150150000Y-114462928D01*
X150025518Y-114475188D01*
X149905820Y-114511498D01*
X149795506Y-114570463D01*
X149698815Y-114649815D01*
X149619463Y-114746506D01*
X149560498Y-114856820D01*
X149538487Y-114929380D01*
X149406632Y-114797525D01*
X149163411Y-114635010D01*
X148893158Y-114523068D01*
X148606260Y-114466000D01*
X148313740Y-114466000D01*
X148026842Y-114523068D01*
X147756589Y-114635010D01*
X147513368Y-114797525D01*
X147306525Y-115004368D01*
X147190000Y-115178760D01*
X147073475Y-115004368D01*
X146866632Y-114797525D01*
X146755000Y-114722935D01*
X146755000Y-114461018D01*
X146759040Y-114420000D01*
X146750781Y-114336140D01*
X146742918Y-114256311D01*
X146695172Y-114098913D01*
X146617636Y-113953854D01*
X146576088Y-113903227D01*
X146539439Y-113858570D01*
X146539437Y-113858568D01*
X146513291Y-113826709D01*
X146481433Y-113800564D01*
X145989868Y-113309000D01*
X151763721Y-113309000D01*
X151913869Y-113323722D01*
X152027246Y-113357953D01*
X152131819Y-113413555D01*
X152223596Y-113488407D01*
X152299091Y-113579664D01*
X152355419Y-113683844D01*
X152390440Y-113796976D01*
X152406001Y-113945031D01*
X152406001Y-114794145D01*
X152380537Y-114746506D01*
X152301185Y-114649815D01*
X152204494Y-114570463D01*
X152094180Y-114511498D01*
X151974482Y-114475188D01*
X151850000Y-114462928D01*
X151285750Y-114466000D01*
X151127000Y-114624750D01*
X151127000Y-115824000D01*
X151147000Y-115824000D01*
X151147000Y-116078000D01*
X151127000Y-116078000D01*
X151127000Y-117277250D01*
X151197750Y-117348000D01*
X151127000Y-117418750D01*
X151127000Y-118618000D01*
X151147000Y-118618000D01*
X151147000Y-118872000D01*
X151127000Y-118872000D01*
X151127000Y-120071250D01*
X151285750Y-120230000D01*
X151850000Y-120233072D01*
X151974482Y-120220812D01*
X152094180Y-120184502D01*
X152204494Y-120125537D01*
X152301185Y-120046185D01*
X152380537Y-119949494D01*
X152406001Y-119901856D01*
X152406000Y-128618721D01*
X152391278Y-128768869D01*
X152357047Y-128882246D01*
X152301446Y-128986817D01*
X152226594Y-129078595D01*
X152135335Y-129154091D01*
X152031160Y-129210419D01*
X151918024Y-129245440D01*
X151769979Y-129261000D01*
X106839279Y-129261000D01*
X106689131Y-129246278D01*
X106575754Y-129212047D01*
X106471183Y-129156446D01*
X106379405Y-129081594D01*
X106303909Y-128990335D01*
X106247581Y-128886160D01*
X106212560Y-128773024D01*
X106197000Y-128624979D01*
X106197000Y-126137409D01*
X111786000Y-126137409D01*
X111786000Y-126582591D01*
X111872851Y-127019218D01*
X112043214Y-127430511D01*
X112290544Y-127800666D01*
X112605334Y-128115456D01*
X112975489Y-128362786D01*
X113386782Y-128533149D01*
X113823409Y-128620000D01*
X114268591Y-128620000D01*
X114705218Y-128533149D01*
X115116511Y-128362786D01*
X115486666Y-128115456D01*
X115801456Y-127800666D01*
X116048786Y-127430511D01*
X116219149Y-127019218D01*
X116306000Y-126582591D01*
X116306000Y-126137409D01*
X116219149Y-125700782D01*
X116104559Y-125424137D01*
X119611469Y-125424137D01*
X119678206Y-125664025D01*
X119926892Y-125780924D01*
X120193606Y-125847061D01*
X120468097Y-125859895D01*
X120739817Y-125818931D01*
X120998326Y-125725744D01*
X121113794Y-125664025D01*
X121180531Y-125424137D01*
X120396000Y-124639605D01*
X119611469Y-125424137D01*
X116104559Y-125424137D01*
X116048786Y-125289489D01*
X115801456Y-124919334D01*
X115486666Y-124604544D01*
X115378242Y-124532097D01*
X118996105Y-124532097D01*
X119037069Y-124803817D01*
X119130256Y-125062326D01*
X119191975Y-125177794D01*
X119431863Y-125244531D01*
X120216395Y-124460000D01*
X120575605Y-124460000D01*
X121360137Y-125244531D01*
X121600025Y-125177794D01*
X121716924Y-124929108D01*
X121783061Y-124662394D01*
X121795895Y-124387903D01*
X121754931Y-124116183D01*
X121661744Y-123857674D01*
X121600025Y-123742206D01*
X121360137Y-123675469D01*
X120575605Y-124460000D01*
X120216395Y-124460000D01*
X119431863Y-123675469D01*
X119191975Y-123742206D01*
X119075076Y-123990892D01*
X119008939Y-124257606D01*
X118996105Y-124532097D01*
X115378242Y-124532097D01*
X115116511Y-124357214D01*
X114705218Y-124186851D01*
X114268591Y-124100000D01*
X113823409Y-124100000D01*
X113386782Y-124186851D01*
X112975489Y-124357214D01*
X112605334Y-124604544D01*
X112290544Y-124919334D01*
X112043214Y-125289489D01*
X111872851Y-125700782D01*
X111786000Y-126137409D01*
X106197000Y-126137409D01*
X106197000Y-115977409D01*
X111786000Y-115977409D01*
X111786000Y-116422591D01*
X111872851Y-116859218D01*
X112043214Y-117270511D01*
X112290544Y-117640666D01*
X112605334Y-117955456D01*
X112975489Y-118202786D01*
X113386782Y-118373149D01*
X113823409Y-118460000D01*
X114268591Y-118460000D01*
X114705218Y-118373149D01*
X115116511Y-118202786D01*
X115486666Y-117955456D01*
X115801456Y-117640666D01*
X116048786Y-117270511D01*
X116219149Y-116859218D01*
X116306000Y-116422591D01*
X116306000Y-115977409D01*
X116219149Y-115540782D01*
X116048786Y-115129489D01*
X115801456Y-114759334D01*
X115486666Y-114444544D01*
X115116511Y-114197214D01*
X114705218Y-114026851D01*
X114268591Y-113940000D01*
X113823409Y-113940000D01*
X113386782Y-114026851D01*
X112975489Y-114197214D01*
X112605334Y-114444544D01*
X112290544Y-114759334D01*
X112043214Y-115129489D01*
X111872851Y-115540782D01*
X111786000Y-115977409D01*
X106197000Y-115977409D01*
X106197000Y-113951279D01*
X106211722Y-113801131D01*
X106245953Y-113687754D01*
X106301555Y-113583181D01*
X106376407Y-113491404D01*
X106467664Y-113415909D01*
X106571844Y-113359581D01*
X106684976Y-113324560D01*
X106833022Y-113309000D01*
X131510132Y-113309000D01*
X130438574Y-114380559D01*
G37*
X130438574Y-114380559D02*
X130406710Y-114406709D01*
X130330503Y-114499568D01*
X130302364Y-114533855D01*
X130224828Y-114678914D01*
X130177082Y-114836312D01*
X130160960Y-115000000D01*
X130165001Y-115041028D01*
X130165000Y-116386715D01*
X130082795Y-116509744D01*
X130004774Y-116698102D01*
X129965000Y-116898061D01*
X129965000Y-117101939D01*
X130004774Y-117301898D01*
X130082795Y-117490256D01*
X130196063Y-117659774D01*
X130260553Y-117724264D01*
X129419814Y-118565004D01*
X129313285Y-118565004D01*
X129190256Y-118482799D01*
X129001898Y-118404778D01*
X128801939Y-118365004D01*
X128598061Y-118365004D01*
X128398102Y-118404778D01*
X128209744Y-118482799D01*
X128040226Y-118596067D01*
X127896063Y-118740230D01*
X127782795Y-118909748D01*
X127704774Y-119098106D01*
X127665000Y-119298065D01*
X127665000Y-119501943D01*
X127704774Y-119701902D01*
X127782795Y-119890260D01*
X127832735Y-119965000D01*
X127814711Y-119965000D01*
X125263807Y-117414097D01*
X125231396Y-117374604D01*
X125073797Y-117245266D01*
X124893993Y-117149159D01*
X124698895Y-117089976D01*
X124546838Y-117075000D01*
X124546828Y-117075000D01*
X124496000Y-117069994D01*
X124445172Y-117075000D01*
X124269028Y-117075000D01*
X124226537Y-116995506D01*
X124147185Y-116898815D01*
X124050494Y-116819463D01*
X123940180Y-116760498D01*
X123820482Y-116724188D01*
X123696000Y-116711928D01*
X122176000Y-116711928D01*
X122051518Y-116724188D01*
X121931820Y-116760498D01*
X121821506Y-116819463D01*
X121724815Y-116898815D01*
X121645463Y-116995506D01*
X121586498Y-117105820D01*
X121550188Y-117225518D01*
X121537928Y-117350000D01*
X121537928Y-118578082D01*
X121479567Y-118490739D01*
X121285261Y-118296433D01*
X121056780Y-118143767D01*
X120802907Y-118038609D01*
X120533396Y-117985000D01*
X120258604Y-117985000D01*
X119989093Y-118038609D01*
X119735220Y-118143767D01*
X119506739Y-118296433D01*
X119312433Y-118490739D01*
X119159767Y-118719220D01*
X119054609Y-118973093D01*
X119001000Y-119242604D01*
X119001000Y-119517396D01*
X119054609Y-119786907D01*
X119159767Y-120040780D01*
X119312433Y-120269261D01*
X119506739Y-120463567D01*
X119735220Y-120616233D01*
X119816740Y-120650000D01*
X119735220Y-120683767D01*
X119506739Y-120836433D01*
X119312433Y-121030739D01*
X119159767Y-121259220D01*
X119054609Y-121513093D01*
X119001000Y-121782604D01*
X119001000Y-122057396D01*
X119054609Y-122326907D01*
X119159767Y-122580780D01*
X119312433Y-122809261D01*
X119506739Y-123003567D01*
X119735220Y-123156233D01*
X119811501Y-123187830D01*
X119793674Y-123194256D01*
X119678206Y-123255975D01*
X119611469Y-123495863D01*
X120396000Y-124280395D01*
X121180531Y-123495863D01*
X121113794Y-123255975D01*
X120974293Y-123190400D01*
X121056780Y-123156233D01*
X121285261Y-123003567D01*
X121479567Y-122809261D01*
X121632233Y-122580780D01*
X121737391Y-122326907D01*
X121791000Y-122057396D01*
X121791000Y-121782604D01*
X121737391Y-121513093D01*
X121632233Y-121259220D01*
X121479567Y-121030739D01*
X121285261Y-120836433D01*
X121056780Y-120683767D01*
X120975260Y-120650000D01*
X121056780Y-120616233D01*
X121285261Y-120463567D01*
X121479567Y-120269261D01*
X121632233Y-120040780D01*
X121737391Y-119786907D01*
X121791000Y-119517396D01*
X121791000Y-119375501D01*
X121821506Y-119400537D01*
X121931820Y-119459502D01*
X122051518Y-119495812D01*
X122139467Y-119504474D01*
X122046739Y-119566433D01*
X121852433Y-119760739D01*
X121699767Y-119989220D01*
X121594609Y-120243093D01*
X121541000Y-120512604D01*
X121541000Y-120787396D01*
X121594609Y-121056907D01*
X121699767Y-121310780D01*
X121852433Y-121539261D01*
X122046739Y-121733567D01*
X122275220Y-121886233D01*
X122356740Y-121920000D01*
X122275220Y-121953767D01*
X122046739Y-122106433D01*
X121852433Y-122300739D01*
X121699767Y-122529220D01*
X121594609Y-122783093D01*
X121541000Y-123052604D01*
X121541000Y-123327396D01*
X121594609Y-123596907D01*
X121699767Y-123850780D01*
X121852433Y-124079261D01*
X122046739Y-124273567D01*
X122275220Y-124426233D01*
X122529093Y-124531391D01*
X122798604Y-124585000D01*
X123073396Y-124585000D01*
X123342907Y-124531391D01*
X123596780Y-124426233D01*
X123825261Y-124273567D01*
X123863828Y-124235000D01*
X123997435Y-124235000D01*
X123965000Y-124398061D01*
X123965000Y-124601939D01*
X124004774Y-124801898D01*
X124082795Y-124990256D01*
X124165000Y-125113285D01*
X124165000Y-125380484D01*
X124160960Y-125421502D01*
X124165000Y-125462520D01*
X124177082Y-125585190D01*
X124224828Y-125742588D01*
X124302364Y-125887647D01*
X124406709Y-126014793D01*
X124438579Y-126040948D01*
X126659068Y-128261438D01*
X126685218Y-128293302D01*
X126812363Y-128397647D01*
X126957422Y-128475183D01*
X127114820Y-128522929D01*
X127237490Y-128535011D01*
X127237500Y-128535011D01*
X127278508Y-128539050D01*
X127319516Y-128535011D01*
X147472971Y-128535011D01*
X147513989Y-128539051D01*
X147555007Y-128535011D01*
X147555008Y-128535011D01*
X147677678Y-128522929D01*
X147835076Y-128475183D01*
X147980135Y-128397647D01*
X148107280Y-128293302D01*
X148133435Y-128261432D01*
X149930551Y-126464316D01*
X149964750Y-126478482D01*
X150319268Y-126549000D01*
X150680732Y-126549000D01*
X151035250Y-126478482D01*
X151369199Y-126340156D01*
X151669744Y-126139338D01*
X151925338Y-125883744D01*
X152126156Y-125583199D01*
X152264482Y-125249250D01*
X152335000Y-124894732D01*
X152335000Y-124533268D01*
X152264482Y-124178750D01*
X152126156Y-123844801D01*
X151925338Y-123544256D01*
X151669744Y-123288662D01*
X151369199Y-123087844D01*
X151035250Y-122949518D01*
X150680732Y-122879000D01*
X150319268Y-122879000D01*
X149964750Y-122949518D01*
X149630801Y-123087844D01*
X149330256Y-123288662D01*
X149074662Y-123544256D01*
X148873844Y-123844801D01*
X148750000Y-124143787D01*
X148626156Y-123844801D01*
X148425338Y-123544256D01*
X148169744Y-123288662D01*
X147869199Y-123087844D01*
X147535250Y-122949518D01*
X147180732Y-122879000D01*
X146989345Y-122879000D01*
X147042477Y-122835396D01*
X147074888Y-122795903D01*
X149155908Y-120714884D01*
X149195396Y-120682477D01*
X149261437Y-120602006D01*
X149324734Y-120524879D01*
X149420840Y-120345075D01*
X149420841Y-120345074D01*
X149480024Y-120149976D01*
X149495000Y-119997919D01*
X149495000Y-119997910D01*
X149500006Y-119947082D01*
X149495000Y-119896254D01*
X149495000Y-119810107D01*
X149538487Y-119766620D01*
X149560498Y-119839180D01*
X149619463Y-119949494D01*
X149698815Y-120046185D01*
X149795506Y-120125537D01*
X149905820Y-120184502D01*
X150025518Y-120220812D01*
X150150000Y-120233072D01*
X150714250Y-120230000D01*
X150873000Y-120071250D01*
X150873000Y-118872000D01*
X150853000Y-118872000D01*
X150853000Y-118618000D01*
X150873000Y-118618000D01*
X150873000Y-117418750D01*
X150802250Y-117348000D01*
X150873000Y-117277250D01*
X150873000Y-116078000D01*
X150853000Y-116078000D01*
X150853000Y-115824000D01*
X150873000Y-115824000D01*
X150873000Y-114624750D01*
X150714250Y-114466000D01*
X150150000Y-114462928D01*
X150025518Y-114475188D01*
X149905820Y-114511498D01*
X149795506Y-114570463D01*
X149698815Y-114649815D01*
X149619463Y-114746506D01*
X149560498Y-114856820D01*
X149538487Y-114929380D01*
X149406632Y-114797525D01*
X149163411Y-114635010D01*
X148893158Y-114523068D01*
X148606260Y-114466000D01*
X148313740Y-114466000D01*
X148026842Y-114523068D01*
X147756589Y-114635010D01*
X147513368Y-114797525D01*
X147306525Y-115004368D01*
X147190000Y-115178760D01*
X147073475Y-115004368D01*
X146866632Y-114797525D01*
X146755000Y-114722935D01*
X146755000Y-114461018D01*
X146759040Y-114420000D01*
X146750781Y-114336140D01*
X146742918Y-114256311D01*
X146695172Y-114098913D01*
X146617636Y-113953854D01*
X146576088Y-113903227D01*
X146539439Y-113858570D01*
X146539437Y-113858568D01*
X146513291Y-113826709D01*
X146481433Y-113800564D01*
X145989868Y-113309000D01*
X151763721Y-113309000D01*
X151913869Y-113323722D01*
X152027246Y-113357953D01*
X152131819Y-113413555D01*
X152223596Y-113488407D01*
X152299091Y-113579664D01*
X152355419Y-113683844D01*
X152390440Y-113796976D01*
X152406001Y-113945031D01*
X152406001Y-114794145D01*
X152380537Y-114746506D01*
X152301185Y-114649815D01*
X152204494Y-114570463D01*
X152094180Y-114511498D01*
X151974482Y-114475188D01*
X151850000Y-114462928D01*
X151285750Y-114466000D01*
X151127000Y-114624750D01*
X151127000Y-115824000D01*
X151147000Y-115824000D01*
X151147000Y-116078000D01*
X151127000Y-116078000D01*
X151127000Y-117277250D01*
X151197750Y-117348000D01*
X151127000Y-117418750D01*
X151127000Y-118618000D01*
X151147000Y-118618000D01*
X151147000Y-118872000D01*
X151127000Y-118872000D01*
X151127000Y-120071250D01*
X151285750Y-120230000D01*
X151850000Y-120233072D01*
X151974482Y-120220812D01*
X152094180Y-120184502D01*
X152204494Y-120125537D01*
X152301185Y-120046185D01*
X152380537Y-119949494D01*
X152406001Y-119901856D01*
X152406000Y-128618721D01*
X152391278Y-128768869D01*
X152357047Y-128882246D01*
X152301446Y-128986817D01*
X152226594Y-129078595D01*
X152135335Y-129154091D01*
X152031160Y-129210419D01*
X151918024Y-129245440D01*
X151769979Y-129261000D01*
X106839279Y-129261000D01*
X106689131Y-129246278D01*
X106575754Y-129212047D01*
X106471183Y-129156446D01*
X106379405Y-129081594D01*
X106303909Y-128990335D01*
X106247581Y-128886160D01*
X106212560Y-128773024D01*
X106197000Y-128624979D01*
X106197000Y-126137409D01*
X111786000Y-126137409D01*
X111786000Y-126582591D01*
X111872851Y-127019218D01*
X112043214Y-127430511D01*
X112290544Y-127800666D01*
X112605334Y-128115456D01*
X112975489Y-128362786D01*
X113386782Y-128533149D01*
X113823409Y-128620000D01*
X114268591Y-128620000D01*
X114705218Y-128533149D01*
X115116511Y-128362786D01*
X115486666Y-128115456D01*
X115801456Y-127800666D01*
X116048786Y-127430511D01*
X116219149Y-127019218D01*
X116306000Y-126582591D01*
X116306000Y-126137409D01*
X116219149Y-125700782D01*
X116104559Y-125424137D01*
X119611469Y-125424137D01*
X119678206Y-125664025D01*
X119926892Y-125780924D01*
X120193606Y-125847061D01*
X120468097Y-125859895D01*
X120739817Y-125818931D01*
X120998326Y-125725744D01*
X121113794Y-125664025D01*
X121180531Y-125424137D01*
X120396000Y-124639605D01*
X119611469Y-125424137D01*
X116104559Y-125424137D01*
X116048786Y-125289489D01*
X115801456Y-124919334D01*
X115486666Y-124604544D01*
X115378242Y-124532097D01*
X118996105Y-124532097D01*
X119037069Y-124803817D01*
X119130256Y-125062326D01*
X119191975Y-125177794D01*
X119431863Y-125244531D01*
X120216395Y-124460000D01*
X120575605Y-124460000D01*
X121360137Y-125244531D01*
X121600025Y-125177794D01*
X121716924Y-124929108D01*
X121783061Y-124662394D01*
X121795895Y-124387903D01*
X121754931Y-124116183D01*
X121661744Y-123857674D01*
X121600025Y-123742206D01*
X121360137Y-123675469D01*
X120575605Y-124460000D01*
X120216395Y-124460000D01*
X119431863Y-123675469D01*
X119191975Y-123742206D01*
X119075076Y-123990892D01*
X119008939Y-124257606D01*
X118996105Y-124532097D01*
X115378242Y-124532097D01*
X115116511Y-124357214D01*
X114705218Y-124186851D01*
X114268591Y-124100000D01*
X113823409Y-124100000D01*
X113386782Y-124186851D01*
X112975489Y-124357214D01*
X112605334Y-124604544D01*
X112290544Y-124919334D01*
X112043214Y-125289489D01*
X111872851Y-125700782D01*
X111786000Y-126137409D01*
X106197000Y-126137409D01*
X106197000Y-115977409D01*
X111786000Y-115977409D01*
X111786000Y-116422591D01*
X111872851Y-116859218D01*
X112043214Y-117270511D01*
X112290544Y-117640666D01*
X112605334Y-117955456D01*
X112975489Y-118202786D01*
X113386782Y-118373149D01*
X113823409Y-118460000D01*
X114268591Y-118460000D01*
X114705218Y-118373149D01*
X115116511Y-118202786D01*
X115486666Y-117955456D01*
X115801456Y-117640666D01*
X116048786Y-117270511D01*
X116219149Y-116859218D01*
X116306000Y-116422591D01*
X116306000Y-115977409D01*
X116219149Y-115540782D01*
X116048786Y-115129489D01*
X115801456Y-114759334D01*
X115486666Y-114444544D01*
X115116511Y-114197214D01*
X114705218Y-114026851D01*
X114268591Y-113940000D01*
X113823409Y-113940000D01*
X113386782Y-114026851D01*
X112975489Y-114197214D01*
X112605334Y-114444544D01*
X112290544Y-114759334D01*
X112043214Y-115129489D01*
X111872851Y-115540782D01*
X111786000Y-115977409D01*
X106197000Y-115977409D01*
X106197000Y-113951279D01*
X106211722Y-113801131D01*
X106245953Y-113687754D01*
X106301555Y-113583181D01*
X106376407Y-113491404D01*
X106467664Y-113415909D01*
X106571844Y-113359581D01*
X106684976Y-113324560D01*
X106833022Y-113309000D01*
X131510132Y-113309000D01*
X130438574Y-114380559D01*
G36*
X142521514Y-123151164D02*
G01*
X142401626Y-123436020D01*
X143500000Y-124534395D01*
X144598374Y-123436020D01*
X144478486Y-123151164D01*
X144445960Y-123135000D01*
X146060227Y-123135000D01*
X145830256Y-123288662D01*
X145574662Y-123544256D01*
X145373844Y-123844801D01*
X145246810Y-124151489D01*
X145181846Y-123958167D01*
X145062836Y-123735514D01*
X144777980Y-123615626D01*
X143679605Y-124714000D01*
X143693748Y-124728142D01*
X143514142Y-124907748D01*
X143500000Y-124893605D01*
X142401626Y-125991980D01*
X142516533Y-126265000D01*
X140981678Y-126265000D01*
X141169744Y-126139338D01*
X141425338Y-125883744D01*
X141626156Y-125583199D01*
X141753190Y-125276511D01*
X141818154Y-125469833D01*
X141937164Y-125692486D01*
X142222020Y-125812374D01*
X143320395Y-124714000D01*
X142222020Y-123615626D01*
X141937164Y-123735514D01*
X141776301Y-124059210D01*
X141752031Y-124148690D01*
X141626156Y-123844801D01*
X141425338Y-123544256D01*
X141169744Y-123288662D01*
X140939773Y-123135000D01*
X142551755Y-123135000D01*
X142521514Y-123151164D01*
G37*
X142521514Y-123151164D02*
X142401626Y-123436020D01*
X143500000Y-124534395D01*
X144598374Y-123436020D01*
X144478486Y-123151164D01*
X144445960Y-123135000D01*
X146060227Y-123135000D01*
X145830256Y-123288662D01*
X145574662Y-123544256D01*
X145373844Y-123844801D01*
X145246810Y-124151489D01*
X145181846Y-123958167D01*
X145062836Y-123735514D01*
X144777980Y-123615626D01*
X143679605Y-124714000D01*
X143693748Y-124728142D01*
X143514142Y-124907748D01*
X143500000Y-124893605D01*
X142401626Y-125991980D01*
X142516533Y-126265000D01*
X140981678Y-126265000D01*
X141169744Y-126139338D01*
X141425338Y-125883744D01*
X141626156Y-125583199D01*
X141753190Y-125276511D01*
X141818154Y-125469833D01*
X141937164Y-125692486D01*
X142222020Y-125812374D01*
X143320395Y-124714000D01*
X142222020Y-123615626D01*
X141937164Y-123735514D01*
X141776301Y-124059210D01*
X141752031Y-124148690D01*
X141626156Y-123844801D01*
X141425338Y-123544256D01*
X141169744Y-123288662D01*
X140939773Y-123135000D01*
X142551755Y-123135000D01*
X142521514Y-123151164D01*
M02*
